<?xml version="1.0" encoding="UTF-8" standalone="no"?>
<svg
   width="210mm"
   height="127mm"
   viewBox="0 0 210 127"
   version="1.1"
   id="svg1"
   sodipodi:docname="2026-03-24.svg"
   inkscape:export-filename="2026-03-24.pdf"
   inkscape:export-xdpi="96"
   inkscape:export-ydpi="96"
   inkscape:version="1.4.3 (0d15f75042, 2025-12-25)"
   xmlns:inkscape="http://www.inkscape.org/namespaces/inkscape"
   xmlns:sodipodi="http://sodipodi.sourceforge.net/DTD/sodipodi-0.dtd"
   xmlns="http://www.w3.org/2000/svg"
   xmlns:svg="http://www.w3.org/2000/svg">
  <sodipodi:namedview
     id="namedview1"
     pagecolor="#ffffff"
     bordercolor="#000000"
     borderopacity="0.25"
     inkscape:showpageshadow="2"
     inkscape:pageopacity="0.0"
     inkscape:pagecheckerboard="0"
     inkscape:deskcolor="#d1d1d1"
     inkscape:document-units="mm"
     showgrid="true"
     inkscape:zoom="0.59651318"
     inkscape:cx="422.45504"
     inkscape:cy="383.05943"
     inkscape:window-width="990"
     inkscape:window-height="1136"
     inkscape:window-x="0"
     inkscape:window-y="0"
     inkscape:window-maximized="1"
     inkscape:current-layer="svg1">
    <inkscape:grid
       id="grid1"
       units="mm"
       originx="0"
       originy="0"
       spacingx="0.99999998"
       spacingy="1"
       empcolor="#0099e5"
       empopacity="0.30196078"
       color="#0099e5"
       opacity="0.14901961"
       empspacing="5"
       enabled="true"
       visible="true" />
  </sodipodi:namedview>
  <defs
     id="defs1">
    <g
       id="g5045">
      <g
         id="g5660">
        <path
           d="m 7.65625,-10.453125 c 0,-0.453125 -0.03125,-0.46875 -0.171875,-0.46875 -0.09375,0 -0.125,0.01563 -0.421875,0.390625 -0.078125,0.09375 -0.296875,0.34375 -0.375,0.4375 -0.796875,-0.828125 -1.90625,-0.859375 -2.328125,-0.859375 -2.75,0 -3.734375,1.4375 -3.734375,2.875 0,2.234375 2.515625,2.75 3.234375,2.90625 1.5625,0.3125 2.109375,0.40625 2.640625,0.859375 0.3125,0.296875 0.859375,0.84375 0.859375,1.734375 0,1.046875 -0.59375,2.375 -2.875,2.375 -2.15625,0 -2.921875,-1.625 -3.375,-3.8125 -0.0625,-0.34375 -0.0625,-0.375 -0.265625,-0.375 -0.203125,0 -0.21875,0.03125 -0.21875,0.53125 v 3.5625 c 0,0.453125 0.015625,0.46875 0.171875,0.46875 0.125,0 0.140625,-0.015625 0.265625,-0.21875 0.15625,-0.21875 0.53125,-0.828125 0.671875,-1.0625 0.5,0.65625 1.359375,1.3125 2.75,1.3125 C 6.9375,0.203125 8.25,-1.140625 8.25,-3.078125 8.25,-4.34375 7.578125,-5 7.265625,-5.296875 6.515625,-6.078125 5.65625,-6.25 4.609375,-6.4375 3.25,-6.734375 1.515625,-7.09375 1.515625,-8.59375 c 0,-0.65625 0.34375,-2.015625 2.84375,-2.015625 2.65625,0 2.796875,2.484375 2.859375,3.28125 0.015625,0.109375 0.140625,0.140625 0.21875,0.140625 0.21875,0 0.21875,-0.078125 0.21875,-0.5 z m 0,0"
           id="path8332" />
      </g>
      <g
         id="g4042">
        <path
           d="m 16.75,-7.53125 c 0,-1.234375 -0.21875,-3.328125 -3.171875,-3.328125 -1.6875,0 -2.84375,1.140625 -3.296875,2.484375 H 10.26562 C 9.96875,-10.40625 8.5,-10.859375 7.109375,-10.859375 c -1.953125,0 -2.96875,1.515625 -3.34375,2.515625 h -0.03125 v -2.515625 L 0.8125,-10.578125 V -9.9375 c 1.46875,0 1.6875,0.15625 1.6875,1.34375 v 6.890625 c 0,0.9375 -0.09375,1.0625 -1.6875,1.0625 V 0 C 1.40625,-0.046875 2.5,-0.046875 3.140625,-0.046875 c 0.65625,0 1.765625,0 2.359375,0.046875 v -0.640625 c -1.578125,0 -1.6875,-0.109375 -1.6875,-1.0625 V -6.46875 c 0,-2.28125 1.390625,-3.984375 3.125,-3.984375 1.828125,0 2.03125,1.625 2.03125,2.828125 v 5.921875 c 0,0.9375 -0.09375,1.0625 -1.6875,1.0625 V 0 c 0.59375,-0.046875 1.6875,-0.046875 2.328125,-0.046875 0.65625,0 1.765625,0 2.359375,0.046875 v -0.640625 c -1.578125,0 -1.6875,-0.109375 -1.6875,-1.0625 V -6.46875 c 0,-2.28125 1.390625,-3.984375 3.125,-3.984375 1.828125,0 2.03125,1.625 2.03125,2.828125 v 5.921875 c 0,0.9375 -0.09375,1.0625 -1.6875,1.0625 V 0 c 0.59375,-0.046875 1.6875,-0.046875 2.328125,-0.046875 0.65625,0 1.765625,0 2.359375,0.046875 v -0.640625 c -1.59375,0 -1.6875,-0.109375 -1.6875,-1.0625 z m 0,0"
           id="path4748" />
      </g>
      <g
         id="g7953">
        <path
           d="m 8.921875,-6.421875 c 0,-1.625 0,-2.5 -1.046875,-3.46875 -0.90625,-0.8125 -1.984375,-1.0625 -2.8125,-1.0625 -1.96875,0 -3.375,1.53125 -3.375,3.171875 0,0.921875 0.734375,0.96875 0.890625,0.96875 0.328125,0 0.890625,-0.203125 0.890625,-0.890625 0,-0.625 -0.46875,-0.890625 -0.890625,-0.890625 -0.09375,0 -0.21875,0.015625 -0.296875,0.046875 C 2.796875,-10.109375 4.140625,-10.5625 5,-10.5625 c 1.25,0 2.609375,1.09375 2.609375,3.171875 v 1.09375 C 6.140625,-6.25 4.390625,-6.046875 3,-5.296875 1.4375,-4.4375 0.984375,-3.203125 0.984375,-2.25 c 0,1.90625 2.234375,2.453125 3.546875,2.453125 1.359375,0 2.625,-0.765625 3.171875,-2.1875 0.046875,1.09375 0.75,2.078125 1.84375,2.078125 C 10.0625,0.09375 11.375,-0.25 11.375,-2.203125 V -3.59375 h -0.453125 v 1.40625 c 0,1.515625 -0.65625,1.71875 -0.984375,1.71875 -1.015625,0 -1.015625,-1.296875 -1.015625,-2.375 z m -1.3125,2.984375 c 0,2.15625 -1.53125,3.234375 -2.90625,3.234375 C 3.46875,-0.203125 2.5,-1.109375 2.5,-2.25 2.5,-3 2.828125,-4.3125 4.265625,-5.109375 5.453125,-5.78125 6.8125,-5.875 7.609375,-5.921875 Z m 0,0"
           id="path6213" />
      </g>
      <g
         id="g5064">
        <path
           d="m 3.796875,-17.203125 -2.953125,0.28125 v 0.640625 c 1.453125,0 1.6875,0.15625 1.6875,1.34375 v 13.234375 c 0,0.9375 -0.109375,1.0625 -1.6875,1.0625 V 0 c 0.59375,-0.046875 1.6875,-0.046875 2.296875,-0.046875 0.65625,0 1.734375,0 2.34375,0.046875 v -0.640625 c -1.59375,0 -1.6875,-0.109375 -1.6875,-1.0625 z m 0,0"
           id="path5484" />
      </g>
      <g
         id="g3493">
        <path
           d="m 7.65625,-15.4375 c -0.625,-1.765625 -2.578125,-1.765625 -2.890625,-1.765625 -0.15625,0 -0.421875,0 -0.421875,0.25 0,0.203125 0.140625,0.21875 0.265625,0.25 0.375,0.04687 0.671875,0.09375 1.0625,0.8125 0.25,0.484375 2.796875,7.890625 2.796875,7.9375 0,0.015625 -0.015625,0.046875 -0.21875,0.25 L 1.8125,-1.1875 c -0.296875,0.296875 -0.5,0.5 -0.5,0.8125 0,0.34375 0.296875,0.640625 0.6875,0.640625 0.109375,0 0.375,-0.046875 0.53125,-0.1875 0.390625,-0.375 3.9375,-4.71875 6.1875,-7.390625 0.65625,1.9375 1.4375,4.21875 2.203125,6.296875 0.125,0.375 0.25,0.71875 0.59375,1.046875 0.25,0.21875 0.3125,0.21875 1,0.21875 h 0.46875 c 0.09375,0 0.28125,0 0.28125,-0.203125 0,-0.09375 -0.03125,-0.125 -0.125,-0.21875 -0.234375,-0.28125 -0.40625,-0.71875 -0.5,-1.015625 z m 0,0"
           id="path9700" />
      </g>
    </g>
    <g
       id="g5014">
      <g
         id="g1263">
        <path
           d="m 16.75,-7.53125 c 0,-1.234375 -0.21875,-3.328125 -3.171875,-3.328125 -1.6875,0 -2.84375,1.140625 -3.296875,2.484375 H 10.26562 C 9.96875,-10.40625 8.5,-10.859375 7.109375,-10.859375 c -1.953125,0 -2.96875,1.515625 -3.34375,2.515625 h -0.03125 v -2.515625 L 0.8125,-10.578125 V -9.9375 c 1.46875,0 1.6875,0.15625 1.6875,1.34375 v 6.890625 c 0,0.9375 -0.09375,1.0625 -1.6875,1.0625 V 0 C 1.40625,-0.046875 2.5,-0.046875 3.140625,-0.046875 c 0.65625,0 1.765625,0 2.359375,0.046875 v -0.640625 c -1.578125,0 -1.6875,-0.109375 -1.6875,-1.0625 V -6.46875 c 0,-2.28125 1.390625,-3.984375 3.125,-3.984375 1.828125,0 2.03125,1.625 2.03125,2.828125 v 5.921875 c 0,0.9375 -0.09375,1.0625 -1.6875,1.0625 V 0 c 0.59375,-0.046875 1.6875,-0.046875 2.328125,-0.046875 0.65625,0 1.765625,0 2.359375,0.046875 v -0.640625 c -1.578125,0 -1.6875,-0.109375 -1.6875,-1.0625 V -6.46875 c 0,-2.28125 1.390625,-3.984375 3.125,-3.984375 1.828125,0 2.03125,1.625 2.03125,2.828125 v 5.921875 c 0,0.9375 -0.09375,1.0625 -1.6875,1.0625 V 0 c 0.59375,-0.046875 1.6875,-0.046875 2.328125,-0.046875 0.65625,0 1.765625,0 2.359375,0.046875 v -0.640625 c -1.59375,0 -1.6875,-0.109375 -1.6875,-1.0625 z m 0,0"
           id="path2795" />
      </g>
      <g
         id="g3622">
        <path
           d="m 9.4375,-5.828125 c 0.109375,-0.09375 0.109375,-0.140625 0.109375,-0.390625 0,-2.53125 -1.34375,-4.734375 -4.171875,-4.734375 -2.625,0 -4.703125,2.5 -4.703125,5.546875 0,3.21875 2.34375,5.609375 4.984375,5.609375 2.765625,0 3.859375,-2.625 3.859375,-3.15625 C 9.515625,-3.125 9.375,-3.125 9.3125,-3.125 9.140625,-3.125 9.125,-3.078125 9.015625,-2.78125 8.46875,-1.09375 7.109375,-0.25 5.828125,-0.25 4.765625,-0.25 3.6875,-0.84375 3.015625,-1.9375 2.25,-3.203125 2.25,-4.65625 2.25,-5.828125 Z M 2.28125,-6.1875 c 0.171875,-3.578125 2.078125,-4.375 3.078125,-4.375 1.671875,0 2.8125,1.59375 2.84375,4.375 z m 0,0"
           id="path6080" />
      </g>
      <g
         id="g124">
        <path
           d="m 7.234375,-16.921875 v 0.640625 c 1.46875,0 1.6875,0.15625 1.6875,1.34375 v 5.796875 c -0.09375,-0.125 -1.109375,-1.71875 -3.125,-1.71875 -2.53125,0 -4.984375,2.265625 -4.984375,5.53125 0,3.25 2.3125,5.53125 4.734375,5.53125 2.109375,0 3.203125,-1.640625 3.328125,-1.8125 v 1.8125 L 11.875,0 v -0.640625 c -1.46875,0 -1.6875,-0.15625 -1.6875,-1.34375 v -15.21875 z M 8.875,-2.96875 c 0,0.734375 -0.453125,1.40625 -1.015625,1.90625 -0.84375,0.734375 -1.6875,0.859375 -2.15625,0.859375 -0.71875,0 -3.296875,-0.359375 -3.296875,-5.09375 0,-4.859375 2.875,-5.15625 3.515625,-5.15625 1.140625,0 2.0625,0.640625 2.625,1.53125 C 8.875,-8.40625 8.875,-8.328125 8.875,-7.875 Z m 0,0"
           id="path4552" />
      </g>
      <g
         id="g7911">
        <path
           d="m 3.84375,-15.265625 c 0,-0.546875 -0.453125,-1.015625 -1.015625,-1.015625 -0.546875,0 -1.015625,0.453125 -1.015625,1.015625 0,0.546875 0.4375,1.015625 1.015625,1.015625 0.546875,0 1.015625,-0.4375 1.015625,-1.015625 z m -2.90625,4.6875 V -9.9375 c 1.390625,0 1.59375,0.15625 1.59375,1.34375 v 6.890625 c 0,0.9375 -0.109375,1.0625 -1.6875,1.0625 V 0 C 1.4375,-0.046875 2.5,-0.046875 3.125,-0.046875 c 0.59375,0 1.609375,0 2.171875,0.046875 v -0.640625 c -1.453125,0 -1.5,-0.15625 -1.5,-1.046875 v -9.171875 z m 0,0"
           id="path634" />
      </g>
      <g
         id="g1289">
        <path
           d="M 7.28125,-10.578125 V -9.9375 c 1.46875,0 1.6875,0.15625 1.6875,1.34375 v 4.5 c 0,2.09375 -1.109375,3.890625 -2.953125,3.890625 -2.03125,0 -2.203125,-1.203125 -2.203125,-2.5 v -8.15625 l -3,0.28125 V -9.9375 c 1,0 1.671875,0 1.6875,0.984375 V -4.1875 c 0,1.65625 0,2.71875 0.640625,3.421875 0.328125,0.3125 0.953125,0.96875 2.734375,0.96875 2.109375,0 2.921875,-1.796875 3.125,-2.3125 h 0.015625 v 2.3125 L 11.96875,0 v -0.640625 c -1.46875,0 -1.6875,-0.15625 -1.6875,-1.34375 v -8.875 z m 0,0"
           id="path134" />
      </g>
      <g
         id="g9120">
        <path
           d="m 7.65625,-15.4375 c -0.625,-1.765625 -2.578125,-1.765625 -2.890625,-1.765625 -0.15625,0 -0.421875,0 -0.421875,0.25 0,0.203125 0.140625,0.21875 0.265625,0.25 0.375,0.04687 0.671875,0.09375 1.0625,0.8125 0.25,0.484375 2.796875,7.890625 2.796875,7.9375 0,0.015625 -0.015625,0.046875 -0.21875,0.25 L 1.8125,-1.1875 c -0.296875,0.296875 -0.5,0.5 -0.5,0.8125 0,0.34375 0.296875,0.640625 0.6875,0.640625 0.109375,0 0.375,-0.046875 0.53125,-0.1875 0.390625,-0.375 3.9375,-4.71875 6.1875,-7.390625 0.65625,1.9375 1.4375,4.21875 2.203125,6.296875 0.125,0.375 0.25,0.71875 0.59375,1.046875 0.25,0.21875 0.3125,0.21875 1,0.21875 h 0.46875 c 0.09375,0 0.28125,0 0.28125,-0.203125 0,-0.09375 -0.03125,-0.125 -0.125,-0.21875 -0.234375,-0.28125 -0.40625,-0.71875 -0.5,-1.015625 z m 0,0"
           id="path4426" />
      </g>
    </g>
    <g
       id="g4560">
      <g
         id="g4234">
        <path
           d="m 3.71875,-17.203125 -2.953125,0.28125 v 0.640625 c 1.46875,0 1.6875,0.15625 1.6875,1.34375 V 0 H 2.90625 L 3.625,-1.765625 c 0.71875,1.171875 1.78125,1.96875 3.21875,1.96875 2.46875,0 4.984375,-2.1875 4.984375,-5.5625 0,-3.171875 -2.234375,-5.5 -4.734375,-5.5 -1.546875,0 -2.640625,0.828125 -3.375,1.796875 z M 3.765625,-7.8125 c 0,-0.4375 0,-0.515625 0.34375,-1.03125 0.96875,-1.484375 2.359375,-1.609375 2.828125,-1.609375 0.75,0 3.296875,0.390625 3.296875,5.078125 0,4.90625 -2.921875,5.171875 -3.515625,5.171875 -0.765625,0 -1.890625,-0.296875 -2.671875,-1.734375 -0.28125,-0.46875 -0.28125,-0.515625 -0.28125,-0.96875 z m 0,0"
           id="path3087" />
      </g>
      <g
         id="g3869">
        <path
           d="m 3.84375,-15.265625 c 0,-0.546875 -0.453125,-1.015625 -1.015625,-1.015625 -0.546875,0 -1.015625,0.453125 -1.015625,1.015625 0,0.546875 0.4375,1.015625 1.015625,1.015625 0.546875,0 1.015625,-0.4375 1.015625,-1.015625 z m -2.90625,4.6875 V -9.9375 c 1.390625,0 1.59375,0.15625 1.59375,1.34375 v 6.890625 c 0,0.9375 -0.109375,1.0625 -1.6875,1.0625 V 0 C 1.4375,-0.046875 2.5,-0.046875 3.125,-0.046875 c 0.59375,0 1.609375,0 2.171875,0.046875 v -0.640625 c -1.453125,0 -1.5,-0.15625 -1.5,-1.046875 v -9.171875 z m 0,0"
           id="path2859" />
      </g>
      <g
         id="g9053">
        <path
           d="m 2.75,-4.453125 c 0.46875,0.359375 1.296875,0.78125 2.28125,0.78125 1.953125,0 3.640625,-1.53125 3.640625,-3.59375 0,-0.640625 -0.203125,-1.625 -0.9375,-2.40625 0.6875,-0.734375 1.703125,-0.984375 2.28125,-0.984375 0.09375,0 0.25,0 0.375,0.07813 -0.109375,0.01563 -0.328125,0.125 -0.328125,0.515625 0,0.328125 0.21875,0.546875 0.546875,0.546875 0.375,0 0.5625,-0.25 0.5625,-0.578125 0,-0.46875 -0.375,-0.953125 -1.15625,-0.953125 -1,0 -1.859375,0.46875 -2.5625,1.109375 -0.734375,-0.671875 -1.625,-0.921875 -2.421875,-0.921875 -1.953125,0 -3.640625,1.546875 -3.640625,3.59375 0,1.421875 0.8125,2.3125 1.0625,2.5625 -0.75,0.859375 -0.75,1.875 -0.75,2 0,0.640625 0.25,1.59375 1.09375,2.109375 C 1.515625,-0.265625 0.5,0.71875 0.5,1.953125 0.5,3.734375 2.84375,5.0625 5.671875,5.0625 c 2.734375,0 5.1875,-1.265625 5.1875,-3.125 0,-3.375 -3.671875,-3.375 -5.578125,-3.375 -0.578125,0 -1.59375,0 -1.71875,-0.03125 -0.765625,-0.125 -1.28125,-0.8125 -1.28125,-1.671875 0,-0.234375 0,-0.78125 0.46875,-1.3125 z m 2.28125,0.359375 c -2.1875,0 -2.1875,-2.671875 -2.1875,-3.171875 0,-0.484375 0,-3.171875 2.1875,-3.171875 2.1875,0 2.1875,2.6875 2.1875,3.171875 0,0.5 0,3.171875 -2.1875,3.171875 z m 0.640625,8.734375 c -2.46875,0 -4.1875,-1.3125 -4.1875,-2.6875 0,-0.765625 0.421875,-1.484375 0.96875,-1.875 0.625,-0.421875 0.875,-0.421875 2.546875,-0.421875 2.03125,0 4.859375,0 4.859375,2.296875 0,1.375 -1.703125,2.6875 -4.1875,2.6875 z m 0,0"
           id="path5877" />
      </g>
      <g
         id="g7680">
        <path
           d="m 7.65625,-15.4375 c -0.625,-1.765625 -2.578125,-1.765625 -2.890625,-1.765625 -0.15625,0 -0.421875,0 -0.421875,0.25 0,0.203125 0.140625,0.21875 0.265625,0.25 0.375,0.04687 0.671875,0.09375 1.0625,0.8125 0.25,0.484375 2.796875,7.890625 2.796875,7.9375 0,0.015625 -0.015625,0.046875 -0.21875,0.25 L 1.8125,-1.1875 c -0.296875,0.296875 -0.5,0.5 -0.5,0.8125 0,0.34375 0.296875,0.640625 0.6875,0.640625 0.109375,0 0.375,-0.046875 0.53125,-0.1875 0.390625,-0.375 3.9375,-4.71875 6.1875,-7.390625 0.65625,1.9375 1.4375,4.21875 2.203125,6.296875 0.125,0.375 0.25,0.71875 0.59375,1.046875 0.25,0.21875 0.3125,0.21875 1,0.21875 h 0.46875 c 0.09375,0 0.28125,0 0.28125,-0.203125 0,-0.09375 -0.03125,-0.125 -0.125,-0.21875 -0.234375,-0.28125 -0.40625,-0.71875 -0.5,-1.015625 z m 0,0"
           id="path2460" />
      </g>
    </g>
  </defs>
  <ellipse
     style="fill:#000000;fill-opacity:0;stroke:#000000;stroke-width:0.806;stroke-linejoin:bevel;stroke-dasharray:none;stroke-opacity:1"
     id="path1"
     cx="60.281818"
     cy="36.163109"
     rx="3.6610115"
     ry="38.876453"
     transform="rotate(28.652061)" />
  <ellipse
     style="fill:#000000;fill-opacity:0;stroke:#000000;stroke-width:0.806;stroke-linejoin:bevel;stroke-dasharray:none;stroke-opacity:1"
     id="path2"
     cx="110.6264"
     cy="1.2011484"
     rx="12.726373"
     ry="35.738445"
     transform="rotate(31.106321)" />
  <ellipse
     style="fill:#000000;fill-opacity:0;stroke:#000000;stroke-width:0.808039;stroke-linejoin:bevel;stroke-dasharray:none;stroke-opacity:1"
     id="path3"
     cx="161.10478"
     cy="-40.318672"
     rx="26.645077"
     ry="32.821693"
     transform="matrix(0.82406881,0.56648972,-0.57783418,0.81615419,0,0)" />
  <g
     inkscape:label=""
     transform="translate(9.6322864,102.74397)"
     id="g3">
    <g
       fill="#000000"
       fill-opacity="1"
       id="g9"
       transform="matrix(0.352778,0,0,0.352778,-0.923572,-0.706217)">
      <g
         id="use5"
         transform="translate(1.993,19.205)">
        <path
           d="m 7.65625,-10.453125 c 0,-0.453125 -0.03125,-0.46875 -0.171875,-0.46875 -0.09375,0 -0.125,0.01563 -0.421875,0.390625 -0.078125,0.09375 -0.296875,0.34375 -0.375,0.4375 -0.796875,-0.828125 -1.90625,-0.859375 -2.328125,-0.859375 -2.75,0 -3.734375,1.4375 -3.734375,2.875 0,2.234375 2.515625,2.75 3.234375,2.90625 1.5625,0.3125 2.109375,0.40625 2.640625,0.859375 0.3125,0.296875 0.859375,0.84375 0.859375,1.734375 0,1.046875 -0.59375,2.375 -2.875,2.375 -2.15625,0 -2.921875,-1.625 -3.375,-3.8125 -0.0625,-0.34375 -0.0625,-0.375 -0.265625,-0.375 -0.203125,0 -0.21875,0.03125 -0.21875,0.53125 v 3.5625 c 0,0.453125 0.015625,0.46875 0.171875,0.46875 0.125,0 0.140625,-0.015625 0.265625,-0.21875 0.15625,-0.21875 0.53125,-0.828125 0.671875,-1.0625 0.5,0.65625 1.359375,1.3125 2.75,1.3125 C 6.9375,0.203125 8.25,-1.140625 8.25,-3.078125 8.25,-4.34375 7.578125,-5 7.265625,-5.296875 6.515625,-6.078125 5.65625,-6.25 4.609375,-6.4375 3.25,-6.734375 1.515625,-7.09375 1.515625,-8.59375 c 0,-0.65625 0.34375,-2.015625 2.84375,-2.015625 2.65625,0 2.796875,2.484375 2.859375,3.28125 0.015625,0.109375 0.140625,0.140625 0.21875,0.140625 0.21875,0 0.21875,-0.078125 0.21875,-0.5 z m 0,0"
           id="path10" />
      </g>
      <g
         id="use6"
         transform="translate(10.901484,19.205)">
        <path
           d="m 16.75,-7.53125 c 0,-1.234375 -0.21875,-3.328125 -3.171875,-3.328125 -1.6875,0 -2.84375,1.140625 -3.296875,2.484375 H 10.26562 C 9.96875,-10.40625 8.5,-10.859375 7.109375,-10.859375 c -1.953125,0 -2.96875,1.515625 -3.34375,2.515625 h -0.03125 v -2.515625 L 0.8125,-10.578125 V -9.9375 c 1.46875,0 1.6875,0.15625 1.6875,1.34375 v 6.890625 c 0,0.9375 -0.09375,1.0625 -1.6875,1.0625 V 0 C 1.40625,-0.046875 2.5,-0.046875 3.140625,-0.046875 c 0.65625,0 1.765625,0 2.359375,0.046875 v -0.640625 c -1.578125,0 -1.6875,-0.109375 -1.6875,-1.0625 V -6.46875 c 0,-2.28125 1.390625,-3.984375 3.125,-3.984375 1.828125,0 2.03125,1.625 2.03125,2.828125 v 5.921875 c 0,0.9375 -0.09375,1.0625 -1.6875,1.0625 V 0 c 0.59375,-0.046875 1.6875,-0.046875 2.328125,-0.046875 0.65625,0 1.765625,0 2.359375,0.046875 v -0.640625 c -1.578125,0 -1.6875,-0.109375 -1.6875,-1.0625 V -6.46875 c 0,-2.28125 1.390625,-3.984375 3.125,-3.984375 1.828125,0 2.03125,1.625 2.03125,2.828125 v 5.921875 c 0,0.9375 -0.09375,1.0625 -1.6875,1.0625 V 0 c 0.59375,-0.046875 1.6875,-0.046875 2.328125,-0.046875 0.65625,0 1.765625,0 2.359375,0.046875 v -0.640625 c -1.59375,0 -1.6875,-0.109375 -1.6875,-1.0625 z m 0,0"
           id="path11" />
      </g>
      <g
         id="use7"
         transform="translate(30.039604,19.205)">
        <path
           d="m 8.921875,-6.421875 c 0,-1.625 0,-2.5 -1.046875,-3.46875 -0.90625,-0.8125 -1.984375,-1.0625 -2.8125,-1.0625 -1.96875,0 -3.375,1.53125 -3.375,3.171875 0,0.921875 0.734375,0.96875 0.890625,0.96875 0.328125,0 0.890625,-0.203125 0.890625,-0.890625 0,-0.625 -0.46875,-0.890625 -0.890625,-0.890625 -0.09375,0 -0.21875,0.015625 -0.296875,0.046875 C 2.796875,-10.109375 4.140625,-10.5625 5,-10.5625 c 1.25,0 2.609375,1.09375 2.609375,3.171875 v 1.09375 C 6.140625,-6.25 4.390625,-6.046875 3,-5.296875 1.4375,-4.4375 0.984375,-3.203125 0.984375,-2.25 c 0,1.90625 2.234375,2.453125 3.546875,2.453125 1.359375,0 2.625,-0.765625 3.171875,-2.1875 0.046875,1.09375 0.75,2.078125 1.84375,2.078125 C 10.0625,0.09375 11.375,-0.25 11.375,-2.203125 V -3.59375 h -0.453125 v 1.40625 c 0,1.515625 -0.65625,1.71875 -0.984375,1.71875 -1.015625,0 -1.015625,-1.296875 -1.015625,-2.375 z m -1.3125,2.984375 c 0,2.15625 -1.53125,3.234375 -2.90625,3.234375 C 3.46875,-0.203125 2.5,-1.109375 2.5,-2.25 2.5,-3 2.828125,-4.3125 4.265625,-5.109375 5.453125,-5.78125 6.8125,-5.875 7.609375,-5.921875 Z m 0,0"
           id="path12" />
      </g>
      <g
         id="use8"
         transform="translate(41.406967,19.205)">
        <path
           d="m 3.796875,-17.203125 -2.953125,0.28125 v 0.640625 c 1.453125,0 1.6875,0.15625 1.6875,1.34375 v 13.234375 c 0,0.9375 -0.109375,1.0625 -1.6875,1.0625 V 0 c 0.59375,-0.046875 1.6875,-0.046875 2.296875,-0.046875 0.65625,0 1.734375,0 2.34375,0.046875 v -0.640625 c -1.59375,0 -1.6875,-0.109375 -1.6875,-1.0625 z m 0,0"
           id="path13" />
      </g>
      <g
         id="use9"
         transform="translate(47.593826,19.205)">
        <path
           d="m 3.796875,-17.203125 -2.953125,0.28125 v 0.640625 c 1.453125,0 1.6875,0.15625 1.6875,1.34375 v 13.234375 c 0,0.9375 -0.109375,1.0625 -1.6875,1.0625 V 0 c 0.59375,-0.046875 1.6875,-0.046875 2.296875,-0.046875 0.65625,0 1.734375,0 2.34375,0.046875 v -0.640625 c -1.59375,0 -1.6875,-0.109375 -1.6875,-1.0625 z m 0,0"
           id="path14" />
      </g>
    </g>
    <g
       fill="#000000"
       fill-opacity="1"
       id="g10"
       transform="matrix(0.352778,0,0,0.352778,-0.923572,-0.706217)">
      <g
         id="use10"
         transform="translate(61.266392,19.205)">
        <path
           d="m 7.65625,-15.4375 c -0.625,-1.765625 -2.578125,-1.765625 -2.890625,-1.765625 -0.15625,0 -0.421875,0 -0.421875,0.25 0,0.203125 0.140625,0.21875 0.265625,0.25 0.375,0.04687 0.671875,0.09375 1.0625,0.8125 0.25,0.484375 2.796875,7.890625 2.796875,7.9375 0,0.015625 -0.015625,0.046875 -0.21875,0.25 L 1.8125,-1.1875 c -0.296875,0.296875 -0.5,0.5 -0.5,0.8125 0,0.34375 0.296875,0.640625 0.6875,0.640625 0.109375,0 0.375,-0.046875 0.53125,-0.1875 0.390625,-0.375 3.9375,-4.71875 6.1875,-7.390625 0.65625,1.9375 1.4375,4.21875 2.203125,6.296875 0.125,0.375 0.25,0.71875 0.59375,1.046875 0.25,0.21875 0.3125,0.21875 1,0.21875 h 0.46875 c 0.09375,0 0.28125,0 0.28125,-0.203125 0,-0.09375 -0.03125,-0.125 -0.125,-0.21875 -0.234375,-0.28125 -0.40625,-0.71875 -0.5,-1.015625 z m 0,0"
           id="path15" />
      </g>
    </g>
  </g>
  <g
     inkscape:label=""
     transform="translate(67.425849,103.38612)"
     id="g4">
    <g
       fill="#000000"
       fill-opacity="1"
       id="g11"
       transform="matrix(0.352778,0,0,0.352778,-0.989718,-0.706217)">
      <g
         id="use6-1"
         transform="translate(1.993,19.205)">
        <path
           d="m 16.75,-7.53125 c 0,-1.234375 -0.21875,-3.328125 -3.171875,-3.328125 -1.6875,0 -2.84375,1.140625 -3.296875,2.484375 H 10.26562 C 9.96875,-10.40625 8.5,-10.859375 7.109375,-10.859375 c -1.953125,0 -2.96875,1.515625 -3.34375,2.515625 h -0.03125 v -2.515625 L 0.8125,-10.578125 V -9.9375 c 1.46875,0 1.6875,0.15625 1.6875,1.34375 v 6.890625 c 0,0.9375 -0.09375,1.0625 -1.6875,1.0625 V 0 C 1.40625,-0.046875 2.5,-0.046875 3.140625,-0.046875 c 0.65625,0 1.765625,0 2.359375,0.046875 v -0.640625 c -1.578125,0 -1.6875,-0.109375 -1.6875,-1.0625 V -6.46875 c 0,-2.28125 1.390625,-3.984375 3.125,-3.984375 1.828125,0 2.03125,1.625 2.03125,2.828125 v 5.921875 c 0,0.9375 -0.09375,1.0625 -1.6875,1.0625 V 0 c 0.59375,-0.046875 1.6875,-0.046875 2.328125,-0.046875 0.65625,0 1.765625,0 2.359375,0.046875 v -0.640625 c -1.578125,0 -1.6875,-0.109375 -1.6875,-1.0625 V -6.46875 c 0,-2.28125 1.390625,-3.984375 3.125,-3.984375 1.828125,0 2.03125,1.625 2.03125,2.828125 v 5.921875 c 0,0.9375 -0.09375,1.0625 -1.6875,1.0625 V 0 c 0.59375,-0.046875 1.6875,-0.046875 2.328125,-0.046875 0.65625,0 1.765625,0 2.359375,0.046875 v -0.640625 c -1.59375,0 -1.6875,-0.109375 -1.6875,-1.0625 z m 0,0"
           id="path12-1" />
      </g>
      <g
         id="use7-1"
         transform="translate(21.131121,19.205)">
        <path
           d="m 9.4375,-5.828125 c 0.109375,-0.09375 0.109375,-0.140625 0.109375,-0.390625 0,-2.53125 -1.34375,-4.734375 -4.171875,-4.734375 -2.625,0 -4.703125,2.5 -4.703125,5.546875 0,3.21875 2.34375,5.609375 4.984375,5.609375 2.765625,0 3.859375,-2.625 3.859375,-3.15625 C 9.515625,-3.125 9.375,-3.125 9.3125,-3.125 9.140625,-3.125 9.125,-3.078125 9.015625,-2.78125 8.46875,-1.09375 7.109375,-0.25 5.828125,-0.25 4.765625,-0.25 3.6875,-0.84375 3.015625,-1.9375 2.25,-3.203125 2.25,-4.65625 2.25,-5.828125 Z M 2.28125,-6.1875 c 0.171875,-3.578125 2.078125,-4.375 3.078125,-4.375 1.671875,0 2.8125,1.59375 2.84375,4.375 z m 0,0"
           id="path13-1" />
      </g>
      <g
         id="use8-1"
         transform="translate(31.204597,19.205)">
        <path
           d="m 7.234375,-16.921875 v 0.640625 c 1.46875,0 1.6875,0.15625 1.6875,1.34375 v 5.796875 c -0.09375,-0.125 -1.109375,-1.71875 -3.125,-1.71875 -2.53125,0 -4.984375,2.265625 -4.984375,5.53125 0,3.25 2.3125,5.53125 4.734375,5.53125 2.109375,0 3.203125,-1.640625 3.328125,-1.8125 v 1.8125 L 11.875,0 v -0.640625 c -1.46875,0 -1.6875,-0.15625 -1.6875,-1.34375 v -15.21875 z M 8.875,-2.96875 c 0,0.734375 -0.453125,1.40625 -1.015625,1.90625 -0.84375,0.734375 -1.6875,0.859375 -2.15625,0.859375 -0.71875,0 -3.296875,-0.359375 -3.296875,-5.09375 0,-4.859375 2.875,-5.15625 3.515625,-5.15625 1.140625,0 2.0625,0.640625 2.625,1.53125 C 8.875,-8.40625 8.875,-8.328125 8.875,-7.875 Z m 0,0"
           id="path14-1" />
      </g>
      <g
         id="use9-1"
         transform="translate(43.868328,19.205)">
        <path
           d="m 3.84375,-15.265625 c 0,-0.546875 -0.453125,-1.015625 -1.015625,-1.015625 -0.546875,0 -1.015625,0.453125 -1.015625,1.015625 0,0.546875 0.4375,1.015625 1.015625,1.015625 0.546875,0 1.015625,-0.4375 1.015625,-1.015625 z m -2.90625,4.6875 V -9.9375 c 1.390625,0 1.59375,0.15625 1.59375,1.34375 v 6.890625 c 0,0.9375 -0.109375,1.0625 -1.6875,1.0625 V 0 C 1.4375,-0.046875 2.5,-0.046875 3.125,-0.046875 c 0.59375,0 1.609375,0 2.171875,0.046875 v -0.640625 c -1.453125,0 -1.5,-0.15625 -1.5,-1.046875 v -9.171875 z m 0,0"
           id="path15-1" />
      </g>
      <g
         id="use10-1"
         transform="translate(50.055187,19.205)">
        <path
           d="M 7.28125,-10.578125 V -9.9375 c 1.46875,0 1.6875,0.15625 1.6875,1.34375 v 4.5 c 0,2.09375 -1.109375,3.890625 -2.953125,3.890625 -2.03125,0 -2.203125,-1.203125 -2.203125,-2.5 v -8.15625 l -3,0.28125 V -9.9375 c 1,0 1.671875,0 1.6875,0.984375 V -4.1875 c 0,1.65625 0,2.71875 0.640625,3.421875 0.328125,0.3125 0.953125,0.96875 2.734375,0.96875 2.109375,0 2.921875,-1.796875 3.125,-2.3125 h 0.015625 v 2.3125 L 11.96875,0 v -0.640625 c -1.46875,0 -1.6875,-0.15625 -1.6875,-1.34375 v -8.875 z m 0,0"
           id="path16" />
      </g>
      <g
         id="use11"
         transform="translate(62.718918,19.205)">
        <path
           d="m 16.75,-7.53125 c 0,-1.234375 -0.21875,-3.328125 -3.171875,-3.328125 -1.6875,0 -2.84375,1.140625 -3.296875,2.484375 H 10.26562 C 9.96875,-10.40625 8.5,-10.859375 7.109375,-10.859375 c -1.953125,0 -2.96875,1.515625 -3.34375,2.515625 h -0.03125 v -2.515625 L 0.8125,-10.578125 V -9.9375 c 1.46875,0 1.6875,0.15625 1.6875,1.34375 v 6.890625 c 0,0.9375 -0.09375,1.0625 -1.6875,1.0625 V 0 C 1.40625,-0.046875 2.5,-0.046875 3.140625,-0.046875 c 0.65625,0 1.765625,0 2.359375,0.046875 v -0.640625 c -1.578125,0 -1.6875,-0.109375 -1.6875,-1.0625 V -6.46875 c 0,-2.28125 1.390625,-3.984375 3.125,-3.984375 1.828125,0 2.03125,1.625 2.03125,2.828125 v 5.921875 c 0,0.9375 -0.09375,1.0625 -1.6875,1.0625 V 0 c 0.59375,-0.046875 1.6875,-0.046875 2.328125,-0.046875 0.65625,0 1.765625,0 2.359375,0.046875 v -0.640625 c -1.578125,0 -1.6875,-0.109375 -1.6875,-1.0625 V -6.46875 c 0,-2.28125 1.390625,-3.984375 3.125,-3.984375 1.828125,0 2.03125,1.625 2.03125,2.828125 v 5.921875 c 0,0.9375 -0.09375,1.0625 -1.6875,1.0625 V 0 c 0.59375,-0.046875 1.6875,-0.046875 2.328125,-0.046875 0.65625,0 1.765625,0 2.359375,0.046875 v -0.640625 c -1.59375,0 -1.6875,-0.109375 -1.6875,-1.0625 z m 0,0"
           id="path17" />
      </g>
    </g>
    <g
       fill="#000000"
       fill-opacity="1"
       id="g12"
       transform="matrix(0.352778,0,0,0.352778,-0.989718,-0.706217)">
      <g
         id="use12"
         transform="translate(89.342743,19.205)">
        <path
           d="m 7.65625,-15.4375 c -0.625,-1.765625 -2.578125,-1.765625 -2.890625,-1.765625 -0.15625,0 -0.421875,0 -0.421875,0.25 0,0.203125 0.140625,0.21875 0.265625,0.25 0.375,0.04687 0.671875,0.09375 1.0625,0.8125 0.25,0.484375 2.796875,7.890625 2.796875,7.9375 0,0.015625 -0.015625,0.046875 -0.21875,0.25 L 1.8125,-1.1875 c -0.296875,0.296875 -0.5,0.5 -0.5,0.8125 0,0.34375 0.296875,0.640625 0.6875,0.640625 0.109375,0 0.375,-0.046875 0.53125,-0.1875 0.390625,-0.375 3.9375,-4.71875 6.1875,-7.390625 0.65625,1.9375 1.4375,4.21875 2.203125,6.296875 0.125,0.375 0.25,0.71875 0.59375,1.046875 0.25,0.21875 0.3125,0.21875 1,0.21875 h 0.46875 c 0.09375,0 0.28125,0 0.28125,-0.203125 0,-0.09375 -0.03125,-0.125 -0.125,-0.21875 -0.234375,-0.28125 -0.40625,-0.71875 -0.5,-1.015625 z m 0,0"
           id="path18" />
      </g>
    </g>
  </g>
  <g
     inkscape:label=""
     transform="translate(145.76823,102.74397)"
     id="g5">
    <g
       fill="#000000"
       fill-opacity="1"
       id="g6"
       transform="matrix(0.352778,0,0,0.352778,-0.973182,-0.70657)">
      <g
         id="use4"
         transform="translate(1.993,19.205999)">
        <path
           d="m 3.71875,-17.203125 -2.953125,0.28125 v 0.640625 c 1.46875,0 1.6875,0.15625 1.6875,1.34375 V 0 H 2.90625 L 3.625,-1.765625 c 0.71875,1.171875 1.78125,1.96875 3.21875,1.96875 2.46875,0 4.984375,-2.1875 4.984375,-5.5625 0,-3.171875 -2.234375,-5.5 -4.734375,-5.5 -1.546875,0 -2.640625,0.828125 -3.375,1.796875 z M 3.765625,-7.8125 c 0,-0.4375 0,-0.515625 0.34375,-1.03125 0.96875,-1.484375 2.359375,-1.609375 2.828125,-1.609375 0.75,0 3.296875,0.390625 3.296875,5.078125 0,4.90625 -2.921875,5.171875 -3.515625,5.171875 -0.765625,0 -1.890625,-0.296875 -2.671875,-1.734375 -0.28125,-0.46875 -0.28125,-0.515625 -0.28125,-0.96875 z m 0,0"
           id="path7" />
      </g>
      <g
         id="use5-1"
         transform="translate(14.656729,19.205999)">
        <path
           d="m 3.84375,-15.265625 c 0,-0.546875 -0.453125,-1.015625 -1.015625,-1.015625 -0.546875,0 -1.015625,0.453125 -1.015625,1.015625 0,0.546875 0.4375,1.015625 1.015625,1.015625 0.546875,0 1.015625,-0.4375 1.015625,-1.015625 z m -2.90625,4.6875 V -9.9375 c 1.390625,0 1.59375,0.15625 1.59375,1.34375 v 6.890625 c 0,0.9375 -0.109375,1.0625 -1.6875,1.0625 V 0 C 1.4375,-0.046875 2.5,-0.046875 3.125,-0.046875 c 0.59375,0 1.609375,0 2.171875,0.046875 v -0.640625 c -1.453125,0 -1.5,-0.15625 -1.5,-1.046875 v -9.171875 z m 0,0"
           id="path8" />
      </g>
      <g
         id="use6-1-1"
         transform="translate(20.84359,19.205999)">
        <path
           d="m 2.75,-4.453125 c 0.46875,0.359375 1.296875,0.78125 2.28125,0.78125 1.953125,0 3.640625,-1.53125 3.640625,-3.59375 0,-0.640625 -0.203125,-1.625 -0.9375,-2.40625 0.6875,-0.734375 1.703125,-0.984375 2.28125,-0.984375 0.09375,0 0.25,0 0.375,0.07813 -0.109375,0.01563 -0.328125,0.125 -0.328125,0.515625 0,0.328125 0.21875,0.546875 0.546875,0.546875 0.375,0 0.5625,-0.25 0.5625,-0.578125 0,-0.46875 -0.375,-0.953125 -1.15625,-0.953125 -1,0 -1.859375,0.46875 -2.5625,1.109375 -0.734375,-0.671875 -1.625,-0.921875 -2.421875,-0.921875 -1.953125,0 -3.640625,1.546875 -3.640625,3.59375 0,1.421875 0.8125,2.3125 1.0625,2.5625 -0.75,0.859375 -0.75,1.875 -0.75,2 0,0.640625 0.25,1.59375 1.09375,2.109375 C 1.515625,-0.265625 0.5,0.71875 0.5,1.953125 0.5,3.734375 2.84375,5.0625 5.671875,5.0625 c 2.734375,0 5.1875,-1.265625 5.1875,-3.125 0,-3.375 -3.671875,-3.375 -5.578125,-3.375 -0.578125,0 -1.59375,0 -1.71875,-0.03125 -0.765625,-0.125 -1.28125,-0.8125 -1.28125,-1.671875 0,-0.234375 0,-0.78125 0.46875,-1.3125 z m 2.28125,0.359375 c -2.1875,0 -2.1875,-2.671875 -2.1875,-3.171875 0,-0.484375 0,-3.171875 2.1875,-3.171875 2.1875,0 2.1875,2.6875 2.1875,3.171875 0,0.5 0,3.171875 -2.1875,3.171875 z m 0.640625,8.734375 c -2.46875,0 -4.1875,-1.3125 -4.1875,-2.6875 0,-0.765625 0.421875,-1.484375 0.96875,-1.875 0.625,-0.421875 0.875,-0.421875 2.546875,-0.421875 2.03125,0 4.859375,0 4.859375,2.296875 0,1.375 -1.703125,2.6875 -4.1875,2.6875 z m 0,0"
           id="path9" />
      </g>
    </g>
    <g
       fill="#000000"
       fill-opacity="1"
       id="g7"
       transform="matrix(0.352778,0,0,0.352778,-0.973182,-0.70657)">
      <g
         id="use7-1-1"
         transform="translate(39.696659,19.205999)">
        <path
           d="m 7.65625,-15.4375 c -0.625,-1.765625 -2.578125,-1.765625 -2.890625,-1.765625 -0.15625,0 -0.421875,0 -0.421875,0.25 0,0.203125 0.140625,0.21875 0.265625,0.25 0.375,0.04687 0.671875,0.09375 1.0625,0.8125 0.25,0.484375 2.796875,7.890625 2.796875,7.9375 0,0.015625 -0.015625,0.046875 -0.21875,0.25 L 1.8125,-1.1875 c -0.296875,0.296875 -0.5,0.5 -0.5,0.8125 0,0.34375 0.296875,0.640625 0.6875,0.640625 0.109375,0 0.375,-0.046875 0.53125,-0.1875 0.390625,-0.375 3.9375,-4.71875 6.1875,-7.390625 0.65625,1.9375 1.4375,4.21875 2.203125,6.296875 0.125,0.375 0.25,0.71875 0.59375,1.046875 0.25,0.21875 0.3125,0.21875 1,0.21875 h 0.46875 c 0.09375,0 0.28125,0 0.28125,-0.203125 0,-0.09375 -0.03125,-0.125 -0.125,-0.21875 -0.234375,-0.28125 -0.40625,-0.71875 -0.5,-1.015625 z m 0,0"
           id="path10-1" />
      </g>
    </g>
  </g>
</svg>
