<?xml version="1.0" encoding="UTF-8" standalone="no"?>
<svg
   width="190mm"
   height="57mm"
   viewBox="0 0 190 57"
   version="1.1"
   id="svg1"
   sodipodi:docname="2026-05-24.svg"
   inkscape:version="1.4.3 (0d15f75042, 2025-12-25)"
   xmlns:inkscape="http://www.inkscape.org/namespaces/inkscape"
   xmlns:sodipodi="http://sodipodi.sourceforge.net/DTD/sodipodi-0.dtd"
   xmlns="http://www.w3.org/2000/svg"
   xmlns:svg="http://www.w3.org/2000/svg">
  <sodipodi:namedview
     id="namedview1"
     pagecolor="#ffffff"
     bordercolor="#000000"
     borderopacity="0.25"
     inkscape:showpageshadow="2"
     inkscape:pageopacity="0.0"
     inkscape:pagecheckerboard="0"
     inkscape:deskcolor="#d1d1d1"
     inkscape:document-units="mm"
     showgrid="true"
     inkscape:zoom="0.56213736"
     inkscape:cx="452.73632"
     inkscape:cy="138.75612"
     inkscape:window-width="990"
     inkscape:window-height="561"
     inkscape:window-x="0"
     inkscape:window-y="0"
     inkscape:window-maximized="1"
     inkscape:current-layer="svg1">
    <inkscape:grid
       id="grid1"
       units="mm"
       originx="0"
       originy="0"
       spacingx="0.99999998"
       spacingy="1"
       empcolor="#0099e5"
       empopacity="0.30196078"
       color="#0099e5"
       opacity="0.14901961"
       empspacing="5"
       enabled="true"
       visible="true" />
  </sodipodi:namedview>
  <defs
     id="defs1">
    <marker
       style="overflow:visible"
       id="marker6"
       refX="0"
       refY="0"
       orient="auto-start-reverse"
       inkscape:stockid="Triangle arrow"
       markerWidth="1"
       markerHeight="1"
       viewBox="0 0 1 1"
       inkscape:isstock="true"
       inkscape:collect="always"
       preserveAspectRatio="xMidYMid">
      <path
         transform="scale(0.5)"
         style="fill:context-stroke;fill-rule:evenodd;stroke:context-stroke;stroke-width:1pt"
         d="M 5.77,0 -2.88,5 V -5 Z"
         id="path6" />
    </marker>
    <marker
       style="overflow:visible"
       id="marker5"
       refX="0"
       refY="0"
       orient="auto-start-reverse"
       inkscape:stockid="Triangle arrow"
       markerWidth="1"
       markerHeight="1"
       viewBox="0 0 1 1"
       inkscape:isstock="true"
       inkscape:collect="always"
       preserveAspectRatio="xMidYMid">
      <path
         transform="scale(0.5)"
         style="fill:context-stroke;fill-rule:evenodd;stroke:context-stroke;stroke-width:1pt"
         d="M 5.77,0 -2.88,5 V -5 Z"
         id="path5" />
    </marker>
    <marker
       style="overflow:visible"
       id="Triangle"
       refX="0"
       refY="0"
       orient="auto-start-reverse"
       inkscape:stockid="Triangle arrow"
       markerWidth="1"
       markerHeight="1"
       viewBox="0 0 1 1"
       inkscape:isstock="true"
       inkscape:collect="always"
       preserveAspectRatio="xMidYMid">
      <path
         transform="scale(0.5)"
         style="fill:context-stroke;fill-rule:evenodd;stroke:context-stroke;stroke-width:1pt"
         d="M 5.77,0 -2.88,5 V -5 Z"
         id="path135" />
    </marker>
    <inkscape:path-effect
       effect="spiro"
       id="path-effect4"
       is_visible="true"
       lpeversion="1" />
    <inkscape:path-effect
       effect="spiro"
       id="path-effect3"
       is_visible="true"
       lpeversion="1" />
    <inkscape:path-effect
       effect="spiro"
       id="path-effect2"
       is_visible="true"
       lpeversion="1" />
    <inkscape:path-effect
       effect="spiro"
       id="path-effect1"
       is_visible="true"
       lpeversion="1" />
    <inkscape:path-effect
       effect="spiro"
       id="path-effect1-2"
       is_visible="true"
       lpeversion="1" />
    <g
       id="g6471">
      <g
         id="g6322">
        <path
           d="m 6.203125,-4.453125 c 0,-1.140625 0,-1.75 -0.734375,-2.421875 -0.625,-0.5625 -1.375,-0.734375 -1.953125,-0.734375 -1.359375,0 -2.34375,1.0625 -2.34375,2.203125 0,0.640625 0.515625,0.671875 0.625,0.671875 0.21875,0 0.609375,-0.140625 0.609375,-0.625 0,-0.421875 -0.328125,-0.609375 -0.609375,-0.609375 -0.078125,0 -0.15625,0.015625 -0.21875,0.03125 0.375,-1.09375 1.296875,-1.390625 1.90625,-1.390625 0.859375,0 1.796875,0.75 1.796875,2.203125 v 0.75 C 4.265625,-4.34375 3.046875,-4.203125 2.078125,-3.6875 1,-3.078125 0.6875,-2.21875 0.6875,-1.5625 c 0,1.328125 1.546875,1.703125 2.46875,1.703125 0.9375,0 1.8125,-0.53125 2.203125,-1.515625 0.03125,0.75 0.515625,1.4375 1.265625,1.4375 0.359375,0 1.28125,-0.234375 1.28125,-1.59375 V -2.5 h -0.3125 v 0.984375 c 0,1.046875 -0.46875,1.1875 -0.6875,1.1875 -0.703125,0 -0.703125,-0.890625 -0.703125,-1.65625 z m -0.921875,2.0625 c 0,1.5 -1.0625,2.25 -2.015625,2.25 -0.859375,0 -1.53125,-0.640625 -1.53125,-1.421875 0,-0.515625 0.234375,-1.4375 1.234375,-1.984375 0.8125,-0.46875 1.765625,-0.53125 2.3125,-0.5625 z m 0,0"
           id="path7878" />
      </g>
      <g
         id="g3582">
        <path
           d="m 5.328125,-7.265625 c 0,-0.3125 -0.03125,-0.328125 -0.125,-0.328125 -0.078125,0 -0.09375,0.015625 -0.296875,0.28125 -0.046875,0.0625 -0.203125,0.234375 -0.25,0.296875 -0.5625,-0.578125 -1.328125,-0.59375 -1.625,-0.59375 -1.90625,0 -2.59375,1 -2.59375,2 0,1.546875 1.75,1.90625 2.25,2.015625 C 3.765625,-3.375 4.15625,-3.3125 4.515625,-3 c 0.21875,0.203125 0.59375,0.59375 0.59375,1.203125 0,0.734375 -0.40625,1.65625 -2,1.65625 -1.484375,0 -2.03125,-1.140625 -2.328125,-2.65625 -0.0625,-0.234375 -0.0625,-0.25 -0.203125,-0.25 -0.125,0 -0.140625,0.015625 -0.140625,0.359375 v 2.484375 c 0,0.3125 0.015625,0.328125 0.109375,0.328125 0.09375,0 0.109375,-0.015625 0.1875,-0.15625 0.109375,-0.15625 0.375,-0.578125 0.46875,-0.75 0.34375,0.46875 0.953125,0.921875 1.90625,0.921875 1.71875,0 2.625,-0.9375 2.625,-2.28125 0,-0.875 -0.46875,-1.34375 -0.6875,-1.546875 C 4.53125,-4.21875 3.921875,-4.34375 3.203125,-4.484375 2.25,-4.6875 1.046875,-4.921875 1.046875,-5.96875 c 0,-0.453125 0.25,-1.40625 1.984375,-1.40625 1.84375,0 1.9375,1.734375 1.984375,2.28125 C 5.03125,-5.015625 5.109375,-5 5.171875,-5 c 0.15625,0 0.15625,-0.046875 0.15625,-0.34375 z m 0,0"
           id="path6187" />
      </g>
      <g
         id="g3398">
        <path
           d="M 2.59375,-6.953125 H 5.015625 V -7.40625 H 2.59375 v -3.1875 H 2.296875 C 2.25,-8.8125 1.65625,-7.265625 0.1875,-7.234375 v 0.28125 h 1.5 V -2.125 c 0,0.328125 0,2.265625 2,2.265625 1.015625,0 1.59375,-1 1.59375,-2.28125 v -0.96875 h -0.3125 v 0.953125 c 0,1.1875 -0.453125,1.984375 -1.1875,1.984375 -0.5,0 -1.1875,-0.34375 -1.1875,-1.90625 z m 0,0"
           id="path7047" />
      </g>
      <g
         id="g2149">
        <path
           d="m 7.140625,-5.234375 c 0,-0.875 -0.171875,-2.3125 -2.203125,-2.3125 -1.40625,0 -2.09375,1.140625 -2.296875,1.703125 H 2.625 v -6.109375 l -2.0625,0.1875 v 0.453125 c 1.015625,0 1.171875,0.109375 1.171875,0.921875 V -1.1875 c 0,0.65625 -0.0625,0.734375 -1.171875,0.734375 V 0 c 0.421875,-0.03125 1.171875,-0.03125 1.625,-0.03125 0.453125,0 1.21875,0 1.640625,0.03125 v -0.453125 c -1.109375,0 -1.171875,-0.0625 -1.171875,-0.734375 V -4.5 c 0,-1.578125 0.953125,-2.765625 2.171875,-2.765625 1.265625,0 1.40625,1.140625 1.40625,1.96875 V -1.1875 c 0,0.65625 -0.0625,0.734375 -1.171875,0.734375 V 0 c 0.40625,-0.03125 1.171875,-0.03125 1.625,-0.03125 0.4375,0 1.21875,0 1.625,0.03125 v -0.453125 c -1.09375,0 -1.171875,-0.0625 -1.171875,-0.734375 z m 0,0"
           id="path2378" />
      </g>
      <g
         id="g2392">
        <path
           d="m 6.5625,-4.046875 c 0.0625,-0.0625 0.0625,-0.109375 0.0625,-0.28125 0,-1.75 -0.921875,-3.28125 -2.890625,-3.28125 -1.828125,0 -3.265625,1.734375 -3.265625,3.859375 0,2.234375 1.625,3.890625 3.453125,3.890625 1.9375,0 2.6875,-1.828125 2.6875,-2.1875 0,-0.125 -0.09375,-0.125 -0.140625,-0.125 -0.109375,0 -0.125,0.03125 -0.203125,0.25 -0.375,1.171875 -1.328125,1.75 -2.21875,1.75 C 3.3125,-0.171875 2.5625,-0.578125 2.09375,-1.34375 1.5625,-2.21875 1.5625,-3.234375 1.5625,-4.046875 Z M 1.578125,-4.3125 c 0.125,-2.46875 1.453125,-3.015625 2.140625,-3.015625 1.171875,0 1.96875,1.09375 1.984375,3.015625 z m 0,0"
           id="path8137" />
      </g>
      <g
         id="g2166">
        <path
           d="m 1.90625,-3.09375 c 0.328125,0.25 0.90625,0.546875 1.59375,0.546875 1.359375,0 2.53125,-1.0625 2.53125,-2.5 C 6.03125,-5.5 5.890625,-6.1875 5.375,-6.71875 c 0.484375,-0.515625 1.1875,-0.6875 1.578125,-0.6875 0.078125,0 0.171875,0 0.265625,0.046875 -0.078125,0.03125 -0.234375,0.09375 -0.234375,0.375 0,0.21875 0.15625,0.375 0.390625,0.375 0.25,0 0.390625,-0.171875 0.390625,-0.40625 0,-0.3125 -0.265625,-0.65625 -0.8125,-0.65625 -0.6875,0 -1.28125,0.3125 -1.765625,0.765625 C 4.671875,-7.375 4.046875,-7.546875 3.5,-7.546875 c -1.359375,0 -2.53125,1.078125 -2.53125,2.5 0,0.984375 0.5625,1.609375 0.734375,1.78125 C 1.1875,-2.671875 1.1875,-1.96875 1.1875,-1.875 c 0,0.453125 0.171875,1.09375 0.765625,1.46875 C 1.046875,-0.1875 0.34375,0.5 0.34375,1.359375 c 0,1.234375 1.640625,2.15625 3.59375,2.15625 1.90625,0 3.609375,-0.875 3.609375,-2.171875 C 7.546875,-1 5,-1 3.671875,-1 c -0.40625,0 -1.109375,0 -1.1875,-0.015625 -0.53125,-0.09375 -0.90625,-0.5625 -0.90625,-1.171875 0,-0.15625 0,-0.53125 0.328125,-0.90625 z m 1.59375,0.25 c -1.515625,0 -1.515625,-1.859375 -1.515625,-2.203125 0,-0.34375 0,-2.203125 1.515625,-2.203125 1.515625,0 1.515625,1.859375 1.515625,2.203125 0,0.34375 0,2.203125 -1.515625,2.203125 z m 0.4375,6.0625 c -1.71875,0 -2.90625,-0.90625 -2.90625,-1.859375 0,-0.53125 0.296875,-1.03125 0.671875,-1.3125 0.4375,-0.28125 0.609375,-0.28125 1.78125,-0.28125 1.40625,0 3.375,0 3.375,1.59375 0,0.953125 -1.1875,1.859375 -2.921875,1.859375 z m 0,0"
           id="path3367" />
      </g>
      <g
         id="g8625">
        <path
           d="m 2.578125,-4.0625 c 0,-1.65625 0.703125,-3.203125 2,-3.203125 0.125,0 0.25,0.015625 0.359375,0.0625 0,0 -0.375,0.125 -0.375,0.578125 0,0.40625 0.328125,0.578125 0.578125,0.578125 0.21875,0 0.59375,-0.125 0.59375,-0.59375 0,-0.5625 -0.546875,-0.90625 -1.140625,-0.90625 -1.3125,0 -1.875,1.28125 -2.046875,1.875 H 2.53125 v -1.875 l -2,0.1875 v 0.453125 c 1.015625,0 1.171875,0.109375 1.171875,0.9375 v 4.78125 c 0,0.65625 -0.0625,0.734375 -1.171875,0.734375 V 0 c 0.421875,-0.03125 1.203125,-0.03125 1.65625,-0.03125 0.5,0 1.375,0 1.84375,0.03125 v -0.453125 c -1.234375,0 -1.453125,0 -1.453125,-0.765625 z m 0,0"
           id="path3178" />
      </g>
      <g
         id="g6431">
        <path
           d="M 3.78125,2.90625 C 2.6875,2.90625 2.625,2.84375 2.625,2.171875 v -3.21875 c 0.484375,0.71875 1.21875,1.1875 2.125,1.1875 1.71875,0 3.46875,-1.515625 3.46875,-3.859375 0,-2.171875 -1.5,-3.828125 -3.28125,-3.828125 -1.03125,0 -1.875,0.578125 -2.359375,1.265625 v -1.265625 l -2.046875,0.1875 v 0.453125 c 1.015625,0 1.171875,0.109375 1.171875,0.9375 v 8.140625 c 0,0.65625 -0.0625,0.734375 -1.171875,0.734375 v 0.453125 c 0.421875,-0.03125 1.171875,-0.03125 1.625,-0.03125 0.4375,0 1.21875,0 1.625,0.03125 z M 2.625,-5.40625 c 0,-0.234375 0,-0.609375 0.65625,-1.234375 0.09375,-0.078125 0.671875,-0.59375 1.546875,-0.59375 1.25,0 2.28125,1.5625 2.28125,3.53125 0,1.96875 -1.09375,3.5625 -2.453125,3.5625 -0.625,0 -1.296875,-0.296875 -1.8125,-1.09375 C 2.625,-1.625 2.625,-1.71875 2.625,-2 Z m 0,0"
           id="path4395" />
      </g>
      <g
         id="g6604">
        <path
           d="m 7.421875,-3.6875 c 0,-2.203125 -1.609375,-3.921875 -3.484375,-3.921875 -1.875,0 -3.46875,1.71875 -3.46875,3.921875 0,2.171875 1.59375,3.828125 3.46875,3.828125 1.875,0 3.484375,-1.65625 3.484375,-3.828125 z M 3.9375,-0.171875 c -0.796875,0 -1.5,-0.484375 -1.890625,-1.15625 C 1.625,-2.09375 1.5625,-3.0625 1.5625,-3.828125 c 0,-0.71875 0.03125,-1.609375 0.484375,-2.390625 0.34375,-0.5625 1.015625,-1.109375 1.890625,-1.109375 0.78125,0 1.4375,0.421875 1.84375,1.03125 0.53125,0.796875 0.53125,1.9375 0.53125,2.46875 0,0.671875 -0.03125,1.703125 -0.5,2.53125 -0.46875,0.796875 -1.21875,1.125 -1.875,1.125 z m 0,0"
           id="path1436" />
      </g>
      <g
         id="g8187">
        <path
           d="M 2.640625,-6.953125 H 4.59375 V -7.40625 h -2 v -2.078125 c 0,-1.4375 0.734375,-2.328125 1.46875,-2.328125 0.21875,0 0.484375,0.0625 0.65625,0.1875 -0.140625,0.03125 -0.5,0.15625 -0.5,0.59375 0,0.4375 0.34375,0.578125 0.578125,0.578125 0.25,0 0.59375,-0.140625 0.59375,-0.578125 0,-0.65625 -0.625,-1.0625 -1.3125,-1.0625 -0.984375,0 -2.328125,0.8125 -2.328125,2.640625 V -7.40625 H 0.375 v 0.453125 H 1.75 V -1.1875 c 0,0.65625 -0.0625,0.734375 -1.171875,0.734375 V 0 C 1,-0.03125 1.796875,-0.03125 2.234375,-0.03125 c 0.5,0 1.375,0 1.84375,0.03125 v -0.453125 c -1.234375,0 -1.4375,0 -1.4375,-0.765625 z m 0,0"
           id="path2136" />
      </g>
      <g
         id="g8712">
        <path
           d="M 3.9375,-11.953125 1.828125,-9.609375 2.03125,-9.40625 3.9375,-11.265625 5.859375,-9.40625 6.0625,-9.609375 Z m 0,0"
           id="path2580" />
      </g>
      <g
         id="g8745">
        <path
           d="m 5.328125,-10.734375 c -0.4375,-1.21875 -1.796875,-1.21875 -2.015625,-1.21875 -0.109375,0 -0.296875,0 -0.296875,0.171875 0,0.140625 0.09375,0.15625 0.1875,0.171875 0.265625,0.03125 0.46875,0.07813 0.734375,0.578125 0.171875,0.328125 1.953125,5.46875 1.953125,5.5 0,0.015625 -0.015625,0.03125 -0.15625,0.171875 L 1.25,-0.828125 c -0.203125,0.203125 -0.34375,0.34375 -0.34375,0.5625 0,0.25 0.21875,0.453125 0.484375,0.453125 0.078125,0 0.265625,-0.03125 0.359375,-0.140625 0.28125,-0.25 2.75,-3.265625 4.3125,-5.125 0.453125,1.34375 1,2.921875 1.53125,4.375 0.078125,0.25 0.171875,0.5 0.40625,0.71875 0.171875,0.15625 0.21875,0.15625 0.703125,0.15625 h 0.3125 c 0.078125,0 0.203125,0 0.203125,-0.140625 0,-0.0625 -0.03125,-0.078125 -0.09375,-0.15625 -0.15625,-0.1875 -0.28125,-0.5 -0.34375,-0.703125 z m 0,0"
           id="path8243" />
      </g>
      <g
         id="g5466">
        <path
           d="m 7.671875,-6.921875 c 0.359375,0 0.484375,0 0.484375,-0.328125 0,-0.171875 -0.125,-0.171875 -0.4375,-0.171875 H 6.3125 c 0.328125,-1.765625 0.578125,-3 0.71875,-3.546875 0.09375,-0.40625 0.453125,-0.8125 0.90625,-0.8125 0.359375,0 0.71875,0.15625 0.890625,0.3125 -0.671875,0.0625 -0.875,0.5625 -0.875,0.859375 0,0.34375 0.265625,0.546875 0.59375,0.546875 0.34375,0 0.859375,-0.28125 0.859375,-0.9375 0,-0.71875 -0.734375,-1.125 -1.484375,-1.125 -0.734375,0 -1.46875,0.546875 -1.8125,1.21875 -0.3125,0.609375 -0.484375,1.234375 -0.875,3.484375 h -1.15625 c -0.328125,0 -0.5,0 -0.5,0.3125 0,0.1875 0.109375,0.1875 0.453125,0.1875 H 5.125 c -0.296875,1.59375 -1.015625,5.5 -1.40625,7.328125 -0.296875,1.5 -0.546875,2.765625 -1.40625,2.765625 -0.0625,0 -0.5625,0 -0.859375,-0.328125 0.875,-0.078125 0.875,-0.828125 0.875,-0.84375 0,-0.34375 -0.265625,-0.546875 -0.59375,-0.546875 -0.34375,0 -0.859375,0.28125 -0.859375,0.9375 0,0.75 0.765625,1.125 1.4375,1.125 1.75,0 2.46875,-3.15625 2.65625,-4.015625 0.3125,-1.328125 1.15625,-5.90625 1.25,-6.421875 z m 0,0"
           id="path3694" />
      </g>
      <g
         id="g9918">
        <path
           d="m 14.359375,-3.953125 c -0.953125,0.71875 -1.40625,1.421875 -1.546875,1.640625 -0.78125,1.1875 -0.921875,2.28125 -0.921875,2.296875 0,0.203125 0.21875,0.203125 0.359375,0.203125 0.28125,0 0.296875,-0.03125 0.375,-0.34375 0.390625,-1.6875 1.40625,-3.125 3.359375,-3.921875 0.203125,-0.078125 0.25,-0.109375 0.25,-0.234375 0,-0.109375 -0.09375,-0.171875 -0.140625,-0.1875 -0.75,-0.28125 -2.828125,-1.140625 -3.484375,-4.046875 -0.0625,-0.203125 -0.07813,-0.25 -0.359375,-0.25 -0.140625,0 -0.359375,0 -0.359375,0.203125 0,0.03125 0.15625,1.125 0.890625,2.28125 0.34375,0.515625 0.84375,1.109375 1.578125,1.65625 H 1.5625 c -0.3125,0 -0.609375,0 -0.609375,0.34375 0,0.359375 0.296875,0.359375 0.609375,0.359375 z m 0,0"
           id="path2374" />
      </g>
      <g
         id="g6373">
        <path
           d="M 8.75,-4.671875 C 7.8125,-5.84375 7.609375,-6.09375 7.078125,-6.53125 c -0.96875,-0.765625 -1.9375,-1.078125 -2.8125,-1.078125 -2.015625,0 -3.3125,1.890625 -3.3125,3.90625 0,1.984375 1.265625,3.890625 3.25,3.890625 1.984375,0 3.40625,-1.5625 4.25,-2.9375 0.9375,1.171875 1.140625,1.421875 1.671875,1.859375 0.96875,0.765625 1.921875,1.078125 2.8125,1.078125 2.015625,0 3.3125,-1.890625 3.3125,-3.90625 0,-1.984375 -1.265625,-3.890625 -3.25,-3.890625 -1.984375,0 -3.40625,1.5625 -4.25,2.9375 z m 0.4375,0.59375 c 0.71875,-1.25 1.984375,-2.984375 3.9375,-2.984375 1.828125,0 2.75,1.796875 2.75,3.34375 0,1.6875 -1.15625,3.078125 -2.671875,3.078125 -1,0 -1.765625,-0.71875 -2.125,-1.078125 -0.4375,-0.46875 -0.828125,-1 -1.890625,-2.359375 z M 8,-3.34375 c -0.703125,1.25 -1.96875,2.984375 -3.921875,2.984375 -1.828125,0 -2.75,-1.796875 -2.75,-3.34375 0,-1.6875 1.15625,-3.078125 2.671875,-3.078125 1,0 1.765625,0.71875 2.125,1.078125 0.4375,0.46875 0.828125,1 1.875,2.359375 z m 0,0"
           id="path4468" />
      </g>
      <g
         id="g357">
        <path
           d="m 3.203125,-6.984375 c 0,-0.25 0,-0.28125 -0.25,-0.28125 C 2.28125,-6.5625 1.3125,-6.5625 0.96875,-6.5625 v 0.328125 c 0.21875,0 0.859375,0 1.4375,-0.28125 v 5.65625 c 0,0.390625 -0.046875,0.515625 -1.015625,0.515625 H 1.03125 V 0 c 0.390625,-0.03125 1.328125,-0.03125 1.765625,-0.03125 0.4375,0 1.390625,0 1.765625,0.03125 V -0.34375 H 4.21875 c -0.984375,0 -1.015625,-0.109375 -1.015625,-0.515625 z m 0,0"
           id="path2257" />
      </g>
      <g
         id="g1762">
        <path
           d="m 1.734375,-7.78125 c 0,-0.203125 0,-0.390625 -0.21875,-0.390625 -0.21875,0 -0.21875,0.1875 -0.21875,0.390625 V 2.328125 c 0,0.203125 0,0.390625 0.21875,0.390625 0.21875,0 0.21875,-0.1875 0.21875,-0.390625 z m 0,0"
           id="path5156" />
      </g>
      <g
         id="g7572">
        <path
           d="m 3.890625,-3.1875 c 0.453125,1.140625 0.96875,2.8125 1.140625,3.0625 0.1875,0.25 0.296875,0.25 0.578125,0.25 h 0.25 c 0.109375,-0.015625 0.125,-0.078125 0.125,-0.109375 0,-0.03125 -0.03125,-0.0625 -0.0625,-0.109375 C 5.8125,-0.203125 5.75,-0.375 5.671875,-0.59375 L 3.453125,-6.796875 C 3.21875,-7.421875 2.625,-7.5625 2.109375,-7.5625 c -0.046875,0 -0.1875,0 -0.1875,0.109375 0,0.09375 0.078125,0.109375 0.09375,0.109375 0.359375,0.0625 0.4375,0.140625 0.703125,0.875 l 1.0625,2.96875 -3,2.984375 C 0.640625,-0.375 0.578125,-0.3125 0.578125,-0.171875 c 0,0.1875 0.15625,0.3125 0.328125,0.3125 0.171875,0 0.265625,-0.125 0.359375,-0.234375 z m 0,0"
           id="path7840" />
      </g>
      <g
         id="g1031">
        <path
           d="m 4.0625,-4.125 c -0.1875,-0.40625 -0.5,-0.703125 -1,-0.703125 -1.28125,0 -2.625,1.609375 -2.625,3.203125 0,1.03125 0.59375,1.75 1.453125,1.75 0.21875,0 0.765625,-0.046875 1.40625,-0.828125 0.09375,0.46875 0.484375,0.828125 1,0.828125 0.375,0 0.625,-0.25 0.8125,-0.609375 C 5.296875,-0.875 5.4375,-1.53125 5.4375,-1.5625 5.4375,-1.671875 5.328125,-1.671875 5.296875,-1.671875 5.1875,-1.671875 5.1875,-1.625 5.140625,-1.46875 4.96875,-0.765625 4.765625,-0.125 4.3125,-0.125 c -0.28125,0 -0.328125,-0.28125 -0.328125,-0.5 0,-0.234375 0.03125,-0.328125 0.15625,-0.796875 C 4.25,-1.890625 4.28125,-2 4.375,-2.40625 L 4.765625,-3.9375 C 4.84375,-4.25 4.84375,-4.265625 4.84375,-4.3125 c 0,-0.1875 -0.125,-0.296875 -0.3125,-0.296875 -0.265625,0 -0.4375,0.25 -0.46875,0.484375 z m -0.703125,2.828125 c -0.0625,0.203125 -0.0625,0.21875 -0.21875,0.40625 C 2.65625,-0.296875 2.21875,-0.125 1.90625,-0.125 c -0.546875,0 -0.703125,-0.59375 -0.703125,-1.015625 0,-0.546875 0.359375,-1.890625 0.609375,-2.390625 0.34375,-0.640625 0.828125,-1.046875 1.265625,-1.046875 0.703125,0 0.859375,0.890625 0.859375,0.953125 0,0.0625 -0.015625,0.140625 -0.03125,0.1875 z m 0,0"
           id="path7620" />
      </g>
      <g
         id="g2965">
        <path
           d="m 6.578125,18.3125 c 0,-0.0625 -0.03125,-0.09375 -0.0625,-0.140625 C 5.78125,17.390625 4.703125,16.09375 4.03125,13.5 3.671875,12.046875 3.515625,10.40625 3.515625,8.921875 c 0,-4.1875 1.015625,-7.125 2.921875,-9.1875 0.140625,-0.15625 0.140625,-0.1875 0.140625,-0.21875 0,-0.15625 -0.125,-0.15625 -0.1875,-0.15625 -0.234375,0 -1.09375,0.953125 -1.3125,1.203125 -1.625,1.921875 -2.65625,4.796875 -2.65625,8.34375 0,2.265625 0.40625,5.46875 2.484375,8.15625 0.15625,0.203125 1.203125,1.40625 1.484375,1.40625 0.0625,0 0.1875,0 0.1875,-0.15625 z m 0,0"
           id="path5585" />
      </g>
      <g
         id="g2461">
        <path
           d="m 4.859375,8.921875 c 0,-2.265625 -0.390625,-5.46875 -2.484375,-8.15625 -0.15625,-0.1875 -1.203125,-1.40625 -1.484375,-1.40625 -0.078125,0 -0.1875,0.03125 -0.1875,0.15625 0,0.0625 0.03125,0.125 0.09375,0.171875 C 1.5625,0.515625 2.59375,1.796875 3.25,4.328125 3.625,5.78125 3.765625,7.421875 3.765625,8.90625 c 0,1.609375 -0.140625,3.234375 -0.5625,4.796875 C 2.59375,15.9375 1.65625,17.21875 0.84375,18.109375 0.703125,18.25 0.703125,18.28125 0.703125,18.3125 c 0,0.125 0.109375,0.15625 0.1875,0.15625 0.234375,0 1.125,-0.96875 1.3125,-1.1875 1.625,-1.9375 2.65625,-4.796875 2.65625,-8.359375 z m 0,0"
           id="path7873" />
      </g>
    </g>
    <g
       id="g8355">
      <g
         id="g8626">
        <path
           d="m 6.203125,-4.453125 c 0,-1.140625 0,-1.75 -0.734375,-2.421875 -0.625,-0.5625 -1.375,-0.734375 -1.953125,-0.734375 -1.359375,0 -2.34375,1.0625 -2.34375,2.203125 0,0.640625 0.515625,0.671875 0.625,0.671875 0.21875,0 0.609375,-0.140625 0.609375,-0.625 0,-0.421875 -0.328125,-0.609375 -0.609375,-0.609375 -0.078125,0 -0.15625,0.015625 -0.21875,0.03125 0.375,-1.09375 1.296875,-1.390625 1.90625,-1.390625 0.859375,0 1.796875,0.75 1.796875,2.203125 v 0.75 C 4.265625,-4.34375 3.046875,-4.203125 2.078125,-3.6875 1,-3.078125 0.6875,-2.21875 0.6875,-1.5625 c 0,1.328125 1.546875,1.703125 2.46875,1.703125 0.9375,0 1.8125,-0.53125 2.203125,-1.515625 0.03125,0.75 0.515625,1.4375 1.265625,1.4375 0.359375,0 1.28125,-0.234375 1.28125,-1.59375 V -2.5 h -0.3125 v 0.984375 c 0,1.046875 -0.46875,1.1875 -0.6875,1.1875 -0.703125,0 -0.703125,-0.890625 -0.703125,-1.65625 z m -0.921875,2.0625 c 0,1.5 -1.0625,2.25 -2.015625,2.25 -0.859375,0 -1.53125,-0.640625 -1.53125,-1.421875 0,-0.515625 0.234375,-1.4375 1.234375,-1.984375 0.8125,-0.46875 1.765625,-0.53125 2.3125,-0.5625 z m 0,0"
           id="path9250" />
      </g>
      <g
         id="g3527">
        <path
           d="m 5.328125,-7.265625 c 0,-0.3125 -0.03125,-0.328125 -0.125,-0.328125 -0.078125,0 -0.09375,0.015625 -0.296875,0.28125 -0.046875,0.0625 -0.203125,0.234375 -0.25,0.296875 -0.5625,-0.578125 -1.328125,-0.59375 -1.625,-0.59375 -1.90625,0 -2.59375,1 -2.59375,2 0,1.546875 1.75,1.90625 2.25,2.015625 C 3.765625,-3.375 4.15625,-3.3125 4.515625,-3 c 0.21875,0.203125 0.59375,0.59375 0.59375,1.203125 0,0.734375 -0.40625,1.65625 -2,1.65625 -1.484375,0 -2.03125,-1.140625 -2.328125,-2.65625 -0.0625,-0.234375 -0.0625,-0.25 -0.203125,-0.25 -0.125,0 -0.140625,0.015625 -0.140625,0.359375 v 2.484375 c 0,0.3125 0.015625,0.328125 0.109375,0.328125 0.09375,0 0.109375,-0.015625 0.1875,-0.15625 0.109375,-0.15625 0.375,-0.578125 0.46875,-0.75 0.34375,0.46875 0.953125,0.921875 1.90625,0.921875 1.71875,0 2.625,-0.9375 2.625,-2.28125 0,-0.875 -0.46875,-1.34375 -0.6875,-1.546875 C 4.53125,-4.21875 3.921875,-4.34375 3.203125,-4.484375 2.25,-4.6875 1.046875,-4.921875 1.046875,-5.96875 c 0,-0.453125 0.25,-1.40625 1.984375,-1.40625 1.84375,0 1.9375,1.734375 1.984375,2.28125 C 5.03125,-5.015625 5.109375,-5 5.171875,-5 c 0.15625,0 0.15625,-0.046875 0.15625,-0.34375 z m 0,0"
           id="path7777" />
      </g>
      <g
         id="g7460">
        <path
           d="M 2.59375,-6.953125 H 5.015625 V -7.40625 H 2.59375 v -3.1875 H 2.296875 C 2.25,-8.8125 1.65625,-7.265625 0.1875,-7.234375 v 0.28125 h 1.5 V -2.125 c 0,0.328125 0,2.265625 2,2.265625 1.015625,0 1.59375,-1 1.59375,-2.28125 v -0.96875 h -0.3125 v 0.953125 c 0,1.1875 -0.453125,1.984375 -1.1875,1.984375 -0.5,0 -1.1875,-0.34375 -1.1875,-1.90625 z m 0,0"
           id="path1750" />
      </g>
      <g
         id="g1627">
        <path
           d="m 7.140625,-5.234375 c 0,-0.875 -0.171875,-2.3125 -2.203125,-2.3125 -1.40625,0 -2.09375,1.140625 -2.296875,1.703125 H 2.625 v -6.109375 l -2.0625,0.1875 v 0.453125 c 1.015625,0 1.171875,0.109375 1.171875,0.921875 V -1.1875 c 0,0.65625 -0.0625,0.734375 -1.171875,0.734375 V 0 c 0.421875,-0.03125 1.171875,-0.03125 1.625,-0.03125 0.453125,0 1.21875,0 1.640625,0.03125 v -0.453125 c -1.109375,0 -1.171875,-0.0625 -1.171875,-0.734375 V -4.5 c 0,-1.578125 0.953125,-2.765625 2.171875,-2.765625 1.265625,0 1.40625,1.140625 1.40625,1.96875 V -1.1875 c 0,0.65625 -0.0625,0.734375 -1.171875,0.734375 V 0 c 0.40625,-0.03125 1.171875,-0.03125 1.625,-0.03125 0.4375,0 1.21875,0 1.625,0.03125 v -0.453125 c -1.09375,0 -1.171875,-0.0625 -1.171875,-0.734375 z m 0,0"
           id="path6235" />
      </g>
      <g
         id="g3747">
        <path
           d="m 6.5625,-4.046875 c 0.0625,-0.0625 0.0625,-0.109375 0.0625,-0.28125 0,-1.75 -0.921875,-3.28125 -2.890625,-3.28125 -1.828125,0 -3.265625,1.734375 -3.265625,3.859375 0,2.234375 1.625,3.890625 3.453125,3.890625 1.9375,0 2.6875,-1.828125 2.6875,-2.1875 0,-0.125 -0.09375,-0.125 -0.140625,-0.125 -0.109375,0 -0.125,0.03125 -0.203125,0.25 -0.375,1.171875 -1.328125,1.75 -2.21875,1.75 C 3.3125,-0.171875 2.5625,-0.578125 2.09375,-1.34375 1.5625,-2.21875 1.5625,-3.234375 1.5625,-4.046875 Z M 1.578125,-4.3125 c 0.125,-2.46875 1.453125,-3.015625 2.140625,-3.015625 1.171875,0 1.96875,1.09375 1.984375,3.015625 z m 0,0"
           id="path7262" />
      </g>
      <g
         id="g5519">
        <path
           d="m 1.90625,-3.09375 c 0.328125,0.25 0.90625,0.546875 1.59375,0.546875 1.359375,0 2.53125,-1.0625 2.53125,-2.5 C 6.03125,-5.5 5.890625,-6.1875 5.375,-6.71875 c 0.484375,-0.515625 1.1875,-0.6875 1.578125,-0.6875 0.078125,0 0.171875,0 0.265625,0.046875 -0.078125,0.03125 -0.234375,0.09375 -0.234375,0.375 0,0.21875 0.15625,0.375 0.390625,0.375 0.25,0 0.390625,-0.171875 0.390625,-0.40625 0,-0.3125 -0.265625,-0.65625 -0.8125,-0.65625 -0.6875,0 -1.28125,0.3125 -1.765625,0.765625 C 4.671875,-7.375 4.046875,-7.546875 3.5,-7.546875 c -1.359375,0 -2.53125,1.078125 -2.53125,2.5 0,0.984375 0.5625,1.609375 0.734375,1.78125 C 1.1875,-2.671875 1.1875,-1.96875 1.1875,-1.875 c 0,0.453125 0.171875,1.09375 0.765625,1.46875 C 1.046875,-0.1875 0.34375,0.5 0.34375,1.359375 c 0,1.234375 1.640625,2.15625 3.59375,2.15625 1.90625,0 3.609375,-0.875 3.609375,-2.171875 C 7.546875,-1 5,-1 3.671875,-1 c -0.40625,0 -1.109375,0 -1.1875,-0.015625 -0.53125,-0.09375 -0.90625,-0.5625 -0.90625,-1.171875 0,-0.15625 0,-0.53125 0.328125,-0.90625 z m 1.59375,0.25 c -1.515625,0 -1.515625,-1.859375 -1.515625,-2.203125 0,-0.34375 0,-2.203125 1.515625,-2.203125 1.515625,0 1.515625,1.859375 1.515625,2.203125 0,0.34375 0,2.203125 -1.515625,2.203125 z m 0.4375,6.0625 c -1.71875,0 -2.90625,-0.90625 -2.90625,-1.859375 0,-0.53125 0.296875,-1.03125 0.671875,-1.3125 0.4375,-0.28125 0.609375,-0.28125 1.78125,-0.28125 1.40625,0 3.375,0 3.375,1.59375 0,0.953125 -1.1875,1.859375 -2.921875,1.859375 z m 0,0"
           id="path4173" />
      </g>
      <g
         id="g6552">
        <path
           d="m 2.578125,-4.0625 c 0,-1.65625 0.703125,-3.203125 2,-3.203125 0.125,0 0.25,0.015625 0.359375,0.0625 0,0 -0.375,0.125 -0.375,0.578125 0,0.40625 0.328125,0.578125 0.578125,0.578125 0.21875,0 0.59375,-0.125 0.59375,-0.59375 0,-0.5625 -0.546875,-0.90625 -1.140625,-0.90625 -1.3125,0 -1.875,1.28125 -2.046875,1.875 H 2.53125 v -1.875 l -2,0.1875 v 0.453125 c 1.015625,0 1.171875,0.109375 1.171875,0.9375 v 4.78125 c 0,0.65625 -0.0625,0.734375 -1.171875,0.734375 V 0 c 0.421875,-0.03125 1.203125,-0.03125 1.65625,-0.03125 0.5,0 1.375,0 1.84375,0.03125 v -0.453125 c -1.234375,0 -1.453125,0 -1.453125,-0.765625 z m 0,0"
           id="path4694" />
      </g>
      <g
         id="g7847">
        <path
           d="M 3.78125,2.90625 C 2.6875,2.90625 2.625,2.84375 2.625,2.171875 v -3.21875 c 0.484375,0.71875 1.21875,1.1875 2.125,1.1875 1.71875,0 3.46875,-1.515625 3.46875,-3.859375 0,-2.171875 -1.5,-3.828125 -3.28125,-3.828125 -1.03125,0 -1.875,0.578125 -2.359375,1.265625 v -1.265625 l -2.046875,0.1875 v 0.453125 c 1.015625,0 1.171875,0.109375 1.171875,0.9375 v 8.140625 c 0,0.65625 -0.0625,0.734375 -1.171875,0.734375 v 0.453125 c 0.421875,-0.03125 1.171875,-0.03125 1.625,-0.03125 0.4375,0 1.21875,0 1.625,0.03125 z M 2.625,-5.40625 c 0,-0.234375 0,-0.609375 0.65625,-1.234375 0.09375,-0.078125 0.671875,-0.59375 1.546875,-0.59375 1.25,0 2.28125,1.5625 2.28125,3.53125 0,1.96875 -1.09375,3.5625 -2.453125,3.5625 -0.625,0 -1.296875,-0.296875 -1.8125,-1.09375 C 2.625,-1.625 2.625,-1.71875 2.625,-2 Z m 0,0"
           id="path9015" />
      </g>
      <g
         id="g8317">
        <path
           d="m 7.421875,-3.6875 c 0,-2.203125 -1.609375,-3.921875 -3.484375,-3.921875 -1.875,0 -3.46875,1.71875 -3.46875,3.921875 0,2.171875 1.59375,3.828125 3.46875,3.828125 1.875,0 3.484375,-1.65625 3.484375,-3.828125 z M 3.9375,-0.171875 c -0.796875,0 -1.5,-0.484375 -1.890625,-1.15625 C 1.625,-2.09375 1.5625,-3.0625 1.5625,-3.828125 c 0,-0.71875 0.03125,-1.609375 0.484375,-2.390625 0.34375,-0.5625 1.015625,-1.109375 1.890625,-1.109375 0.78125,0 1.4375,0.421875 1.84375,1.03125 0.53125,0.796875 0.53125,1.9375 0.53125,2.46875 0,0.671875 -0.03125,1.703125 -0.5,2.53125 -0.46875,0.796875 -1.21875,1.125 -1.875,1.125 z m 0,0"
           id="path685" />
      </g>
      <g
         id="g892">
        <path
           d="M 2.640625,-6.953125 H 4.59375 V -7.40625 h -2 v -2.078125 c 0,-1.4375 0.734375,-2.328125 1.46875,-2.328125 0.21875,0 0.484375,0.0625 0.65625,0.1875 -0.140625,0.03125 -0.5,0.15625 -0.5,0.59375 0,0.4375 0.34375,0.578125 0.578125,0.578125 0.25,0 0.59375,-0.140625 0.59375,-0.578125 0,-0.65625 -0.625,-1.0625 -1.3125,-1.0625 -0.984375,0 -2.328125,0.8125 -2.328125,2.640625 V -7.40625 H 0.375 v 0.453125 H 1.75 V -1.1875 c 0,0.65625 -0.0625,0.734375 -1.171875,0.734375 V 0 C 1,-0.03125 1.796875,-0.03125 2.234375,-0.03125 c 0.5,0 1.375,0 1.84375,0.03125 v -0.453125 c -1.234375,0 -1.4375,0 -1.4375,-0.765625 z m 0,0"
           id="path191" />
      </g>
      <g
         id="g4002">
        <path
           d="M 3.9375,-11.953125 1.828125,-9.609375 2.03125,-9.40625 3.9375,-11.265625 5.859375,-9.40625 6.0625,-9.609375 Z m 0,0"
           id="path1206" />
      </g>
      <g
         id="g6902">
        <path
           d="m 5.328125,-10.734375 c -0.4375,-1.21875 -1.796875,-1.21875 -2.015625,-1.21875 -0.109375,0 -0.296875,0 -0.296875,0.171875 0,0.140625 0.09375,0.15625 0.1875,0.171875 0.265625,0.03125 0.46875,0.07813 0.734375,0.578125 0.171875,0.328125 1.953125,5.46875 1.953125,5.5 0,0.015625 -0.015625,0.03125 -0.15625,0.171875 L 1.25,-0.828125 c -0.203125,0.203125 -0.34375,0.34375 -0.34375,0.5625 0,0.25 0.21875,0.453125 0.484375,0.453125 0.078125,0 0.265625,-0.03125 0.359375,-0.140625 0.28125,-0.25 2.75,-3.265625 4.3125,-5.125 0.453125,1.34375 1,2.921875 1.53125,4.375 0.078125,0.25 0.171875,0.5 0.40625,0.71875 0.171875,0.15625 0.21875,0.15625 0.703125,0.15625 h 0.3125 c 0.078125,0 0.203125,0 0.203125,-0.140625 0,-0.0625 -0.03125,-0.078125 -0.09375,-0.15625 -0.15625,-0.1875 -0.28125,-0.5 -0.34375,-0.703125 z m 0,0"
           id="path406" />
      </g>
      <g
         id="g8354">
        <path
           d="m 7.671875,-6.921875 c 0.359375,0 0.484375,0 0.484375,-0.328125 0,-0.171875 -0.125,-0.171875 -0.4375,-0.171875 H 6.3125 c 0.328125,-1.765625 0.578125,-3 0.71875,-3.546875 0.09375,-0.40625 0.453125,-0.8125 0.90625,-0.8125 0.359375,0 0.71875,0.15625 0.890625,0.3125 -0.671875,0.0625 -0.875,0.5625 -0.875,0.859375 0,0.34375 0.265625,0.546875 0.59375,0.546875 0.34375,0 0.859375,-0.28125 0.859375,-0.9375 0,-0.71875 -0.734375,-1.125 -1.484375,-1.125 -0.734375,0 -1.46875,0.546875 -1.8125,1.21875 -0.3125,0.609375 -0.484375,1.234375 -0.875,3.484375 h -1.15625 c -0.328125,0 -0.5,0 -0.5,0.3125 0,0.1875 0.109375,0.1875 0.453125,0.1875 H 5.125 c -0.296875,1.59375 -1.015625,5.5 -1.40625,7.328125 -0.296875,1.5 -0.546875,2.765625 -1.40625,2.765625 -0.0625,0 -0.5625,0 -0.859375,-0.328125 0.875,-0.078125 0.875,-0.828125 0.875,-0.84375 0,-0.34375 -0.265625,-0.546875 -0.59375,-0.546875 -0.34375,0 -0.859375,0.28125 -0.859375,0.9375 0,0.75 0.765625,1.125 1.4375,1.125 1.75,0 2.46875,-3.15625 2.65625,-4.015625 0.3125,-1.328125 1.15625,-5.90625 1.25,-6.421875 z m 0,0"
           id="path7418" />
      </g>
      <g
         id="g4482">
        <path
           d="m 14.359375,-3.953125 c -0.953125,0.71875 -1.40625,1.421875 -1.546875,1.640625 -0.78125,1.1875 -0.921875,2.28125 -0.921875,2.296875 0,0.203125 0.21875,0.203125 0.359375,0.203125 0.28125,0 0.296875,-0.03125 0.375,-0.34375 0.390625,-1.6875 1.40625,-3.125 3.359375,-3.921875 0.203125,-0.078125 0.25,-0.109375 0.25,-0.234375 0,-0.109375 -0.09375,-0.171875 -0.140625,-0.1875 -0.75,-0.28125 -2.828125,-1.140625 -3.484375,-4.046875 -0.0625,-0.203125 -0.07813,-0.25 -0.359375,-0.25 -0.140625,0 -0.359375,0 -0.359375,0.203125 0,0.03125 0.15625,1.125 0.890625,2.28125 0.34375,0.515625 0.84375,1.109375 1.578125,1.65625 H 1.5625 c -0.3125,0 -0.609375,0 -0.609375,0.34375 0,0.359375 0.296875,0.359375 0.609375,0.359375 z m 0,0"
           id="path9517" />
      </g>
      <g
         id="g5889">
        <path
           d="M 8.75,-4.671875 C 7.8125,-5.84375 7.609375,-6.09375 7.078125,-6.53125 c -0.96875,-0.765625 -1.9375,-1.078125 -2.8125,-1.078125 -2.015625,0 -3.3125,1.890625 -3.3125,3.90625 0,1.984375 1.265625,3.890625 3.25,3.890625 1.984375,0 3.40625,-1.5625 4.25,-2.9375 0.9375,1.171875 1.140625,1.421875 1.671875,1.859375 0.96875,0.765625 1.921875,1.078125 2.8125,1.078125 2.015625,0 3.3125,-1.890625 3.3125,-3.90625 0,-1.984375 -1.265625,-3.890625 -3.25,-3.890625 -1.984375,0 -3.40625,1.5625 -4.25,2.9375 z m 0.4375,0.59375 c 0.71875,-1.25 1.984375,-2.984375 3.9375,-2.984375 1.828125,0 2.75,1.796875 2.75,3.34375 0,1.6875 -1.15625,3.078125 -2.671875,3.078125 -1,0 -1.765625,-0.71875 -2.125,-1.078125 -0.4375,-0.46875 -0.828125,-1 -1.890625,-2.359375 z M 8,-3.34375 c -0.703125,1.25 -1.96875,2.984375 -3.921875,2.984375 -1.828125,0 -2.75,-1.796875 -2.75,-3.34375 0,-1.6875 1.15625,-3.078125 2.671875,-3.078125 1,0 1.765625,0.71875 2.125,1.078125 0.4375,0.46875 0.828125,1 1.875,2.359375 z m 0,0"
           id="path9717" />
      </g>
      <g
         id="g9320">
        <path
           d="m 3.203125,-6.984375 c 0,-0.25 0,-0.28125 -0.25,-0.28125 C 2.28125,-6.5625 1.3125,-6.5625 0.96875,-6.5625 v 0.328125 c 0.21875,0 0.859375,0 1.4375,-0.28125 v 5.65625 c 0,0.390625 -0.046875,0.515625 -1.015625,0.515625 H 1.03125 V 0 c 0.390625,-0.03125 1.328125,-0.03125 1.765625,-0.03125 0.4375,0 1.390625,0 1.765625,0.03125 V -0.34375 H 4.21875 c -0.984375,0 -1.015625,-0.109375 -1.015625,-0.515625 z m 0,0"
           id="path7288" />
      </g>
      <g
         id="g4063">
        <path
           d="m 1.734375,-7.78125 c 0,-0.203125 0,-0.390625 -0.21875,-0.390625 -0.21875,0 -0.21875,0.1875 -0.21875,0.390625 V 2.328125 c 0,0.203125 0,0.390625 0.21875,0.390625 0.21875,0 0.21875,-0.1875 0.21875,-0.390625 z m 0,0"
           id="path4872" />
      </g>
      <g
         id="g3833">
        <path
           d="m 3.890625,-3.1875 c 0.453125,1.140625 0.96875,2.8125 1.140625,3.0625 0.1875,0.25 0.296875,0.25 0.578125,0.25 h 0.25 c 0.109375,-0.015625 0.125,-0.078125 0.125,-0.109375 0,-0.03125 -0.03125,-0.0625 -0.0625,-0.109375 C 5.8125,-0.203125 5.75,-0.375 5.671875,-0.59375 L 3.453125,-6.796875 C 3.21875,-7.421875 2.625,-7.5625 2.109375,-7.5625 c -0.046875,0 -0.1875,0 -0.1875,0.109375 0,0.09375 0.078125,0.109375 0.09375,0.109375 0.359375,0.0625 0.4375,0.140625 0.703125,0.875 l 1.0625,2.96875 -3,2.984375 C 0.640625,-0.375 0.578125,-0.3125 0.578125,-0.171875 c 0,0.1875 0.15625,0.3125 0.328125,0.3125 0.171875,0 0.265625,-0.125 0.359375,-0.234375 z m 0,0"
           id="path2041" />
      </g>
      <g
         id="g8385">
        <path
           d="m 4.0625,-4.125 c -0.1875,-0.40625 -0.5,-0.703125 -1,-0.703125 -1.28125,0 -2.625,1.609375 -2.625,3.203125 0,1.03125 0.59375,1.75 1.453125,1.75 0.21875,0 0.765625,-0.046875 1.40625,-0.828125 0.09375,0.46875 0.484375,0.828125 1,0.828125 0.375,0 0.625,-0.25 0.8125,-0.609375 C 5.296875,-0.875 5.4375,-1.53125 5.4375,-1.5625 5.4375,-1.671875 5.328125,-1.671875 5.296875,-1.671875 5.1875,-1.671875 5.1875,-1.625 5.140625,-1.46875 4.96875,-0.765625 4.765625,-0.125 4.3125,-0.125 c -0.28125,0 -0.328125,-0.28125 -0.328125,-0.5 0,-0.234375 0.03125,-0.328125 0.15625,-0.796875 C 4.25,-1.890625 4.28125,-2 4.375,-2.40625 L 4.765625,-3.9375 C 4.84375,-4.25 4.84375,-4.265625 4.84375,-4.3125 c 0,-0.1875 -0.125,-0.296875 -0.3125,-0.296875 -0.265625,0 -0.4375,0.25 -0.46875,0.484375 z m -0.703125,2.828125 c -0.0625,0.203125 -0.0625,0.21875 -0.21875,0.40625 C 2.65625,-0.296875 2.21875,-0.125 1.90625,-0.125 c -0.546875,0 -0.703125,-0.59375 -0.703125,-1.015625 0,-0.546875 0.359375,-1.890625 0.609375,-2.390625 0.34375,-0.640625 0.828125,-1.046875 1.265625,-1.046875 0.703125,0 0.859375,0.890625 0.859375,0.953125 0,0.0625 -0.015625,0.140625 -0.03125,0.1875 z m 0,0"
           id="path6790" />
      </g>
      <g
         id="g8333">
        <path
           d="m 6.578125,18.3125 c 0,-0.0625 -0.03125,-0.09375 -0.0625,-0.140625 C 5.78125,17.390625 4.703125,16.09375 4.03125,13.5 3.671875,12.046875 3.515625,10.40625 3.515625,8.921875 c 0,-4.1875 1.015625,-7.125 2.921875,-9.1875 0.140625,-0.15625 0.140625,-0.1875 0.140625,-0.21875 0,-0.15625 -0.125,-0.15625 -0.1875,-0.15625 -0.234375,0 -1.09375,0.953125 -1.3125,1.203125 -1.625,1.921875 -2.65625,4.796875 -2.65625,8.34375 0,2.265625 0.40625,5.46875 2.484375,8.15625 0.15625,0.203125 1.203125,1.40625 1.484375,1.40625 0.0625,0 0.1875,0 0.1875,-0.15625 z m 0,0"
           id="path7232" />
      </g>
      <g
         id="g1574">
        <path
           d="m 4.859375,8.921875 c 0,-2.265625 -0.390625,-5.46875 -2.484375,-8.15625 -0.15625,-0.1875 -1.203125,-1.40625 -1.484375,-1.40625 -0.078125,0 -0.1875,0.03125 -0.1875,0.15625 0,0.0625 0.03125,0.125 0.09375,0.171875 C 1.5625,0.515625 2.59375,1.796875 3.25,4.328125 3.625,5.78125 3.765625,7.421875 3.765625,8.90625 c 0,1.609375 -0.140625,3.234375 -0.5625,4.796875 C 2.59375,15.9375 1.65625,17.21875 0.84375,18.109375 0.703125,18.25 0.703125,18.28125 0.703125,18.3125 c 0,0.125 0.109375,0.15625 0.1875,0.15625 0.234375,0 1.125,-0.96875 1.3125,-1.1875 1.625,-1.9375 2.65625,-4.796875 2.65625,-8.359375 z m 0,0"
           id="path5294" />
      </g>
    </g>
    <g
       id="g7294">
      <g
         id="g379">
        <path
           d="m 5.53125,-3.828125 c 0,-0.78125 0,-1.34375 -0.625,-1.90625 -0.5,-0.46875 -1.140625,-0.65625 -1.78125,-0.65625 -1.171875,0 -2.078125,0.765625 -2.078125,1.703125 0,0.40625 0.265625,0.609375 0.609375,0.609375 C 2,-4.078125 2.234375,-4.3125 2.234375,-4.65625 2.234375,-5.25 1.71875,-5.25 1.5,-5.25 c 0.34375,-0.609375 1.03125,-0.859375 1.59375,-0.859375 0.671875,0 1.515625,0.546875 1.515625,1.828125 v 0.578125 C 1.71875,-3.65625 0.625,-2.453125 0.625,-1.34375 c 0,1.125 1.328125,1.484375 2.203125,1.484375 0.9375,0 1.59375,-0.578125 1.859375,-1.265625 0.0625,0.6875 0.5,1.203125 1.125,1.203125 0.296875,0 1.125,-0.203125 1.125,-1.359375 V -2.078125 H 6.625 v 0.796875 c 0,0.828125 -0.34375,0.9375 -0.546875,0.9375 -0.546875,0 -0.546875,-0.765625 -0.546875,-0.96875 z m -0.921875,1.8125 c 0,1.40625 -1.046875,1.875 -1.671875,1.875 -0.703125,0 -1.28125,-0.515625 -1.28125,-1.203125 0,-1.890625 2.4375,-2.0625 2.953125,-2.09375 z m 0,0"
           id="path5872" />
      </g>
      <g
         id="g3853">
        <path
           d="m 4.703125,-6.0625 c 0,-0.265625 0,-0.328125 -0.140625,-0.328125 -0.109375,0 -0.390625,0.3125 -0.484375,0.4375 C 3.625,-6.3125 3.1875,-6.390625 2.71875,-6.390625 c -1.734375,0 -2.25,0.9375 -2.25,1.734375 0,0.15625 0,0.65625 0.546875,1.15625 0.46875,0.40625 0.953125,0.5 1.609375,0.625 0.78125,0.15625 0.96875,0.203125 1.328125,0.5 0.265625,0.203125 0.453125,0.53125 0.453125,0.921875 0,0.625 -0.359375,1.3125 -1.625,1.3125 -0.9375,0 -1.640625,-0.546875 -1.953125,-1.984375 -0.046875,-0.25 -0.046875,-0.265625 -0.0625,-0.28125 -0.03125,-0.0625 -0.09375,-0.0625 -0.140625,-0.0625 -0.15625,0 -0.15625,0.078125 -0.15625,0.328125 V -0.1875 c 0,0.265625 0,0.328125 0.140625,0.328125 0.078125,0 0.09375,-0.015625 0.34375,-0.3125 0.0625,-0.09375 0.0625,-0.125 0.28125,-0.359375 0.546875,0.671875 1.3125,0.671875 1.5625,0.671875 1.5,0 2.25,-0.828125 2.25,-1.96875 0,-0.765625 -0.46875,-1.234375 -0.59375,-1.359375 C 3.9375,-3.625 3.546875,-3.71875 2.59375,-3.890625 2.171875,-3.96875 1.125,-4.171875 1.125,-5.03125 c 0,-0.453125 0.296875,-1.109375 1.59375,-1.109375 1.5625,0 1.640625,1.328125 1.671875,1.78125 C 4.40625,-4.25 4.5,-4.25 4.546875,-4.25 c 0.15625,0 0.15625,-0.0625 0.15625,-0.328125 z m 0,0"
           id="path5013" />
      </g>
      <g
         id="g209">
        <path
           d="M 2.40625,-5.765625 H 4.4375 V -6.1875 H 2.40625 V -8.828125 H 2.09375 C 2.078125,-7.46875 1.5625,-6.09375 0.265625,-6.046875 v 0.28125 h 1.21875 v 3.984375 c 0,1.59375 1.046875,1.921875 1.8125,1.921875 0.90625,0 1.375,-0.890625 1.375,-1.921875 v -0.8125 h -0.3125 v 0.78125 c 0,1.03125 -0.421875,1.640625 -0.96875,1.640625 C 2.40625,-0.171875 2.40625,-1.5 2.40625,-1.75 Z m 0,0"
           id="path5308" />
      </g>
      <g
         id="g7220">
        <path
           d="m 6.390625,-3.484375 c 0,-1.328125 0,-1.734375 -0.34375,-2.203125 -0.40625,-0.546875 -1.078125,-0.640625 -1.578125,-0.640625 -1.234375,0 -1.796875,0.9375 -2,1.375 H 2.453125 v -5 l -2,0.15625 V -9.375 c 0.984375,0 1.09375,0.09375 1.09375,0.796875 V -1.0625 c 0,0.640625 -0.15625,0.640625 -1.09375,0.640625 V 0 c 0.375,-0.03125 1.15625,-0.03125 1.5625,-0.03125 0.40625,0 1.1875,0 1.5625,0.03125 v -0.421875 c -0.921875,0 -1.09375,0 -1.09375,-0.640625 v -2.671875 c 0,-1.5 0.984375,-2.296875 1.875,-2.296875 0.890625,0 1.09375,0.71875 1.09375,1.59375 v 3.375 c 0,0.640625 -0.15625,0.640625 -1.09375,0.640625 V 0 c 0.375,-0.03125 1.15625,-0.03125 1.546875,-0.03125 0.421875,0 1.1875,0 1.5625,0.03125 v -0.421875 c -0.71875,0 -1.078125,0 -1.078125,-0.421875 z m 0,0"
           id="path1788" />
      </g>
      <g
         id="g7132">
        <path
           d="m 5.5,-3.328125 c 0.3125,0 0.34375,0 0.34375,-0.265625 0,-1.453125 -0.78125,-2.796875 -2.515625,-2.796875 -1.640625,0 -2.890625,1.46875 -2.890625,3.25 0,1.890625 1.453125,3.28125 3.046875,3.28125 1.703125,0 2.359375,-1.546875 2.359375,-1.84375 0,-0.09375 -0.078125,-0.140625 -0.15625,-0.140625 -0.125,0 -0.15625,0.0625 -0.171875,0.140625 -0.375,1.203125 -1.34375,1.53125 -1.9375,1.53125 -0.609375,0 -2.0625,-0.40625 -2.0625,-2.890625 V -3.328125 Z M 1.53125,-3.59375 c 0.125,-2.265625 1.375,-2.515625 1.78125,-2.515625 1.53125,0 1.625,2.015625 1.640625,2.515625 z m 0,0"
           id="path5302" />
      </g>
      <g
         id="g8245">
        <path
           d="m 1.703125,-2.59375 c 0.671875,0.4375 1.25,0.4375 1.40625,0.4375 1.296875,0 2.25,-0.96875 2.25,-2.078125 C 5.359375,-4.625 5.25,-5.15625 4.796875,-5.625 5.34375,-6.203125 6.03125,-6.203125 6.09375,-6.203125 c 0.0625,0 0.125,0 0.1875,0.03125 -0.140625,0.0625 -0.21875,0.203125 -0.21875,0.359375 0,0.203125 0.140625,0.375 0.375,0.375 0.125,0 0.375,-0.078125 0.375,-0.390625 0,-0.25 -0.203125,-0.65625 -0.703125,-0.65625 -0.75,0 -1.296875,0.453125 -1.5,0.671875 -0.4375,-0.328125 -0.9375,-0.515625 -1.484375,-0.515625 -1.28125,0 -2.25,0.984375 -2.25,2.078125 0,0.828125 0.5,1.359375 0.640625,1.484375 -0.171875,0.21875 -0.421875,0.625 -0.421875,1.1875 0,0.828125 0.5,1.1875 0.609375,1.265625 -0.65625,0.1875 -1.3125,0.703125 -1.3125,1.453125 0,0.984375 1.34375,1.796875 3.109375,1.796875 1.703125,0 3.125,-0.75 3.125,-1.828125 0,-0.359375 -0.09375,-1.203125 -0.953125,-1.65625 -0.734375,-0.375 -1.453125,-0.375 -2.6875,-0.375 -0.875,0 -0.96875,0 -1.234375,-0.265625 -0.140625,-0.140625 -0.265625,-0.421875 -0.265625,-0.71875 0,-0.25 0.078125,-0.484375 0.21875,-0.6875 z M 3.125,-2.453125 c -1.265625,0 -1.265625,-1.453125 -1.265625,-1.78125 0,-0.25 0,-0.84375 0.25,-1.234375 0.265625,-0.40625 0.703125,-0.5625 1,-0.5625 1.265625,0 1.265625,1.453125 1.265625,1.78125 0,0.265625 0,0.84375 -0.25,1.234375 -0.265625,0.421875 -0.703125,0.5625 -1,0.5625 z m 0.390625,5.09375 C 2.140625,2.640625 1.09375,1.9375 1.09375,1.125 1.09375,1 1.125,0.4375 1.65625,0.078125 1.984375,-0.125 2.109375,-0.125 3.109375,-0.125 c 1.1875,0 2.8125,0 2.8125,1.25 0,0.84375 -1.09375,1.515625 -2.40625,1.515625 z m 0,0"
           id="path9124" />
      </g>
      <g
         id="g9673">
        <path
           d="m 2.390625,-3.34375 c 0,-1.390625 0.578125,-2.6875 1.6875,-2.6875 0.109375,0 0.140625,0 0.203125,0 C 4.15625,-5.96875 3.9375,-5.875 3.9375,-5.5 c 0,0.421875 0.328125,0.578125 0.546875,0.578125 0.296875,0 0.578125,-0.1875 0.578125,-0.578125 0,-0.421875 -0.390625,-0.828125 -1,-0.828125 -1.21875,0 -1.640625,1.328125 -1.71875,1.59375 H 2.328125 v -1.59375 L 0.40625,-6.171875 V -5.75 c 0.96875,0 1.078125,0.09375 1.078125,0.796875 V -1.0625 c 0,0.640625 -0.15625,0.640625 -1.078125,0.640625 V 0 c 0.390625,-0.03125 1.1875,-0.03125 1.609375,-0.03125 0.390625,0 1.40625,0 1.75,0.03125 V -0.421875 H 3.46875 c -1.046875,0 -1.078125,-0.15625 -1.078125,-0.671875 z m 0,0"
           id="path2930" />
      </g>
      <g
         id="g3430">
        <path
           d="m 3.515625,2.359375 c -0.921875,0 -1.09375,0 -1.09375,-0.640625 v -2.5 c 0.265625,0.359375 0.84375,0.921875 1.765625,0.921875 1.65625,0 3.09375,-1.390625 3.09375,-3.234375 0,-1.828125 -1.34375,-3.234375 -2.90625,-3.234375 -1.265625,0 -1.9375,0.90625 -1.984375,0.96875 v -0.96875 L 0.40625,-6.171875 V -5.75 c 1,0 1.078125,0.09375 1.078125,0.734375 V 1.71875 c 0,0.640625 -0.15625,0.640625 -1.078125,0.640625 V 2.78125 C 0.78125,2.75 1.546875,2.75 1.953125,2.75 c 0.40625,0 1.1875,0 1.5625,0.03125 z m -1.09375,-6.9375 c 0,-0.265625 0,-0.28125 0.15625,-0.515625 0.4375,-0.640625 1.140625,-0.921875 1.6875,-0.921875 1.0625,0 1.9375,1.3125 1.9375,2.921875 0,1.703125 -0.984375,2.953125 -2.09375,2.953125 -0.4375,0 -0.859375,-0.1875 -1.140625,-0.46875 C 2.640625,-0.9375 2.421875,-1.21875 2.421875,-1.625 Z m 0,0"
           id="path9624" />
      </g>
      <g
         id="g1051">
        <path
           d="m 6.578125,-3.0625 c 0,-1.859375 -1.40625,-3.328125 -3.0625,-3.328125 -1.71875,0 -3.078125,1.515625 -3.078125,3.328125 0,1.828125 1.421875,3.203125 3.0625,3.203125 1.6875,0 3.078125,-1.40625 3.078125,-3.203125 z m -3.0625,2.890625 c -0.53125,0 -1.171875,-0.234375 -1.59375,-0.9375 C 1.53125,-1.75 1.515625,-2.59375 1.515625,-3.203125 c 0,-0.546875 0,-1.421875 0.453125,-2.0625 C 2.359375,-5.875 3,-6.109375 3.5,-6.109375 c 0.5625,0 1.15625,0.25 1.546875,0.8125 C 5.5,-4.640625 5.5,-3.734375 5.5,-3.203125 c 0,0.5 0,1.390625 -0.375,2.0625 -0.40625,0.703125 -1.0625,0.96875 -1.609375,0.96875 z m 0,0"
           id="path9779" />
      </g>
      <g
         id="g4572">
        <path
           d="m 2.46875,-5.765625 h 1.625 V -6.1875 H 2.4375 v -1.671875 c 0,-1.296875 0.65625,-1.953125 1.25,-1.953125 0.109375,0 0.328125,0.03125 0.5,0.109375 -0.0625,0.015625 -0.421875,0.15625 -0.421875,0.5625 0,0.328125 0.234375,0.5625 0.5625,0.5625 0.34375,0 0.578125,-0.234375 0.578125,-0.578125 0,-0.53125 -0.515625,-0.9375 -1.203125,-0.9375 -1,0 -2.140625,0.765625 -2.140625,2.234375 V -6.1875 h -1.125 v 0.421875 h 1.125 V -1.0625 c 0,0.640625 -0.15625,0.640625 -1.09375,0.640625 V 0 c 0.40625,-0.03125 1.1875,-0.03125 1.625,-0.03125 0.390625,0 1.40625,0 1.734375,0.03125 V -0.421875 H 3.546875 C 2.5,-0.421875 2.46875,-0.578125 2.46875,-1.09375 Z m 0,0"
           id="path2791" />
      </g>
      <g
         id="g4378">
        <path
           d="M 3.515625,-9.953125 1.640625,-8 1.859375,-7.78125 3.5,-9.265625 5.15625,-7.78125 5.375,-8 Z m 0,0"
           id="path7921" />
      </g>
      <g
         id="g2038">
        <path
           d="m 2.46875,-9.953125 -2,0.15625 V -9.375 c 0.984375,0 1.09375,0.09375 1.09375,0.796875 V -1.0625 c 0,0.640625 -0.15625,0.640625 -1.09375,0.640625 V 0 c 0.40625,-0.03125 1.109375,-0.03125 1.546875,-0.03125 0.421875,0 1.140625,0 1.546875,0.03125 v -0.421875 c -0.921875,0 -1.09375,0 -1.09375,-0.640625 z m 0,0"
           id="path8642" />
      </g>
      <g
         id="g7820">
        <path
           d="m 4.015625,-3.796875 c 0,-0.015625 -0.09375,-0.140625 -0.09375,-0.140625 0,-0.046875 0.890625,-0.828125 1.015625,-0.9375 0.984375,-0.859375 1.625,-0.875 1.921875,-0.890625 V -6.1875 c -0.296875,0.03125 -0.65625,0.03125 -1.09375,0.03125 -0.375,0 -1.109375,0 -1.4375,-0.03125 v 0.421875 C 4.578125,-5.75 4.75,-5.625 4.75,-5.390625 c 0,0.28125 -0.296875,0.546875 -0.296875,0.546875 l -2.0625,1.796875 v -6.90625 L 0.40625,-9.796875 V -9.375 c 0.96875,0 1.078125,0.09375 1.078125,0.796875 V -1.0625 c 0,0.640625 -0.15625,0.640625 -1.078125,0.640625 V 0 c 0.390625,-0.03125 1.078125,-0.03125 1.515625,-0.03125 0.4375,0 1.125,0 1.515625,0.03125 v -0.421875 c -0.90625,0 -1.078125,0 -1.078125,-0.640625 v -1.515625 l 0.90625,-0.8125 1.375,1.984375 c 0.21875,0.296875 0.328125,0.453125 0.328125,0.65625 0,0.265625 -0.203125,0.328125 -0.515625,0.328125 V 0 c 0.359375,-0.03125 1.0625,-0.03125 1.453125,-0.03125 0.625,0 0.65625,0 1.265625,0.03125 v -0.421875 c -0.390625,0 -0.828125,0 -1.234375,-0.578125 z m 0,0"
           id="path4995" />
      </g>
      <g
         id="g6046">
        <path
           d="m 2.5,-8.828125 c 0,-0.375 -0.3125,-0.703125 -0.703125,-0.703125 -0.375,0 -0.6875,0.296875 -0.6875,0.6875 0,0.421875 0.34375,0.703125 0.6875,0.703125 0.4375,0 0.703125,-0.375 0.703125,-0.6875 z m -1.984375,2.65625 V -5.75 c 0.921875,0 1.046875,0.078125 1.046875,0.78125 v 3.90625 c 0,0.640625 -0.15625,0.640625 -1.09375,0.640625 V 0 C 0.875,-0.03125 1.5625,-0.03125 1.984375,-0.03125 c 0.15625,0 0.984375,0 1.46875,0.03125 v -0.421875 c -0.921875,0 -0.984375,-0.0625 -0.984375,-0.625 v -5.28125 z m 0,0"
           id="path6688" />
      </g>
      <g
         id="g6936">
        <path
           d="m 4.4375,-8.9375 c -0.359375,-1.015625 -1.5,-1.015625 -1.6875,-1.015625 -0.078125,0 -0.234375,0 -0.234375,0.140625 0,0.109375 0.078125,0.125 0.15625,0.140625 0.21875,0.03125 0.390625,0.0625 0.609375,0.484375 0.140625,0.265625 1.625,4.546875 1.625,4.578125 0,0.015625 -0.015625,0.03125 -0.125,0.15625 L 1.046875,-0.6875 c -0.171875,0.171875 -0.28125,0.28125 -0.28125,0.46875 0,0.203125 0.171875,0.375 0.390625,0.375 0.0625,0 0.21875,-0.03125 0.3125,-0.109375 0.21875,-0.21875 2.28125,-2.734375 3.578125,-4.28125 0.375,1.125 0.828125,2.4375 1.28125,3.640625 0.0625,0.21875 0.140625,0.421875 0.34375,0.609375 0.140625,0.125 0.171875,0.125 0.578125,0.125 h 0.265625 c 0.0625,0 0.15625,0 0.15625,-0.109375 0,-0.0625 -0.015625,-0.078125 -0.0625,-0.125 C 7.46875,-0.265625 7.375,-0.515625 7.3125,-0.6875 Z m 0,0"
           id="path9749" />
      </g>
      <g
         id="g988">
        <path
           d="m 6.390625,-5.765625 c 0.296875,0 0.40625,0 0.40625,-0.265625 0,-0.15625 -0.109375,-0.15625 -0.375,-0.15625 h -1.15625 c 0.265625,-1.46875 0.46875,-2.484375 0.59375,-2.953125 0.078125,-0.34375 0.375,-0.671875 0.75,-0.671875 0.296875,0 0.609375,0.125 0.75,0.265625 C 6.796875,-9.5 6.625,-9.078125 6.625,-8.828125 c 0,0.28125 0.21875,0.453125 0.484375,0.453125 0.296875,0 0.71875,-0.25 0.71875,-0.796875 0,-0.59375 -0.59375,-0.921875 -1.234375,-0.921875 -0.609375,0 -1.21875,0.453125 -1.5,1.015625 -0.265625,0.5 -0.40625,1.015625 -0.734375,2.890625 H 3.40625 c -0.28125,0 -0.421875,0 -0.421875,0.265625 0,0.15625 0.078125,0.15625 0.375,0.15625 H 4.28125 C 4.015625,-4.4375 3.421875,-1.1875 3.09375,0.34375 c -0.234375,1.25 -0.453125,2.296875 -1.171875,2.296875 -0.046875,0 -0.453125,0 -0.71875,-0.28125 C 1.9375,2.3125 1.9375,1.671875 1.9375,1.65625 1.9375,1.375 1.71875,1.203125 1.453125,1.203125 c -0.296875,0 -0.71875,0.25 -0.71875,0.796875 0,0.609375 0.625,0.921875 1.1875,0.921875 1.46875,0 2.0625,-2.625 2.21875,-3.34375 0.265625,-1.09375 0.96875,-4.90625 1.03125,-5.34375 z m 0,0"
           id="path2925" />
      </g>
      <g
         id="g1429">
        <path
           d="m 11.96875,-3.296875 c -0.796875,0.59375 -1.1875,1.1875 -1.296875,1.375 -0.640625,0.984375 -0.765625,1.890625 -0.765625,1.90625 0,0.171875 0.171875,0.171875 0.296875,0.171875 0.234375,0 0.25,-0.03125 0.3125,-0.28125 0.328125,-1.40625 1.171875,-2.609375 2.796875,-3.28125 0.171875,-0.046875 0.21875,-0.078125 0.21875,-0.171875 0,-0.109375 -0.09375,-0.15625 -0.125,-0.171875 -0.625,-0.234375 -2.359375,-0.953125 -2.90625,-3.359375 -0.04687,-0.171875 -0.0625,-0.21875 -0.296875,-0.21875 -0.125,0 -0.296875,0 -0.296875,0.171875 0,0.03125 0.140625,0.9375 0.734375,1.890625 0.296875,0.4375 0.703125,0.9375 1.328125,1.390625 H 1.3125 c -0.265625,0 -0.53125,0 -0.53125,0.296875 0,0.28125 0.265625,0.28125 0.53125,0.28125 z m 0,0"
           id="path5735" />
      </g>
      <g
         id="g3640">
        <path
           d="M 7.28125,-3.890625 C 6.515625,-4.859375 6.34375,-5.078125 5.890625,-5.4375 5.09375,-6.078125 4.28125,-6.34375 3.5625,-6.34375 c -1.6875,0 -2.78125,1.578125 -2.78125,3.265625 0,1.640625 1.0625,3.234375 2.71875,3.234375 1.65625,0 2.84375,-1.296875 3.546875,-2.453125 0.765625,0.984375 0.9375,1.1875 1.390625,1.546875 0.796875,0.65625 1.609375,0.90625 2.328125,0.90625 1.6875,0 2.78125,-1.578125 2.78125,-3.25 0,-1.65625 -1.0625,-3.25 -2.71875,-3.25 -1.640625,0 -2.84375,1.3125 -3.546875,2.453125 z m 0.375,0.484375 C 8.25,-4.4375 9.3125,-5.875 10.9375,-5.875 c 1.515625,0 2.28125,1.484375 2.28125,2.78125 0,1.40625 -0.953125,2.5625 -2.21875,2.5625 -0.828125,0 -1.46875,-0.609375 -1.78125,-0.90625 -0.359375,-0.390625 -0.6875,-0.828125 -1.5625,-1.96875 z m -0.984375,0.625 c -0.59375,1.03125 -1.65625,2.484375 -3.265625,2.484375 -1.53125,0 -2.296875,-1.5 -2.296875,-2.78125 0,-1.40625 0.953125,-2.578125 2.21875,-2.578125 0.828125,0 1.484375,0.609375 1.78125,0.90625 0.359375,0.390625 0.6875,0.828125 1.5625,1.96875 z m 0,0"
           id="path971" />
      </g>
      <g
         id="g3061">
        <path
           d="m 2.9375,-6.375 c 0,-0.25 0,-0.265625 -0.234375,-0.265625 C 2.078125,-6 1.203125,-6 0.890625,-6 v 0.3125 c 0.203125,0 0.78125,0 1.296875,-0.265625 v 5.171875 c 0,0.359375 -0.03125,0.46875 -0.921875,0.46875 h -0.3125 V 0 c 0.34375,-0.03125 1.203125,-0.03125 1.609375,-0.03125 0.390625,0 1.265625,0 1.609375,0.03125 v -0.3125 h -0.3125 c -0.90625,0 -0.921875,-0.109375 -0.921875,-0.46875 z m 0,0"
           id="path7411" />
      </g>
      <g
         id="g7495">
        <path
           d="m 1.578125,-7.125 c 0,-0.171875 0,-0.359375 -0.1875,-0.359375 -0.203125,0 -0.203125,0.1875 -0.203125,0.359375 v 9.265625 c 0,0.171875 0,0.359375 0.203125,0.359375 0.1875,0 0.1875,-0.1875 0.1875,-0.359375 z m 0,0"
           id="path6923" />
      </g>
      <g
         id="g2588">
        <path
           d="m 3.5625,-2.90625 c 0.40625,1.046875 0.890625,2.5625 1.046875,2.796875 0.15625,0.21875 0.25,0.21875 0.53125,0.21875 h 0.21875 c 0.09375,-0.015625 0.109375,-0.0625 0.109375,-0.09375 0,-0.03125 -0.03125,-0.0625 -0.0625,-0.09375 C 5.3125,-0.1875 5.25,-0.34375 5.1875,-0.53125 L 3.15625,-6.203125 c -0.21875,-0.578125 -0.75,-0.71875 -1.21875,-0.71875 -0.046875,0 -0.1875,0 -0.1875,0.109375 0,0.078125 0.078125,0.109375 0.09375,0.109375 C 2.171875,-6.65625 2.25,-6.59375 2.5,-5.90625 l 0.953125,2.703125 -2.75,2.734375 c -0.109375,0.125 -0.171875,0.171875 -0.171875,0.3125 0,0.171875 0.140625,0.28125 0.296875,0.28125 0.15625,0 0.25,-0.109375 0.328125,-0.203125 z m 0,0"
           id="path7403" />
      </g>
      <g
         id="g9902">
        <path
           d="M 3.71875,-3.765625 C 3.53125,-4.140625 3.25,-4.40625 2.796875,-4.40625 c -1.15625,0 -2.390625,1.46875 -2.390625,2.921875 0,0.9375 0.546875,1.59375 1.3125,1.59375 0.203125,0 0.703125,-0.046875 1.296875,-0.75 0.078125,0.421875 0.4375,0.75 0.90625,0.75 0.359375,0 0.578125,-0.234375 0.75,-0.546875 0.15625,-0.359375 0.296875,-0.96875 0.296875,-0.984375 0,-0.109375 -0.09375,-0.109375 -0.125,-0.109375 -0.09375,0 -0.109375,0.046875 -0.140625,0.1875 -0.171875,0.640625 -0.34375,1.234375 -0.75,1.234375 -0.28125,0 -0.296875,-0.265625 -0.296875,-0.453125 0,-0.21875 0.015625,-0.3125 0.125,-0.75 C 3.890625,-1.71875 3.90625,-1.828125 4,-2.203125 L 4.359375,-3.59375 c 0.0625,-0.28125 0.0625,-0.296875 0.0625,-0.34375 0,-0.171875 -0.109375,-0.265625 -0.28125,-0.265625 -0.25,0 -0.390625,0.21875 -0.421875,0.4375 z M 3.078125,-1.1875 C 3.015625,-1 3.015625,-0.984375 2.875,-0.8125 2.4375,-0.265625 2.03125,-0.109375 1.75,-0.109375 c -0.5,0 -0.640625,-0.546875 -0.640625,-0.9375 0,-0.5 0.3125,-1.71875 0.546875,-2.1875 0.3125,-0.578125 0.75,-0.953125 1.15625,-0.953125 0.640625,0 0.78125,0.8125 0.78125,0.875 0,0.0625 -0.015625,0.125 -0.03125,0.171875 z m 0,0"
           id="path6500" />
      </g>
      <g
         id="g5392">
        <path
           d="m 5.921875,16.484375 c 0,-0.0625 -0.03125,-0.09375 -0.0625,-0.125 -0.65625,-0.703125 -1.625,-1.875 -2.234375,-4.203125 -0.328125,-1.3125 -0.453125,-2.796875 -0.453125,-4.125 0,-3.765625 0.90625,-6.40625 2.625,-8.28125 0.125,-0.125 0.125,-0.15625 0.125,-0.1875 C 5.921875,-0.578125 5.8125,-0.578125 5.75,-0.578125 5.53125,-0.578125 4.765625,0.28125 4.578125,0.5 3.109375,2.234375 2.1875,4.8125 2.1875,8.015625 c 0,2.046875 0.34375,4.921875 2.234375,7.34375 C 4.5625,15.53125 5.5,16.625 5.75,16.625 c 0.0625,0 0.171875,0 0.171875,-0.140625 z m 0,0"
           id="path9633" />
      </g>
      <g
         id="g1547">
        <path
           d="M 4.375,8.03125 C 4.375,6 4.015625,3.109375 2.140625,0.6875 2,0.515625 1.0625,-0.578125 0.796875,-0.578125 c -0.0625,0 -0.171875,0.03125 -0.171875,0.140625 0,0.0625 0.03125,0.109375 0.09375,0.15625 0.6875,0.734375 1.625,1.90625 2.203125,4.1875 0.328125,1.296875 0.46875,2.78125 0.46875,4.109375 0,1.453125 -0.140625,2.921875 -0.5,4.3125 -0.546875,2.015625 -1.40625,3.15625 -2.125,3.96875 -0.140625,0.125 -0.140625,0.15625 -0.140625,0.1875 0,0.109375 0.109375,0.140625 0.171875,0.140625 0.21875,0 1.015625,-0.875 1.1875,-1.078125 C 3.4375,13.8125 4.375,11.234375 4.375,8.03125 Z m 0,0"
           id="path166" />
      </g>
    </g>
  </defs>
  <path
     style="fill:#25731a;stroke:#000000;stroke-width:0.379;stroke-linecap:round;stroke-linejoin:round;stroke-miterlimit:3.5;stroke-dashoffset:0.133039;stroke-opacity:1;marker-start:url(#marker6);paint-order:markers stroke fill"
     d="M 105.15314,34.815409 50.190743,34.992138"
     id="path1"
     inkscape:path-effect="#path-effect1"
     inkscape:original-d="M 105.15314,34.815409 C 86.832344,34.992138 68.511543,34.992138 50.190743,34.992138"
     transform="translate(-36.503312,10.729011)" />
  <path
     style="fill:#25731a;stroke:#000000;stroke-width:0.379;stroke-linecap:round;stroke-linejoin:round;stroke-miterlimit:3.5;stroke-dashoffset:0.133039;stroke-opacity:1;marker-start:url(#marker5);paint-order:markers stroke fill"
     d="M 105.15314,34.815409 50.190743,34.992138"
     id="path1-1"
     inkscape:path-effect="#path-effect1-2"
     inkscape:original-d="M 105.15314,34.815409 C 86.832344,34.992138 68.511543,34.992138 50.190743,34.992138"
     transform="translate(64.423483,10.602035)" />
  <path
     style="fill:#000000;fill-opacity:0;stroke:#000000;stroke-width:0.379;stroke-linecap:round;stroke-linejoin:round;stroke-miterlimit:3.5;stroke-dashoffset:0.133039;stroke-opacity:1;paint-order:markers stroke fill"
     d="m 16.411903,28.72083 c 1.492523,1.629169 3.779323,2.494053 5.976409,2.260321 2.197086,-0.233733 4.250746,-1.560368 5.367112,-3.467078 0.664182,-1.134397 0.999214,-2.427388 1.295593,-3.708073 0.296378,-1.280684 0.565958,-2.580792 1.117923,-3.773825 0.237676,-0.513721 0.530737,-1.009471 0.931923,-1.408782 0.401185,-0.399312 0.919355,-0.697881 1.48159,-0.763381 0.360155,-0.04196 0.729048,0.01263 1.068235,0.140793 0.339186,0.128159 0.649055,0.328635 0.917293,0.572604 0.536476,0.487937 0.900051,1.138978 1.169372,1.812296 0.269321,0.673317 0.452871,1.377387 0.687887,2.063432 0.235015,0.686045 0.52749,1.364104 0.984245,1.927366 0.60835,0.750206 1.491161,1.260118 2.433669,1.471253 0.942509,0.211134 1.939928,0.131608 2.858023,-0.168395 1.836189,-0.600005 3.297334,-2.036368 4.357798,-3.650993 1.060465,-1.614625 1.778668,-3.424071 2.599244,-5.172857 0.820577,-1.748786 1.775206,-3.481056 3.197762,-4.787935 0.81788,-0.751373 1.785086,-1.349675 2.844159,-1.684121 1.059073,-0.334447 2.211127,-0.3985391 3.286471,-0.120826 1.075344,0.277713 2.067486,0.9058 2.728962,1.797954 0.661475,0.892154 0.97527,2.048752 0.794469,3.144562 -0.15305,0.927614 -0.635103,1.761556 -1.047325,2.60652 -0.206111,0.422483 -0.397174,0.854626 -0.522296,1.307746 -0.125122,0.45312 -0.183021,0.929655 -0.119841,1.395468 0.09091,0.670251 0.43233,1.292877 0.900599,1.78096 0.468268,0.488082 1.058371,0.847845 1.682414,1.108748 1.248086,0.521808 2.6179,0.656867 3.933478,0.971916 1.329984,0.318499 2.607736,0.822291 3.919906,1.207659 1.312169,0.385369 2.687907,0.653332 4.044695,0.481801 0.942002,-0.119092 1.856397,-0.4516 2.654867,-0.965406"
     id="path2"
     inkscape:path-effect="#path-effect2"
     inkscape:original-d="m 16.411903,28.72083 c 3.378921,-0.643604 7.481897,-1.045856 11.343521,-1.206757 3.861625,-0.160901 1.689459,-4.907481 2.413516,-7.481898 0.724053,-2.574416 1.448109,-1.367658 2.413513,-2.172163 0.965406,-0.804505 3.298473,4.263877 4.827032,6.516491 1.528558,2.252613 10.217213,-8.045051 15.446496,-12.308927 5.229283,-4.2638772 6.43604,1.930812 9.654061,3.137569 3.218019,1.206758 -1.126307,3.539822 -1.689462,5.309734 -0.563153,1.76991 4.424778,2.574416 6.516491,3.861624 2.091714,1.287208 5.229283,1.126307 7.964601,1.68946 2.735316,0.563153 1.76991,-0.643604 2.654867,-0.965406"
     transform="translate(-1.0218106,10.729011)" />
  <path
     style="fill:#25731a;fill-opacity:0;stroke:#000000;stroke-width:0.379;stroke-linecap:round;stroke-linejoin:round;stroke-miterlimit:3.5;stroke-dashoffset:0.133039;stroke-opacity:1;paint-order:markers stroke fill"
     d="m 116.09008,26.307315 c 6.07363,2.270021 12.93763,2.356908 19.06677,0.241352 4.53838,-1.566483 8.7428,-4.307027 13.51568,-4.827031 2.75649,-0.300319 5.55,0.168938 8.20595,0.965406 4.12626,1.237387 8.04209,3.269002 12.30893,3.861625 3.24938,0.451307 6.61575,0.03051 9.65406,-1.206758"
     id="path3"
     inkscape:path-effect="#path-effect3"
     inkscape:original-d="m 116.09008,26.307315 c 6.19469,0.241352 12.87208,0 19.06677,0.241352 6.19469,0.24135 8.84955,-3.05712 13.51568,-4.827031 4.66613,-1.769911 5.63154,0.643604 8.20595,0.965406 2.57442,0.321802 8.1255,2.574416 12.30893,3.861625 4.18343,1.287209 6.35559,-0.804506 9.65406,-1.206758"
     transform="translate(-1.0218106,10.729011)" />
  <path
     style="fill:#000000;fill-opacity:0;stroke:#000000;stroke-width:0.279;stroke-linecap:round;stroke-linejoin:round;stroke-miterlimit:3.5;stroke-dasharray:none;stroke-dashoffset:0.133039;stroke-opacity:1;marker-end:url(#Triangle);paint-order:markers stroke fill"
     d="M 89.958308,25.034752 104.9585,25.2032"
     id="path4"
     inkscape:path-effect="#path-effect4"
     inkscape:original-d="m 89.958308,25.034752 c 5.043935,0.10002 10.022062,0.134234 15.000192,0.168448"
     transform="rotate(-0.46080598,1431.3917,157.61154)" />
  <g
     inkscape:label=""
     transform="translate(86.435042,10.414225)"
     id="g8">
    <g
       fill="#000000"
       fill-opacity="1"
       id="g25"
       transform="matrix(0.352778,0,0,0.352778,-0.796793,-0.706217)">
      <g
         id="use24"
         transform="translate(1.993,11.955)">
        <path
           d="m 5.53125,-3.828125 c 0,-0.78125 0,-1.34375 -0.625,-1.90625 -0.5,-0.46875 -1.140625,-0.65625 -1.78125,-0.65625 -1.171875,0 -2.078125,0.765625 -2.078125,1.703125 0,0.40625 0.265625,0.609375 0.609375,0.609375 C 2,-4.078125 2.234375,-4.3125 2.234375,-4.65625 2.234375,-5.25 1.71875,-5.25 1.5,-5.25 c 0.34375,-0.609375 1.03125,-0.859375 1.59375,-0.859375 0.671875,0 1.515625,0.546875 1.515625,1.828125 v 0.578125 C 1.71875,-3.65625 0.625,-2.453125 0.625,-1.34375 c 0,1.125 1.328125,1.484375 2.203125,1.484375 0.9375,0 1.59375,-0.578125 1.859375,-1.265625 0.0625,0.6875 0.5,1.203125 1.125,1.203125 0.296875,0 1.125,-0.203125 1.125,-1.359375 V -2.078125 H 6.625 v 0.796875 c 0,0.828125 -0.34375,0.9375 -0.546875,0.9375 -0.546875,0 -0.546875,-0.765625 -0.546875,-0.96875 z m -0.921875,1.8125 c 0,1.40625 -1.046875,1.875 -1.671875,1.875 -0.703125,0 -1.28125,-0.515625 -1.28125,-1.203125 0,-1.890625 2.4375,-2.0625 2.953125,-2.09375 z m 0,0"
           id="path57" />
      </g>
      <g
         id="use25"
         transform="translate(9.0169001,11.955)">
        <path
           d="m 4.703125,-6.0625 c 0,-0.265625 0,-0.328125 -0.140625,-0.328125 -0.109375,0 -0.390625,0.3125 -0.484375,0.4375 C 3.625,-6.3125 3.1875,-6.390625 2.71875,-6.390625 c -1.734375,0 -2.25,0.9375 -2.25,1.734375 0,0.15625 0,0.65625 0.546875,1.15625 0.46875,0.40625 0.953125,0.5 1.609375,0.625 0.78125,0.15625 0.96875,0.203125 1.328125,0.5 0.265625,0.203125 0.453125,0.53125 0.453125,0.921875 0,0.625 -0.359375,1.3125 -1.625,1.3125 -0.9375,0 -1.640625,-0.546875 -1.953125,-1.984375 -0.046875,-0.25 -0.046875,-0.265625 -0.0625,-0.28125 -0.03125,-0.0625 -0.09375,-0.0625 -0.140625,-0.0625 -0.15625,0 -0.15625,0.078125 -0.15625,0.328125 V -0.1875 c 0,0.265625 0,0.328125 0.140625,0.328125 0.078125,0 0.09375,-0.015625 0.34375,-0.3125 0.0625,-0.09375 0.0625,-0.125 0.28125,-0.359375 0.546875,0.671875 1.3125,0.671875 1.5625,0.671875 1.5,0 2.25,-0.828125 2.25,-1.96875 0,-0.765625 -0.46875,-1.234375 -0.59375,-1.359375 C 3.9375,-3.625 3.546875,-3.71875 2.59375,-3.890625 2.171875,-3.96875 1.125,-4.171875 1.125,-5.03125 c 0,-0.453125 0.296875,-1.109375 1.59375,-1.109375 1.5625,0 1.640625,1.328125 1.671875,1.78125 C 4.40625,-4.25 4.5,-4.25 4.546875,-4.25 c 0.15625,0 0.15625,-0.0625 0.15625,-0.328125 z m 0,0"
           id="path58" />
      </g>
    </g>
    <g
       fill="#000000"
       fill-opacity="1"
       id="g26"
       transform="matrix(0.352778,0,0,0.352778,-0.796793,-0.706217)">
      <g
         id="use26"
         transform="translate(19.234262,11.955)">
        <path
           d="m 4.4375,-8.9375 c -0.359375,-1.015625 -1.5,-1.015625 -1.6875,-1.015625 -0.078125,0 -0.234375,0 -0.234375,0.140625 0,0.109375 0.078125,0.125 0.15625,0.140625 0.21875,0.03125 0.390625,0.0625 0.609375,0.484375 0.140625,0.265625 1.625,4.546875 1.625,4.578125 0,0.015625 -0.015625,0.03125 -0.125,0.15625 L 1.046875,-0.6875 c -0.171875,0.171875 -0.28125,0.28125 -0.28125,0.46875 0,0.203125 0.171875,0.375 0.390625,0.375 0.0625,0 0.21875,-0.03125 0.3125,-0.109375 0.21875,-0.21875 2.28125,-2.734375 3.578125,-4.28125 0.375,1.125 0.828125,2.4375 1.28125,3.640625 0.0625,0.21875 0.140625,0.421875 0.34375,0.609375 0.140625,0.125 0.171875,0.125 0.578125,0.125 h 0.265625 c 0.0625,0 0.15625,0 0.15625,-0.109375 0,-0.0625 -0.015625,-0.078125 -0.0625,-0.125 C 7.46875,-0.265625 7.375,-0.515625 7.3125,-0.6875 Z m 0,0"
           id="path59" />
      </g>
    </g>
    <g
       fill="#000000"
       fill-opacity="1"
       id="g27"
       transform="matrix(0.352778,0,0,0.352778,-0.796793,-0.706217)">
      <g
         id="use27"
         transform="translate(31.417055,11.955)">
        <path
           d="m 11.96875,-3.296875 c -0.796875,0.59375 -1.1875,1.1875 -1.296875,1.375 -0.640625,0.984375 -0.765625,1.890625 -0.765625,1.90625 0,0.171875 0.171875,0.171875 0.296875,0.171875 0.234375,0 0.25,-0.03125 0.3125,-0.28125 0.328125,-1.40625 1.171875,-2.609375 2.796875,-3.28125 0.171875,-0.046875 0.21875,-0.078125 0.21875,-0.171875 0,-0.109375 -0.09375,-0.15625 -0.125,-0.171875 -0.625,-0.234375 -2.359375,-0.953125 -2.90625,-3.359375 -0.04687,-0.171875 -0.0625,-0.21875 -0.296875,-0.21875 -0.125,0 -0.296875,0 -0.296875,0.171875 0,0.03125 0.140625,0.9375 0.734375,1.890625 0.296875,0.4375 0.703125,0.9375 1.328125,1.390625 H 1.3125 c -0.265625,0 -0.53125,0 -0.53125,0.296875 0,0.28125 0.265625,0.28125 0.53125,0.28125 z m 0,0"
           id="path60" />
      </g>
    </g>
    <g
       fill="#000000"
       fill-opacity="1"
       id="g28"
       transform="matrix(0.352778,0,0,0.352778,-0.796793,-0.706217)">
      <g
         id="use28"
         transform="translate(49.751499,11.955)">
        <path
           d="M 7.28125,-3.890625 C 6.515625,-4.859375 6.34375,-5.078125 5.890625,-5.4375 5.09375,-6.078125 4.28125,-6.34375 3.5625,-6.34375 c -1.6875,0 -2.78125,1.578125 -2.78125,3.265625 0,1.640625 1.0625,3.234375 2.71875,3.234375 1.65625,0 2.84375,-1.296875 3.546875,-2.453125 0.765625,0.984375 0.9375,1.1875 1.390625,1.546875 0.796875,0.65625 1.609375,0.90625 2.328125,0.90625 1.6875,0 2.78125,-1.578125 2.78125,-3.25 0,-1.65625 -1.0625,-3.25 -2.71875,-3.25 -1.640625,0 -2.84375,1.3125 -3.546875,2.453125 z m 0.375,0.484375 C 8.25,-4.4375 9.3125,-5.875 10.9375,-5.875 c 1.515625,0 2.28125,1.484375 2.28125,2.78125 0,1.40625 -0.953125,2.5625 -2.21875,2.5625 -0.828125,0 -1.46875,-0.609375 -1.78125,-0.90625 -0.359375,-0.390625 -0.6875,-0.828125 -1.5625,-1.96875 z m -0.984375,0.625 c -0.59375,1.03125 -1.65625,2.484375 -3.265625,2.484375 -1.53125,0 -2.296875,-1.5 -2.296875,-2.78125 0,-1.40625 0.953125,-2.578125 2.21875,-2.578125 0.828125,0 1.484375,0.609375 1.78125,0.90625 0.359375,0.390625 0.6875,0.828125 1.5625,1.96875 z m 0,0"
           id="path61" />
      </g>
    </g>
    <g
       fill="#000000"
       fill-opacity="1"
       id="g31"
       transform="matrix(0.352778,0,0,0.352778,-0.796793,-0.706217)">
      <g
         id="use29"
         transform="translate(1.993,28.891001)">
        <path
           d="M 2.40625,-5.765625 H 4.4375 V -6.1875 H 2.40625 V -8.828125 H 2.09375 C 2.078125,-7.46875 1.5625,-6.09375 0.265625,-6.046875 v 0.28125 h 1.21875 v 3.984375 c 0,1.59375 1.046875,1.921875 1.8125,1.921875 0.90625,0 1.375,-0.890625 1.375,-1.921875 v -0.8125 h -0.3125 v 0.78125 c 0,1.03125 -0.421875,1.640625 -0.96875,1.640625 C 2.40625,-0.171875 2.40625,-1.5 2.40625,-1.75 Z m 0,0"
           id="path62" />
      </g>
      <g
         id="use30"
         transform="translate(7.4560332,28.891001)">
        <path
           d="m 6.390625,-3.484375 c 0,-1.328125 0,-1.734375 -0.34375,-2.203125 -0.40625,-0.546875 -1.078125,-0.640625 -1.578125,-0.640625 -1.234375,0 -1.796875,0.9375 -2,1.375 H 2.453125 v -5 l -2,0.15625 V -9.375 c 0.984375,0 1.09375,0.09375 1.09375,0.796875 V -1.0625 c 0,0.640625 -0.15625,0.640625 -1.09375,0.640625 V 0 c 0.375,-0.03125 1.15625,-0.03125 1.5625,-0.03125 0.40625,0 1.1875,0 1.5625,0.03125 v -0.421875 c -0.921875,0 -1.09375,0 -1.09375,-0.640625 v -2.671875 c 0,-1.5 0.984375,-2.296875 1.875,-2.296875 0.890625,0 1.09375,0.71875 1.09375,1.59375 v 3.375 c 0,0.640625 -0.15625,0.640625 -1.09375,0.640625 V 0 c 0.375,-0.03125 1.15625,-0.03125 1.546875,-0.03125 0.421875,0 1.1875,0 1.5625,0.03125 v -0.421875 c -0.71875,0 -1.078125,0 -1.078125,-0.421875 z m 0,0"
           id="path63" />
      </g>
      <g
         id="use31"
         transform="translate(15.260366,28.891001)">
        <path
           d="m 5.5,-3.328125 c 0.3125,0 0.34375,0 0.34375,-0.265625 0,-1.453125 -0.78125,-2.796875 -2.515625,-2.796875 -1.640625,0 -2.890625,1.46875 -2.890625,3.25 0,1.890625 1.453125,3.28125 3.046875,3.28125 1.703125,0 2.359375,-1.546875 2.359375,-1.84375 0,-0.09375 -0.078125,-0.140625 -0.15625,-0.140625 -0.125,0 -0.15625,0.0625 -0.171875,0.140625 -0.375,1.203125 -1.34375,1.53125 -1.9375,1.53125 -0.609375,0 -2.0625,-0.40625 -2.0625,-2.890625 V -3.328125 Z M 1.53125,-3.59375 c 0.125,-2.265625 1.375,-2.515625 1.78125,-2.515625 1.53125,0 1.625,2.015625 1.640625,2.515625 z m 0,0"
           id="path64" />
      </g>
    </g>
    <g
       fill="#000000"
       fill-opacity="1"
       id="g36"
       transform="matrix(0.352778,0,0,0.352778,-0.796793,-0.706217)">
      <g
         id="use32"
         transform="translate(26.180693,28.891001)">
        <path
           d="m 1.703125,-2.59375 c 0.671875,0.4375 1.25,0.4375 1.40625,0.4375 1.296875,0 2.25,-0.96875 2.25,-2.078125 C 5.359375,-4.625 5.25,-5.15625 4.796875,-5.625 5.34375,-6.203125 6.03125,-6.203125 6.09375,-6.203125 c 0.0625,0 0.125,0 0.1875,0.03125 -0.140625,0.0625 -0.21875,0.203125 -0.21875,0.359375 0,0.203125 0.140625,0.375 0.375,0.375 0.125,0 0.375,-0.078125 0.375,-0.390625 0,-0.25 -0.203125,-0.65625 -0.703125,-0.65625 -0.75,0 -1.296875,0.453125 -1.5,0.671875 -0.4375,-0.328125 -0.9375,-0.515625 -1.484375,-0.515625 -1.28125,0 -2.25,0.984375 -2.25,2.078125 0,0.828125 0.5,1.359375 0.640625,1.484375 -0.171875,0.21875 -0.421875,0.625 -0.421875,1.1875 0,0.828125 0.5,1.1875 0.609375,1.265625 -0.65625,0.1875 -1.3125,0.703125 -1.3125,1.453125 0,0.984375 1.34375,1.796875 3.109375,1.796875 1.703125,0 3.125,-0.75 3.125,-1.828125 0,-0.359375 -0.09375,-1.203125 -0.953125,-1.65625 -0.734375,-0.375 -1.453125,-0.375 -2.6875,-0.375 -0.875,0 -0.96875,0 -1.234375,-0.265625 -0.140625,-0.140625 -0.265625,-0.421875 -0.265625,-0.71875 0,-0.25 0.078125,-0.484375 0.21875,-0.6875 z M 3.125,-2.453125 c -1.265625,0 -1.265625,-1.453125 -1.265625,-1.78125 0,-0.25 0,-0.84375 0.25,-1.234375 0.265625,-0.40625 0.703125,-0.5625 1,-0.5625 1.265625,0 1.265625,1.453125 1.265625,1.78125 0,0.265625 0,0.84375 -0.25,1.234375 -0.265625,0.421875 -0.703125,0.5625 -1,0.5625 z m 0.390625,5.09375 C 2.140625,2.640625 1.09375,1.9375 1.09375,1.125 1.09375,1 1.125,0.4375 1.65625,0.078125 1.984375,-0.125 2.109375,-0.125 3.109375,-0.125 c 1.1875,0 2.8125,0 2.8125,1.25 0,0.84375 -1.09375,1.515625 -2.40625,1.515625 z m 0,0"
           id="path65" />
      </g>
      <g
         id="use33"
         transform="translate(33.204594,28.891001)">
        <path
           d="m 2.390625,-3.34375 c 0,-1.390625 0.578125,-2.6875 1.6875,-2.6875 0.109375,0 0.140625,0 0.203125,0 C 4.15625,-5.96875 3.9375,-5.875 3.9375,-5.5 c 0,0.421875 0.328125,0.578125 0.546875,0.578125 0.296875,0 0.578125,-0.1875 0.578125,-0.578125 0,-0.421875 -0.390625,-0.828125 -1,-0.828125 -1.21875,0 -1.640625,1.328125 -1.71875,1.59375 H 2.328125 v -1.59375 L 0.40625,-6.171875 V -5.75 c 0.96875,0 1.078125,0.09375 1.078125,0.796875 V -1.0625 c 0,0.640625 -0.15625,0.640625 -1.078125,0.640625 V 0 c 0.390625,-0.03125 1.1875,-0.03125 1.609375,-0.03125 0.390625,0 1.40625,0 1.75,0.03125 V -0.421875 H 3.46875 c -1.046875,0 -1.078125,-0.15625 -1.078125,-0.671875 z m 0,0"
           id="path66" />
      </g>
      <g
         id="use34"
         transform="translate(38.667625,28.891001)">
        <path
           d="m 5.53125,-3.828125 c 0,-0.78125 0,-1.34375 -0.625,-1.90625 -0.5,-0.46875 -1.140625,-0.65625 -1.78125,-0.65625 -1.171875,0 -2.078125,0.765625 -2.078125,1.703125 0,0.40625 0.265625,0.609375 0.609375,0.609375 C 2,-4.078125 2.234375,-4.3125 2.234375,-4.65625 2.234375,-5.25 1.71875,-5.25 1.5,-5.25 c 0.34375,-0.609375 1.03125,-0.859375 1.59375,-0.859375 0.671875,0 1.515625,0.546875 1.515625,1.828125 v 0.578125 C 1.71875,-3.65625 0.625,-2.453125 0.625,-1.34375 c 0,1.125 1.328125,1.484375 2.203125,1.484375 0.9375,0 1.59375,-0.578125 1.859375,-1.265625 0.0625,0.6875 0.5,1.203125 1.125,1.203125 0.296875,0 1.125,-0.203125 1.125,-1.359375 V -2.078125 H 6.625 v 0.796875 c 0,0.828125 -0.34375,0.9375 -0.546875,0.9375 -0.546875,0 -0.546875,-0.765625 -0.546875,-0.96875 z m -0.921875,1.8125 c 0,1.40625 -1.046875,1.875 -1.671875,1.875 -0.703125,0 -1.28125,-0.515625 -1.28125,-1.203125 0,-1.890625 2.4375,-2.0625 2.953125,-2.09375 z m 0,0"
           id="path67" />
      </g>
      <g
         id="use35"
         transform="translate(45.691525,28.891001)">
        <path
           d="m 3.515625,2.359375 c -0.921875,0 -1.09375,0 -1.09375,-0.640625 v -2.5 c 0.265625,0.359375 0.84375,0.921875 1.765625,0.921875 1.65625,0 3.09375,-1.390625 3.09375,-3.234375 0,-1.828125 -1.34375,-3.234375 -2.90625,-3.234375 -1.265625,0 -1.9375,0.90625 -1.984375,0.96875 v -0.96875 L 0.40625,-6.171875 V -5.75 c 1,0 1.078125,0.09375 1.078125,0.734375 V 1.71875 c 0,0.640625 -0.15625,0.640625 -1.078125,0.640625 V 2.78125 C 0.78125,2.75 1.546875,2.75 1.953125,2.75 c 0.40625,0 1.1875,0 1.5625,0.03125 z m -1.09375,-6.9375 c 0,-0.265625 0,-0.28125 0.15625,-0.515625 0.4375,-0.640625 1.140625,-0.921875 1.6875,-0.921875 1.0625,0 1.9375,1.3125 1.9375,2.921875 0,1.703125 -0.984375,2.953125 -2.09375,2.953125 -0.4375,0 -0.859375,-0.1875 -1.140625,-0.46875 C 2.640625,-0.9375 2.421875,-1.21875 2.421875,-1.625 Z m 0,0"
           id="path68" />
      </g>
      <g
         id="use36"
         transform="translate(53.495857,28.891001)">
        <path
           d="m 6.390625,-3.484375 c 0,-1.328125 0,-1.734375 -0.34375,-2.203125 -0.40625,-0.546875 -1.078125,-0.640625 -1.578125,-0.640625 -1.234375,0 -1.796875,0.9375 -2,1.375 H 2.453125 v -5 l -2,0.15625 V -9.375 c 0.984375,0 1.09375,0.09375 1.09375,0.796875 V -1.0625 c 0,0.640625 -0.15625,0.640625 -1.09375,0.640625 V 0 c 0.375,-0.03125 1.15625,-0.03125 1.5625,-0.03125 0.40625,0 1.1875,0 1.5625,0.03125 v -0.421875 c -0.921875,0 -1.09375,0 -1.09375,-0.640625 v -2.671875 c 0,-1.5 0.984375,-2.296875 1.875,-2.296875 0.890625,0 1.09375,0.71875 1.09375,1.59375 v 3.375 c 0,0.640625 -0.15625,0.640625 -1.09375,0.640625 V 0 c 0.375,-0.03125 1.15625,-0.03125 1.546875,-0.03125 0.421875,0 1.1875,0 1.5625,0.03125 v -0.421875 c -0.71875,0 -1.078125,0 -1.078125,-0.421875 z m 0,0"
           id="path69" />
      </g>
    </g>
    <g
       fill="#000000"
       fill-opacity="1"
       id="g38"
       transform="matrix(0.352778,0,0,0.352778,-0.796793,-0.706217)">
      <g
         id="use37"
         transform="translate(65.991402,28.891001)">
        <path
           d="m 6.578125,-3.0625 c 0,-1.859375 -1.40625,-3.328125 -3.0625,-3.328125 -1.71875,0 -3.078125,1.515625 -3.078125,3.328125 0,1.828125 1.421875,3.203125 3.0625,3.203125 1.6875,0 3.078125,-1.40625 3.078125,-3.203125 z m -3.0625,2.890625 c -0.53125,0 -1.171875,-0.234375 -1.59375,-0.9375 C 1.53125,-1.75 1.515625,-2.59375 1.515625,-3.203125 c 0,-0.546875 0,-1.421875 0.453125,-2.0625 C 2.359375,-5.875 3,-6.109375 3.5,-6.109375 c 0.5625,0 1.15625,0.25 1.546875,0.8125 C 5.5,-4.640625 5.5,-3.734375 5.5,-3.203125 c 0,0.5 0,1.390625 -0.375,2.0625 -0.40625,0.703125 -1.0625,0.96875 -1.609375,0.96875 z m 0,0"
           id="path70" />
      </g>
      <g
         id="use38"
         transform="translate(73.015297,28.891001)">
        <path
           d="m 2.46875,-5.765625 h 1.625 V -6.1875 H 2.4375 v -1.671875 c 0,-1.296875 0.65625,-1.953125 1.25,-1.953125 0.109375,0 0.328125,0.03125 0.5,0.109375 -0.0625,0.015625 -0.421875,0.15625 -0.421875,0.5625 0,0.328125 0.234375,0.5625 0.5625,0.5625 0.34375,0 0.578125,-0.234375 0.578125,-0.578125 0,-0.53125 -0.515625,-0.9375 -1.203125,-0.9375 -1,0 -2.140625,0.765625 -2.140625,2.234375 V -6.1875 h -1.125 v 0.421875 h 1.125 V -1.0625 c 0,0.640625 -0.15625,0.640625 -1.09375,0.640625 V 0 c 0.40625,-0.03125 1.1875,-0.03125 1.625,-0.03125 0.390625,0 1.40625,0 1.734375,0.03125 V -0.421875 H 3.546875 C 2.5,-0.421875 2.46875,-0.578125 2.46875,-1.09375 Z m 0,0"
           id="path71" />
      </g>
    </g>
    <g
       fill="#000000"
       fill-opacity="1"
       id="g39"
       transform="matrix(0.352778,0,0,0.352778,-0.796793,-0.706217)">
      <g
         id="use39"
         transform="translate(6.3709998,40.179001)">
        <path
           d="m 2.9375,-6.375 c 0,-0.25 0,-0.265625 -0.234375,-0.265625 C 2.078125,-6 1.203125,-6 0.890625,-6 v 0.3125 c 0.203125,0 0.78125,0 1.296875,-0.265625 v 5.171875 c 0,0.359375 -0.03125,0.46875 -0.921875,0.46875 h -0.3125 V 0 c 0.34375,-0.03125 1.203125,-0.03125 1.609375,-0.03125 0.390625,0 1.265625,0 1.609375,0.03125 v -0.3125 h -0.3125 c -0.90625,0 -0.921875,-0.109375 -0.921875,-0.46875 z m 0,0"
           id="path72" />
      </g>
    </g>
    <path
       fill="none"
       stroke-width="0.574"
       stroke-linecap="butt"
       stroke-linejoin="miter"
       stroke="#000000"
       stroke-opacity="1"
       stroke-miterlimit="10"
       d="M 0.92887497,40.240313 H 12.276531"
       id="path39"
       transform="scale(0.352778)" />
    <g
       fill="#000000"
       fill-opacity="1"
       id="g40"
       transform="matrix(0.352778,0,0,0.352778,-0.796793,-0.706217)">
      <g
         id="use40"
         transform="translate(3.188,50.775002)">
        <path
           d="m 1.578125,-7.125 c 0,-0.171875 0,-0.359375 -0.1875,-0.359375 -0.203125,0 -0.203125,0.1875 -0.203125,0.359375 v 9.265625 c 0,0.171875 0,0.359375 0.203125,0.359375 0.1875,0 0.1875,-0.1875 0.1875,-0.359375 z m 0,0"
           id="path73" />
      </g>
    </g>
    <g
       fill="#000000"
       fill-opacity="1"
       id="g41"
       transform="matrix(0.352778,0,0,0.352778,-0.796793,-0.706217)">
      <g
         id="use41"
         transform="translate(5.9556098,50.775002)">
        <path
           d="m 3.5625,-2.90625 c 0.40625,1.046875 0.890625,2.5625 1.046875,2.796875 0.15625,0.21875 0.25,0.21875 0.53125,0.21875 h 0.21875 c 0.09375,-0.015625 0.109375,-0.0625 0.109375,-0.09375 0,-0.03125 -0.03125,-0.0625 -0.0625,-0.09375 C 5.3125,-0.1875 5.25,-0.34375 5.1875,-0.53125 L 3.15625,-6.203125 c -0.21875,-0.578125 -0.75,-0.71875 -1.21875,-0.71875 -0.046875,0 -0.1875,0 -0.1875,0.109375 0,0.078125 0.078125,0.109375 0.09375,0.109375 C 2.171875,-6.65625 2.25,-6.59375 2.5,-5.90625 l 0.953125,2.703125 -2.75,2.734375 c -0.109375,0.125 -0.171875,0.171875 -0.171875,0.3125 0,0.171875 0.140625,0.28125 0.296875,0.28125 0.15625,0 0.25,-0.109375 0.328125,-0.203125 z m 0,0"
           id="path74" />
      </g>
    </g>
    <g
       fill="#000000"
       fill-opacity="1"
       id="g42"
       transform="matrix(0.352778,0,0,0.352778,-0.796793,-0.706217)">
      <g
         id="use42"
         transform="translate(11.766795,50.775002)">
        <path
           d="m 1.578125,-7.125 c 0,-0.171875 0,-0.359375 -0.1875,-0.359375 -0.203125,0 -0.203125,0.1875 -0.203125,0.359375 v 9.265625 c 0,0.171875 0,0.359375 0.203125,0.359375 0.1875,0 0.1875,-0.1875 0.1875,-0.359375 z m 0,0"
           id="path75" />
      </g>
    </g>
    <g
       fill="#000000"
       fill-opacity="1"
       id="g43"
       transform="matrix(0.352778,0,0,0.352778,-0.796793,-0.706217)">
      <g
         id="use43"
         transform="translate(18.787001,42.042)">
        <path
           d="M 3.515625,-9.953125 1.640625,-8 1.859375,-7.78125 3.5,-9.265625 5.15625,-7.78125 5.375,-8 Z m 0,0"
           id="path76" />
      </g>
    </g>
    <g
       fill="#000000"
       fill-opacity="1"
       id="g44"
       transform="matrix(0.352778,0,0,0.352778,-0.796793,-0.706217)">
      <g
         id="use44"
         transform="translate(15.73,45.827999)">
        <path
           d="m 6.390625,-5.765625 c 0.296875,0 0.40625,0 0.40625,-0.265625 0,-0.15625 -0.109375,-0.15625 -0.375,-0.15625 h -1.15625 c 0.265625,-1.46875 0.46875,-2.484375 0.59375,-2.953125 0.078125,-0.34375 0.375,-0.671875 0.75,-0.671875 0.296875,0 0.609375,0.125 0.75,0.265625 C 6.796875,-9.5 6.625,-9.078125 6.625,-8.828125 c 0,0.28125 0.21875,0.453125 0.484375,0.453125 0.296875,0 0.71875,-0.25 0.71875,-0.796875 0,-0.59375 -0.59375,-0.921875 -1.234375,-0.921875 -0.609375,0 -1.21875,0.453125 -1.5,1.015625 -0.265625,0.5 -0.40625,1.015625 -0.734375,2.890625 H 3.40625 c -0.28125,0 -0.421875,0 -0.421875,0.265625 0,0.15625 0.078125,0.15625 0.375,0.15625 H 4.28125 C 4.015625,-4.4375 3.421875,-1.1875 3.09375,0.34375 c -0.234375,1.25 -0.453125,2.296875 -1.171875,2.296875 -0.046875,0 -0.453125,0 -0.71875,-0.28125 C 1.9375,2.3125 1.9375,1.671875 1.9375,1.65625 1.9375,1.375 1.71875,1.203125 1.453125,1.203125 c -0.296875,0 -0.71875,0.25 -0.71875,0.796875 0,0.609375 0.625,0.921875 1.1875,0.921875 1.46875,0 2.0625,-2.625 2.21875,-3.34375 0.265625,-1.09375 0.96875,-4.90625 1.03125,-5.34375 z m 0,0"
           id="path77" />
      </g>
    </g>
    <g
       fill="#000000"
       fill-opacity="1"
       id="g45"
       transform="matrix(0.352778,0,0,0.352778,-0.796793,-0.706217)">
      <g
         id="use45"
         transform="translate(26.577,34.207001)">
        <path
           d="m 5.921875,16.484375 c 0,-0.0625 -0.03125,-0.09375 -0.0625,-0.125 -0.65625,-0.703125 -1.625,-1.875 -2.234375,-4.203125 -0.328125,-1.3125 -0.453125,-2.796875 -0.453125,-4.125 0,-3.765625 0.90625,-6.40625 2.625,-8.28125 0.125,-0.125 0.125,-0.15625 0.125,-0.1875 C 5.921875,-0.578125 5.8125,-0.578125 5.75,-0.578125 5.53125,-0.578125 4.765625,0.28125 4.578125,0.5 3.109375,2.234375 2.1875,4.8125 2.1875,8.015625 c 0,2.046875 0.34375,4.921875 2.234375,7.34375 C 4.5625,15.53125 5.5,16.625 5.75,16.625 c 0.0625,0 0.171875,0 0.171875,-0.140625 z m 0,0"
           id="path78" />
      </g>
    </g>
    <g
       fill="#000000"
       fill-opacity="1"
       id="g46"
       transform="matrix(0.352778,0,0,0.352778,-0.796793,-0.706217)">
      <g
         id="use46"
         transform="translate(34.619999,40.179001)">
        <path
           d="M 3.71875,-3.765625 C 3.53125,-4.140625 3.25,-4.40625 2.796875,-4.40625 c -1.15625,0 -2.390625,1.46875 -2.390625,2.921875 0,0.9375 0.546875,1.59375 1.3125,1.59375 0.203125,0 0.703125,-0.046875 1.296875,-0.75 0.078125,0.421875 0.4375,0.75 0.90625,0.75 0.359375,0 0.578125,-0.234375 0.75,-0.546875 0.15625,-0.359375 0.296875,-0.96875 0.296875,-0.984375 0,-0.109375 -0.09375,-0.109375 -0.125,-0.109375 -0.09375,0 -0.109375,0.046875 -0.140625,0.1875 -0.171875,0.640625 -0.34375,1.234375 -0.75,1.234375 -0.28125,0 -0.296875,-0.265625 -0.296875,-0.453125 0,-0.21875 0.015625,-0.3125 0.125,-0.75 C 3.890625,-1.71875 3.90625,-1.828125 4,-2.203125 L 4.359375,-3.59375 c 0.0625,-0.28125 0.0625,-0.296875 0.0625,-0.34375 0,-0.171875 -0.109375,-0.265625 -0.28125,-0.265625 -0.25,0 -0.390625,0.21875 -0.421875,0.4375 z M 3.078125,-1.1875 C 3.015625,-1 3.015625,-0.984375 2.875,-0.8125 2.4375,-0.265625 2.03125,-0.109375 1.75,-0.109375 c -0.5,0 -0.640625,-0.546875 -0.640625,-0.9375 0,-0.5 0.3125,-1.71875 0.546875,-2.1875 0.3125,-0.578125 0.75,-0.953125 1.15625,-0.953125 0.640625,0 0.78125,0.8125 0.78125,0.875 0,0.0625 -0.015625,0.125 -0.03125,0.171875 z m 0,0"
           id="path79" />
      </g>
    </g>
    <path
       fill="none"
       stroke-width="0.574"
       stroke-linecap="butt"
       stroke-linejoin="miter"
       stroke="#000000"
       stroke-opacity="1"
       stroke-miterlimit="10"
       d="m 32.089031,40.240313 h 5.8125"
       id="path46"
       transform="scale(0.352778)" />
    <g
       fill="#000000"
       fill-opacity="1"
       id="g47"
       transform="matrix(0.352778,0,0,0.352778,-0.796793,-0.706217)">
      <g
         id="use47"
         transform="translate(34.348,50.775002)">
        <path
           d="m 3.5625,-2.90625 c 0.40625,1.046875 0.890625,2.5625 1.046875,2.796875 0.15625,0.21875 0.25,0.21875 0.53125,0.21875 h 0.21875 c 0.09375,-0.015625 0.109375,-0.0625 0.109375,-0.09375 0,-0.03125 -0.03125,-0.0625 -0.0625,-0.09375 C 5.3125,-0.1875 5.25,-0.34375 5.1875,-0.53125 L 3.15625,-6.203125 c -0.21875,-0.578125 -0.75,-0.71875 -1.21875,-0.71875 -0.046875,0 -0.1875,0 -0.1875,0.109375 0,0.078125 0.078125,0.109375 0.09375,0.109375 C 2.171875,-6.65625 2.25,-6.59375 2.5,-5.90625 l 0.953125,2.703125 -2.75,2.734375 c -0.109375,0.125 -0.171875,0.171875 -0.171875,0.3125 0,0.171875 0.140625,0.28125 0.296875,0.28125 0.15625,0 0.25,-0.109375 0.328125,-0.203125 z m 0,0"
           id="path80" />
      </g>
    </g>
    <g
       fill="#000000"
       fill-opacity="1"
       id="g48"
       transform="matrix(0.352778,0,0,0.352778,-0.796793,-0.706217)">
      <g
         id="use48"
         transform="translate(41.355,34.207001)">
        <path
           d="M 4.375,8.03125 C 4.375,6 4.015625,3.109375 2.140625,0.6875 2,0.515625 1.0625,-0.578125 0.796875,-0.578125 c -0.0625,0 -0.171875,0.03125 -0.171875,0.140625 0,0.0625 0.03125,0.109375 0.09375,0.15625 0.6875,0.734375 1.625,1.90625 2.203125,4.1875 0.328125,1.296875 0.46875,2.78125 0.46875,4.109375 0,1.453125 -0.140625,2.921875 -0.5,4.3125 -0.546875,2.015625 -1.40625,3.15625 -2.125,3.96875 -0.140625,0.125 -0.140625,0.15625 -0.140625,0.1875 0,0.109375 0.109375,0.140625 0.171875,0.140625 0.21875,0 1.015625,-0.875 1.1875,-1.078125 C 3.4375,13.8125 4.375,11.234375 4.375,8.03125 Z m 0,0"
           id="path81" />
      </g>
    </g>
    <g
       fill="#000000"
       fill-opacity="1"
       id="g50"
       transform="matrix(0.352778,0,0,0.352778,-0.796793,-0.706217)">
      <g
         id="use49"
         transform="translate(1.993,64.223999)">
        <path
           d="m 2.46875,-9.953125 -2,0.15625 V -9.375 c 0.984375,0 1.09375,0.09375 1.09375,0.796875 V -1.0625 c 0,0.640625 -0.15625,0.640625 -1.09375,0.640625 V 0 c 0.40625,-0.03125 1.109375,-0.03125 1.546875,-0.03125 0.421875,0 1.140625,0 1.546875,0.03125 v -0.421875 c -0.921875,0 -1.09375,0 -1.09375,-0.640625 z m 0,0"
           id="path82" />
      </g>
      <g
         id="use50"
         transform="translate(5.8951659,64.223999)">
        <path
           d="m 6.578125,-3.0625 c 0,-1.859375 -1.40625,-3.328125 -3.0625,-3.328125 -1.71875,0 -3.078125,1.515625 -3.078125,3.328125 0,1.828125 1.421875,3.203125 3.0625,3.203125 1.6875,0 3.078125,-1.40625 3.078125,-3.203125 z m -3.0625,2.890625 c -0.53125,0 -1.171875,-0.234375 -1.59375,-0.9375 C 1.53125,-1.75 1.515625,-2.59375 1.515625,-3.203125 c 0,-0.546875 0,-1.421875 0.453125,-2.0625 C 2.359375,-5.875 3,-6.109375 3.5,-6.109375 c 0.5625,0 1.15625,0.25 1.546875,0.8125 C 5.5,-4.640625 5.5,-3.734375 5.5,-3.203125 c 0,0.5 0,1.390625 -0.375,2.0625 -0.40625,0.703125 -1.0625,0.96875 -1.609375,0.96875 z m 0,0"
           id="path83" />
      </g>
    </g>
    <g
       fill="#000000"
       fill-opacity="1"
       id="g53"
       transform="matrix(0.352778,0,0,0.352778,-0.796793,-0.706217)">
      <g
         id="use51"
         transform="translate(13.306413,64.223999)">
        <path
           d="m 6.578125,-3.0625 c 0,-1.859375 -1.40625,-3.328125 -3.0625,-3.328125 -1.71875,0 -3.078125,1.515625 -3.078125,3.328125 0,1.828125 1.421875,3.203125 3.0625,3.203125 1.6875,0 3.078125,-1.40625 3.078125,-3.203125 z m -3.0625,2.890625 c -0.53125,0 -1.171875,-0.234375 -1.59375,-0.9375 C 1.53125,-1.75 1.515625,-2.59375 1.515625,-3.203125 c 0,-0.546875 0,-1.421875 0.453125,-2.0625 C 2.359375,-5.875 3,-6.109375 3.5,-6.109375 c 0.5625,0 1.15625,0.25 1.546875,0.8125 C 5.5,-4.640625 5.5,-3.734375 5.5,-3.203125 c 0,0.5 0,1.390625 -0.375,2.0625 -0.40625,0.703125 -1.0625,0.96875 -1.609375,0.96875 z m 0,0"
           id="path84" />
      </g>
      <g
         id="use52"
         transform="translate(20.330313,64.223999)">
        <path
           d="m 4.015625,-3.796875 c 0,-0.015625 -0.09375,-0.140625 -0.09375,-0.140625 0,-0.046875 0.890625,-0.828125 1.015625,-0.9375 0.984375,-0.859375 1.625,-0.875 1.921875,-0.890625 V -6.1875 c -0.296875,0.03125 -0.65625,0.03125 -1.09375,0.03125 -0.375,0 -1.109375,0 -1.4375,-0.03125 v 0.421875 C 4.578125,-5.75 4.75,-5.625 4.75,-5.390625 c 0,0.28125 -0.296875,0.546875 -0.296875,0.546875 l -2.0625,1.796875 v -6.90625 L 0.40625,-9.796875 V -9.375 c 0.96875,0 1.078125,0.09375 1.078125,0.796875 V -1.0625 c 0,0.640625 -0.15625,0.640625 -1.078125,0.640625 V 0 c 0.390625,-0.03125 1.078125,-0.03125 1.515625,-0.03125 0.4375,0 1.125,0 1.515625,0.03125 v -0.421875 c -0.90625,0 -1.078125,0 -1.078125,-0.640625 v -1.515625 l 0.90625,-0.8125 1.375,1.984375 c 0.21875,0.296875 0.328125,0.453125 0.328125,0.65625 0,0.265625 -0.203125,0.328125 -0.515625,0.328125 V 0 c 0.359375,-0.03125 1.0625,-0.03125 1.453125,-0.03125 0.625,0 0.65625,0 1.265625,0.03125 v -0.421875 c -0.390625,0 -0.828125,0 -1.234375,-0.578125 z m 0,0"
           id="path85" />
      </g>
      <g
         id="use53"
         transform="translate(27.744429,64.223999)">
        <path
           d="m 4.703125,-6.0625 c 0,-0.265625 0,-0.328125 -0.140625,-0.328125 -0.109375,0 -0.390625,0.3125 -0.484375,0.4375 C 3.625,-6.3125 3.1875,-6.390625 2.71875,-6.390625 c -1.734375,0 -2.25,0.9375 -2.25,1.734375 0,0.15625 0,0.65625 0.546875,1.15625 0.46875,0.40625 0.953125,0.5 1.609375,0.625 0.78125,0.15625 0.96875,0.203125 1.328125,0.5 0.265625,0.203125 0.453125,0.53125 0.453125,0.921875 0,0.625 -0.359375,1.3125 -1.625,1.3125 -0.9375,0 -1.640625,-0.546875 -1.953125,-1.984375 -0.046875,-0.25 -0.046875,-0.265625 -0.0625,-0.28125 -0.03125,-0.0625 -0.09375,-0.0625 -0.140625,-0.0625 -0.15625,0 -0.15625,0.078125 -0.15625,0.328125 V -0.1875 c 0,0.265625 0,0.328125 0.140625,0.328125 0.078125,0 0.09375,-0.015625 0.34375,-0.3125 0.0625,-0.09375 0.0625,-0.125 0.28125,-0.359375 0.546875,0.671875 1.3125,0.671875 1.5625,0.671875 1.5,0 2.25,-0.828125 2.25,-1.96875 0,-0.765625 -0.46875,-1.234375 -0.59375,-1.359375 C 3.9375,-3.625 3.546875,-3.71875 2.59375,-3.890625 2.171875,-3.96875 1.125,-4.171875 1.125,-5.03125 c 0,-0.453125 0.296875,-1.109375 1.59375,-1.109375 1.5625,0 1.640625,1.328125 1.671875,1.78125 C 4.40625,-4.25 4.5,-4.25 4.546875,-4.25 c 0.15625,0 0.15625,-0.0625 0.15625,-0.328125 z m 0,0"
           id="path86" />
      </g>
    </g>
    <g
       fill="#000000"
       fill-opacity="1"
       id="g56"
       transform="matrix(0.352778,0,0,0.352778,-0.796793,-0.706217)">
      <g
         id="use54"
         transform="translate(37.961792,64.223999)">
        <path
           d="m 2.46875,-9.953125 -2,0.15625 V -9.375 c 0.984375,0 1.09375,0.09375 1.09375,0.796875 V -1.0625 c 0,0.640625 -0.15625,0.640625 -1.09375,0.640625 V 0 c 0.40625,-0.03125 1.109375,-0.03125 1.546875,-0.03125 0.421875,0 1.140625,0 1.546875,0.03125 v -0.421875 c -0.921875,0 -1.09375,0 -1.09375,-0.640625 z m 0,0"
           id="path87" />
      </g>
      <g
         id="use55"
         transform="translate(41.86396,64.223999)">
        <path
           d="m 2.5,-8.828125 c 0,-0.375 -0.3125,-0.703125 -0.703125,-0.703125 -0.375,0 -0.6875,0.296875 -0.6875,0.6875 0,0.421875 0.34375,0.703125 0.6875,0.703125 0.4375,0 0.703125,-0.375 0.703125,-0.6875 z m -1.984375,2.65625 V -5.75 c 0.921875,0 1.046875,0.078125 1.046875,0.78125 v 3.90625 c 0,0.640625 -0.15625,0.640625 -1.09375,0.640625 V 0 C 0.875,-0.03125 1.5625,-0.03125 1.984375,-0.03125 c 0.15625,0 0.984375,0 1.46875,0.03125 v -0.421875 c -0.921875,0 -0.984375,-0.0625 -0.984375,-0.625 v -5.28125 z m 0,0"
           id="path88" />
      </g>
      <g
         id="use56"
         transform="translate(45.766125,64.223999)">
        <path
           d="m 4.015625,-3.796875 c 0,-0.015625 -0.09375,-0.140625 -0.09375,-0.140625 0,-0.046875 0.890625,-0.828125 1.015625,-0.9375 0.984375,-0.859375 1.625,-0.875 1.921875,-0.890625 V -6.1875 c -0.296875,0.03125 -0.65625,0.03125 -1.09375,0.03125 -0.375,0 -1.109375,0 -1.4375,-0.03125 v 0.421875 C 4.578125,-5.75 4.75,-5.625 4.75,-5.390625 c 0,0.28125 -0.296875,0.546875 -0.296875,0.546875 l -2.0625,1.796875 v -6.90625 L 0.40625,-9.796875 V -9.375 c 0.96875,0 1.078125,0.09375 1.078125,0.796875 V -1.0625 c 0,0.640625 -0.15625,0.640625 -1.078125,0.640625 V 0 c 0.390625,-0.03125 1.078125,-0.03125 1.515625,-0.03125 0.4375,0 1.125,0 1.515625,0.03125 v -0.421875 c -0.90625,0 -1.078125,0 -1.078125,-0.640625 v -1.515625 l 0.90625,-0.8125 1.375,1.984375 c 0.21875,0.296875 0.328125,0.453125 0.328125,0.65625 0,0.265625 -0.203125,0.328125 -0.515625,0.328125 V 0 c 0.359375,-0.03125 1.0625,-0.03125 1.453125,-0.03125 0.625,0 0.65625,0 1.265625,0.03125 v -0.421875 c -0.390625,0 -0.828125,0 -1.234375,-0.578125 z m 0,0"
           id="path89" />
      </g>
    </g>
    <g
       fill="#000000"
       fill-opacity="1"
       id="g57"
       transform="matrix(0.352778,0,0,0.352778,-0.796793,-0.706217)">
      <g
         id="use57"
         transform="translate(52.792892,64.223999)">
        <path
           d="m 5.5,-3.328125 c 0.3125,0 0.34375,0 0.34375,-0.265625 0,-1.453125 -0.78125,-2.796875 -2.515625,-2.796875 -1.640625,0 -2.890625,1.46875 -2.890625,3.25 0,1.890625 1.453125,3.28125 3.046875,3.28125 1.703125,0 2.359375,-1.546875 2.359375,-1.84375 0,-0.09375 -0.078125,-0.140625 -0.15625,-0.140625 -0.125,0 -0.15625,0.0625 -0.171875,0.140625 -0.375,1.203125 -1.34375,1.53125 -1.9375,1.53125 -0.609375,0 -2.0625,-0.40625 -2.0625,-2.890625 V -3.328125 Z M 1.53125,-3.59375 c 0.125,-2.265625 1.375,-2.515625 1.78125,-2.515625 1.53125,0 1.625,2.015625 1.640625,2.515625 z m 0,0"
           id="path90" />
      </g>
    </g>
  </g>
</svg>
