<?xml version="1.0" encoding="UTF-8" standalone="no"?>
<svg
   width="140mm"
   height="126mm"
   viewBox="0 0 107.69236 96.923146"
   version="1.1"
   id="svg1"
   sodipodi:docname="2026-02-22.svg"
   inkscape:version="1.4.3 (0d15f75042, 2025-12-25)"
   inkscape:export-filename="2026-02-22.pdf"
   inkscape:export-xdpi="96"
   inkscape:export-ydpi="96"
   xmlns:inkscape="http://www.inkscape.org/namespaces/inkscape"
   xmlns:sodipodi="http://sodipodi.sourceforge.net/DTD/sodipodi-0.dtd"
   xmlns="http://www.w3.org/2000/svg"
   xmlns:svg="http://www.w3.org/2000/svg">
  <sodipodi:namedview
     id="namedview1"
     pagecolor="#ffffff"
     bordercolor="#000000"
     borderopacity="0.25"
     inkscape:showpageshadow="2"
     inkscape:pageopacity="0.0"
     inkscape:pagecheckerboard="0"
     inkscape:deskcolor="#d1d1d1"
     inkscape:document-units="mm"
     showgrid="true"
     inkscape:zoom="1.1272403"
     inkscape:cx="446.22253"
     inkscape:cy="233.75673"
     inkscape:window-width="1896"
     inkscape:window-height="1136"
     inkscape:window-x="0"
     inkscape:window-y="0"
     inkscape:window-maximized="1"
     inkscape:current-layer="svg1">
    <inkscape:grid
       id="grid1"
       units="mm"
       originx="0"
       originy="0"
       spacingx="0.99999998"
       spacingy="1"
       empcolor="#0099e5"
       empopacity="0.30196078"
       color="#0099e5"
       opacity="0.14901961"
       empspacing="5"
       enabled="true"
       visible="true" />
  </sodipodi:namedview>
  <defs
     id="defs1">
    <marker
       style="overflow:visible"
       id="Triangle"
       refX="0"
       refY="0"
       orient="auto-start-reverse"
       inkscape:stockid="Triangle arrow"
       markerWidth="0.5"
       markerHeight="0.5"
       viewBox="0 0 1 1"
       inkscape:isstock="true"
       inkscape:collect="always"
       preserveAspectRatio="xMidYMid">
      <path
         transform="scale(0.5)"
         style="fill:context-stroke;fill-rule:evenodd;stroke:context-stroke;stroke-width:1pt"
         d="M 5.77,0 -2.88,5 V -5 Z"
         id="path135" />
    </marker>
    <g
       id="g6283">
      <g
         id="g8667">
        <path
           d="m 1.46875,-6.390625 c 0,-0.15625 0,-0.34375 -0.1875,-0.34375 -0.203125,0 -0.203125,0.171875 -0.203125,0.34375 V 1.90625 c 0,0.15625 0,0.34375 0.203125,0.34375 0.1875,0 0.1875,-0.171875 0.1875,-0.34375 z m 0,0"
           id="path4606" />
      </g>
      <g
         id="g9711">
        <path
           d="m 1.25,-0.765625 c 0.1875,-0.21875 0.671875,-0.671875 1.0625,-1 0.671875,-0.5625 0.875,-0.75 0.984375,-0.875 0.734375,-0.71875 0.984375,-1.171875 0.984375,-1.21875 0,-0.015625 0,-0.109375 -0.125,-0.109375 -0.078125,0 -0.09375,0.03125 -0.140625,0.109375 -0.109375,0.171875 -0.359375,0.5625 -0.65625,0.5625 -0.1875,0 -0.296875,-0.109375 -0.5,-0.328125 -0.21875,-0.234375 -0.390625,-0.34375 -0.625,-0.34375 -0.6875,0 -1.109375,0.828125 -1.109375,1.046875 0,0.03125 0.015625,0.109375 0.109375,0.109375 0.09375,0 0.125,-0.0625 0.125,-0.078125 0.171875,-0.4375 0.703125,-0.4375 0.78125,-0.4375 0.203125,0 0.421875,0.0625 0.609375,0.140625 0.359375,0.109375 0.515625,0.109375 0.65625,0.109375 -0.28125,0.3125 -0.78125,0.75 -1.359375,1.234375 C 1.609375,-1.46875 1.328125,-1.1875 1.125,-1 0.796875,-0.640625 0.390625,-0.09375 0.390625,0 c 0,0.0625 0.046875,0.09375 0.125,0.09375 0.078125,0 0.09375,-0.03125 0.140625,-0.078125 C 1,-0.53125 1.34375,-0.5625 1.4375,-0.5625 c 0.21875,0 0.34375,0.125 0.546875,0.359375 C 2.1875,0.03125 2.390625,0.09375 2.5625,0.09375 c 0.921875,0 1.46875,-1.140625 1.46875,-1.390625 0,-0.078125 -0.0625,-0.109375 -0.125,-0.109375 -0.09375,0 -0.109375,0.0625 -0.125,0.109375 -0.25,0.65625 -0.890625,0.765625 -1.125,0.765625 -0.15625,0 -0.34375,-0.046875 -0.609375,-0.140625 -0.1875,-0.046875 -0.390625,-0.125 -0.578125,-0.125 -0.09375,0 -0.1875,0.03125 -0.21875,0.03125 z m 0,0"
           id="path8016" />
      </g>
      <g
         id="g2073">
        <path
           d="m 6.34375,-2.96875 c 0.125,0 0.296875,0 0.296875,-0.1875 0,-0.203125 -0.1875,-0.203125 -0.328125,-0.203125 H 0.84375 c -0.140625,0 -0.328125,0 -0.328125,0.203125 0,0.1875 0.171875,0.1875 0.296875,0.1875 z M 6.3125,-1.140625 c 0.140625,0 0.328125,0 0.328125,-0.203125 0,-0.1875 -0.171875,-0.1875 -0.296875,-0.1875 H 0.8125 c -0.125,0 -0.296875,0 -0.296875,0.1875 0,0.203125 0.1875,0.203125 0.328125,0.203125 z m 0,0"
           id="path1963" />
      </g>
      <g
         id="g4477">
        <path
           d="m 4.140625,-1.59375 h -0.25 C 3.875,-1.46875 3.796875,-0.9375 3.6875,-0.796875 3.625,-0.71875 3.015625,-0.71875 2.828125,-0.71875 H 1.234375 L 2.125,-1.5625 c 1.46875,-1.265625 2.015625,-1.75 2.015625,-2.65625 0,-1.03125 -0.84375,-1.75 -1.953125,-1.75 -1.03125,0 -1.734375,0.8125 -1.734375,1.625 0,0.453125 0.390625,0.5 0.46875,0.5 0.203125,0 0.46875,-0.140625 0.46875,-0.46875 0,-0.265625 -0.1875,-0.46875 -0.46875,-0.46875 -0.046875,0 -0.0625,0 -0.109375,0.015625 C 1.03125,-5.40625 1.609375,-5.6875 2.09375,-5.6875 c 0.90625,0 1.21875,0.84375 1.21875,1.46875 0,0.90625 -0.6875,1.65625 -1.109375,2.125 L 0.5625,-0.328125 C 0.453125,-0.21875 0.453125,-0.203125 0.453125,0 h 3.4375 z m 0,0"
           id="path650" />
      </g>
      <g
         id="g7553">
        <path
           d="M 1.984375,-3.171875 C 1.984375,-3.3125 1.96875,-3.3125 1.796875,-3.3125 1.453125,-3 0.890625,-3 0.796875,-3 H 0.71875 v 0.21875 h 0.078125 c 0.109375,0 0.4375,-0.015625 0.734375,-0.140625 v 2.5 c 0,0.140625 0,0.203125 -0.53125,0.203125 H 0.75 V 0 c 0.265625,-0.015625 0.71875,-0.015625 1,-0.015625 0.296875,0 0.734375,0 1.015625,0.015625 v -0.21875 h -0.25 c -0.53125,0 -0.53125,-0.0625 -0.53125,-0.203125 z m 0,0"
           id="path1175" />
      </g>
      <g
         id="g9018">
        <path
           d="m 0.984375,-2.75 c 0.25,0.0625 0.484375,0.0625 0.53125,0.0625 0.34375,0 0.59375,-0.09375 0.71875,-0.15625 0.125,-0.0625 0.46875,-0.28125 0.46875,-0.390625 0,-0.078125 -0.0625,-0.078125 -0.078125,-0.078125 -0.015625,0 -0.015625,0 -0.078125,0.015625 -0.1875,0.0625 -0.5,0.140625 -0.828125,0.140625 -0.28125,0 -0.546875,-0.046875 -0.8125,-0.140625 C 0.84375,-3.3125 0.84375,-3.3125 0.828125,-3.3125 0.75,-3.3125 0.75,-3.265625 0.75,-3.1875 v 1.5 c 0,0.09375 0,0.15625 0.109375,0.15625 0.046875,0 0.046875,-0.015625 0.09375,-0.0625 0.1875,-0.21875 0.453125,-0.328125 0.796875,-0.328125 0.28125,0 0.453125,0.15625 0.515625,0.265625 0.109375,0.171875 0.140625,0.390625 0.140625,0.640625 0,0.203125 -0.015625,0.484375 -0.21875,0.671875 -0.21875,0.234375 -0.5,0.25 -0.609375,0.25 -0.328125,0 -0.6875,-0.140625 -0.84375,-0.4375 0.203125,-0.015625 0.28125,-0.15625 0.28125,-0.28125 0,-0.15625 -0.125,-0.28125 -0.28125,-0.28125 -0.109375,0 -0.28125,0.078125 -0.28125,0.296875 0,0.5 0.484375,0.90625 1.125,0.90625 0.75,0 1.359375,-0.5 1.359375,-1.109375 0,-0.5625 -0.484375,-1.09375 -1.171875,-1.09375 -0.3125,0 -0.578125,0.078125 -0.78125,0.25 z m 0,0"
           id="path6565" />
      </g>
    </g>
  </defs>
  <path
     style="fill:#1a1a1a;stroke:#000000;stroke-width:0.680371;stroke-dasharray:none;stroke-opacity:1;marker-end:url(#Triangle)"
     d="M 52.476549,89.436662 51.853363,5.2492037"
     id="path1" />
  <path
     style="fill:#1a1a1a;stroke:#000000;stroke-width:0.696615;stroke-dasharray:none;stroke-opacity:1;marker-end:url(#Triangle)"
     d="M 9.9036086,45.777233 97.301848,45.471337"
     id="path3" />
  <ellipse
     style="fill:none;stroke:#000000;stroke-width:1.028;stroke-dasharray:none;stroke-opacity:1"
     id="path4"
     cx="52.259464"
     cy="45.853981"
     rx="27.66741"
     ry="25.835131" />
  <ellipse
     style="fill:#1a1a1a;fill-opacity:1;stroke:#000000;stroke-width:0.566154;stroke-dasharray:none;stroke-opacity:1"
     id="path5"
     cx="64.07766"
     cy="23.133728"
     rx="1.5574369"
     ry="1.0993673" />
  <ellipse
     style="fill:#1a1a1a;fill-opacity:1;stroke:#000000;stroke-width:0.566154;stroke-dasharray:none;stroke-opacity:1"
     id="path5-2"
     cx="29.389942"
     cy="31.524193"
     rx="1.5574369"
     ry="1.0993673" />
  <ellipse
     style="fill:#1a1a1a;fill-opacity:1;stroke:#000000;stroke-width:0.566154;stroke-dasharray:none;stroke-opacity:1"
     id="path5-7"
     cx="30.498669"
     cy="61.44276"
     rx="1.5574369"
     ry="1.0993673" />
  <ellipse
     style="fill:#1a1a1a;fill-opacity:1;stroke:#000000;stroke-width:0.489231;stroke-dasharray:none;stroke-opacity:1"
     id="path5-6"
     cx="61.702038"
     cy="70.283302"
     rx="1.5574369"
     ry="1.0993673" />
  <ellipse
     style="fill:#1a1a1a;fill-opacity:1;stroke:#000000;stroke-width:0.566154;stroke-dasharray:none;stroke-opacity:1"
     id="path5-61"
     cx="79.793877"
     cy="45.30938"
     rx="1.5574369"
     ry="1.0993673" />
  <path
     style="fill:#1a1a1a;fill-opacity:1;stroke:#000000;stroke-width:0.528;stroke-dasharray:0.528, 1.056;stroke-dashoffset:0;stroke-opacity:1"
     d="M 80.183131,45.307917 64.78823,23.601107"
     id="path6" />
  <path
     style="fill:#1a1a1a;fill-opacity:1;stroke:#000000;stroke-width:0.528;stroke-dasharray:0.528, 1.056;stroke-dashoffset:0;stroke-opacity:1"
     d="m 63.40269,23.293207 -33.63786,8.31325"
     id="path7" />
  <path
     style="fill:#1a1a1a;fill-opacity:1;stroke:#000000;stroke-width:0.528;stroke-dasharray:0.528, 1.056;stroke-dashoffset:0;stroke-opacity:1"
     d="M 29.345181,30.938347 30.23836,61.124936"
     id="path8" />
  <path
     style="fill:#1a1a1a;fill-opacity:1;stroke:#000000;stroke-width:0.528;stroke-dasharray:0.528, 1.056;stroke-dashoffset:0;stroke-opacity:1"
     d="m 30.651076,61.501686 30.956234,8.58786"
     id="path9" />
  <path
     style="fill:#1a1a1a;fill-opacity:1;stroke:#000000;stroke-width:0.528;stroke-dasharray:0.528, 1.056;stroke-dashoffset:0;stroke-opacity:1"
     d="M 61.80702,70.488976 79.781611,45.257987"
     id="path10" />
  <path
     style="fill:#1a1a1a;fill-opacity:1;stroke:#000000;stroke-width:0.628;stroke-dasharray:none;stroke-dashoffset:0;stroke-opacity:1"
     d="M 52.38933,45.468027 64.41161,23.669387"
     id="path11" />
  <g
     inkscape:label=""
     transform="matrix(1.535858,0,0,1.6201542,55.883541,37.209503)"
     id="g14">
    <g
       fill="#000000"
       fill-opacity="1"
       id="g7"
       transform="matrix(0.352778,0,0,0.352778,-1.08342,-0.666926)">
      <g
         id="use6"
         transform="translate(1.993,11.357)">
        <path
           d="m 1.46875,-6.390625 c 0,-0.15625 0,-0.34375 -0.1875,-0.34375 -0.203125,0 -0.203125,0.171875 -0.203125,0.34375 V 1.90625 c 0,0.15625 0,0.34375 0.203125,0.34375 0.1875,0 0.1875,-0.171875 0.1875,-0.34375 z m 0,0"
           id="path13" />
      </g>
    </g>
    <g
       fill="#000000"
       fill-opacity="1"
       id="g8"
       transform="matrix(0.352778,0,0,0.352778,-1.08342,-0.666926)">
      <g
         id="use7"
         transform="translate(4.552907,11.357)">
        <path
           d="m 1.25,-0.765625 c 0.1875,-0.21875 0.671875,-0.671875 1.0625,-1 0.671875,-0.5625 0.875,-0.75 0.984375,-0.875 0.734375,-0.71875 0.984375,-1.171875 0.984375,-1.21875 0,-0.015625 0,-0.109375 -0.125,-0.109375 -0.078125,0 -0.09375,0.03125 -0.140625,0.109375 -0.109375,0.171875 -0.359375,0.5625 -0.65625,0.5625 -0.1875,0 -0.296875,-0.109375 -0.5,-0.328125 -0.21875,-0.234375 -0.390625,-0.34375 -0.625,-0.34375 -0.6875,0 -1.109375,0.828125 -1.109375,1.046875 0,0.03125 0.015625,0.109375 0.109375,0.109375 0.09375,0 0.125,-0.0625 0.125,-0.078125 0.171875,-0.4375 0.703125,-0.4375 0.78125,-0.4375 0.203125,0 0.421875,0.0625 0.609375,0.140625 0.359375,0.109375 0.515625,0.109375 0.65625,0.109375 -0.28125,0.3125 -0.78125,0.75 -1.359375,1.234375 C 1.609375,-1.46875 1.328125,-1.1875 1.125,-1 0.796875,-0.640625 0.390625,-0.09375 0.390625,0 c 0,0.0625 0.046875,0.09375 0.125,0.09375 0.078125,0 0.09375,-0.03125 0.140625,-0.078125 C 1,-0.53125 1.34375,-0.5625 1.4375,-0.5625 c 0.21875,0 0.34375,0.125 0.546875,0.359375 C 2.1875,0.03125 2.390625,0.09375 2.5625,0.09375 c 0.921875,0 1.46875,-1.140625 1.46875,-1.390625 0,-0.078125 -0.0625,-0.109375 -0.125,-0.109375 -0.09375,0 -0.109375,0.0625 -0.125,0.109375 -0.25,0.65625 -0.890625,0.765625 -1.125,0.765625 -0.15625,0 -0.34375,-0.046875 -0.609375,-0.140625 -0.1875,-0.046875 -0.390625,-0.125 -0.578125,-0.125 -0.09375,0 -0.1875,0.03125 -0.21875,0.03125 z m 0,0"
           id="path14" />
      </g>
    </g>
    <g
       fill="#000000"
       fill-opacity="1"
       id="g9"
       transform="matrix(0.352778,0,0,0.352778,-1.08342,-0.666926)">
      <g
         id="use8"
         transform="translate(9.2244024,11.357)">
        <path
           d="m 1.46875,-6.390625 c 0,-0.15625 0,-0.34375 -0.1875,-0.34375 -0.203125,0 -0.203125,0.171875 -0.203125,0.34375 V 1.90625 c 0,0.15625 0,0.34375 0.203125,0.34375 0.1875,0 0.1875,-0.171875 0.1875,-0.34375 z m 0,0"
           id="path15" />
      </g>
    </g>
    <g
       fill="#000000"
       fill-opacity="1"
       id="g10"
       transform="matrix(0.352778,0,0,0.352778,-1.08342,-0.666926)">
      <g
         id="use9"
         transform="translate(14.348699,11.357)">
        <path
           d="m 6.34375,-2.96875 c 0.125,0 0.296875,0 0.296875,-0.1875 0,-0.203125 -0.1875,-0.203125 -0.328125,-0.203125 H 0.84375 c -0.140625,0 -0.328125,0 -0.328125,0.203125 0,0.1875 0.171875,0.1875 0.296875,0.1875 z M 6.3125,-1.140625 c 0.140625,0 0.328125,0 0.328125,-0.203125 0,-0.1875 -0.171875,-0.1875 -0.296875,-0.1875 H 0.8125 c -0.125,0 -0.296875,0 -0.296875,0.1875 0,0.203125 0.1875,0.203125 0.328125,0.203125 z m 0,0"
           id="path16" />
      </g>
    </g>
    <g
       fill="#000000"
       fill-opacity="1"
       id="g11"
       transform="matrix(0.352778,0,0,0.352778,-1.08342,-0.666926)">
      <g
         id="use10"
         transform="translate(24.071863,11.357)">
        <path
           d="m 4.140625,-1.59375 h -0.25 C 3.875,-1.46875 3.796875,-0.9375 3.6875,-0.796875 3.625,-0.71875 3.015625,-0.71875 2.828125,-0.71875 H 1.234375 L 2.125,-1.5625 c 1.46875,-1.265625 2.015625,-1.75 2.015625,-2.65625 0,-1.03125 -0.84375,-1.75 -1.953125,-1.75 -1.03125,0 -1.734375,0.8125 -1.734375,1.625 0,0.453125 0.390625,0.5 0.46875,0.5 0.203125,0 0.46875,-0.140625 0.46875,-0.46875 0,-0.265625 -0.1875,-0.46875 -0.46875,-0.46875 -0.046875,0 -0.0625,0 -0.109375,0.015625 C 1.03125,-5.40625 1.609375,-5.6875 2.09375,-5.6875 c 0.90625,0 1.21875,0.84375 1.21875,1.46875 0,0.90625 -0.6875,1.65625 -1.109375,2.125 L 0.5625,-0.328125 C 0.453125,-0.21875 0.453125,-0.203125 0.453125,0 h 3.4375 z m 0,0"
           id="path17" />
      </g>
    </g>
    <g
       fill="#000000"
       fill-opacity="1"
       id="g12"
       transform="matrix(0.352778,0,0,0.352778,-1.08342,-0.666926)">
      <g
         id="use11"
         transform="translate(29.875999,5.2030001)">
        <path
           d="M 1.984375,-3.171875 C 1.984375,-3.3125 1.96875,-3.3125 1.796875,-3.3125 1.453125,-3 0.890625,-3 0.796875,-3 H 0.71875 v 0.21875 h 0.078125 c 0.109375,0 0.4375,-0.015625 0.734375,-0.140625 v 2.5 c 0,0.140625 0,0.203125 -0.53125,0.203125 H 0.75 V 0 c 0.265625,-0.015625 0.71875,-0.015625 1,-0.015625 0.296875,0 0.734375,0 1.015625,0.015625 v -0.21875 h -0.25 c -0.53125,0 -0.53125,-0.0625 -0.53125,-0.203125 z m 0,0"
           id="path18" />
      </g>
    </g>
    <path
       fill="none"
       stroke-width="0.29"
       stroke-linecap="butt"
       stroke-linejoin="miter"
       stroke="#000000"
       stroke-opacity="1"
       stroke-miterlimit="10"
       d="M 26.803875,4.1641874 H 30.1945"
       id="path12"
       transform="scale(0.352778)" />
    <g
       fill="#000000"
       fill-opacity="1"
       id="g13"
       transform="matrix(0.352778,0,0,0.352778,-1.08342,-0.666926)">
      <g
         id="use12"
         transform="translate(29.875999,10.114)">
        <path
           d="m 0.984375,-2.75 c 0.25,0.0625 0.484375,0.0625 0.53125,0.0625 0.34375,0 0.59375,-0.09375 0.71875,-0.15625 0.125,-0.0625 0.46875,-0.28125 0.46875,-0.390625 0,-0.078125 -0.0625,-0.078125 -0.078125,-0.078125 -0.015625,0 -0.015625,0 -0.078125,0.015625 -0.1875,0.0625 -0.5,0.140625 -0.828125,0.140625 -0.28125,0 -0.546875,-0.046875 -0.8125,-0.140625 C 0.84375,-3.3125 0.84375,-3.3125 0.828125,-3.3125 0.75,-3.3125 0.75,-3.265625 0.75,-3.1875 v 1.5 c 0,0.09375 0,0.15625 0.109375,0.15625 0.046875,0 0.046875,-0.015625 0.09375,-0.0625 0.1875,-0.21875 0.453125,-0.328125 0.796875,-0.328125 0.28125,0 0.453125,0.15625 0.515625,0.265625 0.109375,0.171875 0.140625,0.390625 0.140625,0.640625 0,0.203125 -0.015625,0.484375 -0.21875,0.671875 -0.21875,0.234375 -0.5,0.25 -0.609375,0.25 -0.328125,0 -0.6875,-0.140625 -0.84375,-0.4375 0.203125,-0.015625 0.28125,-0.15625 0.28125,-0.28125 0,-0.15625 -0.125,-0.28125 -0.28125,-0.28125 -0.109375,0 -0.28125,0.078125 -0.28125,0.296875 0,0.5 0.484375,0.90625 1.125,0.90625 0.75,0 1.359375,-0.5 1.359375,-1.109375 0,-0.5625 -0.484375,-1.09375 -1.171875,-1.09375 -0.3125,0 -0.578125,0.078125 -0.78125,0.25 z m 0,0"
           id="path19" />
      </g>
    </g>
  </g>
</svg>
