<?xml version="1.0" encoding="UTF-8" standalone="no"?>
<svg
   width="110mm"
   height="77mm"
   viewBox="0 0 110 77"
   version="1.1"
   id="svg1"
   sodipodi:docname="2026-05-29.svg"
   inkscape:version="1.4.3 (0d15f75042, 2025-12-25)"
   inkscape:export-filename="2026-05-29.pdf"
   inkscape:export-xdpi="96"
   inkscape:export-ydpi="96"
   xmlns:inkscape="http://www.inkscape.org/namespaces/inkscape"
   xmlns:sodipodi="http://sodipodi.sourceforge.net/DTD/sodipodi-0.dtd"
   xmlns="http://www.w3.org/2000/svg"
   xmlns:svg="http://www.w3.org/2000/svg">
  <sodipodi:namedview
     id="namedview1"
     pagecolor="#ffffff"
     bordercolor="#000000"
     borderopacity="0.25"
     inkscape:showpageshadow="2"
     inkscape:pageopacity="0.0"
     inkscape:pagecheckerboard="0"
     inkscape:deskcolor="#d1d1d1"
     inkscape:document-units="mm"
     showgrid="true"
     inkscape:zoom="1.295223"
     inkscape:cx="252.08014"
     inkscape:cy="253.62427"
     inkscape:window-width="1242"
     inkscape:window-height="1136"
     inkscape:window-x="0"
     inkscape:window-y="0"
     inkscape:window-maximized="1"
     inkscape:current-layer="svg1">
    <inkscape:grid
       id="grid1"
       units="mm"
       originx="0"
       originy="0"
       spacingx="0.99999998"
       spacingy="1"
       empcolor="#0099e5"
       empopacity="0.30196078"
       color="#0099e5"
       opacity="0.14901961"
       empspacing="5"
       enabled="true"
       visible="true" />
  </sodipodi:namedview>
  <defs
     id="defs1">
    <marker
       style="overflow:visible"
       id="marker11"
       refX="0"
       refY="0"
       orient="auto-start-reverse"
       inkscape:stockid="Triangle arrow"
       markerWidth="1"
       markerHeight="1"
       viewBox="0 0 1 1"
       inkscape:isstock="true"
       inkscape:collect="always"
       preserveAspectRatio="xMidYMid">
      <path
         transform="scale(0.5)"
         style="fill:context-stroke;fill-rule:evenodd;stroke:context-stroke;stroke-width:1pt"
         d="M 5.77,0 -2.88,5 V -5 Z"
         id="path11" />
    </marker>
    <marker
       style="overflow:visible"
       id="marker10"
       refX="0"
       refY="0"
       orient="auto-start-reverse"
       inkscape:stockid="Triangle arrow"
       markerWidth="1"
       markerHeight="1"
       viewBox="0 0 1 1"
       inkscape:isstock="true"
       inkscape:collect="always"
       preserveAspectRatio="xMidYMid">
      <path
         transform="scale(0.5)"
         style="fill:context-stroke;fill-rule:evenodd;stroke:context-stroke;stroke-width:1pt"
         d="M 5.77,0 -2.88,5 V -5 Z"
         id="path10" />
    </marker>
    <marker
       style="overflow:visible"
       id="marker9"
       refX="0"
       refY="0"
       orient="auto-start-reverse"
       inkscape:stockid="Triangle arrow"
       markerWidth="1"
       markerHeight="1"
       viewBox="0 0 1 1"
       inkscape:isstock="true"
       inkscape:collect="always"
       preserveAspectRatio="xMidYMid">
      <path
         transform="scale(0.5)"
         style="fill:context-stroke;fill-rule:evenodd;stroke:context-stroke;stroke-width:1pt"
         d="M 5.77,0 -2.88,5 V -5 Z"
         id="path9" />
    </marker>
    <marker
       style="overflow:visible"
       id="Triangle"
       refX="0"
       refY="0"
       orient="auto-start-reverse"
       inkscape:stockid="Triangle arrow"
       markerWidth="1"
       markerHeight="1"
       viewBox="0 0 1 1"
       inkscape:isstock="true"
       inkscape:collect="always"
       preserveAspectRatio="xMidYMid">
      <path
         transform="scale(0.5)"
         style="fill:context-stroke;fill-rule:evenodd;stroke:context-stroke;stroke-width:1pt"
         d="M 5.77,0 -2.88,5 V -5 Z"
         id="path135" />
    </marker>
    <inkscape:path-effect
       effect="spiro"
       id="path-effect3"
       is_visible="true"
       lpeversion="1" />
    <inkscape:path-effect
       effect="spiro"
       id="path-effect2"
       is_visible="true"
       lpeversion="1" />
    <inkscape:path-effect
       effect="spiro"
       id="path-effect1"
       is_visible="true"
       lpeversion="1" />
    <g
       id="g7944">
      <g
         id="g4203">
        <path
           d="M 5.421875,-1.75 C 5.390625,-2.453125 5.359375,-3.5625 4.8125,-4.84375 4.53125,-5.5625 4.046875,-6.328125 3,-6.328125 c -1.765625,0 -2.734375,2.25 -2.734375,2.625 0,0.125 0.109375,0.125 0.15625,0.125 0.125,0 0.125,-0.015625 0.1875,-0.203125 0.3125,-0.890625 1.234375,-1.59375 2.21875,-1.59375 1.984375,0 2.28125,2.21875 2.28125,3.640625 0,0.90625 -0.109375,1.203125 -0.1875,1.484375 -0.28125,0.890625 -0.75,2.671875 -0.75,3.078125 0,0.109375 0.046875,0.234375 0.15625,0.234375 0.21875,0 0.34375,-0.46875 0.5,-1.046875 0.34375,-1.25 0.4375,-1.890625 0.5,-2.453125 0.046875,-0.34375 0.875,-2.71875 2,-4.96875 C 7.4375,-5.640625 7.625,-6.03125 7.625,-6.0625 c 0,-0.015625 -0.015625,-0.125 -0.140625,-0.125 -0.03125,0 -0.09375,0 -0.125,0.0625 -0.03125,0.03125 -0.53125,1 -0.96875,1.984375 -0.203125,0.484375 -0.5,1.125 -0.96875,2.390625 z m 0,0"
           id="path9478" />
      </g>
    </g>
  </defs>
  <path
     style="fill:#000000;fill-opacity:0;stroke:#000000;stroke-width:0.379;stroke-linecap:round;stroke-linejoin:round;stroke-miterlimit:3.5;stroke-dasharray:none;stroke-dashoffset:0.133039;marker-end:url(#marker11);paint-order:markers stroke fill"
     d="M 59.738839,74.630261 150.1263,74.803417"
     id="path1"
     inkscape:path-effect="#path-effect1"
     inkscape:original-d="m 59.738839,74.630261 c 30.129154,0.288594 60.258311,0.230875 90.387461,0.173156"
     transform="matrix(0.89385876,0,0,1.0731851,-41.834591,-40.798234)" />
  <path
     style="fill:#000000;fill-opacity:0;stroke:#000000;stroke-width:0.379;stroke-linecap:round;stroke-linejoin:round;stroke-miterlimit:3.5;stroke-dasharray:none;stroke-dashoffset:0.133039;marker-end:url(#marker10);paint-order:markers stroke fill"
     d="m 105.10573,109.78094 0.17315,-74.457105"
     id="path2"
     inkscape:path-effect="#path-effect2"
     inkscape:original-d="m 105.10573,109.78094 c -0.0577,-24.703596 0.0577,-49.58035 0.17315,-74.457105"
     transform="matrix(1.0772008,0,0,0.88847505,-65.268995,-25.911667)" />
  <path
     style="fill:#000000;fill-opacity:0;stroke:#f43232;stroke-width:0.379;stroke-linecap:round;stroke-linejoin:round;stroke-miterlimit:3.5;stroke-dasharray:none;stroke-dashoffset:0.133039;stroke-opacity:1;marker-mid:url(#marker9);marker-end:url(#Triangle);paint-order:markers stroke fill"
     d="M 80.690722,99.564734 146.31687,48.31054"
     id="path3"
     inkscape:path-effect="#path-effect3"
     inkscape:original-d="M 80.690722,99.564734 C 102.33523,82.480001 124.32605,65.39527 146.31687,48.31054"
     transform="translate(-57.834124,-35.323836)" />
  <g
     inkscape:label=""
     transform="translate(87.963296,16.709567)"
     id="g11">
    <g
       fill="#000000"
       fill-opacity="1"
       id="g2"
       transform="matrix(0.352778,0,0,0.352778,-0.796793,-0.64942)">
      <g
         id="use1"
         transform="translate(1.993,8.1689997)">
        <path
           d="M 5.421875,-1.75 C 5.390625,-2.453125 5.359375,-3.5625 4.8125,-4.84375 4.53125,-5.5625 4.046875,-6.328125 3,-6.328125 c -1.765625,0 -2.734375,2.25 -2.734375,2.625 0,0.125 0.109375,0.125 0.15625,0.125 0.125,0 0.125,-0.015625 0.1875,-0.203125 0.3125,-0.890625 1.234375,-1.59375 2.21875,-1.59375 1.984375,0 2.28125,2.21875 2.28125,3.640625 0,0.90625 -0.109375,1.203125 -0.1875,1.484375 -0.28125,0.890625 -0.75,2.671875 -0.75,3.078125 0,0.109375 0.046875,0.234375 0.15625,0.234375 0.21875,0 0.34375,-0.46875 0.5,-1.046875 0.34375,-1.25 0.4375,-1.890625 0.5,-2.453125 0.046875,-0.34375 0.875,-2.71875 2,-4.96875 C 7.4375,-5.640625 7.625,-6.03125 7.625,-6.0625 c 0,-0.015625 -0.015625,-0.125 -0.140625,-0.125 -0.03125,0 -0.09375,0 -0.125,0.0625 -0.03125,0.03125 -0.53125,1 -0.96875,1.984375 -0.203125,0.484375 -0.5,1.125 -0.96875,2.390625 z m 0,0"
           id="path2-1" />
      </g>
    </g>
  </g>
</svg>
