<?xml version="1.0" encoding="UTF-8" standalone="no"?>
<svg
   width="110mm"
   height="97mm"
   viewBox="0 0 110 97"
   version="1.1"
   id="svg1"
   sodipodi:docname="2026-03-05.svg"
   inkscape:version="1.4.3 (0d15f75042, 2025-12-25)"
   inkscape:export-filename="2026-03-05.pdf"
   inkscape:export-xdpi="96"
   inkscape:export-ydpi="96"
   xmlns:inkscape="http://www.inkscape.org/namespaces/inkscape"
   xmlns:sodipodi="http://sodipodi.sourceforge.net/DTD/sodipodi-0.dtd"
   xmlns="http://www.w3.org/2000/svg"
   xmlns:svg="http://www.w3.org/2000/svg">
  <sodipodi:namedview
     id="namedview1"
     pagecolor="#ffffff"
     bordercolor="#000000"
     borderopacity="0.25"
     inkscape:showpageshadow="2"
     inkscape:pageopacity="0.0"
     inkscape:pagecheckerboard="0"
     inkscape:deskcolor="#d1d1d1"
     inkscape:document-units="mm"
     showgrid="true"
     inkscape:zoom="2.0124232"
     inkscape:cx="421.38254"
     inkscape:cy="221.37491"
     inkscape:window-width="1896"
     inkscape:window-height="1136"
     inkscape:window-x="0"
     inkscape:window-y="0"
     inkscape:window-maximized="1"
     inkscape:current-layer="svg1">
    <inkscape:grid
       id="grid1"
       units="mm"
       originx="0"
       originy="0"
       spacingx="0.99999998"
       spacingy="1"
       empcolor="#0099e5"
       empopacity="0.30196078"
       color="#0099e5"
       opacity="0.14901961"
       empspacing="5"
       enabled="true"
       visible="true" />
  </sodipodi:namedview>
  <defs
     id="defs1">
    <inkscape:path-effect
       effect="spiro"
       id="path-effect15"
       is_visible="true"
       lpeversion="1" />
    <marker
       style="overflow:visible"
       id="ArrowWideHeavy"
       refX="0"
       refY="0"
       orient="auto-start-reverse"
       inkscape:stockid="Wide, heavy arrow"
       markerWidth="1"
       markerHeight="1"
       viewBox="0 0 1 1"
       inkscape:isstock="true"
       inkscape:collect="always"
       preserveAspectRatio="xMidYMid">
      <path
         style="fill:context-stroke;fill-rule:evenodd;stroke:none"
         d="m 1,0 -3,3 h -2 l 3,-3 -3,-3 h 2 z"
         id="path6" />
    </marker>
    <marker
       style="overflow:visible"
       id="marker3"
       refX="0"
       refY="0"
       orient="auto-start-reverse"
       inkscape:stockid="Triangle arrow"
       markerWidth="1"
       markerHeight="1"
       viewBox="0 0 1 1"
       inkscape:isstock="true"
       inkscape:collect="always"
       preserveAspectRatio="xMidYMid">
      <path
         transform="scale(0.5)"
         style="fill:context-stroke;fill-rule:evenodd;stroke:context-stroke;stroke-width:1pt"
         d="M 5.77,0 -2.88,5 V -5 Z"
         id="path3" />
    </marker>
    <marker
       style="overflow:visible"
       id="Triangle"
       refX="0"
       refY="0"
       orient="auto-start-reverse"
       inkscape:stockid="Triangle arrow"
       markerWidth="1"
       markerHeight="1"
       viewBox="0 0 1 1"
       inkscape:isstock="true"
       inkscape:collect="always"
       preserveAspectRatio="xMidYMid">
      <path
         transform="scale(0.5)"
         style="fill:context-stroke;fill-rule:evenodd;stroke:context-stroke;stroke-width:1pt"
         d="M 5.77,0 -2.88,5 V -5 Z"
         id="path135" />
    </marker>
    <g
       id="g9296">
      <g
         id="g6845">
        <path
           d="M 6.515625,-2.09375 C 6.46875,-2.9375 6.4375,-4.265625 5.78125,-5.8125 5.4375,-6.6875 4.859375,-7.59375 3.59375,-7.59375 c -2.109375,0 -3.265625,2.703125 -3.265625,3.15625 0,0.15625 0.125,0.15625 0.171875,0.15625 0.15625,0 0.15625,-0.046875 0.234375,-0.265625 0.375,-1.0625 1.46875,-1.90625 2.65625,-1.90625 2.390625,0 2.734375,2.671875 2.734375,4.375 0,1.078125 -0.109375,1.4375 -0.21875,1.78125 -0.328125,1.078125 -0.890625,3.203125 -0.890625,3.6875 0,0.140625 0.046875,0.296875 0.1875,0.296875 0.25,0 0.40625,-0.578125 0.59375,-1.265625 C 6.21875,0.90625 6.3125,0.15625 6.40625,-0.53125 c 0.046875,-0.421875 1.03125,-3.25 2.390625,-5.953125 0.125,-0.28125 0.359375,-0.75 0.359375,-0.796875 0,-0.015625 -0.015625,-0.140625 -0.171875,-0.140625 -0.03125,0 -0.109375,0 -0.15625,0.0625 -0.03125,0.046875 -0.625,1.21875 -1.15625,2.390625 -0.25,0.578125 -0.59375,1.359375 -1.15625,2.875 z m 0,0"
           id="path713" />
      </g>
      <g
         id="g3263">
        <path
           d="m 3.46875,-6.921875 h 1.578125 c 0.328125,0 0.5,0 0.5,-0.3125 0,-0.1875 -0.109375,-0.1875 -0.453125,-0.1875 H 3.578125 L 4.21875,-9.9375 c 0.0625,-0.234375 0.0625,-0.265625 0.0625,-0.390625 0,-0.28125 -0.21875,-0.4375 -0.4375,-0.4375 -0.140625,0 -0.53125,0.0625 -0.671875,0.609375 L 2.5,-7.421875 H 0.875 c -0.34375,0 -0.5,0 -0.5,0.328125 0,0.171875 0.125,0.171875 0.453125,0.171875 h 1.53125 L 1.21875,-2.375 c -0.140625,0.59375 -0.1875,0.78125 -0.1875,1 0,0.8125 0.5625,1.546875 1.53125,1.546875 1.75,0 2.671875,-2.515625 2.671875,-2.640625 0,-0.09375 -0.0625,-0.15625 -0.171875,-0.15625 -0.03125,0 -0.109375,0 -0.140625,0.078125 -0.015625,0.015625 -0.03125,0.03125 -0.15625,0.3125 -0.359375,0.859375 -1.15625,2.0625 -2.140625,2.0625 -0.53125,0 -0.5625,-0.4375 -0.5625,-0.8125 0,-0.015625 0,-0.34375 0.0625,-0.546875 z m 0,0"
           id="path5982" />
      </g>
      <g
         id="g8448">
        <path
           d="m 2.765625,-5.1875 c 0.046875,-0.125 0.09375,-0.21875 0.09375,-0.328125 0,-0.3125 -0.28125,-0.578125 -0.625,-0.578125 -0.296875,0 -0.5,0.203125 -0.578125,0.484375 L 0.359375,-0.84375 c 0,0.03125 -0.046875,0.140625 -0.046875,0.15625 0,0.125 0.28125,0.203125 0.375,0.203125 0.0625,0 0.078125,-0.046875 0.140625,-0.1875 z m 0,0"
           id="path7018" />
      </g>
      <g
         id="g8236">
        <path
           d="m 5.265625,4.203125 c 0,-0.015625 0,-0.046875 -0.046875,-0.109375 -0.796875,-0.8125 -2.90625,-3.015625 -2.90625,-8.375 0,-5.375 2.078125,-7.5625 2.921875,-8.421875 0,-0.01563 0.03125,-0.0625 0.03125,-0.109375 0,-0.04687 -0.046875,-0.07813 -0.125,-0.07813 -0.1875,0 -1.640625,1.265625 -2.484375,3.15625 -0.859375,1.921875 -1.109375,3.78125 -1.109375,5.421875 0,1.25 0.125,3.34375 1.15625,5.5625 0.828125,1.796875 2.234375,3.0625 2.4375,3.0625 0.09375,0 0.125,-0.046875 0.125,-0.109375 z m 0,0"
           id="path1037" />
      </g>
      <g
         id="g489">
        <path
           d="m 4.53125,-4.28125 c 0,-1.25 -0.125,-3.34375 -1.15625,-5.5625 -0.828125,-1.796875 -2.234375,-3.046875 -2.4375,-3.046875 -0.0625,0 -0.125,0.01563 -0.125,0.09375 0,0.03125 0.015625,0.0625 0.03125,0.09375 0.828125,0.859375 2.921875,3.046875 2.921875,8.390625 0,5.375 -2.078125,7.5625 -2.921875,8.421875 C 0.828125,4.15625 0.8125,4.171875 0.8125,4.203125 0.8125,4.28125 0.875,4.3125 0.9375,4.3125 1.125,4.3125 2.578125,3.03125 3.421875,1.140625 4.28125,-0.78125 4.53125,-2.640625 4.53125,-4.28125 Z m 0,0"
           id="path2195" />
      </g>
    </g>
    <g
       id="g7250">
      <g
         id="g9949">
        <path
           d="M 6.515625,-2.09375 C 6.46875,-2.9375 6.4375,-4.265625 5.78125,-5.8125 5.4375,-6.6875 4.859375,-7.59375 3.59375,-7.59375 c -2.109375,0 -3.265625,2.703125 -3.265625,3.15625 0,0.15625 0.125,0.15625 0.171875,0.15625 0.15625,0 0.15625,-0.046875 0.234375,-0.265625 0.375,-1.0625 1.46875,-1.90625 2.65625,-1.90625 2.390625,0 2.734375,2.671875 2.734375,4.375 0,1.078125 -0.109375,1.4375 -0.21875,1.78125 -0.328125,1.078125 -0.890625,3.203125 -0.890625,3.6875 0,0.140625 0.046875,0.296875 0.1875,0.296875 0.25,0 0.40625,-0.578125 0.59375,-1.265625 C 6.21875,0.90625 6.3125,0.15625 6.40625,-0.53125 c 0.046875,-0.421875 1.03125,-3.25 2.390625,-5.953125 0.125,-0.28125 0.359375,-0.75 0.359375,-0.796875 0,-0.015625 -0.015625,-0.140625 -0.171875,-0.140625 -0.03125,0 -0.109375,0 -0.15625,0.0625 -0.03125,0.046875 -0.625,1.21875 -1.15625,2.390625 -0.25,0.578125 -0.59375,1.359375 -1.15625,2.875 z m 0,0"
           id="path2164" />
      </g>
      <g
         id="g3945">
        <path
           d="m 3.46875,-6.921875 h 1.578125 c 0.328125,0 0.5,0 0.5,-0.3125 0,-0.1875 -0.109375,-0.1875 -0.453125,-0.1875 H 3.578125 L 4.21875,-9.9375 c 0.0625,-0.234375 0.0625,-0.265625 0.0625,-0.390625 0,-0.28125 -0.21875,-0.4375 -0.4375,-0.4375 -0.140625,0 -0.53125,0.0625 -0.671875,0.609375 L 2.5,-7.421875 H 0.875 c -0.34375,0 -0.5,0 -0.5,0.328125 0,0.171875 0.125,0.171875 0.453125,0.171875 h 1.53125 L 1.21875,-2.375 c -0.140625,0.59375 -0.1875,0.78125 -0.1875,1 0,0.8125 0.5625,1.546875 1.53125,1.546875 1.75,0 2.671875,-2.515625 2.671875,-2.640625 0,-0.09375 -0.0625,-0.15625 -0.171875,-0.15625 -0.03125,0 -0.109375,0 -0.140625,0.078125 -0.015625,0.015625 -0.03125,0.03125 -0.15625,0.3125 -0.359375,0.859375 -1.15625,2.0625 -2.140625,2.0625 -0.53125,0 -0.5625,-0.4375 -0.5625,-0.8125 0,-0.015625 0,-0.34375 0.0625,-0.546875 z m 0,0"
           id="path2597" />
      </g>
      <g
         id="g390">
        <path
           d="m 5.265625,4.203125 c 0,-0.015625 0,-0.046875 -0.046875,-0.109375 -0.796875,-0.8125 -2.90625,-3.015625 -2.90625,-8.375 0,-5.375 2.078125,-7.5625 2.921875,-8.421875 0,-0.01563 0.03125,-0.0625 0.03125,-0.109375 0,-0.04687 -0.046875,-0.07813 -0.125,-0.07813 -0.1875,0 -1.640625,1.265625 -2.484375,3.15625 -0.859375,1.921875 -1.109375,3.78125 -1.109375,5.421875 0,1.25 0.125,3.34375 1.15625,5.5625 0.828125,1.796875 2.234375,3.0625 2.4375,3.0625 0.09375,0 0.125,-0.046875 0.125,-0.109375 z m 0,0"
           id="path8767" />
      </g>
      <g
         id="g8600">
        <path
           d="m 4.53125,-4.28125 c 0,-1.25 -0.125,-3.34375 -1.15625,-5.5625 -0.828125,-1.796875 -2.234375,-3.046875 -2.4375,-3.046875 -0.0625,0 -0.125,0.01563 -0.125,0.09375 0,0.03125 0.015625,0.0625 0.03125,0.09375 0.828125,0.859375 2.921875,3.046875 2.921875,8.390625 0,5.375 -2.078125,7.5625 -2.921875,8.421875 C 0.828125,4.15625 0.8125,4.171875 0.8125,4.203125 0.8125,4.28125 0.875,4.3125 0.9375,4.3125 1.125,4.3125 2.578125,3.03125 3.421875,1.140625 4.28125,-0.78125 4.53125,-2.640625 4.53125,-4.28125 Z m 0,0"
           id="path3840" />
      </g>
    </g>
    <g
       id="g592">
      <g
         id="g5035">
        <path
           d="M 6.515625,-2.09375 C 6.46875,-2.9375 6.4375,-4.265625 5.78125,-5.8125 5.4375,-6.6875 4.859375,-7.59375 3.59375,-7.59375 c -2.109375,0 -3.265625,2.703125 -3.265625,3.15625 0,0.15625 0.125,0.15625 0.171875,0.15625 0.15625,0 0.15625,-0.046875 0.234375,-0.265625 0.375,-1.0625 1.46875,-1.90625 2.65625,-1.90625 2.390625,0 2.734375,2.671875 2.734375,4.375 0,1.078125 -0.109375,1.4375 -0.21875,1.78125 -0.328125,1.078125 -0.890625,3.203125 -0.890625,3.6875 0,0.140625 0.046875,0.296875 0.1875,0.296875 0.25,0 0.40625,-0.578125 0.59375,-1.265625 C 6.21875,0.90625 6.3125,0.15625 6.40625,-0.53125 c 0.046875,-0.421875 1.03125,-3.25 2.390625,-5.953125 0.125,-0.28125 0.359375,-0.75 0.359375,-0.796875 0,-0.015625 -0.015625,-0.140625 -0.171875,-0.140625 -0.03125,0 -0.109375,0 -0.15625,0.0625 -0.03125,0.046875 -0.625,1.21875 -1.15625,2.390625 -0.25,0.578125 -0.59375,1.359375 -1.15625,2.875 z m 0,0"
           id="path6666" />
      </g>
      <g
         id="g9565">
        <path
           d="M 5.1875,-2.046875 C 5.09375,-1.75 5.09375,-1.71875 4.859375,-1.390625 c -0.375,0.484375 -1.140625,1.21875 -1.953125,1.21875 -0.703125,0 -1.09375,-0.640625 -1.09375,-1.65625 0,-0.9375 0.53125,-2.875 0.859375,-3.59375 C 3.25,-6.625 4.0625,-7.25 4.734375,-7.25 c 1.140625,0 1.359375,1.40625 1.359375,1.546875 0,0.015625 -0.046875,0.25 -0.0625,0.28125 z m 1.09375,-4.40625 C 6.09375,-6.90625 5.625,-7.59375 4.734375,-7.59375 c -1.9375,0 -4.046875,2.515625 -4.046875,5.0625 0,1.703125 1,2.703125 2.171875,2.703125 0.953125,0 1.75,-0.734375 2.234375,-1.3125 0.171875,1.015625 0.984375,1.3125 1.5,1.3125 0.515625,0 0.9375,-0.3125 1.234375,-0.921875 C 8.109375,-1.34375 8.34375,-2.390625 8.34375,-2.46875 8.34375,-2.546875 8.28125,-2.625 8.171875,-2.625 8.03125,-2.625 8,-2.53125 7.9375,-2.265625 7.671875,-1.25 7.359375,-0.171875 6.640625,-0.171875 c -0.5,0 -0.53125,-0.453125 -0.53125,-0.796875 0,-0.390625 0.0625,-0.578125 0.203125,-1.25 0.125,-0.4375 0.21875,-0.8125 0.34375,-1.3125 0.640625,-2.578125 0.796875,-3.203125 0.796875,-3.296875 0,-0.25 -0.1875,-0.4375 -0.4375,-0.4375 -0.5625,0 -0.703125,0.609375 -0.734375,0.8125 z m 0,0"
           id="path5833" />
      </g>
      <g
         id="g4027">
        <path
           d="m 5.265625,4.203125 c 0,-0.015625 0,-0.046875 -0.046875,-0.109375 -0.796875,-0.8125 -2.90625,-3.015625 -2.90625,-8.375 0,-5.375 2.078125,-7.5625 2.921875,-8.421875 0,-0.01563 0.03125,-0.0625 0.03125,-0.109375 0,-0.04687 -0.046875,-0.07813 -0.125,-0.07813 -0.1875,0 -1.640625,1.265625 -2.484375,3.15625 -0.859375,1.921875 -1.109375,3.78125 -1.109375,5.421875 0,1.25 0.125,3.34375 1.15625,5.5625 0.828125,1.796875 2.234375,3.0625 2.4375,3.0625 0.09375,0 0.125,-0.046875 0.125,-0.109375 z m 0,0"
           id="path8987" />
      </g>
      <g
         id="g5736">
        <path
           d="m 4.53125,-4.28125 c 0,-1.25 -0.125,-3.34375 -1.15625,-5.5625 -0.828125,-1.796875 -2.234375,-3.046875 -2.4375,-3.046875 -0.0625,0 -0.125,0.01563 -0.125,0.09375 0,0.03125 0.015625,0.0625 0.03125,0.09375 0.828125,0.859375 2.921875,3.046875 2.921875,8.390625 0,5.375 -2.078125,7.5625 -2.921875,8.421875 C 0.828125,4.15625 0.8125,4.171875 0.8125,4.203125 0.8125,4.28125 0.875,4.3125 0.9375,4.3125 1.125,4.3125 2.578125,3.03125 3.421875,1.140625 4.28125,-0.78125 4.53125,-2.640625 4.53125,-4.28125 Z m 0,0"
           id="path4734" />
      </g>
    </g>
    <g
       id="g9679">
      <g
         id="g9794">
        <path
           d="M 6.515625,-2.09375 C 6.46875,-2.9375 6.4375,-4.265625 5.78125,-5.8125 5.4375,-6.6875 4.859375,-7.59375 3.59375,-7.59375 c -2.109375,0 -3.265625,2.703125 -3.265625,3.15625 0,0.15625 0.125,0.15625 0.171875,0.15625 0.15625,0 0.15625,-0.046875 0.234375,-0.265625 0.375,-1.0625 1.46875,-1.90625 2.65625,-1.90625 2.390625,0 2.734375,2.671875 2.734375,4.375 0,1.078125 -0.109375,1.4375 -0.21875,1.78125 -0.328125,1.078125 -0.890625,3.203125 -0.890625,3.6875 0,0.140625 0.046875,0.296875 0.1875,0.296875 0.25,0 0.40625,-0.578125 0.59375,-1.265625 C 6.21875,0.90625 6.3125,0.15625 6.40625,-0.53125 c 0.046875,-0.421875 1.03125,-3.25 2.390625,-5.953125 0.125,-0.28125 0.359375,-0.75 0.359375,-0.796875 0,-0.015625 -0.015625,-0.140625 -0.171875,-0.140625 -0.03125,0 -0.109375,0 -0.15625,0.0625 -0.03125,0.046875 -0.625,1.21875 -1.15625,2.390625 -0.25,0.578125 -0.59375,1.359375 -1.15625,2.875 z m 0,0"
           id="path4130" />
      </g>
      <g
         id="g9682">
        <path
           d="M 3.984375,-11.515625 C 4,-11.59375 4.03125,-11.6875 4.03125,-11.78125 c 0,-0.171875 -0.171875,-0.171875 -0.203125,-0.171875 -0.015625,0 -0.640625,0.0625 -0.953125,0.09375 -0.296875,0.01563 -0.546875,0.04687 -0.859375,0.0625 -0.421875,0.03125 -0.53125,0.04687 -0.53125,0.359375 0,0.171875 0.171875,0.171875 0.34375,0.171875 0.875,0 0.875,0.15625 0.875,0.328125 0,0.125 -0.140625,0.625 -0.203125,0.9375 L 2.078125,-8.34375 C 1.90625,-7.65625 0.9375,-3.75 0.859375,-3.4375 0.78125,-3.015625 0.78125,-2.71875 0.78125,-2.5 c 0,1.765625 0.96875,2.671875 2.09375,2.671875 2,0 4.0625,-2.5625 4.0625,-5.0625 0,-1.578125 -0.890625,-2.703125 -2.1875,-2.703125 -0.890625,0 -1.703125,0.734375 -2.03125,1.078125 z m -1.09375,11.34375 c -0.546875,0 -1.15625,-0.40625 -1.15625,-1.75 0,-0.578125 0.0625,-0.90625 0.359375,-2.109375 C 2.15625,-4.25 2.421875,-5.359375 2.5,-5.578125 2.53125,-5.71875 3.546875,-7.25 4.71875,-7.25 c 0.75,0 1.09375,0.765625 1.09375,1.65625 0,0.828125 -0.46875,2.765625 -0.90625,3.671875 -0.421875,0.921875 -1.21875,1.75 -2.015625,1.75 z m 0,0"
           id="path8472" />
      </g>
      <g
         id="g4053">
        <path
           d="m 5.265625,4.203125 c 0,-0.015625 0,-0.046875 -0.046875,-0.109375 -0.796875,-0.8125 -2.90625,-3.015625 -2.90625,-8.375 0,-5.375 2.078125,-7.5625 2.921875,-8.421875 0,-0.01563 0.03125,-0.0625 0.03125,-0.109375 0,-0.04687 -0.046875,-0.07813 -0.125,-0.07813 -0.1875,0 -1.640625,1.265625 -2.484375,3.15625 -0.859375,1.921875 -1.109375,3.78125 -1.109375,5.421875 0,1.25 0.125,3.34375 1.15625,5.5625 0.828125,1.796875 2.234375,3.0625 2.4375,3.0625 0.09375,0 0.125,-0.046875 0.125,-0.109375 z m 0,0"
           id="path1375" />
      </g>
      <g
         id="g3201">
        <path
           d="m 4.53125,-4.28125 c 0,-1.25 -0.125,-3.34375 -1.15625,-5.5625 -0.828125,-1.796875 -2.234375,-3.046875 -2.4375,-3.046875 -0.0625,0 -0.125,0.01563 -0.125,0.09375 0,0.03125 0.015625,0.0625 0.03125,0.09375 0.828125,0.859375 2.921875,3.046875 2.921875,8.390625 0,5.375 -2.078125,7.5625 -2.921875,8.421875 C 0.828125,4.15625 0.8125,4.171875 0.8125,4.203125 0.8125,4.28125 0.875,4.3125 0.9375,4.3125 1.125,4.3125 2.578125,3.03125 3.421875,1.140625 4.28125,-0.78125 4.53125,-2.640625 4.53125,-4.28125 Z m 0,0"
           id="path9460" />
      </g>
    </g>
  </defs>
  <path
     style="fill:#55ff00;fill-opacity:0.981676;stroke:#000000;stroke-width:0.506;marker-end:url(#marker3)"
     d="m 34.946963,65.39318 h 46.59595"
     id="path1" />
  <path
     style="fill:#55ff00;fill-opacity:0.981676;stroke:#000000;stroke-width:0.506;marker-start:url(#Triangle)"
     d="M 35.476463,16.943982 35.211713,64.86368"
     id="path2" />
  <path
     style="fill:#55ff00;fill-opacity:0;stroke:#000000;stroke-width:0.707538;marker-end:url(#ArrowWideHeavy)"
     d="M 54.58,48.269457 68.121055,37.975986"
     id="path5" />
  <g
     inkscape:label=""
     transform="translate(52.127713,34.685312)"
     id="g11">
    <g
       fill="#000000"
       fill-opacity="1"
       id="g6"
       transform="matrix(0.352778,0,0,0.352778,-0.818841,-0.704982)">
      <g
         id="use5"
         transform="translate(1.993,14.889)">
        <path
           d="M 6.515625,-2.09375 C 6.46875,-2.9375 6.4375,-4.265625 5.78125,-5.8125 5.4375,-6.6875 4.859375,-7.59375 3.59375,-7.59375 c -2.109375,0 -3.265625,2.703125 -3.265625,3.15625 0,0.15625 0.125,0.15625 0.171875,0.15625 0.15625,0 0.15625,-0.046875 0.234375,-0.265625 0.375,-1.0625 1.46875,-1.90625 2.65625,-1.90625 2.390625,0 2.734375,2.671875 2.734375,4.375 0,1.078125 -0.109375,1.4375 -0.21875,1.78125 -0.328125,1.078125 -0.890625,3.203125 -0.890625,3.6875 0,0.140625 0.046875,0.296875 0.1875,0.296875 0.25,0 0.40625,-0.578125 0.59375,-1.265625 C 6.21875,0.90625 6.3125,0.15625 6.40625,-0.53125 c 0.046875,-0.421875 1.03125,-3.25 2.390625,-5.953125 0.125,-0.28125 0.359375,-0.75 0.359375,-0.796875 0,-0.015625 -0.015625,-0.140625 -0.171875,-0.140625 -0.03125,0 -0.109375,0 -0.15625,0.0625 -0.03125,0.046875 -0.625,1.21875 -1.15625,2.390625 -0.25,0.578125 -0.59375,1.359375 -1.15625,2.875 z m 0,0"
           id="path10" />
      </g>
    </g>
    <g
       fill="#000000"
       fill-opacity="1"
       id="g7"
       transform="matrix(0.352778,0,0,0.352778,-0.818841,-0.704982)">
      <g
         id="use6"
         transform="translate(11.673,8.6420002)">
        <path
           d="m 2.765625,-5.1875 c 0.046875,-0.125 0.09375,-0.21875 0.09375,-0.328125 0,-0.3125 -0.28125,-0.578125 -0.625,-0.578125 -0.296875,0 -0.5,0.203125 -0.578125,0.484375 L 0.359375,-0.84375 c 0,0.03125 -0.046875,0.140625 -0.046875,0.15625 0,0.125 0.28125,0.203125 0.375,0.203125 0.0625,0 0.078125,-0.046875 0.140625,-0.1875 z m 0,0"
           id="path11" />
      </g>
    </g>
    <g
       fill="#000000"
       fill-opacity="1"
       id="g8"
       transform="matrix(0.352778,0,0,0.352778,-0.818841,-0.704982)">
      <g
         id="use7"
         transform="translate(15.171,14.889)">
        <path
           d="m 5.265625,4.203125 c 0,-0.015625 0,-0.046875 -0.046875,-0.109375 -0.796875,-0.8125 -2.90625,-3.015625 -2.90625,-8.375 0,-5.375 2.078125,-7.5625 2.921875,-8.421875 0,-0.01563 0.03125,-0.0625 0.03125,-0.109375 0,-0.04687 -0.046875,-0.07813 -0.125,-0.07813 -0.1875,0 -1.640625,1.265625 -2.484375,3.15625 -0.859375,1.921875 -1.109375,3.78125 -1.109375,5.421875 0,1.25 0.125,3.34375 1.15625,5.5625 0.828125,1.796875 2.234375,3.0625 2.4375,3.0625 0.09375,0 0.125,-0.046875 0.125,-0.109375 z m 0,0"
           id="path12" />
      </g>
    </g>
    <g
       fill="#000000"
       fill-opacity="1"
       id="g9"
       transform="matrix(0.352778,0,0,0.352778,-0.818841,-0.704982)">
      <g
         id="use8"
         transform="translate(21.266973,14.889)">
        <path
           d="m 3.46875,-6.921875 h 1.578125 c 0.328125,0 0.5,0 0.5,-0.3125 0,-0.1875 -0.109375,-0.1875 -0.453125,-0.1875 H 3.578125 L 4.21875,-9.9375 c 0.0625,-0.234375 0.0625,-0.265625 0.0625,-0.390625 0,-0.28125 -0.21875,-0.4375 -0.4375,-0.4375 -0.140625,0 -0.53125,0.0625 -0.671875,0.609375 L 2.5,-7.421875 H 0.875 c -0.34375,0 -0.5,0 -0.5,0.328125 0,0.171875 0.125,0.171875 0.453125,0.171875 h 1.53125 L 1.21875,-2.375 c -0.140625,0.59375 -0.1875,0.78125 -0.1875,1 0,0.8125 0.5625,1.546875 1.53125,1.546875 1.75,0 2.671875,-2.515625 2.671875,-2.640625 0,-0.09375 -0.0625,-0.15625 -0.171875,-0.15625 -0.03125,0 -0.109375,0 -0.140625,0.078125 -0.015625,0.015625 -0.03125,0.03125 -0.15625,0.3125 -0.359375,0.859375 -1.15625,2.0625 -2.140625,2.0625 -0.53125,0 -0.5625,-0.4375 -0.5625,-0.8125 0,-0.015625 0,-0.34375 0.0625,-0.546875 z m 0,0"
           id="path13" />
      </g>
    </g>
    <g
       fill="#000000"
       fill-opacity="1"
       id="g10"
       transform="matrix(0.352778,0,0,0.352778,-0.818841,-0.704982)">
      <g
         id="use9"
         transform="translate(27.35434,14.889)">
        <path
           d="m 4.53125,-4.28125 c 0,-1.25 -0.125,-3.34375 -1.15625,-5.5625 -0.828125,-1.796875 -2.234375,-3.046875 -2.4375,-3.046875 -0.0625,0 -0.125,0.01563 -0.125,0.09375 0,0.03125 0.015625,0.0625 0.03125,0.09375 0.828125,0.859375 2.921875,3.046875 2.921875,8.390625 0,5.375 -2.078125,7.5625 -2.921875,8.421875 C 0.828125,4.15625 0.8125,4.171875 0.8125,4.203125 0.8125,4.28125 0.875,4.3125 0.9375,4.3125 1.125,4.3125 2.578125,3.03125 3.421875,1.140625 4.28125,-0.78125 4.53125,-2.640625 4.53125,-4.28125 Z m 0,0"
           id="path14" />
      </g>
    </g>
  </g>
  <g
     inkscape:label=""
     transform="translate(57.10698,46.662858)"
     id="g12">
    <g
       fill="#000000"
       fill-opacity="1"
       id="g5"
       transform="matrix(0.352778,0,0,0.352778,-0.818841,-0.704982)">
      <g
         id="use4"
         transform="translate(1.993,14.889)">
        <path
           d="M 6.515625,-2.09375 C 6.46875,-2.9375 6.4375,-4.265625 5.78125,-5.8125 5.4375,-6.6875 4.859375,-7.59375 3.59375,-7.59375 c -2.109375,0 -3.265625,2.703125 -3.265625,3.15625 0,0.15625 0.125,0.15625 0.171875,0.15625 0.15625,0 0.15625,-0.046875 0.234375,-0.265625 0.375,-1.0625 1.46875,-1.90625 2.65625,-1.90625 2.390625,0 2.734375,2.671875 2.734375,4.375 0,1.078125 -0.109375,1.4375 -0.21875,1.78125 -0.328125,1.078125 -0.890625,3.203125 -0.890625,3.6875 0,0.140625 0.046875,0.296875 0.1875,0.296875 0.25,0 0.40625,-0.578125 0.59375,-1.265625 C 6.21875,0.90625 6.3125,0.15625 6.40625,-0.53125 c 0.046875,-0.421875 1.03125,-3.25 2.390625,-5.953125 0.125,-0.28125 0.359375,-0.75 0.359375,-0.796875 0,-0.015625 -0.015625,-0.140625 -0.171875,-0.140625 -0.03125,0 -0.109375,0 -0.15625,0.0625 -0.03125,0.046875 -0.625,1.21875 -1.15625,2.390625 -0.25,0.578125 -0.59375,1.359375 -1.15625,2.875 z m 0,0"
           id="path8" />
      </g>
    </g>
    <g
       fill="#000000"
       fill-opacity="1"
       id="g6-1"
       transform="matrix(0.352778,0,0,0.352778,-0.818841,-0.704982)">
      <g
         id="use5-1"
         transform="translate(11.666333,14.889)">
        <path
           d="m 5.265625,4.203125 c 0,-0.015625 0,-0.046875 -0.046875,-0.109375 -0.796875,-0.8125 -2.90625,-3.015625 -2.90625,-8.375 0,-5.375 2.078125,-7.5625 2.921875,-8.421875 0,-0.01563 0.03125,-0.0625 0.03125,-0.109375 0,-0.04687 -0.046875,-0.07813 -0.125,-0.07813 -0.1875,0 -1.640625,1.265625 -2.484375,3.15625 -0.859375,1.921875 -1.109375,3.78125 -1.109375,5.421875 0,1.25 0.125,3.34375 1.15625,5.5625 0.828125,1.796875 2.234375,3.0625 2.4375,3.0625 0.09375,0 0.125,-0.046875 0.125,-0.109375 z m 0,0"
           id="path9" />
      </g>
    </g>
    <g
       fill="#000000"
       fill-opacity="1"
       id="g7-1"
       transform="matrix(0.352778,0,0,0.352778,-0.818841,-0.704982)">
      <g
         id="use6-1"
         transform="translate(17.762306,14.889)">
        <path
           d="m 3.46875,-6.921875 h 1.578125 c 0.328125,0 0.5,0 0.5,-0.3125 0,-0.1875 -0.109375,-0.1875 -0.453125,-0.1875 H 3.578125 L 4.21875,-9.9375 c 0.0625,-0.234375 0.0625,-0.265625 0.0625,-0.390625 0,-0.28125 -0.21875,-0.4375 -0.4375,-0.4375 -0.140625,0 -0.53125,0.0625 -0.671875,0.609375 L 2.5,-7.421875 H 0.875 c -0.34375,0 -0.5,0 -0.5,0.328125 0,0.171875 0.125,0.171875 0.453125,0.171875 h 1.53125 L 1.21875,-2.375 c -0.140625,0.59375 -0.1875,0.78125 -0.1875,1 0,0.8125 0.5625,1.546875 1.53125,1.546875 1.75,0 2.671875,-2.515625 2.671875,-2.640625 0,-0.09375 -0.0625,-0.15625 -0.171875,-0.15625 -0.03125,0 -0.109375,0 -0.140625,0.078125 -0.015625,0.015625 -0.03125,0.03125 -0.15625,0.3125 -0.359375,0.859375 -1.15625,2.0625 -2.140625,2.0625 -0.53125,0 -0.5625,-0.4375 -0.5625,-0.8125 0,-0.015625 0,-0.34375 0.0625,-0.546875 z m 0,0"
           id="path10-1" />
      </g>
    </g>
    <g
       fill="#000000"
       fill-opacity="1"
       id="g8-1"
       transform="matrix(0.352778,0,0,0.352778,-0.818841,-0.704982)">
      <g
         id="use7-1"
         transform="translate(23.849672,14.889)">
        <path
           d="m 4.53125,-4.28125 c 0,-1.25 -0.125,-3.34375 -1.15625,-5.5625 -0.828125,-1.796875 -2.234375,-3.046875 -2.4375,-3.046875 -0.0625,0 -0.125,0.01563 -0.125,0.09375 0,0.03125 0.015625,0.0625 0.03125,0.09375 0.828125,0.859375 2.921875,3.046875 2.921875,8.390625 0,5.375 -2.078125,7.5625 -2.921875,8.421875 C 0.828125,4.15625 0.8125,4.171875 0.8125,4.203125 0.8125,4.28125 0.875,4.3125 0.9375,4.3125 1.125,4.3125 2.578125,3.03125 3.421875,1.140625 4.28125,-0.78125 4.53125,-2.640625 4.53125,-4.28125 Z m 0,0"
           id="path11-1" />
      </g>
    </g>
  </g>
  <g
     inkscape:label=""
     transform="translate(37.974505,57.410242)"
     id="g13">
    <g
       fill="#000000"
       fill-opacity="1"
       id="g5-1"
       transform="matrix(0.352778,0,0,0.352778,-0.818841,-0.704982)">
      <g
         id="use4-1"
         transform="translate(1.993,14.889)">
        <path
           d="M 6.515625,-2.09375 C 6.46875,-2.9375 6.4375,-4.265625 5.78125,-5.8125 5.4375,-6.6875 4.859375,-7.59375 3.59375,-7.59375 c -2.109375,0 -3.265625,2.703125 -3.265625,3.15625 0,0.15625 0.125,0.15625 0.171875,0.15625 0.15625,0 0.15625,-0.046875 0.234375,-0.265625 0.375,-1.0625 1.46875,-1.90625 2.65625,-1.90625 2.390625,0 2.734375,2.671875 2.734375,4.375 0,1.078125 -0.109375,1.4375 -0.21875,1.78125 -0.328125,1.078125 -0.890625,3.203125 -0.890625,3.6875 0,0.140625 0.046875,0.296875 0.1875,0.296875 0.25,0 0.40625,-0.578125 0.59375,-1.265625 C 6.21875,0.90625 6.3125,0.15625 6.40625,-0.53125 c 0.046875,-0.421875 1.03125,-3.25 2.390625,-5.953125 0.125,-0.28125 0.359375,-0.75 0.359375,-0.796875 0,-0.015625 -0.015625,-0.140625 -0.171875,-0.140625 -0.03125,0 -0.109375,0 -0.15625,0.0625 -0.03125,0.046875 -0.625,1.21875 -1.15625,2.390625 -0.25,0.578125 -0.59375,1.359375 -1.15625,2.875 z m 0,0"
           id="path8-1" />
      </g>
    </g>
    <g
       fill="#000000"
       fill-opacity="1"
       id="g6-1-1"
       transform="matrix(0.352778,0,0,0.352778,-0.818841,-0.704982)">
      <g
         id="use5-1-1"
         transform="translate(11.666333,14.889)">
        <path
           d="m 5.265625,4.203125 c 0,-0.015625 0,-0.046875 -0.046875,-0.109375 -0.796875,-0.8125 -2.90625,-3.015625 -2.90625,-8.375 0,-5.375 2.078125,-7.5625 2.921875,-8.421875 0,-0.01563 0.03125,-0.0625 0.03125,-0.109375 0,-0.04687 -0.046875,-0.07813 -0.125,-0.07813 -0.1875,0 -1.640625,1.265625 -2.484375,3.15625 -0.859375,1.921875 -1.109375,3.78125 -1.109375,5.421875 0,1.25 0.125,3.34375 1.15625,5.5625 0.828125,1.796875 2.234375,3.0625 2.4375,3.0625 0.09375,0 0.125,-0.046875 0.125,-0.109375 z m 0,0"
           id="path9-1" />
      </g>
    </g>
    <g
       fill="#000000"
       fill-opacity="1"
       id="g7-1-1"
       transform="matrix(0.352778,0,0,0.352778,-0.818841,-0.704982)">
      <g
         id="use6-1-1"
         transform="translate(17.762306,14.889)">
        <path
           d="M 5.1875,-2.046875 C 5.09375,-1.75 5.09375,-1.71875 4.859375,-1.390625 c -0.375,0.484375 -1.140625,1.21875 -1.953125,1.21875 -0.703125,0 -1.09375,-0.640625 -1.09375,-1.65625 0,-0.9375 0.53125,-2.875 0.859375,-3.59375 C 3.25,-6.625 4.0625,-7.25 4.734375,-7.25 c 1.140625,0 1.359375,1.40625 1.359375,1.546875 0,0.015625 -0.046875,0.25 -0.0625,0.28125 z m 1.09375,-4.40625 C 6.09375,-6.90625 5.625,-7.59375 4.734375,-7.59375 c -1.9375,0 -4.046875,2.515625 -4.046875,5.0625 0,1.703125 1,2.703125 2.171875,2.703125 0.953125,0 1.75,-0.734375 2.234375,-1.3125 0.171875,1.015625 0.984375,1.3125 1.5,1.3125 0.515625,0 0.9375,-0.3125 1.234375,-0.921875 C 8.109375,-1.34375 8.34375,-2.390625 8.34375,-2.46875 8.34375,-2.546875 8.28125,-2.625 8.171875,-2.625 8.03125,-2.625 8,-2.53125 7.9375,-2.265625 7.671875,-1.25 7.359375,-0.171875 6.640625,-0.171875 c -0.5,0 -0.53125,-0.453125 -0.53125,-0.796875 0,-0.390625 0.0625,-0.578125 0.203125,-1.25 0.125,-0.4375 0.21875,-0.8125 0.34375,-1.3125 0.640625,-2.578125 0.796875,-3.203125 0.796875,-3.296875 0,-0.25 -0.1875,-0.4375 -0.4375,-0.4375 -0.5625,0 -0.703125,0.609375 -0.734375,0.8125 z m 0,0"
           id="path10-1-1" />
      </g>
    </g>
    <g
       fill="#000000"
       fill-opacity="1"
       id="g8-1-1"
       transform="matrix(0.352778,0,0,0.352778,-0.818841,-0.704982)">
      <g
         id="use7-1-1"
         transform="translate(26.611023,14.889)">
        <path
           d="m 4.53125,-4.28125 c 0,-1.25 -0.125,-3.34375 -1.15625,-5.5625 -0.828125,-1.796875 -2.234375,-3.046875 -2.4375,-3.046875 -0.0625,0 -0.125,0.01563 -0.125,0.09375 0,0.03125 0.015625,0.0625 0.03125,0.09375 0.828125,0.859375 2.921875,3.046875 2.921875,8.390625 0,5.375 -2.078125,7.5625 -2.921875,8.421875 C 0.828125,4.15625 0.8125,4.171875 0.8125,4.203125 0.8125,4.28125 0.875,4.3125 0.9375,4.3125 1.125,4.3125 2.578125,3.03125 3.421875,1.140625 4.28125,-0.78125 4.53125,-2.640625 4.53125,-4.28125 Z m 0,0"
           id="path11-1-1" />
      </g>
    </g>
  </g>
  <g
     inkscape:label=""
     transform="translate(93.086019,22.033484)"
     id="g14">
    <g
       fill="#000000"
       fill-opacity="1"
       id="g5-1-1"
       transform="matrix(0.352778,0,0,0.352778,-0.818841,-0.704982)">
      <g
         id="use4-1-1"
         transform="translate(1.993,14.889)">
        <path
           d="M 6.515625,-2.09375 C 6.46875,-2.9375 6.4375,-4.265625 5.78125,-5.8125 5.4375,-6.6875 4.859375,-7.59375 3.59375,-7.59375 c -2.109375,0 -3.265625,2.703125 -3.265625,3.15625 0,0.15625 0.125,0.15625 0.171875,0.15625 0.15625,0 0.15625,-0.046875 0.234375,-0.265625 0.375,-1.0625 1.46875,-1.90625 2.65625,-1.90625 2.390625,0 2.734375,2.671875 2.734375,4.375 0,1.078125 -0.109375,1.4375 -0.21875,1.78125 -0.328125,1.078125 -0.890625,3.203125 -0.890625,3.6875 0,0.140625 0.046875,0.296875 0.1875,0.296875 0.25,0 0.40625,-0.578125 0.59375,-1.265625 C 6.21875,0.90625 6.3125,0.15625 6.40625,-0.53125 c 0.046875,-0.421875 1.03125,-3.25 2.390625,-5.953125 0.125,-0.28125 0.359375,-0.75 0.359375,-0.796875 0,-0.015625 -0.015625,-0.140625 -0.171875,-0.140625 -0.03125,0 -0.109375,0 -0.15625,0.0625 -0.03125,0.046875 -0.625,1.21875 -1.15625,2.390625 -0.25,0.578125 -0.59375,1.359375 -1.15625,2.875 z m 0,0"
           id="path8-1-1" />
      </g>
    </g>
    <g
       fill="#000000"
       fill-opacity="1"
       id="g6-1-1-1"
       transform="matrix(0.352778,0,0,0.352778,-0.818841,-0.704982)">
      <g
         id="use5-1-1-1"
         transform="translate(11.666333,14.889)">
        <path
           d="m 5.265625,4.203125 c 0,-0.015625 0,-0.046875 -0.046875,-0.109375 -0.796875,-0.8125 -2.90625,-3.015625 -2.90625,-8.375 0,-5.375 2.078125,-7.5625 2.921875,-8.421875 0,-0.01563 0.03125,-0.0625 0.03125,-0.109375 0,-0.04687 -0.046875,-0.07813 -0.125,-0.07813 -0.1875,0 -1.640625,1.265625 -2.484375,3.15625 -0.859375,1.921875 -1.109375,3.78125 -1.109375,5.421875 0,1.25 0.125,3.34375 1.15625,5.5625 0.828125,1.796875 2.234375,3.0625 2.4375,3.0625 0.09375,0 0.125,-0.046875 0.125,-0.109375 z m 0,0"
           id="path9-1-1" />
      </g>
    </g>
    <g
       fill="#000000"
       fill-opacity="1"
       id="g7-1-1-1"
       transform="matrix(0.352778,0,0,0.352778,-0.818841,-0.704982)">
      <g
         id="use6-1-1-1"
         transform="translate(17.762306,14.889)">
        <path
           d="M 3.984375,-11.515625 C 4,-11.59375 4.03125,-11.6875 4.03125,-11.78125 c 0,-0.171875 -0.171875,-0.171875 -0.203125,-0.171875 -0.015625,0 -0.640625,0.0625 -0.953125,0.09375 -0.296875,0.01563 -0.546875,0.04687 -0.859375,0.0625 -0.421875,0.03125 -0.53125,0.04687 -0.53125,0.359375 0,0.171875 0.171875,0.171875 0.34375,0.171875 0.875,0 0.875,0.15625 0.875,0.328125 0,0.125 -0.140625,0.625 -0.203125,0.9375 L 2.078125,-8.34375 C 1.90625,-7.65625 0.9375,-3.75 0.859375,-3.4375 0.78125,-3.015625 0.78125,-2.71875 0.78125,-2.5 c 0,1.765625 0.96875,2.671875 2.09375,2.671875 2,0 4.0625,-2.5625 4.0625,-5.0625 0,-1.578125 -0.890625,-2.703125 -2.1875,-2.703125 -0.890625,0 -1.703125,0.734375 -2.03125,1.078125 z m -1.09375,11.34375 c -0.546875,0 -1.15625,-0.40625 -1.15625,-1.75 0,-0.578125 0.0625,-0.90625 0.359375,-2.109375 C 2.15625,-4.25 2.421875,-5.359375 2.5,-5.578125 2.53125,-5.71875 3.546875,-7.25 4.71875,-7.25 c 0.75,0 1.09375,0.765625 1.09375,1.65625 0,0.828125 -0.46875,2.765625 -0.90625,3.671875 -0.421875,0.921875 -1.21875,1.75 -2.015625,1.75 z m 0,0"
           id="path10-1-1-1" />
      </g>
    </g>
    <g
       fill="#000000"
       fill-opacity="1"
       id="g8-1-1-1"
       transform="matrix(0.352778,0,0,0.352778,-0.818841,-0.704982)">
      <g
         id="use7-1-1-1"
         transform="translate(24.929077,14.889)">
        <path
           d="m 4.53125,-4.28125 c 0,-1.25 -0.125,-3.34375 -1.15625,-5.5625 -0.828125,-1.796875 -2.234375,-3.046875 -2.4375,-3.046875 -0.0625,0 -0.125,0.01563 -0.125,0.09375 0,0.03125 0.015625,0.0625 0.03125,0.09375 0.828125,0.859375 2.921875,3.046875 2.921875,8.390625 0,5.375 -2.078125,7.5625 -2.921875,8.421875 C 0.828125,4.15625 0.8125,4.171875 0.8125,4.203125 0.8125,4.28125 0.875,4.3125 0.9375,4.3125 1.125,4.3125 2.578125,3.03125 3.421875,1.140625 4.28125,-0.78125 4.53125,-2.640625 4.53125,-4.28125 Z m 0,0"
           id="path11-1-1-1" />
      </g>
    </g>
  </g>
  <path
     style="fill:#55ff00;fill-opacity:0;stroke:#000000;stroke-width:0.506;stroke-linejoin:bevel"
     d="m 37.075949,97.422972 c -0.158458,-2.793946 0.543578,-5.630802 1.986782,-8.028384 1.443205,-2.397583 3.62151,-4.345811 6.164667,-5.513542 3.476852,-1.596453 7.425845,-1.705369 11.25051,-1.800741 3.824666,-0.09537 7.778194,-0.234239 11.231713,-1.88056 2.773793,-1.32229 5.020209,-3.525592 7.104231,-5.78374 2.084022,-2.258147 4.086034,-4.633347 6.56917,-6.443434 2.687622,-1.959148 5.89615,-3.196723 9.203248,-3.549824"
     id="path15"
     inkscape:path-effect="#path-effect15"
     inkscape:original-d="m 37.075949,97.422972 c 0.788849,-3.59365 7.099648,-9.816801 8.151449,-13.541926 1.051801,-3.725124 14.944325,-2.410375 22.482223,-3.681301 7.537899,-1.270923 9.159425,-8.239099 13.673401,-12.227174 4.513975,-3.988075 6.047849,-2.278898 9.203248,-3.549824"
     transform="translate(12.753075,-37.075949)"
     sodipodi:nodetypes="csssc" />
</svg>
