<?xml version="1.0" encoding="UTF-8" standalone="no"?>
<svg
   width="110mm"
   height="100mm"
   viewBox="0 0 110 100"
   version="1.1"
   id="svg1"
   sodipodi:docname="2026-03-05_1.svg"
   inkscape:version="1.4.3 (0d15f75042, 2025-12-25)"
   inkscape:export-filename="2026-03-05_1.pdf"
   inkscape:export-xdpi="96"
   inkscape:export-ydpi="96"
   xmlns:inkscape="http://www.inkscape.org/namespaces/inkscape"
   xmlns:sodipodi="http://sodipodi.sourceforge.net/DTD/sodipodi-0.dtd"
   xmlns="http://www.w3.org/2000/svg"
   xmlns:svg="http://www.w3.org/2000/svg">
  <sodipodi:namedview
     id="namedview1"
     pagecolor="#ffffff"
     bordercolor="#000000"
     borderopacity="0.25"
     inkscape:showpageshadow="2"
     inkscape:pageopacity="0.0"
     inkscape:pagecheckerboard="0"
     inkscape:deskcolor="#d1d1d1"
     inkscape:document-units="mm"
     showgrid="true"
     inkscape:zoom="1.0690047"
     inkscape:cx="513.56181"
     inkscape:cy="378.38935"
     inkscape:window-width="990"
     inkscape:window-height="1136"
     inkscape:window-x="0"
     inkscape:window-y="0"
     inkscape:window-maximized="1"
     inkscape:current-layer="svg1">
    <inkscape:grid
       id="grid1"
       units="mm"
       originx="0"
       originy="0"
       spacingx="0.99999998"
       spacingy="1"
       empcolor="#0099e5"
       empopacity="0.30196078"
       color="#0099e5"
       opacity="0.14901961"
       empspacing="5"
       enabled="true"
       visible="true" />
  </sodipodi:namedview>
  <defs
     id="defs1">
    <marker
       style="overflow:visible"
       id="marker7"
       refX="0"
       refY="0"
       orient="auto-start-reverse"
       inkscape:stockid="Triangle arrow"
       markerWidth="1"
       markerHeight="1"
       viewBox="0 0 1 1"
       inkscape:isstock="true"
       inkscape:collect="always"
       preserveAspectRatio="xMidYMid">
      <path
         transform="scale(0.5)"
         style="fill:context-stroke;fill-rule:evenodd;stroke:context-stroke;stroke-width:1pt"
         d="M 5.77,0 -2.88,5 V -5 Z"
         id="path7" />
    </marker>
    <inkscape:path-effect
       effect="spiro"
       id="path-effect6"
       is_visible="true"
       lpeversion="1" />
    <marker
       style="overflow:visible"
       id="marker5"
       refX="0"
       refY="0"
       orient="auto-start-reverse"
       inkscape:stockid="Triangle arrow"
       markerWidth="1"
       markerHeight="1"
       viewBox="0 0 1 1"
       inkscape:isstock="true"
       inkscape:collect="always"
       preserveAspectRatio="xMidYMid">
      <path
         transform="scale(0.5)"
         style="fill:context-stroke;fill-rule:evenodd;stroke:context-stroke;stroke-width:1pt"
         d="M 5.77,0 -2.88,5 V -5 Z"
         id="path5" />
    </marker>
    <inkscape:path-effect
       effect="spiro"
       id="path-effect4"
       is_visible="true"
       lpeversion="1" />
    <marker
       style="overflow:visible"
       id="Triangle"
       refX="0"
       refY="0"
       orient="95"
       inkscape:stockid="Triangle arrow"
       markerWidth="1"
       markerHeight="1"
       viewBox="0 0 1 1"
       inkscape:isstock="true"
       inkscape:collect="always"
       preserveAspectRatio="xMidYMid">
      <path
         transform="scale(0.5)"
         style="fill:context-stroke;fill-rule:evenodd;stroke:context-stroke;stroke-width:1pt"
         d="M 5.77,0 -2.88,5 V -5 Z"
         id="path135" />
    </marker>
    <inkscape:path-effect
       effect="spiro"
       id="path-effect2"
       is_visible="true"
       lpeversion="1" />
    <inkscape:path-effect
       effect="spiro"
       id="path-effect1"
       is_visible="true"
       lpeversion="1" />
    <g
       id="g6042">
      <g
         id="g4895">
        <path
           d="M 6.515625,-2.09375 C 6.46875,-2.9375 6.4375,-4.265625 5.78125,-5.8125 5.4375,-6.6875 4.859375,-7.59375 3.59375,-7.59375 c -2.109375,0 -3.265625,2.703125 -3.265625,3.15625 0,0.15625 0.125,0.15625 0.171875,0.15625 0.15625,0 0.15625,-0.046875 0.234375,-0.265625 0.375,-1.0625 1.46875,-1.90625 2.65625,-1.90625 2.390625,0 2.734375,2.671875 2.734375,4.375 0,1.078125 -0.109375,1.4375 -0.21875,1.78125 -0.328125,1.078125 -0.890625,3.203125 -0.890625,3.6875 0,0.140625 0.046875,0.296875 0.1875,0.296875 0.25,0 0.40625,-0.578125 0.59375,-1.265625 C 6.21875,0.90625 6.3125,0.15625 6.40625,-0.53125 c 0.046875,-0.421875 1.03125,-3.25 2.390625,-5.953125 0.125,-0.28125 0.359375,-0.75 0.359375,-0.796875 0,-0.015625 -0.015625,-0.140625 -0.171875,-0.140625 -0.03125,0 -0.109375,0 -0.15625,0.0625 -0.03125,0.046875 -0.625,1.21875 -1.15625,2.390625 -0.25,0.578125 -0.59375,1.359375 -1.15625,2.875 z m 0,0"
           id="path6228" />
      </g>
      <g
         id="g6285">
        <path
           d="m 3.46875,-6.921875 h 1.578125 c 0.328125,0 0.5,0 0.5,-0.3125 0,-0.1875 -0.109375,-0.1875 -0.453125,-0.1875 H 3.578125 L 4.21875,-9.9375 c 0.0625,-0.234375 0.0625,-0.265625 0.0625,-0.390625 0,-0.28125 -0.21875,-0.4375 -0.4375,-0.4375 -0.140625,0 -0.53125,0.0625 -0.671875,0.609375 L 2.5,-7.421875 H 0.875 c -0.34375,0 -0.5,0 -0.5,0.328125 0,0.171875 0.125,0.171875 0.453125,0.171875 h 1.53125 L 1.21875,-2.375 c -0.140625,0.59375 -0.1875,0.78125 -0.1875,1 0,0.8125 0.5625,1.546875 1.53125,1.546875 1.75,0 2.671875,-2.515625 2.671875,-2.640625 0,-0.09375 -0.0625,-0.15625 -0.171875,-0.15625 -0.03125,0 -0.109375,0 -0.140625,0.078125 -0.015625,0.015625 -0.03125,0.03125 -0.15625,0.3125 -0.359375,0.859375 -1.15625,2.0625 -2.140625,2.0625 -0.53125,0 -0.5625,-0.4375 -0.5625,-0.8125 0,-0.015625 0,-0.34375 0.0625,-0.546875 z m 0,0"
           id="path551" />
      </g>
      <g
         id="g7417">
        <path
           d="m 2.765625,-5.1875 c 0.046875,-0.125 0.09375,-0.21875 0.09375,-0.328125 0,-0.3125 -0.28125,-0.578125 -0.625,-0.578125 -0.296875,0 -0.5,0.203125 -0.578125,0.484375 L 0.359375,-0.84375 c 0,0.03125 -0.046875,0.140625 -0.046875,0.15625 0,0.125 0.28125,0.203125 0.375,0.203125 0.0625,0 0.078125,-0.046875 0.140625,-0.1875 z m 0,0"
           id="path9223" />
      </g>
      <g
         id="g4462">
        <path
           d="m 5.265625,4.203125 c 0,-0.015625 0,-0.046875 -0.046875,-0.109375 -0.796875,-0.8125 -2.90625,-3.015625 -2.90625,-8.375 0,-5.375 2.078125,-7.5625 2.921875,-8.421875 0,-0.01563 0.03125,-0.0625 0.03125,-0.109375 0,-0.04687 -0.046875,-0.07813 -0.125,-0.07813 -0.1875,0 -1.640625,1.265625 -2.484375,3.15625 -0.859375,1.921875 -1.109375,3.78125 -1.109375,5.421875 0,1.25 0.125,3.34375 1.15625,5.5625 0.828125,1.796875 2.234375,3.0625 2.4375,3.0625 0.09375,0 0.125,-0.046875 0.125,-0.109375 z m 0,0"
           id="path5588" />
      </g>
      <g
         id="g3293">
        <path
           d="m 4.53125,-4.28125 c 0,-1.25 -0.125,-3.34375 -1.15625,-5.5625 -0.828125,-1.796875 -2.234375,-3.046875 -2.4375,-3.046875 -0.0625,0 -0.125,0.01563 -0.125,0.09375 0,0.03125 0.015625,0.0625 0.03125,0.09375 0.828125,0.859375 2.921875,3.046875 2.921875,8.390625 0,5.375 -2.078125,7.5625 -2.921875,8.421875 C 0.828125,4.15625 0.8125,4.171875 0.8125,4.203125 0.8125,4.28125 0.875,4.3125 0.9375,4.3125 1.125,4.3125 2.578125,3.03125 3.421875,1.140625 4.28125,-0.78125 4.53125,-2.640625 4.53125,-4.28125 Z m 0,0"
           id="path948" />
      </g>
    </g>
  </defs>
  <path
     style="fill:#55ff00;fill-opacity:0;stroke:#000000;stroke-width:0.506;stroke-linejoin:bevel"
     d="M 19.994629,85.415651 110.32124,85.064869"
     id="path1"
     inkscape:path-effect="#path-effect1"
     inkscape:original-d="m 19.994629,85.415651 c 30.342725,-0.233855 60.334669,-0.29232 90.326611,-0.350782"
     transform="translate(-9.4506487,-33.952331)" />
  <path
     style="fill:#55ff00;fill-opacity:0;stroke:#000000;stroke-width:0.506;stroke-linejoin:bevel"
     d="M 62.439367,115.40759 62.263974,39.989257"
     id="path2"
     inkscape:path-effect="#path-effect2"
     inkscape:original-d="m 62.439367,115.40759 c 0.175392,-25.139441 0,-50.278887 -0.175393,-75.418333"
     transform="translate(-9.4506487,-33.952331)" />
  <path
     style="fill:#55ff00;fill-opacity:0;stroke:#000000;stroke-width:0.703814;stroke-linejoin:bevel;marker-end:url(#Triangle)"
     id="path3"
     sodipodi:type="arc"
     sodipodi:cx="52.813335"
     sodipodi:cy="51.281563"
     sodipodi:rx="27.262617"
     sodipodi:ry="23.923302"
     sodipodi:start="3.1415927"
     sodipodi:end="0"
     sodipodi:arc-type="slice"
     d="M 25.550718,51.281563 A 27.262617,23.923302 0 0 1 52.813335,27.358261 27.262617,23.923302 0 0 1 80.075953,51.281563 H 52.813335 Z" />
  <path
     style="fill:#55ff00;fill-opacity:0;stroke:#000000;stroke-width:0.506;stroke-linejoin:bevel;marker-end:url(#marker5)"
     d="M 85.415651,72.787464 73.664423,55.423707"
     id="path4"
     inkscape:path-effect="#path-effect4"
     inkscape:original-d="M 85.415651,72.787464 C 81.498574,66.76569 77.581497,61.094699 73.664423,55.423707"
     transform="translate(-9.4506487,-33.952331)" />
  <g
     inkscape:label=""
     transform="translate(71.229586,21.559092)"
     id="g5">
    <g
       fill="#000000"
       fill-opacity="1"
       id="g6"
       transform="matrix(0.352778,0,0,0.352778,-0.818841,-0.704982)">
      <g
         id="use5"
         transform="translate(1.993,14.889)">
        <path
           d="M 6.515625,-2.09375 C 6.46875,-2.9375 6.4375,-4.265625 5.78125,-5.8125 5.4375,-6.6875 4.859375,-7.59375 3.59375,-7.59375 c -2.109375,0 -3.265625,2.703125 -3.265625,3.15625 0,0.15625 0.125,0.15625 0.171875,0.15625 0.15625,0 0.15625,-0.046875 0.234375,-0.265625 0.375,-1.0625 1.46875,-1.90625 2.65625,-1.90625 2.390625,0 2.734375,2.671875 2.734375,4.375 0,1.078125 -0.109375,1.4375 -0.21875,1.78125 -0.328125,1.078125 -0.890625,3.203125 -0.890625,3.6875 0,0.140625 0.046875,0.296875 0.1875,0.296875 0.25,0 0.40625,-0.578125 0.59375,-1.265625 C 6.21875,0.90625 6.3125,0.15625 6.40625,-0.53125 c 0.046875,-0.421875 1.03125,-3.25 2.390625,-5.953125 0.125,-0.28125 0.359375,-0.75 0.359375,-0.796875 0,-0.015625 -0.015625,-0.140625 -0.171875,-0.140625 -0.03125,0 -0.109375,0 -0.15625,0.0625 -0.03125,0.046875 -0.625,1.21875 -1.15625,2.390625 -0.25,0.578125 -0.59375,1.359375 -1.15625,2.875 z m 0,0"
           id="path10" />
      </g>
    </g>
    <g
       fill="#000000"
       fill-opacity="1"
       id="g7"
       transform="matrix(0.352778,0,0,0.352778,-0.818841,-0.704982)">
      <g
         id="use6"
         transform="translate(11.673,8.6420002)">
        <path
           d="m 2.765625,-5.1875 c 0.046875,-0.125 0.09375,-0.21875 0.09375,-0.328125 0,-0.3125 -0.28125,-0.578125 -0.625,-0.578125 -0.296875,0 -0.5,0.203125 -0.578125,0.484375 L 0.359375,-0.84375 c 0,0.03125 -0.046875,0.140625 -0.046875,0.15625 0,0.125 0.28125,0.203125 0.375,0.203125 0.0625,0 0.078125,-0.046875 0.140625,-0.1875 z m 0,0"
           id="path11" />
      </g>
    </g>
    <g
       fill="#000000"
       fill-opacity="1"
       id="g8"
       transform="matrix(0.352778,0,0,0.352778,-0.818841,-0.704982)">
      <g
         id="use7"
         transform="translate(15.171,14.889)">
        <path
           d="m 5.265625,4.203125 c 0,-0.015625 0,-0.046875 -0.046875,-0.109375 -0.796875,-0.8125 -2.90625,-3.015625 -2.90625,-8.375 0,-5.375 2.078125,-7.5625 2.921875,-8.421875 0,-0.01563 0.03125,-0.0625 0.03125,-0.109375 0,-0.04687 -0.046875,-0.07813 -0.125,-0.07813 -0.1875,0 -1.640625,1.265625 -2.484375,3.15625 -0.859375,1.921875 -1.109375,3.78125 -1.109375,5.421875 0,1.25 0.125,3.34375 1.15625,5.5625 0.828125,1.796875 2.234375,3.0625 2.4375,3.0625 0.09375,0 0.125,-0.046875 0.125,-0.109375 z m 0,0"
           id="path12" />
      </g>
    </g>
    <g
       fill="#000000"
       fill-opacity="1"
       id="g9"
       transform="matrix(0.352778,0,0,0.352778,-0.818841,-0.704982)">
      <g
         id="use8"
         transform="translate(21.266973,14.889)">
        <path
           d="m 3.46875,-6.921875 h 1.578125 c 0.328125,0 0.5,0 0.5,-0.3125 0,-0.1875 -0.109375,-0.1875 -0.453125,-0.1875 H 3.578125 L 4.21875,-9.9375 c 0.0625,-0.234375 0.0625,-0.265625 0.0625,-0.390625 0,-0.28125 -0.21875,-0.4375 -0.4375,-0.4375 -0.140625,0 -0.53125,0.0625 -0.671875,0.609375 L 2.5,-7.421875 H 0.875 c -0.34375,0 -0.5,0 -0.5,0.328125 0,0.171875 0.125,0.171875 0.453125,0.171875 h 1.53125 L 1.21875,-2.375 c -0.140625,0.59375 -0.1875,0.78125 -0.1875,1 0,0.8125 0.5625,1.546875 1.53125,1.546875 1.75,0 2.671875,-2.515625 2.671875,-2.640625 0,-0.09375 -0.0625,-0.15625 -0.171875,-0.15625 -0.03125,0 -0.109375,0 -0.140625,0.078125 -0.015625,0.015625 -0.03125,0.03125 -0.15625,0.3125 -0.359375,0.859375 -1.15625,2.0625 -2.140625,2.0625 -0.53125,0 -0.5625,-0.4375 -0.5625,-0.8125 0,-0.015625 0,-0.34375 0.0625,-0.546875 z m 0,0"
           id="path13" />
      </g>
    </g>
    <g
       fill="#000000"
       fill-opacity="1"
       id="g10"
       transform="matrix(0.352778,0,0,0.352778,-0.818841,-0.704982)">
      <g
         id="use9"
         transform="translate(27.35434,14.889)">
        <path
           d="m 4.53125,-4.28125 c 0,-1.25 -0.125,-3.34375 -1.15625,-5.5625 -0.828125,-1.796875 -2.234375,-3.046875 -2.4375,-3.046875 -0.0625,0 -0.125,0.01563 -0.125,0.09375 0,0.03125 0.015625,0.0625 0.03125,0.09375 0.828125,0.859375 2.921875,3.046875 2.921875,8.390625 0,5.375 -2.078125,7.5625 -2.921875,8.421875 C 0.828125,4.15625 0.8125,4.171875 0.8125,4.203125 0.8125,4.28125 0.875,4.3125 0.9375,4.3125 1.125,4.3125 2.578125,3.03125 3.421875,1.140625 4.28125,-0.78125 4.53125,-2.640625 4.53125,-4.28125 Z m 0,0"
           id="path14" />
      </g>
    </g>
  </g>
  <path
     style="fill:#55ff00;fill-opacity:0;stroke:#000000;stroke-width:0.506;stroke-linejoin:bevel;marker-end:url(#marker7)"
     d="M 70.605805,62.657367 68.238187,61.727233"
     id="path6"
     inkscape:path-effect="#path-effect6"
     inkscape:original-d="m 70.605805,62.657367 c -0.789207,-0.310044 -1.578411,-0.62009 -2.367618,-0.930134"
     transform="rotate(-11.027807,-111.45622,94.024094)" />
</svg>
