<?xml version="1.0" encoding="UTF-8" standalone="no"?>
<svg
   width="210mm"
   height="297mm"
   viewBox="0 0 210 297"
   version="1.1"
   id="svg1"
   sodipodi:docname="2026-03-05_4.svg"
   inkscape:version="1.4.3 (0d15f75042, 2025-12-25)"
   xmlns:inkscape="http://www.inkscape.org/namespaces/inkscape"
   xmlns:sodipodi="http://sodipodi.sourceforge.net/DTD/sodipodi-0.dtd"
   xmlns="http://www.w3.org/2000/svg"
   xmlns:svg="http://www.w3.org/2000/svg">
  <defs
     id="defs1">
    <inkscape:path-effect
       effect="spiro"
       id="path-effect2"
       is_visible="true"
       lpeversion="1" />
    <inkscape:path-effect
       effect="spiro"
       id="path-effect1"
       is_visible="true"
       lpeversion="1" />
  </defs>
  <sodipodi:namedview
     id="namedview1"
     pagecolor="#ffffff"
     bordercolor="#000000"
     borderopacity="0.25"
     inkscape:showpageshadow="2"
     inkscape:pageopacity="0.0"
     inkscape:pagecheckerboard="0"
     inkscape:deskcolor="#d1d1d1"
     inkscape:document-units="mm"
     showgrid="true"
     inkscape:zoom="0.40314643"
     inkscape:cx="-13.642686"
     inkscape:cy="437.80618"
     inkscape:window-width="990"
     inkscape:window-height="1136"
     inkscape:window-x="0"
     inkscape:window-y="0"
     inkscape:window-maximized="1"
     inkscape:current-layer="svg1">
    <inkscape:grid
       id="grid1"
       units="mm"
       originx="0"
       originy="0"
       spacingx="0.99999998"
       spacingy="1"
       empcolor="#0099e5"
       empopacity="0.30196078"
       color="#0099e5"
       opacity="0.14901961"
       empspacing="5"
       enabled="true"
       visible="true" />
  </sodipodi:namedview>
  <path
     style="fill:#ffffff;fill-opacity:0;stroke:#000000;stroke-width:0.506;stroke-linejoin:bevel"
     d="m 22.898291,37.576683 c -0.06079,3.967665 1.117333,7.869379 2.781723,11.471582 1.66439,3.602203 3.811666,6.9557 5.826049,10.374519 2.014383,3.418818 3.915384,6.946946 5.025451,10.756645 1.110066,3.8097 1.38977,7.951784 0.164466,11.725997 -1.071026,3.299 -3.207973,6.1233 -5.136956,9.005924 -1.928984,2.882624 -3.727583,6.028391 -3.963647,9.48885 -0.251638,3.68875 1.36243,7.3538 3.874141,10.06701 2.511712,2.71321 5.852199,4.54853 9.33641,5.78565 10.123204,3.59439 21.54927,2.30857 31.42417,-1.92052 9.874901,-4.22909 18.352499,-11.20191 25.821558,-18.922795 7.240844,-7.484974 13.884864,-16.223975 15.652484,-26.487025 0.88381,-5.131525 0.46682,-10.5468 -1.63289,-15.311766 -2.0997,-4.764966 -5.95306,-8.822602 -10.79035,-10.74985 -3.219651,-1.282756 -6.754719,-1.605428 -10.216752,-1.444366 -3.462033,0.161063 -6.882611,0.789364 -10.302753,1.349931 -3.420143,0.560568 -6.87295,1.056021 -10.337037,0.947788 -3.464087,-0.108233 -6.967153,-0.849002 -9.949385,-2.614761 -4.090888,-2.422186 -6.84668,-6.512272 -9.768976,-10.262277 -1.461148,-1.875003 -3.004801,-3.703781 -4.823724,-5.234176 -1.818923,-1.530394 -3.93386,-2.759697 -6.250616,-3.291888 -2.108339,-0.484315 -4.342856,-0.373974 -6.41011,0.263298 -2.067254,0.637272 -3.965155,1.795041 -5.5169,3.30227 -3.103491,3.014459 -4.740079,7.373966 -4.806356,11.69996 z"
     id="path1"
     inkscape:path-effect="#path-effect1"
     inkscape:original-d="m 22.898291,37.576683 c -5.577789,5.088509 9.002746,29.552495 13.797689,44.328743 4.794941,14.776246 -6.06707,12.329848 -9.100603,18.494774 -3.033535,6.16492 8.904891,10.56844 13.210551,15.85266 4.305662,5.28422 38.065963,-13.9934 57.245728,-20.843315 C 117.23142,88.559628 100.20449,60.377117 101.2809,42.860904 102.35732,25.34469 74.076951,41.588777 60.474973,41.099496 46.872998,40.610218 46.57943,28.769648 39.631657,22.311155 32.683886,15.852663 28.47608,32.488174 22.898291,37.576683 Z" />
  <path
     style="fill:#ffffff;fill-opacity:0;stroke:#000000;stroke-width:0.506;stroke-linejoin:bevel"
     d="m 41.980201,46.970854 c -0.870886,1.19719 -1.344479,2.662056 -1.438666,4.139498 -0.09419,1.477442 0.181085,2.966333 0.703649,4.35148 1.045128,2.770294 3.031054,5.077904 5.128286,7.167986 2.097232,2.090081 4.356913,4.040922 6.149156,6.39776 1.792244,2.356838 3.109999,5.223595 2.961694,8.180761 -0.08222,1.639405 -0.609581,3.228313 -1.293734,4.720407 -0.684153,1.492093 -1.52643,2.905475 -2.285327,4.360977 -0.758897,1.455502 -1.440058,2.969959 -1.769741,4.577976 -0.329682,1.608018 -0.289039,3.32692 0.358149,4.835415 0.63441,1.478711 1.834557,2.688358 3.26519,3.424803 1.430632,0.736446 3.079223,1.011223 4.682956,0.880443 3.207465,-0.261556 6.114422,-2.090975 8.368498,-4.387796 2.254077,-2.296821 3.961989,-5.059637 5.768551,-7.722827 1.806562,-2.66319 3.774077,-5.293466 6.390885,-7.166582 3.077994,-2.203234 6.866632,-3.22449 9.997342,-5.352152 1.565354,-1.063831 2.971197,-2.428702 3.806609,-4.126983 0.417706,-0.84914 0.687386,-1.775084 0.750338,-2.719306 0.06295,-0.944222 -0.08394,-1.906451 -0.463033,-2.77352 -0.660462,-1.510637 -1.99839,-2.659874 -3.506992,-3.32497 -1.508603,-0.665096 -3.180737,-0.882683 -4.829406,-0.893837 -3.297339,-0.02231 -6.629638,0.74652 -9.864808,0.108857 -3.293935,-0.649246 -6.149429,-2.704282 -8.539639,-5.061913 -2.390209,-2.357632 -4.422493,-5.056322 -6.800349,-7.426413 -2.377855,-2.370091 -5.207266,-4.452614 -8.490617,-5.153422 -1.641676,-0.350404 -3.37376,-0.338709 -4.980648,0.146874 -1.606889,0.485583 -3.080855,1.459005 -4.068343,2.816484 z"
     id="path2"
     inkscape:path-effect="#path-effect2"
     inkscape:original-d="M 41.980201,46.970854 C 31.020334,42.078055 50.885092,66.933465 55.48432,77.208339 60.083551,87.483213 52.157219,89.53819 50.493667,95.703114 48.830116,101.86804 69.673432,85.623952 78.969747,80.731155 88.266063,75.838356 88.168206,70.847703 93.061003,65.759194 97.9538,60.670685 80.926865,63.019227 74.859797,61.649244 68.792729,60.279261 52.940066,51.863651 41.980201,46.970854 Z" />
</svg>
