<?xml version="1.0" encoding="UTF-8" standalone="no"?>
<svg
   width="210mm"
   height="97mm"
   viewBox="0 0 210 97"
   version="1.1"
   id="svg1"
   sodipodi:docname="2026-04-11.svg"
   inkscape:version="1.4.3 (0d15f75042, 2025-12-25)"
   inkscape:export-filename="2026-04-11.pdf"
   inkscape:export-xdpi="96"
   inkscape:export-ydpi="96"
   xmlns:inkscape="http://www.inkscape.org/namespaces/inkscape"
   xmlns:sodipodi="http://sodipodi.sourceforge.net/DTD/sodipodi-0.dtd"
   xmlns="http://www.w3.org/2000/svg"
   xmlns:svg="http://www.w3.org/2000/svg">
  <sodipodi:namedview
     id="namedview1"
     pagecolor="#ffffff"
     bordercolor="#000000"
     borderopacity="0.25"
     inkscape:showpageshadow="2"
     inkscape:pageopacity="0.0"
     inkscape:pagecheckerboard="0"
     inkscape:deskcolor="#d1d1d1"
     inkscape:document-units="mm"
     showgrid="true"
     inkscape:zoom="0.73015446"
     inkscape:cx="590.28606"
     inkscape:cy="167.77272"
     inkscape:window-width="1896"
     inkscape:window-height="1136"
     inkscape:window-x="0"
     inkscape:window-y="0"
     inkscape:window-maximized="1"
     inkscape:current-layer="svg1">
    <inkscape:grid
       id="grid1"
       units="mm"
       originx="0"
       originy="0"
       spacingx="0.99999998"
       spacingy="1"
       empcolor="#0099e5"
       empopacity="0.30196078"
       color="#0099e5"
       opacity="0.14901961"
       empspacing="5"
       enabled="true"
       visible="true" />
  </sodipodi:namedview>
  <defs
     id="defs1">
    <marker
       style="overflow:visible"
       id="marker7"
       refX="0"
       refY="0"
       orient="auto-start-reverse"
       inkscape:stockid="Triangle arrow"
       markerWidth="1"
       markerHeight="1"
       viewBox="0 0 1 1"
       inkscape:isstock="true"
       inkscape:collect="always"
       preserveAspectRatio="xMidYMid">
      <path
         transform="scale(0.5)"
         style="fill:context-stroke;fill-rule:evenodd;stroke:context-stroke;stroke-width:1pt"
         d="M 5.77,0 -2.88,5 V -5 Z"
         id="path7" />
    </marker>
    <inkscape:path-effect
       effect="spiro"
       id="path-effect6"
       is_visible="true"
       lpeversion="1" />
    <marker
       style="overflow:visible"
       id="Triangle"
       refX="0"
       refY="0"
       orient="auto-start-reverse"
       inkscape:stockid="Triangle arrow"
       markerWidth="1"
       markerHeight="1"
       viewBox="0 0 1 1"
       inkscape:isstock="true"
       inkscape:collect="always"
       preserveAspectRatio="xMidYMid">
      <path
         transform="scale(0.5)"
         style="fill:context-stroke;fill-rule:evenodd;stroke:context-stroke;stroke-width:1pt"
         d="M 5.77,0 -2.88,5 V -5 Z"
         id="path135" />
    </marker>
    <inkscape:path-effect
       effect="spiro"
       id="path-effect5"
       is_visible="true"
       lpeversion="1" />
    <inkscape:path-effect
       effect="spiro"
       id="path-effect3"
       is_visible="true"
       lpeversion="1" />
    <inkscape:path-effect
       effect="spiro"
       id="path-effect2"
       is_visible="true"
       lpeversion="1" />
    <inkscape:path-effect
       effect="spiro"
       id="path-effect1"
       is_visible="true"
       lpeversion="1" />
    <g
       id="g1655">
      <g
         id="g4043">
        <path
           d="m 3.140625,-2 c 1.078125,-1.21875 1.9375,-1.984375 3.171875,-3.109375 1.5,-1.28125 2.140625,-1.90625 2.484375,-2.28125 1.734375,-1.703125 2.609375,-3.140625 2.609375,-3.34375 0,-0.1875 -0.203125,-0.1875 -0.25,-0.1875 -0.171875,0 -0.234375,0.09375 -0.359375,0.265625 -0.609375,1.0625 -1.203125,1.59375 -1.84375,1.59375 -0.53125,0 -0.796875,-0.234375 -1.265625,-0.828125 -0.53125,-0.609375 -0.953125,-1.03125 -1.671875,-1.03125 -1.796875,0 -2.890625,2.25 -2.890625,2.765625 0,0.078125 0.015625,0.21875 0.25,0.21875 0.1875,0 0.21875,-0.09375 0.296875,-0.265625 C 4.09375,-9.1875 5.28125,-9.375 5.75,-9.375 c 0.515625,0 1.015625,0.1875 1.53125,0.40625 0.953125,0.390625 1.34375,0.390625 1.59375,0.390625 0.171875,0 0.265625,0 0.390625,-0.015625 C 8.453125,-7.625 7.109375,-6.4375 6,-5.421875 L 3.5,-3.125 c -1.515625,1.53125 -2.4375,3 -2.4375,3.171875 0,0.15625 0.125,0.203125 0.28125,0.203125 0.140625,0 0.171875,-0.03125 0.34375,-0.328125 0.390625,-0.609375 1.1875,-1.53125 2.109375,-1.53125 0.515625,0 0.765625,0.171875 1.265625,0.796875 0.46875,0.546875 0.890625,1.0625 1.671875,1.0625 2.4375,0 3.828125,-3.15625 3.828125,-3.71875 0,-0.09375 -0.03125,-0.25 -0.28125,-0.25 -0.1875,0 -0.21875,0.09375 -0.296875,0.34375 -0.546875,1.46875 -2,2.0625 -2.96875,2.0625 C 6.5,-1.3125 6,-1.484375 5.484375,-1.703125 c -1,-0.40625 -1.265625,-0.40625 -1.59375,-0.40625 -0.25,0 -0.515625,0 -0.75,0.109375 z m 0,0"
           id="path6451" />
      </g>
      <g
         id="g2182">
        <path
           d="m 7.234375,-5.53125 c 0,-1.046875 -0.015625,-2.84375 -0.75,-4.21875 -0.625,-1.203125 -1.640625,-1.625 -2.546875,-1.625 -0.828125,0 -1.875,0.375 -2.53125,1.609375 -0.6875,1.296875 -0.75,2.890625 -0.75,4.234375 0,0.984375 0.015625,2.484375 0.546875,3.796875 0.75,1.765625 2.0625,2.015625 2.734375,2.015625 0.796875,0 2,-0.328125 2.703125,-1.96875 0.515625,-1.1875 0.59375,-2.578125 0.59375,-3.84375 z M 3.9375,0 C 2.84375,0 2.1875,-0.953125 1.953125,-2.25 1.75,-3.265625 1.75,-4.75 1.75,-5.71875 c 0,-1.328125 0,-2.421875 0.234375,-3.46875 0.328125,-1.46875 1.28125,-1.921875 1.953125,-1.921875 0.71875,0 1.625,0.46875 1.953125,1.875 C 6.109375,-8.25 6.125,-7.09375 6.125,-5.71875 c 0,1.125 0,2.5 -0.203125,3.515625 C 5.5625,-0.328125 4.546875,0 3.9375,0 Z m 0,0"
           id="path5294" />
      </g>
    </g>
    <g
       id="g4615">
      <g
         id="g383">
        <path
           d="m 5.921875,-1.046875 c 0.375,1.03125 1.453125,1.21875 2.109375,1.21875 1.296875,0 2.078125,-1.140625 2.5625,-2.328125 0.390625,-1 1.03125,-3.265625 1.03125,-4.28125 0,-1.046875 -0.53125,-1.15625 -0.6875,-1.15625 -0.421875,0 -0.796875,0.40625 -0.796875,0.765625 0,0.203125 0.125,0.3125 0.203125,0.390625 0.15625,0.15625 0.609375,0.625 0.609375,1.515625 0,0.578125 -0.484375,2.203125 -0.84375,3.015625 -0.484375,1.046875 -1.125,1.734375 -2.015625,1.734375 -0.96875,0 -1.28125,-0.71875 -1.28125,-1.515625 0,-0.5 0.15625,-1.109375 0.234375,-1.390625 L 7.765625,-5.96875 C 7.859375,-6.3125 8,-6.921875 8,-6.984375 8,-7.25 7.796875,-7.421875 7.546875,-7.421875 c -0.5,0 -0.625,0.4375 -0.734375,0.84375 C 6.640625,-5.90625 5.921875,-3 5.859375,-2.625 5.78125,-2.328125 5.78125,-2.140625 5.78125,-1.75 c 0,0.40625 -0.546875,1.0625 -0.5625,1.09375 -0.1875,0.1875 -0.46875,0.484375 -1,0.484375 -1.359375,0 -1.359375,-1.296875 -1.359375,-1.578125 0,-0.5625 0.125,-1.3125 0.890625,-3.359375 0.203125,-0.53125 0.296875,-0.765625 0.296875,-1.109375 0,-0.71875 -0.515625,-1.375 -1.359375,-1.375 -1.578125,0 -2.21875,2.5 -2.21875,2.640625 0,0.0625 0.0625,0.15625 0.1875,0.15625 0.15625,0 0.171875,-0.078125 0.234375,-0.3125 C 1.328125,-6.625 2,-7.25 2.640625,-7.25 c 0.171875,0 0.4375,0.015625 0.4375,0.5625 0,0.09375 0,0.453125 -0.28125,1.21875 -0.8125,2.140625 -0.984375,2.84375 -0.984375,3.5 0,1.8125 1.46875,2.140625 2.359375,2.140625 0.28125,0 1.0625,0 1.75,-1.21875 z m 0,0"
           id="path1941" />
      </g>
      <g
         id="g6491">
        <path
           d="M 5.8125,-2.1875 C 5.75,-1.90625 5.71875,-1.84375 5.5,-1.578125 4.78125,-0.671875 4.0625,-0.34375 3.53125,-0.34375 c -0.5625,0 -1.109375,-0.453125 -1.109375,-1.640625 0,-0.90625 0.515625,-2.84375 0.90625,-3.609375 0.5,-0.96875 1.265625,-1.65625 2,-1.65625 1.125,0 1.359375,1.40625 1.359375,1.515625 L 6.625,-5.5 Z M 6.890625,-6.453125 C 6.65625,-6.953125 6.1875,-7.59375 5.328125,-7.59375 3.4375,-7.59375 1.3125,-5.234375 1.3125,-2.671875 1.3125,-0.875 2.390625,0 3.5,0 4.40625,0 5.21875,-0.71875 5.53125,-1.0625 L 5.140625,0.484375 C 4.90625,1.421875 4.796875,1.859375 4.1875,2.46875 3.484375,3.171875 2.828125,3.171875 2.4375,3.171875 1.921875,3.171875 1.5,3.140625 1.0625,3 1.625,2.84375 1.75,2.359375 1.75,2.171875 1.75,1.890625 1.546875,1.625 1.171875,1.625 0.75,1.625 0.3125,1.96875 0.3125,2.53125 c 0,0.703125 0.703125,0.984375 2.171875,0.984375 2.21875,0 3.375,-1.4375 3.59375,-2.359375 l 1.90625,-7.71875 c 0.0625,-0.203125 0.0625,-0.234375 0.0625,-0.265625 0,-0.25 -0.1875,-0.4375 -0.453125,-0.4375 -0.40625,0 -0.65625,0.34375 -0.703125,0.8125 z m 0,0"
           id="path4180" />
      </g>
      <g
         id="g4860">
        <path
           d="m 2.1875,-1.390625 c 0.734375,-0.84375 1.34375,-1.375 2.203125,-2.15625 C 5.421875,-4.4375 5.875,-4.875 6.109375,-5.125 7.3125,-6.3125 7.921875,-7.3125 7.921875,-7.453125 7.921875,-7.59375 7.78125,-7.59375 7.75,-7.59375 c -0.125,0 -0.15625,0.0625 -0.25,0.1875 -0.421875,0.75 -0.84375,1.109375 -1.28125,1.109375 -0.359375,0 -0.546875,-0.15625 -0.875,-0.578125 -0.375,-0.421875 -0.65625,-0.71875 -1.15625,-0.71875 -1.265625,0 -2.015625,1.5625 -2.015625,1.921875 0,0.0625 0.015625,0.15625 0.171875,0.15625 0.140625,0 0.15625,-0.0625 0.203125,-0.1875 0.296875,-0.6875 1.125,-0.8125 1.453125,-0.8125 0.359375,0 0.703125,0.125 1.0625,0.28125 0.65625,0.28125 0.921875,0.28125 1.109375,0.28125 0.109375,0 0.1875,0 0.265625,-0.015625 -0.5625,0.671875 -1.5,1.484375 -2.265625,2.203125 l -1.75,1.59375 c -1.046875,1.0625 -1.6875,2.078125 -1.6875,2.203125 0,0.109375 0.09375,0.140625 0.203125,0.140625 0.09375,0 0.109375,-0.015625 0.234375,-0.21875 C 1.453125,-0.484375 2,-1.125 2.640625,-1.125 3,-1.125 3.171875,-1 3.515625,-0.5625 3.84375,-0.1875 4.125,0.171875 4.6875,0.171875 c 1.6875,0 2.640625,-2.1875 2.640625,-2.578125 0,-0.078125 -0.015625,-0.171875 -0.1875,-0.171875 -0.125,0 -0.15625,0.0625 -0.203125,0.234375 -0.375,1.015625 -1.390625,1.4375 -2.0625,1.4375 -0.359375,0 -0.703125,-0.125 -1.0625,-0.28125 -0.703125,-0.28125 -0.890625,-0.28125 -1.109375,-0.28125 -0.171875,0 -0.359375,0 -0.515625,0.078125 z m 0,0"
           id="path9415" />
      </g>
      <g
         id="g271">
        <path
           d="m 5.359375,-3.828125 c 0,-0.984375 -0.0625,-1.953125 -0.5,-2.859375 -0.484375,-1 -1.34375,-1.265625 -1.9375,-1.265625 -0.6875,0 -1.53125,0.34375 -1.984375,1.34375 -0.328125,0.75 -0.453125,1.5 -0.453125,2.78125 0,1.15625 0.09375,2.03125 0.515625,2.890625 0.46875,0.90625 1.296875,1.1875 1.921875,1.1875 1.03125,0 1.625,-0.625 1.984375,-1.3125 0.421875,-0.890625 0.453125,-2.0625 0.453125,-2.765625 z m -2.4375,3.84375 C 2.53125,0.015625 1.75,-0.203125 1.53125,-1.5 c -0.125,-0.71875 -0.125,-1.625 -0.125,-2.46875 0,-0.984375 0,-1.859375 0.1875,-2.5625 0.203125,-0.8125 0.8125,-1.171875 1.328125,-1.171875 0.453125,0 1.140625,0.265625 1.375,1.296875 0.15625,0.6875 0.15625,1.625 0.15625,2.4375 0,0.796875 0,1.703125 -0.140625,2.4375 -0.21875,1.3125 -0.984375,1.546875 -1.390625,1.546875 z m 0,0"
           id="path7518" />
      </g>
      <g
         id="g6965">
        <path
           d="m 11.078125,-5.53125 c 0.25,0 0.515625,0 0.515625,-0.28125 C 11.59375,-6.125 11.296875,-6.125 11,-6.125 H 1.375 c -0.296875,0 -0.578125,0 -0.578125,0.3125 0,0.28125 0.25,0.28125 0.515625,0.28125 z M 11,-2.46875 c 0.296875,0 0.59375,0 0.59375,-0.296875 0,-0.296875 -0.265625,-0.296875 -0.515625,-0.296875 H 1.3125 c -0.265625,0 -0.515625,0 -0.515625,0.296875 0,0.296875 0.28125,0.296875 0.578125,0.296875 z m 0,0"
           id="path2285" />
      </g>
      <g
         id="g3955">
        <path
           d="m 5.265625,4.203125 c 0,-0.015625 0,-0.046875 -0.046875,-0.109375 -0.796875,-0.8125 -2.90625,-3.015625 -2.90625,-8.375 0,-5.375 2.078125,-7.5625 2.921875,-8.421875 0,-0.01563 0.03125,-0.0625 0.03125,-0.109375 0,-0.04687 -0.046875,-0.07813 -0.125,-0.07813 -0.1875,0 -1.640625,1.265625 -2.484375,3.15625 -0.859375,1.921875 -1.109375,3.78125 -1.109375,5.421875 0,1.25 0.125,3.34375 1.15625,5.5625 0.828125,1.796875 2.234375,3.0625 2.4375,3.0625 0.09375,0 0.125,-0.046875 0.125,-0.109375 z m 0,0"
           id="path3031" />
      </g>
      <g
         id="g2645">
        <path
           d="m 4.53125,-4.28125 c 0,-1.25 -0.125,-3.34375 -1.15625,-5.5625 -0.828125,-1.796875 -2.234375,-3.046875 -2.4375,-3.046875 -0.0625,0 -0.125,0.01563 -0.125,0.09375 0,0.03125 0.015625,0.0625 0.03125,0.09375 0.828125,0.859375 2.921875,3.046875 2.921875,8.390625 0,5.375 -2.078125,7.5625 -2.921875,8.421875 C 0.828125,4.15625 0.8125,4.171875 0.8125,4.203125 0.8125,4.28125 0.875,4.3125 0.9375,4.3125 1.125,4.3125 2.578125,3.03125 3.421875,1.140625 4.28125,-0.78125 4.53125,-2.640625 4.53125,-4.28125 Z m 0,0"
           id="path106" />
      </g>
    </g>
    <g
       id="g4667">
      <g
         id="g6316">
        <path
           d="m 5.921875,-1.046875 c 0.375,1.03125 1.453125,1.21875 2.109375,1.21875 1.296875,0 2.078125,-1.140625 2.5625,-2.328125 0.390625,-1 1.03125,-3.265625 1.03125,-4.28125 0,-1.046875 -0.53125,-1.15625 -0.6875,-1.15625 -0.421875,0 -0.796875,0.40625 -0.796875,0.765625 0,0.203125 0.125,0.3125 0.203125,0.390625 0.15625,0.15625 0.609375,0.625 0.609375,1.515625 0,0.578125 -0.484375,2.203125 -0.84375,3.015625 -0.484375,1.046875 -1.125,1.734375 -2.015625,1.734375 -0.96875,0 -1.28125,-0.71875 -1.28125,-1.515625 0,-0.5 0.15625,-1.109375 0.234375,-1.390625 L 7.765625,-5.96875 C 7.859375,-6.3125 8,-6.921875 8,-6.984375 8,-7.25 7.796875,-7.421875 7.546875,-7.421875 c -0.5,0 -0.625,0.4375 -0.734375,0.84375 C 6.640625,-5.90625 5.921875,-3 5.859375,-2.625 5.78125,-2.328125 5.78125,-2.140625 5.78125,-1.75 c 0,0.40625 -0.546875,1.0625 -0.5625,1.09375 -0.1875,0.1875 -0.46875,0.484375 -1,0.484375 -1.359375,0 -1.359375,-1.296875 -1.359375,-1.578125 0,-0.5625 0.125,-1.3125 0.890625,-3.359375 0.203125,-0.53125 0.296875,-0.765625 0.296875,-1.109375 0,-0.71875 -0.515625,-1.375 -1.359375,-1.375 -1.578125,0 -2.21875,2.5 -2.21875,2.640625 0,0.0625 0.0625,0.15625 0.1875,0.15625 0.15625,0 0.171875,-0.078125 0.234375,-0.3125 C 1.328125,-6.625 2,-7.25 2.640625,-7.25 c 0.171875,0 0.4375,0.015625 0.4375,0.5625 0,0.09375 0,0.453125 -0.28125,1.21875 -0.8125,2.140625 -0.984375,2.84375 -0.984375,3.5 0,1.8125 1.46875,2.140625 2.359375,2.140625 0.28125,0 1.0625,0 1.75,-1.21875 z m 0,0"
           id="path226" />
      </g>
      <g
         id="g5504">
        <path
           d="M 5.8125,-2.1875 C 5.75,-1.90625 5.71875,-1.84375 5.5,-1.578125 4.78125,-0.671875 4.0625,-0.34375 3.53125,-0.34375 c -0.5625,0 -1.109375,-0.453125 -1.109375,-1.640625 0,-0.90625 0.515625,-2.84375 0.90625,-3.609375 0.5,-0.96875 1.265625,-1.65625 2,-1.65625 1.125,0 1.359375,1.40625 1.359375,1.515625 L 6.625,-5.5 Z M 6.890625,-6.453125 C 6.65625,-6.953125 6.1875,-7.59375 5.328125,-7.59375 3.4375,-7.59375 1.3125,-5.234375 1.3125,-2.671875 1.3125,-0.875 2.390625,0 3.5,0 4.40625,0 5.21875,-0.71875 5.53125,-1.0625 L 5.140625,0.484375 C 4.90625,1.421875 4.796875,1.859375 4.1875,2.46875 3.484375,3.171875 2.828125,3.171875 2.4375,3.171875 1.921875,3.171875 1.5,3.140625 1.0625,3 1.625,2.84375 1.75,2.359375 1.75,2.171875 1.75,1.890625 1.546875,1.625 1.171875,1.625 0.75,1.625 0.3125,1.96875 0.3125,2.53125 c 0,0.703125 0.703125,0.984375 2.171875,0.984375 2.21875,0 3.375,-1.4375 3.59375,-2.359375 l 1.90625,-7.71875 c 0.0625,-0.203125 0.0625,-0.234375 0.0625,-0.265625 0,-0.25 -0.1875,-0.4375 -0.453125,-0.4375 -0.40625,0 -0.65625,0.34375 -0.703125,0.8125 z m 0,0"
           id="path4949" />
      </g>
      <g
         id="g9326">
        <path
           d="m 2.1875,-1.390625 c 0.734375,-0.84375 1.34375,-1.375 2.203125,-2.15625 C 5.421875,-4.4375 5.875,-4.875 6.109375,-5.125 7.3125,-6.3125 7.921875,-7.3125 7.921875,-7.453125 7.921875,-7.59375 7.78125,-7.59375 7.75,-7.59375 c -0.125,0 -0.15625,0.0625 -0.25,0.1875 -0.421875,0.75 -0.84375,1.109375 -1.28125,1.109375 -0.359375,0 -0.546875,-0.15625 -0.875,-0.578125 -0.375,-0.421875 -0.65625,-0.71875 -1.15625,-0.71875 -1.265625,0 -2.015625,1.5625 -2.015625,1.921875 0,0.0625 0.015625,0.15625 0.171875,0.15625 0.140625,0 0.15625,-0.0625 0.203125,-0.1875 0.296875,-0.6875 1.125,-0.8125 1.453125,-0.8125 0.359375,0 0.703125,0.125 1.0625,0.28125 0.65625,0.28125 0.921875,0.28125 1.109375,0.28125 0.109375,0 0.1875,0 0.265625,-0.015625 -0.5625,0.671875 -1.5,1.484375 -2.265625,2.203125 l -1.75,1.59375 c -1.046875,1.0625 -1.6875,2.078125 -1.6875,2.203125 0,0.109375 0.09375,0.140625 0.203125,0.140625 0.09375,0 0.109375,-0.015625 0.234375,-0.21875 C 1.453125,-0.484375 2,-1.125 2.640625,-1.125 3,-1.125 3.171875,-1 3.515625,-0.5625 3.84375,-0.1875 4.125,0.171875 4.6875,0.171875 c 1.6875,0 2.640625,-2.1875 2.640625,-2.578125 0,-0.078125 -0.015625,-0.171875 -0.1875,-0.171875 -0.125,0 -0.15625,0.0625 -0.203125,0.234375 -0.375,1.015625 -1.390625,1.4375 -2.0625,1.4375 -0.359375,0 -0.703125,-0.125 -1.0625,-0.28125 -0.703125,-0.28125 -0.890625,-0.28125 -1.109375,-0.28125 -0.171875,0 -0.359375,0 -0.515625,0.078125 z m 0,0"
           id="path5825" />
      </g>
      <g
         id="g6356">
        <path
           d="m 11.078125,-5.53125 c 0.25,0 0.515625,0 0.515625,-0.28125 C 11.59375,-6.125 11.296875,-6.125 11,-6.125 H 1.375 c -0.296875,0 -0.578125,0 -0.578125,0.3125 0,0.28125 0.25,0.28125 0.515625,0.28125 z M 11,-2.46875 c 0.296875,0 0.59375,0 0.59375,-0.296875 0,-0.296875 -0.265625,-0.296875 -0.515625,-0.296875 H 1.3125 c -0.265625,0 -0.515625,0 -0.515625,0.296875 0,0.296875 0.28125,0.296875 0.578125,0.296875 z m 0,0"
           id="path4811" />
      </g>
      <g
         id="g1738">
        <path
           d="m 5.265625,4.203125 c 0,-0.015625 0,-0.046875 -0.046875,-0.109375 -0.796875,-0.8125 -2.90625,-3.015625 -2.90625,-8.375 0,-5.375 2.078125,-7.5625 2.921875,-8.421875 0,-0.01563 0.03125,-0.0625 0.03125,-0.109375 0,-0.04687 -0.046875,-0.07813 -0.125,-0.07813 -0.1875,0 -1.640625,1.265625 -2.484375,3.15625 -0.859375,1.921875 -1.109375,3.78125 -1.109375,5.421875 0,1.25 0.125,3.34375 1.15625,5.5625 0.828125,1.796875 2.234375,3.0625 2.4375,3.0625 0.09375,0 0.125,-0.046875 0.125,-0.109375 z m 0,0"
           id="path1252" />
      </g>
      <g
         id="g8025">
        <path
           d="m 4.53125,-4.28125 c 0,-1.25 -0.125,-3.34375 -1.15625,-5.5625 -0.828125,-1.796875 -2.234375,-3.046875 -2.4375,-3.046875 -0.0625,0 -0.125,0.01563 -0.125,0.09375 0,0.03125 0.015625,0.0625 0.03125,0.09375 0.828125,0.859375 2.921875,3.046875 2.921875,8.390625 0,5.375 -2.078125,7.5625 -2.921875,8.421875 C 0.828125,4.15625 0.8125,4.171875 0.8125,4.203125 0.8125,4.28125 0.875,4.3125 0.9375,4.3125 1.125,4.3125 2.578125,3.03125 3.421875,1.140625 4.28125,-0.78125 4.53125,-2.640625 4.53125,-4.28125 Z m 0,0"
           id="path5906" />
      </g>
    </g>
    <g
       id="g4335">
      <g
         id="g8542">
        <path
           d="m 8.171875,-4.765625 c 0.09375,-0.34375 0.140625,-0.5625 0.140625,-1.015625 0,-1.03125 -0.59375,-1.8125 -1.90625,-1.8125 C 4.875,-7.59375 4.0625,-6.515625 3.75,-6.078125 3.703125,-7.0625 3,-7.59375 2.234375,-7.59375 c -0.5,0 -0.890625,0.234375 -1.21875,0.890625 -0.3125,0.625 -0.546875,1.671875 -0.546875,1.75 0,0.0625 0.0625,0.15625 0.1875,0.15625 0.140625,0 0.15625,-0.03125 0.25,-0.421875 C 1.171875,-6.234375 1.5,-7.25 2.1875,-7.25 c 0.390625,0 0.53125,0.28125 0.53125,0.796875 0,0.375 -0.171875,1.046875 -0.296875,1.578125 l -0.46875,1.859375 C 1.875,-2.6875 1.6875,-1.90625 1.59375,-1.59375 c -0.109375,0.4375 -0.296875,1.25 -0.296875,1.328125 0,0.25 0.1875,0.4375 0.4375,0.4375 0.21875,0 0.453125,-0.109375 0.59375,-0.359375 0.03125,-0.09375 0.1875,-0.6875 0.265625,-1.03125 l 0.390625,-1.546875 0.5625,-2.28125 C 3.578125,-5.140625 4.015625,-6.015625 4.65625,-6.5625 5.09375,-6.96875 5.6875,-7.25 6.359375,-7.25 c 0.6875,0 0.921875,0.515625 0.921875,1.203125 0,0.5 -0.0625,0.78125 -0.15625,1.109375 l -2,7.921875 c -0.015625,0.078125 -0.046875,0.1875 -0.046875,0.28125 0,0.265625 0.203125,0.4375 0.46875,0.4375 0.15625,0 0.515625,-0.0625 0.65625,-0.59375 z m 0,0"
           id="path9701" />
      </g>
      <g
         id="g9500">
        <path
           d="m 7.671875,-6.921875 c 0.359375,0 0.484375,0 0.484375,-0.328125 0,-0.171875 -0.125,-0.171875 -0.4375,-0.171875 H 6.3125 c 0.328125,-1.765625 0.578125,-3 0.71875,-3.546875 0.09375,-0.40625 0.453125,-0.8125 0.90625,-0.8125 0.359375,0 0.71875,0.15625 0.890625,0.3125 -0.671875,0.0625 -0.875,0.5625 -0.875,0.859375 0,0.34375 0.265625,0.546875 0.59375,0.546875 0.34375,0 0.859375,-0.28125 0.859375,-0.9375 0,-0.71875 -0.734375,-1.125 -1.484375,-1.125 -0.734375,0 -1.46875,0.546875 -1.8125,1.21875 -0.3125,0.609375 -0.484375,1.234375 -0.875,3.484375 h -1.15625 c -0.328125,0 -0.5,0 -0.5,0.3125 0,0.1875 0.109375,0.1875 0.453125,0.1875 H 5.125 c -0.296875,1.59375 -1.015625,5.5 -1.40625,7.328125 -0.296875,1.5 -0.546875,2.765625 -1.40625,2.765625 -0.0625,0 -0.5625,0 -0.859375,-0.328125 0.875,-0.078125 0.875,-0.828125 0.875,-0.84375 0,-0.34375 -0.265625,-0.546875 -0.59375,-0.546875 -0.34375,0 -0.859375,0.28125 -0.859375,0.9375 0,0.75 0.765625,1.125 1.4375,1.125 1.75,0 2.46875,-3.15625 2.65625,-4.015625 0.3125,-1.328125 1.15625,-5.90625 1.25,-6.421875 z m 0,0"
           id="path8085" />
      </g>
      <g
         id="g9159">
        <path
           d="m 2.1875,-1.390625 c 0.734375,-0.84375 1.34375,-1.375 2.203125,-2.15625 C 5.421875,-4.4375 5.875,-4.875 6.109375,-5.125 7.3125,-6.3125 7.921875,-7.3125 7.921875,-7.453125 7.921875,-7.59375 7.78125,-7.59375 7.75,-7.59375 c -0.125,0 -0.15625,0.0625 -0.25,0.1875 -0.421875,0.75 -0.84375,1.109375 -1.28125,1.109375 -0.359375,0 -0.546875,-0.15625 -0.875,-0.578125 -0.375,-0.421875 -0.65625,-0.71875 -1.15625,-0.71875 -1.265625,0 -2.015625,1.5625 -2.015625,1.921875 0,0.0625 0.015625,0.15625 0.171875,0.15625 0.140625,0 0.15625,-0.0625 0.203125,-0.1875 0.296875,-0.6875 1.125,-0.8125 1.453125,-0.8125 0.359375,0 0.703125,0.125 1.0625,0.28125 0.65625,0.28125 0.921875,0.28125 1.109375,0.28125 0.109375,0 0.1875,0 0.265625,-0.015625 -0.5625,0.671875 -1.5,1.484375 -2.265625,2.203125 l -1.75,1.59375 c -1.046875,1.0625 -1.6875,2.078125 -1.6875,2.203125 0,0.109375 0.09375,0.140625 0.203125,0.140625 0.09375,0 0.109375,-0.015625 0.234375,-0.21875 C 1.453125,-0.484375 2,-1.125 2.640625,-1.125 3,-1.125 3.171875,-1 3.515625,-0.5625 3.84375,-0.1875 4.125,0.171875 4.6875,0.171875 c 1.6875,0 2.640625,-2.1875 2.640625,-2.578125 0,-0.078125 -0.015625,-0.171875 -0.1875,-0.171875 -0.125,0 -0.15625,0.0625 -0.203125,0.234375 -0.375,1.015625 -1.390625,1.4375 -2.0625,1.4375 -0.359375,0 -0.703125,-0.125 -1.0625,-0.28125 -0.703125,-0.28125 -0.890625,-0.28125 -1.109375,-0.28125 -0.171875,0 -0.359375,0 -0.515625,0.078125 z m 0,0"
           id="path2242" />
      </g>
      <g
         id="g209">
        <path
           d="m 11.078125,-5.53125 c 0.25,0 0.515625,0 0.515625,-0.28125 C 11.59375,-6.125 11.296875,-6.125 11,-6.125 H 1.375 c -0.296875,0 -0.578125,0 -0.578125,0.3125 0,0.28125 0.25,0.28125 0.515625,0.28125 z M 11,-2.46875 c 0.296875,0 0.59375,0 0.59375,-0.296875 0,-0.296875 -0.265625,-0.296875 -0.515625,-0.296875 H 1.3125 c -0.265625,0 -0.515625,0 -0.515625,0.296875 0,0.296875 0.28125,0.296875 0.578125,0.296875 z m 0,0"
           id="path3469" />
      </g>
      <g
         id="g2901">
        <path
           d="m 5.265625,4.203125 c 0,-0.015625 0,-0.046875 -0.046875,-0.109375 -0.796875,-0.8125 -2.90625,-3.015625 -2.90625,-8.375 0,-5.375 2.078125,-7.5625 2.921875,-8.421875 0,-0.01563 0.03125,-0.0625 0.03125,-0.109375 0,-0.04687 -0.046875,-0.07813 -0.125,-0.07813 -0.1875,0 -1.640625,1.265625 -2.484375,3.15625 -0.859375,1.921875 -1.109375,3.78125 -1.109375,5.421875 0,1.25 0.125,3.34375 1.15625,5.5625 0.828125,1.796875 2.234375,3.0625 2.4375,3.0625 0.09375,0 0.125,-0.046875 0.125,-0.109375 z m 0,0"
           id="path4588" />
      </g>
      <g
         id="g8759">
        <path
           d="m 4.53125,-4.28125 c 0,-1.25 -0.125,-3.34375 -1.15625,-5.5625 -0.828125,-1.796875 -2.234375,-3.046875 -2.4375,-3.046875 -0.0625,0 -0.125,0.01563 -0.125,0.09375 0,0.03125 0.015625,0.0625 0.03125,0.09375 0.828125,0.859375 2.921875,3.046875 2.921875,8.390625 0,5.375 -2.078125,7.5625 -2.921875,8.421875 C 0.828125,4.15625 0.8125,4.171875 0.8125,4.203125 0.8125,4.28125 0.875,4.3125 0.9375,4.3125 1.125,4.3125 2.578125,3.03125 3.421875,1.140625 4.28125,-0.78125 4.53125,-2.640625 4.53125,-4.28125 Z m 0,0"
           id="path503" />
      </g>
    </g>
    <g
       id="g9070">
      <g
         id="g696">
        <path
           d="M 3.25,-0.84375 C 2.234375,-1.234375 1.65625,-2.015625 1.65625,-3.3125 c 0,-2.359375 1.734375,-5.5 3.859375,-6.71875 C 5.8125,-9.75 6.21875,-9.75 6.546875,-9.75 c 0.421875,0 1.484375,0 1.484375,-0.5 0,-0.40625 -0.78125,-0.421875 -1.328125,-0.421875 -0.34375,0 -0.640625,0 -1.09375,0.1875 -0.09375,-0.21875 -0.15625,-0.46875 -0.15625,-0.71875 0,-0.3125 0.078125,-0.5625 0.078125,-0.609375 0,-0.109375 -0.09375,-0.171875 -0.171875,-0.171875 -0.28125,0 -0.28125,0.640625 -0.28125,0.78125 0,0.15625 0,0.515625 0.203125,0.875 -2,1.03125 -4.5,4.25 -4.5,7.46875 0,2.359375 1.5625,2.90625 2.453125,3.21875 0.234375,0.078125 0.78125,0.265625 1,0.34375 0.703125,0.25 1.375,0.46875 1.375,1.296875 0,0.5 -0.359375,1.171875 -1,1.171875 C 4.265625,3.171875 3.8125,3.046875 3.375,2.625 3.3125,2.546875 3.265625,2.515625 3.1875,2.515625 c -0.140625,0 -0.171875,0.140625 -0.171875,0.171875 0,0.171875 0.734375,0.828125 1.59375,0.828125 1.109375,0 1.859375,-1.15625 1.859375,-2.046875 0,-1.203125 -1,-1.5625 -1.625,-1.765625 z m 2.640625,-9.359375 c 0.25,-0.125 0.5,-0.125 0.796875,-0.125 0.546875,0 0.59375,0.01563 0.9375,0.09375 -0.203125,0.09375 -0.34375,0.140625 -1.0625,0.140625 -0.359375,0 -0.484375,0 -0.671875,-0.109375 z m 0,0"
           id="path3326" />
      </g>
      <g
         id="g6361">
        <path
           d="m 7.671875,-6.921875 c 0.359375,0 0.484375,0 0.484375,-0.328125 0,-0.171875 -0.125,-0.171875 -0.4375,-0.171875 H 6.3125 c 0.328125,-1.765625 0.578125,-3 0.71875,-3.546875 0.09375,-0.40625 0.453125,-0.8125 0.90625,-0.8125 0.359375,0 0.71875,0.15625 0.890625,0.3125 -0.671875,0.0625 -0.875,0.5625 -0.875,0.859375 0,0.34375 0.265625,0.546875 0.59375,0.546875 0.34375,0 0.859375,-0.28125 0.859375,-0.9375 0,-0.71875 -0.734375,-1.125 -1.484375,-1.125 -0.734375,0 -1.46875,0.546875 -1.8125,1.21875 -0.3125,0.609375 -0.484375,1.234375 -0.875,3.484375 h -1.15625 c -0.328125,0 -0.5,0 -0.5,0.3125 0,0.1875 0.109375,0.1875 0.453125,0.1875 H 5.125 c -0.296875,1.59375 -1.015625,5.5 -1.40625,7.328125 -0.296875,1.5 -0.546875,2.765625 -1.40625,2.765625 -0.0625,0 -0.5625,0 -0.859375,-0.328125 0.875,-0.078125 0.875,-0.828125 0.875,-0.84375 0,-0.34375 -0.265625,-0.546875 -0.59375,-0.546875 -0.34375,0 -0.859375,0.28125 -0.859375,0.9375 0,0.75 0.765625,1.125 1.4375,1.125 1.75,0 2.46875,-3.15625 2.65625,-4.015625 0.3125,-1.328125 1.15625,-5.90625 1.25,-6.421875 z m 0,0"
           id="path9185" />
      </g>
      <g
         id="g7170">
        <path
           d="m 2.1875,-1.390625 c 0.734375,-0.84375 1.34375,-1.375 2.203125,-2.15625 C 5.421875,-4.4375 5.875,-4.875 6.109375,-5.125 7.3125,-6.3125 7.921875,-7.3125 7.921875,-7.453125 7.921875,-7.59375 7.78125,-7.59375 7.75,-7.59375 c -0.125,0 -0.15625,0.0625 -0.25,0.1875 -0.421875,0.75 -0.84375,1.109375 -1.28125,1.109375 -0.359375,0 -0.546875,-0.15625 -0.875,-0.578125 -0.375,-0.421875 -0.65625,-0.71875 -1.15625,-0.71875 -1.265625,0 -2.015625,1.5625 -2.015625,1.921875 0,0.0625 0.015625,0.15625 0.171875,0.15625 0.140625,0 0.15625,-0.0625 0.203125,-0.1875 0.296875,-0.6875 1.125,-0.8125 1.453125,-0.8125 0.359375,0 0.703125,0.125 1.0625,0.28125 0.65625,0.28125 0.921875,0.28125 1.109375,0.28125 0.109375,0 0.1875,0 0.265625,-0.015625 -0.5625,0.671875 -1.5,1.484375 -2.265625,2.203125 l -1.75,1.59375 c -1.046875,1.0625 -1.6875,2.078125 -1.6875,2.203125 0,0.109375 0.09375,0.140625 0.203125,0.140625 0.09375,0 0.109375,-0.015625 0.234375,-0.21875 C 1.453125,-0.484375 2,-1.125 2.640625,-1.125 3,-1.125 3.171875,-1 3.515625,-0.5625 3.84375,-0.1875 4.125,0.171875 4.6875,0.171875 c 1.6875,0 2.640625,-2.1875 2.640625,-2.578125 0,-0.078125 -0.015625,-0.171875 -0.1875,-0.171875 -0.125,0 -0.15625,0.0625 -0.203125,0.234375 -0.375,1.015625 -1.390625,1.4375 -2.0625,1.4375 -0.359375,0 -0.703125,-0.125 -1.0625,-0.28125 -0.703125,-0.28125 -0.890625,-0.28125 -1.109375,-0.28125 -0.171875,0 -0.359375,0 -0.515625,0.078125 z m 0,0"
           id="path6598" />
      </g>
      <g
         id="g3500">
        <path
           d="m 11.078125,-5.53125 c 0.25,0 0.515625,0 0.515625,-0.28125 C 11.59375,-6.125 11.296875,-6.125 11,-6.125 H 1.375 c -0.296875,0 -0.578125,0 -0.578125,0.3125 0,0.28125 0.25,0.28125 0.515625,0.28125 z M 11,-2.46875 c 0.296875,0 0.59375,0 0.59375,-0.296875 0,-0.296875 -0.265625,-0.296875 -0.515625,-0.296875 H 1.3125 c -0.265625,0 -0.515625,0 -0.515625,0.296875 0,0.296875 0.28125,0.296875 0.578125,0.296875 z m 0,0"
           id="path7811" />
      </g>
      <g
         id="g7644">
        <path
           d="m 5.265625,4.203125 c 0,-0.015625 0,-0.046875 -0.046875,-0.109375 -0.796875,-0.8125 -2.90625,-3.015625 -2.90625,-8.375 0,-5.375 2.078125,-7.5625 2.921875,-8.421875 0,-0.01563 0.03125,-0.0625 0.03125,-0.109375 0,-0.04687 -0.046875,-0.07813 -0.125,-0.07813 -0.1875,0 -1.640625,1.265625 -2.484375,3.15625 -0.859375,1.921875 -1.109375,3.78125 -1.109375,5.421875 0,1.25 0.125,3.34375 1.15625,5.5625 0.828125,1.796875 2.234375,3.0625 2.4375,3.0625 0.09375,0 0.125,-0.046875 0.125,-0.109375 z m 0,0"
           id="path1139" />
      </g>
      <g
         id="g9385">
        <path
           d="m 4.53125,-4.28125 c 0,-1.25 -0.125,-3.34375 -1.15625,-5.5625 -0.828125,-1.796875 -2.234375,-3.046875 -2.4375,-3.046875 -0.0625,0 -0.125,0.01563 -0.125,0.09375 0,0.03125 0.015625,0.0625 0.03125,0.09375 0.828125,0.859375 2.921875,3.046875 2.921875,8.390625 0,5.375 -2.078125,7.5625 -2.921875,8.421875 C 0.828125,4.15625 0.8125,4.171875 0.8125,4.203125 0.8125,4.28125 0.875,4.3125 0.9375,4.3125 1.125,4.3125 2.578125,3.03125 3.421875,1.140625 4.28125,-0.78125 4.53125,-2.640625 4.53125,-4.28125 Z m 0,0"
           id="path5601" />
      </g>
    </g>
    <g
       id="g77">
      <g
         id="g8910">
        <path
           d="m 7.671875,-6.921875 c 0.359375,0 0.484375,0 0.484375,-0.328125 0,-0.171875 -0.125,-0.171875 -0.4375,-0.171875 H 6.3125 c 0.328125,-1.765625 0.578125,-3 0.71875,-3.546875 0.09375,-0.40625 0.453125,-0.8125 0.90625,-0.8125 0.359375,0 0.71875,0.15625 0.890625,0.3125 -0.671875,0.0625 -0.875,0.5625 -0.875,0.859375 0,0.34375 0.265625,0.546875 0.59375,0.546875 0.34375,0 0.859375,-0.28125 0.859375,-0.9375 0,-0.71875 -0.734375,-1.125 -1.484375,-1.125 -0.734375,0 -1.46875,0.546875 -1.8125,1.21875 -0.3125,0.609375 -0.484375,1.234375 -0.875,3.484375 h -1.15625 c -0.328125,0 -0.5,0 -0.5,0.3125 0,0.1875 0.109375,0.1875 0.453125,0.1875 H 5.125 c -0.296875,1.59375 -1.015625,5.5 -1.40625,7.328125 -0.296875,1.5 -0.546875,2.765625 -1.40625,2.765625 -0.0625,0 -0.5625,0 -0.859375,-0.328125 0.875,-0.078125 0.875,-0.828125 0.875,-0.84375 0,-0.34375 -0.265625,-0.546875 -0.59375,-0.546875 -0.34375,0 -0.859375,0.28125 -0.859375,0.9375 0,0.75 0.765625,1.125 1.4375,1.125 1.75,0 2.46875,-3.15625 2.65625,-4.015625 0.3125,-1.328125 1.15625,-5.90625 1.25,-6.421875 z m 0,0"
           id="path6119" />
      </g>
      <g
         id="g7133">
        <path
           d="m 2.1875,-1.390625 c 0.734375,-0.84375 1.34375,-1.375 2.203125,-2.15625 C 5.421875,-4.4375 5.875,-4.875 6.109375,-5.125 7.3125,-6.3125 7.921875,-7.3125 7.921875,-7.453125 7.921875,-7.59375 7.78125,-7.59375 7.75,-7.59375 c -0.125,0 -0.15625,0.0625 -0.25,0.1875 -0.421875,0.75 -0.84375,1.109375 -1.28125,1.109375 -0.359375,0 -0.546875,-0.15625 -0.875,-0.578125 -0.375,-0.421875 -0.65625,-0.71875 -1.15625,-0.71875 -1.265625,0 -2.015625,1.5625 -2.015625,1.921875 0,0.0625 0.015625,0.15625 0.171875,0.15625 0.140625,0 0.15625,-0.0625 0.203125,-0.1875 0.296875,-0.6875 1.125,-0.8125 1.453125,-0.8125 0.359375,0 0.703125,0.125 1.0625,0.28125 0.65625,0.28125 0.921875,0.28125 1.109375,0.28125 0.109375,0 0.1875,0 0.265625,-0.015625 -0.5625,0.671875 -1.5,1.484375 -2.265625,2.203125 l -1.75,1.59375 c -1.046875,1.0625 -1.6875,2.078125 -1.6875,2.203125 0,0.109375 0.09375,0.140625 0.203125,0.140625 0.09375,0 0.109375,-0.015625 0.234375,-0.21875 C 1.453125,-0.484375 2,-1.125 2.640625,-1.125 3,-1.125 3.171875,-1 3.515625,-0.5625 3.84375,-0.1875 4.125,0.171875 4.6875,0.171875 c 1.6875,0 2.640625,-2.1875 2.640625,-2.578125 0,-0.078125 -0.015625,-0.171875 -0.1875,-0.171875 -0.125,0 -0.15625,0.0625 -0.203125,0.234375 -0.375,1.015625 -1.390625,1.4375 -2.0625,1.4375 -0.359375,0 -0.703125,-0.125 -1.0625,-0.28125 -0.703125,-0.28125 -0.890625,-0.28125 -1.109375,-0.28125 -0.171875,0 -0.359375,0 -0.515625,0.078125 z m 0,0"
           id="path8132" />
      </g>
      <g
         id="g4743">
        <path
           d="M 5.8125,-2.1875 C 5.75,-1.90625 5.71875,-1.84375 5.5,-1.578125 4.78125,-0.671875 4.0625,-0.34375 3.53125,-0.34375 c -0.5625,0 -1.109375,-0.453125 -1.109375,-1.640625 0,-0.90625 0.515625,-2.84375 0.90625,-3.609375 0.5,-0.96875 1.265625,-1.65625 2,-1.65625 1.125,0 1.359375,1.40625 1.359375,1.515625 L 6.625,-5.5 Z M 6.890625,-6.453125 C 6.65625,-6.953125 6.1875,-7.59375 5.328125,-7.59375 3.4375,-7.59375 1.3125,-5.234375 1.3125,-2.671875 1.3125,-0.875 2.390625,0 3.5,0 4.40625,0 5.21875,-0.71875 5.53125,-1.0625 L 5.140625,0.484375 C 4.90625,1.421875 4.796875,1.859375 4.1875,2.46875 3.484375,3.171875 2.828125,3.171875 2.4375,3.171875 1.921875,3.171875 1.5,3.140625 1.0625,3 1.625,2.84375 1.75,2.359375 1.75,2.171875 1.75,1.890625 1.546875,1.625 1.171875,1.625 0.75,1.625 0.3125,1.96875 0.3125,2.53125 c 0,0.703125 0.703125,0.984375 2.171875,0.984375 2.21875,0 3.375,-1.4375 3.59375,-2.359375 l 1.90625,-7.71875 c 0.0625,-0.203125 0.0625,-0.234375 0.0625,-0.265625 0,-0.25 -0.1875,-0.4375 -0.453125,-0.4375 -0.40625,0 -0.65625,0.34375 -0.703125,0.8125 z m 0,0"
           id="path8660" />
      </g>
      <g
         id="g8371">
        <path
           d="m 5.265625,4.203125 c 0,-0.015625 0,-0.046875 -0.046875,-0.109375 -0.796875,-0.8125 -2.90625,-3.015625 -2.90625,-8.375 0,-5.375 2.078125,-7.5625 2.921875,-8.421875 0,-0.01563 0.03125,-0.0625 0.03125,-0.109375 0,-0.04687 -0.046875,-0.07813 -0.125,-0.07813 -0.1875,0 -1.640625,1.265625 -2.484375,3.15625 -0.859375,1.921875 -1.109375,3.78125 -1.109375,5.421875 0,1.25 0.125,3.34375 1.15625,5.5625 0.828125,1.796875 2.234375,3.0625 2.4375,3.0625 0.09375,0 0.125,-0.046875 0.125,-0.109375 z m 0,0"
           id="path612" />
      </g>
      <g
         id="g154">
        <path
           d="m 4.53125,-4.28125 c 0,-1.25 -0.125,-3.34375 -1.15625,-5.5625 -0.828125,-1.796875 -2.234375,-3.046875 -2.4375,-3.046875 -0.0625,0 -0.125,0.01563 -0.125,0.09375 0,0.03125 0.015625,0.0625 0.03125,0.09375 0.828125,0.859375 2.921875,3.046875 2.921875,8.390625 0,5.375 -2.078125,7.5625 -2.921875,8.421875 C 0.828125,4.15625 0.8125,4.171875 0.8125,4.203125 0.8125,4.28125 0.875,4.3125 0.9375,4.3125 1.125,4.3125 2.578125,3.03125 3.421875,1.140625 4.28125,-0.78125 4.53125,-2.640625 4.53125,-4.28125 Z m 0,0"
           id="path6939" />
      </g>
      <g
         id="g41">
        <path
           d="m 11.078125,-5.53125 c 0.25,0 0.515625,0 0.515625,-0.28125 C 11.59375,-6.125 11.296875,-6.125 11,-6.125 H 1.375 c -0.296875,0 -0.578125,0 -0.578125,0.3125 0,0.28125 0.25,0.28125 0.515625,0.28125 z M 11,-2.46875 c 0.296875,0 0.59375,0 0.59375,-0.296875 0,-0.296875 -0.265625,-0.296875 -0.515625,-0.296875 H 1.3125 c -0.265625,0 -0.515625,0 -0.515625,0.296875 0,0.296875 0.28125,0.296875 0.578125,0.296875 z m 0,0"
           id="path4764" />
      </g>
      <g
         id="g1953">
        <path
           d="m 5.359375,-3.828125 c 0,-0.984375 -0.0625,-1.953125 -0.5,-2.859375 -0.484375,-1 -1.34375,-1.265625 -1.9375,-1.265625 -0.6875,0 -1.53125,0.34375 -1.984375,1.34375 -0.328125,0.75 -0.453125,1.5 -0.453125,2.78125 0,1.15625 0.09375,2.03125 0.515625,2.890625 0.46875,0.90625 1.296875,1.1875 1.921875,1.1875 1.03125,0 1.625,-0.625 1.984375,-1.3125 0.421875,-0.890625 0.453125,-2.0625 0.453125,-2.765625 z m -2.4375,3.84375 C 2.53125,0.015625 1.75,-0.203125 1.53125,-1.5 c -0.125,-0.71875 -0.125,-1.625 -0.125,-2.46875 0,-0.984375 0,-1.859375 0.1875,-2.5625 0.203125,-0.8125 0.8125,-1.171875 1.328125,-1.171875 0.453125,0 1.140625,0.265625 1.375,1.296875 0.15625,0.6875 0.15625,1.625 0.15625,2.4375 0,0.796875 0,1.703125 -0.140625,2.4375 -0.21875,1.3125 -0.984375,1.546875 -1.390625,1.546875 z m 0,0"
           id="path4529" />
      </g>
    </g>
  </defs>
  <path
     style="fill:#000000;fill-opacity:0;stroke:#000000;stroke-width:0.607999;stroke-linejoin:bevel"
     d="m 20.26662,30.54895 c -3.675456,1.817417 -6.514877,5.160064 -7.961498,8.996633 -1.446621,3.83657 -1.539009,8.127379 -0.516612,12.098107 1.022397,3.970729 3.126669,7.624164 5.849299,10.689987 2.72263,3.065822 6.051984,5.558774 9.632715,7.556359 7.068298,3.943197 15.084361,5.966795 23.134638,6.80505 8.050278,0.838256 16.173902,0.529351 24.253488,0.04984 4.552328,-0.270176 9.117709,-0.596378 13.58435,-1.516051 4.466642,-0.919672 8.854938,-2.453939 12.6517,-4.980063 3.79676,-2.526124 6.98126,-6.096751 8.58542,-10.365635 1.60416,-4.268883 1.51046,-9.249158 -0.69606,-13.240143 -2.07819,-3.758879 -5.85276,-6.391439 -9.937665,-7.718706 -4.084901,-1.327267 -8.473278,-1.451977 -12.752565,-1.083533 -8.558576,0.736888 -17.123633,3.38916 -25.59201,1.947353 -6.988804,-1.189898 -13.178098,-5.05524 -19.688849,-7.860479 -3.255375,-1.402619 -6.652864,-2.556497 -10.175409,-2.952084 -3.522545,-0.395587 -7.193485,0.0022 -10.370942,1.573369 z"
     id="path1"
     inkscape:path-effect="#path-effect1"
     inkscape:original-d="M 20.26662,30.54895 C 6.854886,27.469219 24.93589,56.776339 27.270524,69.890036 29.60516,83.00373 58.86261,74.459959 74.65865,76.744922 90.454693,79.029884 97.458598,56.676993 108.78406,46.64303 120.10953,36.609067 76.546227,42.073105 60.50182,39.788144 44.457413,37.503182 33.678354,33.628681 20.26662,30.54895 Z"
     transform="matrix(0.49508522,0,0,0.70191873,3.9309319,15.554137)" />
  <path
     style="fill:#000000;fill-opacity:0;stroke:#000000;stroke-width:0.358;stroke-linejoin:bevel;stroke-dasharray:none"
     d="m 73.631176,62.853519 c 0.298456,-1.483329 0.986829,-2.873714 1.898643,-4.081164 0.911814,-1.207451 2.043297,-2.237599 3.267286,-3.12709 2.447977,-1.778981 5.248473,-2.996704 7.910951,-4.434959 2.904835,-1.569175 5.656233,-3.407813 8.540285,-5.014866 2.884052,-1.607053 5.939659,-2.993536 9.192569,-3.558335 3.2529,-0.564799 6.73864,-0.251853 9.61347,1.371641 1.43741,0.811748 2.70205,1.943461 3.61036,3.321888 0.90832,1.378426 1.45245,3.005296 1.48741,4.655712 0.0321,1.513985 -0.36115,3.02174 -1.03135,4.379686 -0.6702,1.357945 -1.61146,2.570911 -2.68411,3.639832 -2.14531,2.137842 -4.78667,3.692356 -7.32134,5.350113 -3.12473,2.043672 -6.12964,4.27695 -9.365069,6.140421 -3.235427,1.863472 -6.748811,3.363571 -10.459016,3.78178 -3.710204,0.418208 -7.648101,-0.333082 -10.616539,-2.597787 -1.484219,-1.132353 -2.701332,-2.628166 -3.435989,-4.344385 -0.734658,-1.716219 -0.975804,-3.652316 -0.607561,-5.482487 z"
     id="path2"
     inkscape:path-effect="#path-effect2"
     inkscape:original-d="m 73.631176,62.853519 c -6.260338,2.836717 7.053949,-9.605949 13.07688,-11.643213 7.341736,-2.483352 22.368864,1.265131 32.444094,0.77604 10.07523,-0.489087 -7.22191,9.45692 -11.0368,13.369631 -3.81489,3.912711 -28.223836,-5.339173 -34.484174,-2.502458 z"
     sodipodi:nodetypes="sssss"
     transform="translate(0.81574845,-8.3614216)" />
  <path
     style="fill:#000000;fill-opacity:0;stroke:#000000;stroke-width:0.42461161;stroke-linejoin:bevel;stroke-dasharray:none"
     d="m 147.60702,54.288864 c -1.28402,-2.399504 -1.85537,-5.154416 -1.77551,-7.8747 0.0799,-2.720283 0.79816,-5.404906 1.95664,-7.867474 2.31697,-4.925136 6.31522,-8.879614 10.67664,-12.135891 3.5292,-2.63494 7.36627,-4.893426 11.50236,-6.407005 4.1361,-1.51358 8.5826,-2.268363 12.97094,-1.893303 4.38833,0.37506 8.71368,1.912126 12.17442,4.636361 3.46074,2.724234 6.00892,6.664566 6.78337,11.000281 0.59558,3.334326 0.14158,6.821301 -1.10353,9.971246 -1.24511,3.149945 -3.26209,5.96813 -5.70508,8.314242 -4.88598,4.692224 -11.32876,7.435117 -17.84146,9.299123 -5.29091,1.514315 -10.85788,2.517454 -16.29299,1.653476 -2.71755,-0.431989 -5.37501,-1.336702 -7.70949,-2.793388 -2.33447,-1.456685 -4.33804,-3.476821 -5.63631,-5.902968 z"
     id="path3"
     inkscape:path-effect="#path-effect3"
     inkscape:original-d="m 147.60702,54.288864 c -9.87959,-2.347627 7.62979,-18.585376 10.85777,-27.878065 3.22799,-9.292689 28.75843,4.890888 43.43109,7.336334 14.67267,2.445443 -16.43338,18.38974 -24.65007,27.584611 -8.2167,9.194871 -19.75919,-4.695253 -29.63879,-7.04288 z"
     transform="matrix(1.001694,0,0,0.70965497,-17.255407,19.957745)" />
  <ellipse
     style="fill:#000000;fill-opacity:1;stroke:#000000;stroke-width:0.393556;stroke-linejoin:bevel"
     id="path4"
     cx="33.273758"
     cy="57.082733"
     rx="0.34630096"
     ry="0.43927628" />
  <ellipse
     style="fill:#000000;fill-opacity:1;stroke:#000000;stroke-width:0.393556;stroke-linejoin:bevel"
     id="path4-7"
     cx="95.482361"
     cy="48.113419"
     rx="0.34630096"
     ry="0.43927628" />
  <ellipse
     style="fill:#000000;fill-opacity:1;stroke:#000000;stroke-width:0.423479;stroke-linejoin:bevel"
     id="path4-2"
     cx="148.8354"
     cy="52.000946"
     rx="0.50531143"
     ry="0.34856459" />
  <path
     style="fill:#000000;fill-opacity:0;stroke:#000000;stroke-width:0.607999;stroke-linejoin:bevel;marker-end:url(#Triangle)"
     d="m 36.216508,41.909933 c 3.138779,-7.158131 9.275591,-12.944268 16.605823,-15.656918 5.25056,-1.94304 11.065476,-2.332075 16.528074,-1.105778 5.462599,1.226298 10.553252,4.063522 14.469462,8.064408"
     id="path5"
     inkscape:path-effect="#path-effect5"
     inkscape:original-d="m 36.216508,41.909933 c 5.482558,-5.218972 11.123265,-10.437944 16.605823,-15.656918 5.482559,-5.218973 20.612307,4.639086 30.997536,6.95863" />
  <path
     style="fill:#000000;fill-opacity:0;stroke:#000000;stroke-width:0.607999;stroke-linejoin:bevel;marker-end:url(#marker7)"
     d="m 105.80281,28.783425 c 4.78221,-8.051178 12.88839,-14.057916 21.98295,-16.28952 9.83893,-2.414257 20.68795,-0.339309 28.94158,5.535274"
     id="path6"
     inkscape:path-effect="#path-effect6"
     inkscape:original-d="m 105.80281,28.783425 c 7.43308,-5.324406 14.86617,-10.806963 21.98295,-16.28952 7.11678,-5.4825576 19.18895,3.690183 28.94158,5.535274"
     transform="matrix(0.87463082,0.21034884,-0.21278678,0.9796196,20.631358,-20.453945)" />
  <g
     inkscape:label=""
     transform="matrix(0.84058794,0,0,0.76701799,25.631391,57.271966)"
     id="g7">
    <g
       fill="#000000"
       fill-opacity="1"
       id="g3"
       transform="matrix(0.352778,0,0,0.352778,-1.07791,-0.614583)">
      <g
         id="use2"
         transform="translate(1.993,12.664)">
        <path
           d="m 3.140625,-2 c 1.078125,-1.21875 1.9375,-1.984375 3.171875,-3.109375 1.5,-1.28125 2.140625,-1.90625 2.484375,-2.28125 1.734375,-1.703125 2.609375,-3.140625 2.609375,-3.34375 0,-0.1875 -0.203125,-0.1875 -0.25,-0.1875 -0.171875,0 -0.234375,0.09375 -0.359375,0.265625 -0.609375,1.0625 -1.203125,1.59375 -1.84375,1.59375 -0.53125,0 -0.796875,-0.234375 -1.265625,-0.828125 -0.53125,-0.609375 -0.953125,-1.03125 -1.671875,-1.03125 -1.796875,0 -2.890625,2.25 -2.890625,2.765625 0,0.078125 0.015625,0.21875 0.25,0.21875 0.1875,0 0.21875,-0.09375 0.296875,-0.265625 C 4.09375,-9.1875 5.28125,-9.375 5.75,-9.375 c 0.515625,0 1.015625,0.1875 1.53125,0.40625 0.953125,0.390625 1.34375,0.390625 1.59375,0.390625 0.171875,0 0.265625,0 0.390625,-0.015625 C 8.453125,-7.625 7.109375,-6.4375 6,-5.421875 L 3.5,-3.125 c -1.515625,1.53125 -2.4375,3 -2.4375,3.171875 0,0.15625 0.125,0.203125 0.28125,0.203125 0.140625,0 0.171875,-0.03125 0.34375,-0.328125 0.390625,-0.609375 1.1875,-1.53125 2.109375,-1.53125 0.515625,0 0.765625,0.171875 1.265625,0.796875 0.46875,0.546875 0.890625,1.0625 1.671875,1.0625 2.4375,0 3.828125,-3.15625 3.828125,-3.71875 0,-0.09375 -0.03125,-0.25 -0.28125,-0.25 -0.1875,0 -0.21875,0.09375 -0.296875,0.34375 -0.546875,1.46875 -2,2.0625 -2.96875,2.0625 C 6.5,-1.3125 6,-1.484375 5.484375,-1.703125 c -1,-0.40625 -1.265625,-0.40625 -1.59375,-0.40625 -0.25,0 -0.515625,0 -0.75,0.109375 z m 0,0"
           id="path4-1" />
      </g>
    </g>
    <g
       fill="#000000"
       fill-opacity="1"
       id="g4"
       transform="matrix(0.352778,0,0,0.352778,-1.07791,-0.614583)">
      <g
         id="use3"
         transform="translate(13.267,16.382)">
        <path
           d="m 7.234375,-5.53125 c 0,-1.046875 -0.015625,-2.84375 -0.75,-4.21875 -0.625,-1.203125 -1.640625,-1.625 -2.546875,-1.625 -0.828125,0 -1.875,0.375 -2.53125,1.609375 -0.6875,1.296875 -0.75,2.890625 -0.75,4.234375 0,0.984375 0.015625,2.484375 0.546875,3.796875 0.75,1.765625 2.0625,2.015625 2.734375,2.015625 0.796875,0 2,-0.328125 2.703125,-1.96875 0.515625,-1.1875 0.59375,-2.578125 0.59375,-3.84375 z M 3.9375,0 C 2.84375,0 2.1875,-0.953125 1.953125,-2.25 1.75,-3.265625 1.75,-4.75 1.75,-5.71875 c 0,-1.328125 0,-2.421875 0.234375,-3.46875 0.328125,-1.46875 1.28125,-1.921875 1.953125,-1.921875 0.71875,0 1.625,0.46875 1.953125,1.875 C 6.109375,-8.25 6.125,-7.09375 6.125,-5.71875 c 0,1.125 0,2.5 -0.203125,3.515625 C 5.5625,-0.328125 4.546875,0 3.9375,0 Z m 0,0"
           id="path5-1" />
      </g>
    </g>
  </g>
  <g
     inkscape:label=""
     transform="translate(78.476002,49.864102)"
     id="g16">
    <g
       fill="#000000"
       fill-opacity="1"
       id="g8"
       transform="matrix(0.352778,0,0,0.352778,-0.868451,-0.704982)">
      <g
         id="use7"
         transform="translate(1.993,14.889)">
        <path
           d="m 5.921875,-1.046875 c 0.375,1.03125 1.453125,1.21875 2.109375,1.21875 1.296875,0 2.078125,-1.140625 2.5625,-2.328125 0.390625,-1 1.03125,-3.265625 1.03125,-4.28125 0,-1.046875 -0.53125,-1.15625 -0.6875,-1.15625 -0.421875,0 -0.796875,0.40625 -0.796875,0.765625 0,0.203125 0.125,0.3125 0.203125,0.390625 0.15625,0.15625 0.609375,0.625 0.609375,1.515625 0,0.578125 -0.484375,2.203125 -0.84375,3.015625 -0.484375,1.046875 -1.125,1.734375 -2.015625,1.734375 -0.96875,0 -1.28125,-0.71875 -1.28125,-1.515625 0,-0.5 0.15625,-1.109375 0.234375,-1.390625 L 7.765625,-5.96875 C 7.859375,-6.3125 8,-6.921875 8,-6.984375 8,-7.25 7.796875,-7.421875 7.546875,-7.421875 c -0.5,0 -0.625,0.4375 -0.734375,0.84375 C 6.640625,-5.90625 5.921875,-3 5.859375,-2.625 5.78125,-2.328125 5.78125,-2.140625 5.78125,-1.75 c 0,0.40625 -0.546875,1.0625 -0.5625,1.09375 -0.1875,0.1875 -0.46875,0.484375 -1,0.484375 -1.359375,0 -1.359375,-1.296875 -1.359375,-1.578125 0,-0.5625 0.125,-1.3125 0.890625,-3.359375 0.203125,-0.53125 0.296875,-0.765625 0.296875,-1.109375 0,-0.71875 -0.515625,-1.375 -1.359375,-1.375 -1.578125,0 -2.21875,2.5 -2.21875,2.640625 0,0.0625 0.0625,0.15625 0.1875,0.15625 0.15625,0 0.171875,-0.078125 0.234375,-0.3125 C 1.328125,-6.625 2,-7.25 2.640625,-7.25 c 0.171875,0 0.4375,0.015625 0.4375,0.5625 0,0.09375 0,0.453125 -0.28125,1.21875 -0.8125,2.140625 -0.984375,2.84375 -0.984375,3.5 0,1.8125 1.46875,2.140625 2.359375,2.140625 0.28125,0 1.0625,0 1.75,-1.21875 z m 0,0"
           id="path15" />
      </g>
    </g>
    <g
       fill="#000000"
       fill-opacity="1"
       id="g9"
       transform="matrix(0.352778,0,0,0.352778,-0.868451,-0.704982)">
      <g
         id="use8"
         transform="translate(14.042,17.471001)">
        <path
           d="m 5.359375,-3.828125 c 0,-0.984375 -0.0625,-1.953125 -0.5,-2.859375 -0.484375,-1 -1.34375,-1.265625 -1.9375,-1.265625 -0.6875,0 -1.53125,0.34375 -1.984375,1.34375 -0.328125,0.75 -0.453125,1.5 -0.453125,2.78125 0,1.15625 0.09375,2.03125 0.515625,2.890625 0.46875,0.90625 1.296875,1.1875 1.921875,1.1875 1.03125,0 1.625,-0.625 1.984375,-1.3125 0.421875,-0.890625 0.453125,-2.0625 0.453125,-2.765625 z m -2.4375,3.84375 C 2.53125,0.015625 1.75,-0.203125 1.53125,-1.5 c -0.125,-0.71875 -0.125,-1.625 -0.125,-2.46875 0,-0.984375 0,-1.859375 0.1875,-2.5625 0.203125,-0.8125 0.8125,-1.171875 1.328125,-1.171875 0.453125,0 1.140625,0.265625 1.375,1.296875 0.15625,0.6875 0.15625,1.625 0.15625,2.4375 0,0.796875 0,1.703125 -0.140625,2.4375 -0.21875,1.3125 -0.984375,1.546875 -1.390625,1.546875 z m 0,0"
           id="path16" />
      </g>
    </g>
    <g
       fill="#000000"
       fill-opacity="1"
       id="g10"
       transform="matrix(0.352778,0,0,0.352778,-0.868451,-0.704982)">
      <g
         id="use9"
         transform="translate(25.174999,14.889)">
        <path
           d="m 11.078125,-5.53125 c 0.25,0 0.515625,0 0.515625,-0.28125 C 11.59375,-6.125 11.296875,-6.125 11,-6.125 H 1.375 c -0.296875,0 -0.578125,0 -0.578125,0.3125 0,0.28125 0.25,0.28125 0.515625,0.28125 z M 11,-2.46875 c 0.296875,0 0.59375,0 0.59375,-0.296875 0,-0.296875 -0.265625,-0.296875 -0.515625,-0.296875 H 1.3125 c -0.265625,0 -0.515625,0 -0.515625,0.296875 0,0.296875 0.28125,0.296875 0.578125,0.296875 z m 0,0"
           id="path17" />
      </g>
    </g>
    <g
       fill="#000000"
       fill-opacity="1"
       id="g11"
       transform="matrix(0.352778,0,0,0.352778,-0.868451,-0.704982)">
      <g
         id="use10"
         transform="translate(42.352528,14.889)">
        <path
           d="M 5.8125,-2.1875 C 5.75,-1.90625 5.71875,-1.84375 5.5,-1.578125 4.78125,-0.671875 4.0625,-0.34375 3.53125,-0.34375 c -0.5625,0 -1.109375,-0.453125 -1.109375,-1.640625 0,-0.90625 0.515625,-2.84375 0.90625,-3.609375 0.5,-0.96875 1.265625,-1.65625 2,-1.65625 1.125,0 1.359375,1.40625 1.359375,1.515625 L 6.625,-5.5 Z M 6.890625,-6.453125 C 6.65625,-6.953125 6.1875,-7.59375 5.328125,-7.59375 3.4375,-7.59375 1.3125,-5.234375 1.3125,-2.671875 1.3125,-0.875 2.390625,0 3.5,0 4.40625,0 5.21875,-0.71875 5.53125,-1.0625 L 5.140625,0.484375 C 4.90625,1.421875 4.796875,1.859375 4.1875,2.46875 3.484375,3.171875 2.828125,3.171875 2.4375,3.171875 1.921875,3.171875 1.5,3.140625 1.0625,3 1.625,2.84375 1.75,2.359375 1.75,2.171875 1.75,1.890625 1.546875,1.625 1.171875,1.625 0.75,1.625 0.3125,1.96875 0.3125,2.53125 c 0,0.703125 0.703125,0.984375 2.171875,0.984375 2.21875,0 3.375,-1.4375 3.59375,-2.359375 l 1.90625,-7.71875 c 0.0625,-0.203125 0.0625,-0.234375 0.0625,-0.265625 0,-0.25 -0.1875,-0.4375 -0.453125,-0.4375 -0.40625,0 -0.65625,0.34375 -0.703125,0.8125 z m 0,0"
           id="path18" />
      </g>
    </g>
    <g
       fill="#000000"
       fill-opacity="1"
       id="g12"
       transform="matrix(0.352778,0,0,0.352778,-0.868451,-0.704982)">
      <g
         id="use11"
         transform="translate(51.044582,14.889)">
        <path
           d="m 5.265625,4.203125 c 0,-0.015625 0,-0.046875 -0.046875,-0.109375 -0.796875,-0.8125 -2.90625,-3.015625 -2.90625,-8.375 0,-5.375 2.078125,-7.5625 2.921875,-8.421875 0,-0.01563 0.03125,-0.0625 0.03125,-0.109375 0,-0.04687 -0.046875,-0.07813 -0.125,-0.07813 -0.1875,0 -1.640625,1.265625 -2.484375,3.15625 -0.859375,1.921875 -1.109375,3.78125 -1.109375,5.421875 0,1.25 0.125,3.34375 1.15625,5.5625 0.828125,1.796875 2.234375,3.0625 2.4375,3.0625 0.09375,0 0.125,-0.046875 0.125,-0.109375 z m 0,0"
           id="path19" />
      </g>
    </g>
    <g
       fill="#000000"
       fill-opacity="1"
       id="g13"
       transform="matrix(0.352778,0,0,0.352778,-0.868451,-0.704982)">
      <g
         id="use12"
         transform="translate(57.140556,14.889)">
        <path
           d="m 2.1875,-1.390625 c 0.734375,-0.84375 1.34375,-1.375 2.203125,-2.15625 C 5.421875,-4.4375 5.875,-4.875 6.109375,-5.125 7.3125,-6.3125 7.921875,-7.3125 7.921875,-7.453125 7.921875,-7.59375 7.78125,-7.59375 7.75,-7.59375 c -0.125,0 -0.15625,0.0625 -0.25,0.1875 -0.421875,0.75 -0.84375,1.109375 -1.28125,1.109375 -0.359375,0 -0.546875,-0.15625 -0.875,-0.578125 -0.375,-0.421875 -0.65625,-0.71875 -1.15625,-0.71875 -1.265625,0 -2.015625,1.5625 -2.015625,1.921875 0,0.0625 0.015625,0.15625 0.171875,0.15625 0.140625,0 0.15625,-0.0625 0.203125,-0.1875 0.296875,-0.6875 1.125,-0.8125 1.453125,-0.8125 0.359375,0 0.703125,0.125 1.0625,0.28125 0.65625,0.28125 0.921875,0.28125 1.109375,0.28125 0.109375,0 0.1875,0 0.265625,-0.015625 -0.5625,0.671875 -1.5,1.484375 -2.265625,2.203125 l -1.75,1.59375 c -1.046875,1.0625 -1.6875,2.078125 -1.6875,2.203125 0,0.109375 0.09375,0.140625 0.203125,0.140625 0.09375,0 0.109375,-0.015625 0.234375,-0.21875 C 1.453125,-0.484375 2,-1.125 2.640625,-1.125 3,-1.125 3.171875,-1 3.515625,-0.5625 3.84375,-0.1875 4.125,0.171875 4.6875,0.171875 c 1.6875,0 2.640625,-2.1875 2.640625,-2.578125 0,-0.078125 -0.015625,-0.171875 -0.1875,-0.171875 -0.125,0 -0.15625,0.0625 -0.203125,0.234375 -0.375,1.015625 -1.390625,1.4375 -2.0625,1.4375 -0.359375,0 -0.703125,-0.125 -1.0625,-0.28125 -0.703125,-0.28125 -0.890625,-0.28125 -1.109375,-0.28125 -0.171875,0 -0.359375,0 -0.515625,0.078125 z m 0,0"
           id="path20" />
      </g>
    </g>
    <g
       fill="#000000"
       fill-opacity="1"
       id="g14"
       transform="matrix(0.352778,0,0,0.352778,-0.868451,-0.704982)">
      <g
         id="use13"
         transform="translate(64.966003,17.471001)">
        <path
           d="m 5.359375,-3.828125 c 0,-0.984375 -0.0625,-1.953125 -0.5,-2.859375 -0.484375,-1 -1.34375,-1.265625 -1.9375,-1.265625 -0.6875,0 -1.53125,0.34375 -1.984375,1.34375 -0.328125,0.75 -0.453125,1.5 -0.453125,2.78125 0,1.15625 0.09375,2.03125 0.515625,2.890625 0.46875,0.90625 1.296875,1.1875 1.921875,1.1875 1.03125,0 1.625,-0.625 1.984375,-1.3125 0.421875,-0.890625 0.453125,-2.0625 0.453125,-2.765625 z m -2.4375,3.84375 C 2.53125,0.015625 1.75,-0.203125 1.53125,-1.5 c -0.125,-0.71875 -0.125,-1.625 -0.125,-2.46875 0,-0.984375 0,-1.859375 0.1875,-2.5625 0.203125,-0.8125 0.8125,-1.171875 1.328125,-1.171875 0.453125,0 1.140625,0.265625 1.375,1.296875 0.15625,0.6875 0.15625,1.625 0.15625,2.4375 0,0.796875 0,1.703125 -0.140625,2.4375 -0.21875,1.3125 -0.984375,1.546875 -1.390625,1.546875 z m 0,0"
           id="path21" />
      </g>
    </g>
    <g
       fill="#000000"
       fill-opacity="1"
       id="g15"
       transform="matrix(0.352778,0,0,0.352778,-0.868451,-0.704982)">
      <g
         id="use14"
         transform="translate(71.317001,14.889)">
        <path
           d="m 4.53125,-4.28125 c 0,-1.25 -0.125,-3.34375 -1.15625,-5.5625 -0.828125,-1.796875 -2.234375,-3.046875 -2.4375,-3.046875 -0.0625,0 -0.125,0.01563 -0.125,0.09375 0,0.03125 0.015625,0.0625 0.03125,0.09375 0.828125,0.859375 2.921875,3.046875 2.921875,8.390625 0,5.375 -2.078125,7.5625 -2.921875,8.421875 C 0.828125,4.15625 0.8125,4.171875 0.8125,4.203125 0.8125,4.28125 0.875,4.3125 0.9375,4.3125 1.125,4.3125 2.578125,3.03125 3.421875,1.140625 4.28125,-0.78125 4.53125,-2.640625 4.53125,-4.28125 Z m 0,0"
           id="path22" />
      </g>
    </g>
  </g>
  <g
     inkscape:label=""
     transform="translate(49.205937,15.792842)"
     id="g17">
    <g
       fill="#000000"
       fill-opacity="1"
       id="g7-1"
       transform="matrix(0.352778,0,0,0.352778,-0.868451,-0.704982)">
      <g
         id="use6"
         transform="translate(1.993,14.889)">
        <path
           d="m 5.921875,-1.046875 c 0.375,1.03125 1.453125,1.21875 2.109375,1.21875 1.296875,0 2.078125,-1.140625 2.5625,-2.328125 0.390625,-1 1.03125,-3.265625 1.03125,-4.28125 0,-1.046875 -0.53125,-1.15625 -0.6875,-1.15625 -0.421875,0 -0.796875,0.40625 -0.796875,0.765625 0,0.203125 0.125,0.3125 0.203125,0.390625 0.15625,0.15625 0.609375,0.625 0.609375,1.515625 0,0.578125 -0.484375,2.203125 -0.84375,3.015625 -0.484375,1.046875 -1.125,1.734375 -2.015625,1.734375 -0.96875,0 -1.28125,-0.71875 -1.28125,-1.515625 0,-0.5 0.15625,-1.109375 0.234375,-1.390625 L 7.765625,-5.96875 C 7.859375,-6.3125 8,-6.921875 8,-6.984375 8,-7.25 7.796875,-7.421875 7.546875,-7.421875 c -0.5,0 -0.625,0.4375 -0.734375,0.84375 C 6.640625,-5.90625 5.921875,-3 5.859375,-2.625 5.78125,-2.328125 5.78125,-2.140625 5.78125,-1.75 c 0,0.40625 -0.546875,1.0625 -0.5625,1.09375 -0.1875,0.1875 -0.46875,0.484375 -1,0.484375 -1.359375,0 -1.359375,-1.296875 -1.359375,-1.578125 0,-0.5625 0.125,-1.3125 0.890625,-3.359375 0.203125,-0.53125 0.296875,-0.765625 0.296875,-1.109375 0,-0.71875 -0.515625,-1.375 -1.359375,-1.375 -1.578125,0 -2.21875,2.5 -2.21875,2.640625 0,0.0625 0.0625,0.15625 0.1875,0.15625 0.15625,0 0.171875,-0.078125 0.234375,-0.3125 C 1.328125,-6.625 2,-7.25 2.640625,-7.25 c 0.171875,0 0.4375,0.015625 0.4375,0.5625 0,0.09375 0,0.453125 -0.28125,1.21875 -0.8125,2.140625 -0.984375,2.84375 -0.984375,3.5 0,1.8125 1.46875,2.140625 2.359375,2.140625 0.28125,0 1.0625,0 1.75,-1.21875 z m 0,0"
           id="path12" />
      </g>
    </g>
    <g
       fill="#000000"
       fill-opacity="1"
       id="g8-1"
       transform="matrix(0.352778,0,0,0.352778,-0.868451,-0.704982)">
      <g
         id="use7-1"
         transform="translate(19.292755,14.889)">
        <path
           d="m 11.078125,-5.53125 c 0.25,0 0.515625,0 0.515625,-0.28125 C 11.59375,-6.125 11.296875,-6.125 11,-6.125 H 1.375 c -0.296875,0 -0.578125,0 -0.578125,0.3125 0,0.28125 0.25,0.28125 0.515625,0.28125 z M 11,-2.46875 c 0.296875,0 0.59375,0 0.59375,-0.296875 0,-0.296875 -0.265625,-0.296875 -0.515625,-0.296875 H 1.3125 c -0.265625,0 -0.515625,0 -0.515625,0.296875 0,0.296875 0.28125,0.296875 0.578125,0.296875 z m 0,0"
           id="path13" />
      </g>
    </g>
    <g
       fill="#000000"
       fill-opacity="1"
       id="g9-1"
       transform="matrix(0.352778,0,0,0.352778,-0.868451,-0.704982)">
      <g
         id="use8-1"
         transform="translate(36.470284,14.889)">
        <path
           d="M 5.8125,-2.1875 C 5.75,-1.90625 5.71875,-1.84375 5.5,-1.578125 4.78125,-0.671875 4.0625,-0.34375 3.53125,-0.34375 c -0.5625,0 -1.109375,-0.453125 -1.109375,-1.640625 0,-0.90625 0.515625,-2.84375 0.90625,-3.609375 0.5,-0.96875 1.265625,-1.65625 2,-1.65625 1.125,0 1.359375,1.40625 1.359375,1.515625 L 6.625,-5.5 Z M 6.890625,-6.453125 C 6.65625,-6.953125 6.1875,-7.59375 5.328125,-7.59375 3.4375,-7.59375 1.3125,-5.234375 1.3125,-2.671875 1.3125,-0.875 2.390625,0 3.5,0 4.40625,0 5.21875,-0.71875 5.53125,-1.0625 L 5.140625,0.484375 C 4.90625,1.421875 4.796875,1.859375 4.1875,2.46875 3.484375,3.171875 2.828125,3.171875 2.4375,3.171875 1.921875,3.171875 1.5,3.140625 1.0625,3 1.625,2.84375 1.75,2.359375 1.75,2.171875 1.75,1.890625 1.546875,1.625 1.171875,1.625 0.75,1.625 0.3125,1.96875 0.3125,2.53125 c 0,0.703125 0.703125,0.984375 2.171875,0.984375 2.21875,0 3.375,-1.4375 3.59375,-2.359375 l 1.90625,-7.71875 c 0.0625,-0.203125 0.0625,-0.234375 0.0625,-0.265625 0,-0.25 -0.1875,-0.4375 -0.453125,-0.4375 -0.40625,0 -0.65625,0.34375 -0.703125,0.8125 z m 0,0"
           id="path14" />
      </g>
    </g>
    <g
       fill="#000000"
       fill-opacity="1"
       id="g10-1"
       transform="matrix(0.352778,0,0,0.352778,-0.868451,-0.704982)">
      <g
         id="use9-1"
         transform="translate(45.145123,14.889)">
        <path
           d="m 5.265625,4.203125 c 0,-0.015625 0,-0.046875 -0.046875,-0.109375 -0.796875,-0.8125 -2.90625,-3.015625 -2.90625,-8.375 0,-5.375 2.078125,-7.5625 2.921875,-8.421875 0,-0.01563 0.03125,-0.0625 0.03125,-0.109375 0,-0.04687 -0.046875,-0.07813 -0.125,-0.07813 -0.1875,0 -1.640625,1.265625 -2.484375,3.15625 -0.859375,1.921875 -1.109375,3.78125 -1.109375,5.421875 0,1.25 0.125,3.34375 1.15625,5.5625 0.828125,1.796875 2.234375,3.0625 2.4375,3.0625 0.09375,0 0.125,-0.046875 0.125,-0.109375 z m 0,0"
           id="path15-1" />
      </g>
    </g>
    <g
       fill="#000000"
       fill-opacity="1"
       id="g11-1"
       transform="matrix(0.352778,0,0,0.352778,-0.868451,-0.704982)">
      <g
         id="use10-1"
         transform="translate(51.241096,14.889)">
        <path
           d="m 2.1875,-1.390625 c 0.734375,-0.84375 1.34375,-1.375 2.203125,-2.15625 C 5.421875,-4.4375 5.875,-4.875 6.109375,-5.125 7.3125,-6.3125 7.921875,-7.3125 7.921875,-7.453125 7.921875,-7.59375 7.78125,-7.59375 7.75,-7.59375 c -0.125,0 -0.15625,0.0625 -0.25,0.1875 -0.421875,0.75 -0.84375,1.109375 -1.28125,1.109375 -0.359375,0 -0.546875,-0.15625 -0.875,-0.578125 -0.375,-0.421875 -0.65625,-0.71875 -1.15625,-0.71875 -1.265625,0 -2.015625,1.5625 -2.015625,1.921875 0,0.0625 0.015625,0.15625 0.171875,0.15625 0.140625,0 0.15625,-0.0625 0.203125,-0.1875 0.296875,-0.6875 1.125,-0.8125 1.453125,-0.8125 0.359375,0 0.703125,0.125 1.0625,0.28125 0.65625,0.28125 0.921875,0.28125 1.109375,0.28125 0.109375,0 0.1875,0 0.265625,-0.015625 -0.5625,0.671875 -1.5,1.484375 -2.265625,2.203125 l -1.75,1.59375 c -1.046875,1.0625 -1.6875,2.078125 -1.6875,2.203125 0,0.109375 0.09375,0.140625 0.203125,0.140625 0.09375,0 0.109375,-0.015625 0.234375,-0.21875 C 1.453125,-0.484375 2,-1.125 2.640625,-1.125 3,-1.125 3.171875,-1 3.515625,-0.5625 3.84375,-0.1875 4.125,0.171875 4.6875,0.171875 c 1.6875,0 2.640625,-2.1875 2.640625,-2.578125 0,-0.078125 -0.015625,-0.171875 -0.1875,-0.171875 -0.125,0 -0.15625,0.0625 -0.203125,0.234375 -0.375,1.015625 -1.390625,1.4375 -2.0625,1.4375 -0.359375,0 -0.703125,-0.125 -1.0625,-0.28125 -0.703125,-0.28125 -0.890625,-0.28125 -1.109375,-0.28125 -0.171875,0 -0.359375,0 -0.515625,0.078125 z m 0,0"
           id="path16-1" />
      </g>
    </g>
    <g
       fill="#000000"
       fill-opacity="1"
       id="g12-1"
       transform="matrix(0.352778,0,0,0.352778,-0.868451,-0.704982)">
      <g
         id="use11-1"
         transform="translate(59.847073,14.889)">
        <path
           d="m 4.53125,-4.28125 c 0,-1.25 -0.125,-3.34375 -1.15625,-5.5625 -0.828125,-1.796875 -2.234375,-3.046875 -2.4375,-3.046875 -0.0625,0 -0.125,0.01563 -0.125,0.09375 0,0.03125 0.015625,0.0625 0.03125,0.09375 0.828125,0.859375 2.921875,3.046875 2.921875,8.390625 0,5.375 -2.078125,7.5625 -2.921875,8.421875 C 0.828125,4.15625 0.8125,4.171875 0.8125,4.203125 0.8125,4.28125 0.875,4.3125 0.9375,4.3125 1.125,4.3125 2.578125,3.03125 3.421875,1.140625 4.28125,-0.78125 4.53125,-2.640625 4.53125,-4.28125 Z m 0,0"
           id="path17-1" />
      </g>
    </g>
  </g>
  <g
     inkscape:label=""
     transform="translate(118.42217,11.687619)"
     id="g19">
    <g
       fill="#000000"
       fill-opacity="1"
       id="g7-1-1-1"
       transform="matrix(0.352778,0,0,0.352778,-0.978694,-0.704982)">
      <g
         id="use6-1-1"
         transform="translate(1.993,14.889)">
        <path
           d="M 3.25,-0.84375 C 2.234375,-1.234375 1.65625,-2.015625 1.65625,-3.3125 c 0,-2.359375 1.734375,-5.5 3.859375,-6.71875 C 5.8125,-9.75 6.21875,-9.75 6.546875,-9.75 c 0.421875,0 1.484375,0 1.484375,-0.5 0,-0.40625 -0.78125,-0.421875 -1.328125,-0.421875 -0.34375,0 -0.640625,0 -1.09375,0.1875 -0.09375,-0.21875 -0.15625,-0.46875 -0.15625,-0.71875 0,-0.3125 0.078125,-0.5625 0.078125,-0.609375 0,-0.109375 -0.09375,-0.171875 -0.171875,-0.171875 -0.28125,0 -0.28125,0.640625 -0.28125,0.78125 0,0.15625 0,0.515625 0.203125,0.875 -2,1.03125 -4.5,4.25 -4.5,7.46875 0,2.359375 1.5625,2.90625 2.453125,3.21875 0.234375,0.078125 0.78125,0.265625 1,0.34375 0.703125,0.25 1.375,0.46875 1.375,1.296875 0,0.5 -0.359375,1.171875 -1,1.171875 C 4.265625,3.171875 3.8125,3.046875 3.375,2.625 3.3125,2.546875 3.265625,2.515625 3.1875,2.515625 c -0.140625,0 -0.171875,0.140625 -0.171875,0.171875 0,0.171875 0.734375,0.828125 1.59375,0.828125 1.109375,0 1.859375,-1.15625 1.859375,-2.046875 0,-1.203125 -1,-1.5625 -1.625,-1.765625 z m 2.640625,-9.359375 c 0.25,-0.125 0.5,-0.125 0.796875,-0.125 0.546875,0 0.59375,0.01563 0.9375,0.09375 -0.203125,0.09375 -0.34375,0.140625 -1.0625,0.140625 -0.359375,0 -0.484375,0 -0.671875,-0.109375 z m 0,0"
           id="path12-1-1" />
      </g>
    </g>
    <g
       fill="#000000"
       fill-opacity="1"
       id="g8-1-1-1"
       transform="matrix(0.352778,0,0,0.352778,-0.978694,-0.704982)">
      <g
         id="use7-1-1-1"
         transform="translate(15.433063,14.889)">
        <path
           d="m 11.078125,-5.53125 c 0.25,0 0.515625,0 0.515625,-0.28125 C 11.59375,-6.125 11.296875,-6.125 11,-6.125 H 1.375 c -0.296875,0 -0.578125,0 -0.578125,0.3125 0,0.28125 0.25,0.28125 0.515625,0.28125 z M 11,-2.46875 c 0.296875,0 0.59375,0 0.59375,-0.296875 0,-0.296875 -0.265625,-0.296875 -0.515625,-0.296875 H 1.3125 c -0.265625,0 -0.515625,0 -0.515625,0.296875 0,0.296875 0.28125,0.296875 0.578125,0.296875 z m 0,0"
           id="path13-1-1" />
      </g>
    </g>
    <g
       fill="#000000"
       fill-opacity="1"
       id="g9-1-1-1"
       transform="matrix(0.352778,0,0,0.352778,-0.978694,-0.704982)">
      <g
         id="use8-1-1-1"
         transform="translate(32.610588,14.889)">
        <path
           d="m 7.671875,-6.921875 c 0.359375,0 0.484375,0 0.484375,-0.328125 0,-0.171875 -0.125,-0.171875 -0.4375,-0.171875 H 6.3125 c 0.328125,-1.765625 0.578125,-3 0.71875,-3.546875 0.09375,-0.40625 0.453125,-0.8125 0.90625,-0.8125 0.359375,0 0.71875,0.15625 0.890625,0.3125 -0.671875,0.0625 -0.875,0.5625 -0.875,0.859375 0,0.34375 0.265625,0.546875 0.59375,0.546875 0.34375,0 0.859375,-0.28125 0.859375,-0.9375 0,-0.71875 -0.734375,-1.125 -1.484375,-1.125 -0.734375,0 -1.46875,0.546875 -1.8125,1.21875 -0.3125,0.609375 -0.484375,1.234375 -0.875,3.484375 h -1.15625 c -0.328125,0 -0.5,0 -0.5,0.3125 0,0.1875 0.109375,0.1875 0.453125,0.1875 H 5.125 c -0.296875,1.59375 -1.015625,5.5 -1.40625,7.328125 -0.296875,1.5 -0.546875,2.765625 -1.40625,2.765625 -0.0625,0 -0.5625,0 -0.859375,-0.328125 0.875,-0.078125 0.875,-0.828125 0.875,-0.84375 0,-0.34375 -0.265625,-0.546875 -0.59375,-0.546875 -0.34375,0 -0.859375,0.28125 -0.859375,0.9375 0,0.75 0.765625,1.125 1.4375,1.125 1.75,0 2.46875,-3.15625 2.65625,-4.015625 0.3125,-1.328125 1.15625,-5.90625 1.25,-6.421875 z m 0,0"
           id="path14-1-1" />
      </g>
    </g>
    <g
       fill="#000000"
       fill-opacity="1"
       id="g10-1-1-1"
       transform="matrix(0.352778,0,0,0.352778,-0.978694,-0.704982)">
      <g
         id="use9-1-1-1"
         transform="translate(42.760788,14.889)">
        <path
           d="m 5.265625,4.203125 c 0,-0.015625 0,-0.046875 -0.046875,-0.109375 -0.796875,-0.8125 -2.90625,-3.015625 -2.90625,-8.375 0,-5.375 2.078125,-7.5625 2.921875,-8.421875 0,-0.01563 0.03125,-0.0625 0.03125,-0.109375 0,-0.04687 -0.046875,-0.07813 -0.125,-0.07813 -0.1875,0 -1.640625,1.265625 -2.484375,3.15625 -0.859375,1.921875 -1.109375,3.78125 -1.109375,5.421875 0,1.25 0.125,3.34375 1.15625,5.5625 0.828125,1.796875 2.234375,3.0625 2.4375,3.0625 0.09375,0 0.125,-0.046875 0.125,-0.109375 z m 0,0"
           id="path15-1-1-1" />
      </g>
    </g>
    <g
       fill="#000000"
       fill-opacity="1"
       id="g11-1-1-1"
       transform="matrix(0.352778,0,0,0.352778,-0.978694,-0.704982)">
      <g
         id="use10-1-1-1"
         transform="translate(48.856762,14.889)">
        <path
           d="m 2.1875,-1.390625 c 0.734375,-0.84375 1.34375,-1.375 2.203125,-2.15625 C 5.421875,-4.4375 5.875,-4.875 6.109375,-5.125 7.3125,-6.3125 7.921875,-7.3125 7.921875,-7.453125 7.921875,-7.59375 7.78125,-7.59375 7.75,-7.59375 c -0.125,0 -0.15625,0.0625 -0.25,0.1875 -0.421875,0.75 -0.84375,1.109375 -1.28125,1.109375 -0.359375,0 -0.546875,-0.15625 -0.875,-0.578125 -0.375,-0.421875 -0.65625,-0.71875 -1.15625,-0.71875 -1.265625,0 -2.015625,1.5625 -2.015625,1.921875 0,0.0625 0.015625,0.15625 0.171875,0.15625 0.140625,0 0.15625,-0.0625 0.203125,-0.1875 0.296875,-0.6875 1.125,-0.8125 1.453125,-0.8125 0.359375,0 0.703125,0.125 1.0625,0.28125 0.65625,0.28125 0.921875,0.28125 1.109375,0.28125 0.109375,0 0.1875,0 0.265625,-0.015625 -0.5625,0.671875 -1.5,1.484375 -2.265625,2.203125 l -1.75,1.59375 c -1.046875,1.0625 -1.6875,2.078125 -1.6875,2.203125 0,0.109375 0.09375,0.140625 0.203125,0.140625 0.09375,0 0.109375,-0.015625 0.234375,-0.21875 C 1.453125,-0.484375 2,-1.125 2.640625,-1.125 3,-1.125 3.171875,-1 3.515625,-0.5625 3.84375,-0.1875 4.125,0.171875 4.6875,0.171875 c 1.6875,0 2.640625,-2.1875 2.640625,-2.578125 0,-0.078125 -0.015625,-0.171875 -0.1875,-0.171875 -0.125,0 -0.15625,0.0625 -0.203125,0.234375 -0.375,1.015625 -1.390625,1.4375 -2.0625,1.4375 -0.359375,0 -0.703125,-0.125 -1.0625,-0.28125 -0.703125,-0.28125 -0.890625,-0.28125 -1.109375,-0.28125 -0.171875,0 -0.359375,0 -0.515625,0.078125 z m 0,0"
           id="path16-1-1-1" />
      </g>
    </g>
    <g
       fill="#000000"
       fill-opacity="1"
       id="g12-1-1-1"
       transform="matrix(0.352778,0,0,0.352778,-0.978694,-0.704982)">
      <g
         id="use11-1-1-1"
         transform="translate(57.445526,14.889)">
        <path
           d="m 4.53125,-4.28125 c 0,-1.25 -0.125,-3.34375 -1.15625,-5.5625 -0.828125,-1.796875 -2.234375,-3.046875 -2.4375,-3.046875 -0.0625,0 -0.125,0.01563 -0.125,0.09375 0,0.03125 0.015625,0.0625 0.03125,0.09375 0.828125,0.859375 2.921875,3.046875 2.921875,8.390625 0,5.375 -2.078125,7.5625 -2.921875,8.421875 C 0.828125,4.15625 0.8125,4.171875 0.8125,4.203125 0.8125,4.28125 0.875,4.3125 0.9375,4.3125 1.125,4.3125 2.578125,3.03125 3.421875,1.140625 4.28125,-0.78125 4.53125,-2.640625 4.53125,-4.28125 Z m 0,0"
           id="path17-1-1-1" />
      </g>
    </g>
  </g>
  <g
     inkscape:label=""
     transform="translate(142.52506,43.691843)"
     id="g21">
    <g
       fill="#000000"
       fill-opacity="1"
       id="g8-1-1"
       transform="matrix(0.352778,0,0,0.352778,-1.01177,-0.704982)">
      <g
         id="use7-1-1"
         transform="translate(1.993,14.889)">
        <path
           d="m 7.671875,-6.921875 c 0.359375,0 0.484375,0 0.484375,-0.328125 0,-0.171875 -0.125,-0.171875 -0.4375,-0.171875 H 6.3125 c 0.328125,-1.765625 0.578125,-3 0.71875,-3.546875 0.09375,-0.40625 0.453125,-0.8125 0.90625,-0.8125 0.359375,0 0.71875,0.15625 0.890625,0.3125 -0.671875,0.0625 -0.875,0.5625 -0.875,0.859375 0,0.34375 0.265625,0.546875 0.59375,0.546875 0.34375,0 0.859375,-0.28125 0.859375,-0.9375 0,-0.71875 -0.734375,-1.125 -1.484375,-1.125 -0.734375,0 -1.46875,0.546875 -1.8125,1.21875 -0.3125,0.609375 -0.484375,1.234375 -0.875,3.484375 h -1.15625 c -0.328125,0 -0.5,0 -0.5,0.3125 0,0.1875 0.109375,0.1875 0.453125,0.1875 H 5.125 c -0.296875,1.59375 -1.015625,5.5 -1.40625,7.328125 -0.296875,1.5 -0.546875,2.765625 -1.40625,2.765625 -0.0625,0 -0.5625,0 -0.859375,-0.328125 0.875,-0.078125 0.875,-0.828125 0.875,-0.84375 0,-0.34375 -0.265625,-0.546875 -0.59375,-0.546875 -0.34375,0 -0.859375,0.28125 -0.859375,0.9375 0,0.75 0.765625,1.125 1.4375,1.125 1.75,0 2.46875,-3.15625 2.65625,-4.015625 0.3125,-1.328125 1.15625,-5.90625 1.25,-6.421875 z m 0,0"
           id="path20-1" />
      </g>
    </g>
    <g
       fill="#000000"
       fill-opacity="1"
       id="g9-1-1"
       transform="matrix(0.352778,0,0,0.352778,-1.01177,-0.704982)">
      <g
         id="use8-1-1"
         transform="translate(12.1432,14.889)">
        <path
           d="m 5.265625,4.203125 c 0,-0.015625 0,-0.046875 -0.046875,-0.109375 -0.796875,-0.8125 -2.90625,-3.015625 -2.90625,-8.375 0,-5.375 2.078125,-7.5625 2.921875,-8.421875 0,-0.01563 0.03125,-0.0625 0.03125,-0.109375 0,-0.04687 -0.046875,-0.07813 -0.125,-0.07813 -0.1875,0 -1.640625,1.265625 -2.484375,3.15625 -0.859375,1.921875 -1.109375,3.78125 -1.109375,5.421875 0,1.25 0.125,3.34375 1.15625,5.5625 0.828125,1.796875 2.234375,3.0625 2.4375,3.0625 0.09375,0 0.125,-0.046875 0.125,-0.109375 z m 0,0"
           id="path21-1" />
      </g>
    </g>
    <g
       fill="#000000"
       fill-opacity="1"
       id="g10-1-1"
       transform="matrix(0.352778,0,0,0.352778,-1.01177,-0.704982)">
      <g
         id="use9-1-1"
         transform="translate(18.239174,14.889)">
        <path
           d="m 2.1875,-1.390625 c 0.734375,-0.84375 1.34375,-1.375 2.203125,-2.15625 C 5.421875,-4.4375 5.875,-4.875 6.109375,-5.125 7.3125,-6.3125 7.921875,-7.3125 7.921875,-7.453125 7.921875,-7.59375 7.78125,-7.59375 7.75,-7.59375 c -0.125,0 -0.15625,0.0625 -0.25,0.1875 -0.421875,0.75 -0.84375,1.109375 -1.28125,1.109375 -0.359375,0 -0.546875,-0.15625 -0.875,-0.578125 -0.375,-0.421875 -0.65625,-0.71875 -1.15625,-0.71875 -1.265625,0 -2.015625,1.5625 -2.015625,1.921875 0,0.0625 0.015625,0.15625 0.171875,0.15625 0.140625,0 0.15625,-0.0625 0.203125,-0.1875 0.296875,-0.6875 1.125,-0.8125 1.453125,-0.8125 0.359375,0 0.703125,0.125 1.0625,0.28125 0.65625,0.28125 0.921875,0.28125 1.109375,0.28125 0.109375,0 0.1875,0 0.265625,-0.015625 -0.5625,0.671875 -1.5,1.484375 -2.265625,2.203125 l -1.75,1.59375 c -1.046875,1.0625 -1.6875,2.078125 -1.6875,2.203125 0,0.109375 0.09375,0.140625 0.203125,0.140625 0.09375,0 0.109375,-0.015625 0.234375,-0.21875 C 1.453125,-0.484375 2,-1.125 2.640625,-1.125 3,-1.125 3.171875,-1 3.515625,-0.5625 3.84375,-0.1875 4.125,0.171875 4.6875,0.171875 c 1.6875,0 2.640625,-2.1875 2.640625,-2.578125 0,-0.078125 -0.015625,-0.171875 -0.1875,-0.171875 -0.125,0 -0.15625,0.0625 -0.203125,0.234375 -0.375,1.015625 -1.390625,1.4375 -2.0625,1.4375 -0.359375,0 -0.703125,-0.125 -1.0625,-0.28125 -0.703125,-0.28125 -0.890625,-0.28125 -1.109375,-0.28125 -0.171875,0 -0.359375,0 -0.515625,0.078125 z m 0,0"
           id="path22-1" />
      </g>
    </g>
    <g
       fill="#000000"
       fill-opacity="1"
       id="g11-1-1"
       transform="matrix(0.352778,0,0,0.352778,-1.01177,-0.704982)">
      <g
         id="use10-1-1"
         transform="translate(26.066,17.471001)">
        <path
           d="m 5.359375,-3.828125 c 0,-0.984375 -0.0625,-1.953125 -0.5,-2.859375 -0.484375,-1 -1.34375,-1.265625 -1.9375,-1.265625 -0.6875,0 -1.53125,0.34375 -1.984375,1.34375 -0.328125,0.75 -0.453125,1.5 -0.453125,2.78125 0,1.15625 0.09375,2.03125 0.515625,2.890625 0.46875,0.90625 1.296875,1.1875 1.921875,1.1875 1.03125,0 1.625,-0.625 1.984375,-1.3125 0.421875,-0.890625 0.453125,-2.0625 0.453125,-2.765625 z m -2.4375,3.84375 C 2.53125,0.015625 1.75,-0.203125 1.53125,-1.5 c -0.125,-0.71875 -0.125,-1.625 -0.125,-2.46875 0,-0.984375 0,-1.859375 0.1875,-2.5625 0.203125,-0.8125 0.8125,-1.171875 1.328125,-1.171875 0.453125,0 1.140625,0.265625 1.375,1.296875 0.15625,0.6875 0.15625,1.625 0.15625,2.4375 0,0.796875 0,1.703125 -0.140625,2.4375 -0.21875,1.3125 -0.984375,1.546875 -1.390625,1.546875 z m 0,0"
           id="path23" />
      </g>
    </g>
    <g
       fill="#000000"
       fill-opacity="1"
       id="g12-1-1"
       transform="matrix(0.352778,0,0,0.352778,-1.01177,-0.704982)">
      <g
         id="use11-1-1"
         transform="translate(32.417999,14.889)">
        <path
           d="m 4.53125,-4.28125 c 0,-1.25 -0.125,-3.34375 -1.15625,-5.5625 -0.828125,-1.796875 -2.234375,-3.046875 -2.4375,-3.046875 -0.0625,0 -0.125,0.01563 -0.125,0.09375 0,0.03125 0.015625,0.0625 0.03125,0.09375 0.828125,0.859375 2.921875,3.046875 2.921875,8.390625 0,5.375 -2.078125,7.5625 -2.921875,8.421875 C 0.828125,4.15625 0.8125,4.171875 0.8125,4.203125 0.8125,4.28125 0.875,4.3125 0.9375,4.3125 1.125,4.3125 2.578125,3.03125 3.421875,1.140625 4.28125,-0.78125 4.53125,-2.640625 4.53125,-4.28125 Z m 0,0"
           id="path24" />
      </g>
    </g>
    <g
       fill="#000000"
       fill-opacity="1"
       id="g13-1"
       transform="matrix(0.352778,0,0,0.352778,-1.01177,-0.704982)">
      <g
         id="use12-1"
         transform="translate(43.299854,14.889)">
        <path
           d="m 11.078125,-5.53125 c 0.25,0 0.515625,0 0.515625,-0.28125 C 11.59375,-6.125 11.296875,-6.125 11,-6.125 H 1.375 c -0.296875,0 -0.578125,0 -0.578125,0.3125 0,0.28125 0.25,0.28125 0.515625,0.28125 z M 11,-2.46875 c 0.296875,0 0.59375,0 0.59375,-0.296875 0,-0.296875 -0.265625,-0.296875 -0.515625,-0.296875 H 1.3125 c -0.265625,0 -0.515625,0 -0.515625,0.296875 0,0.296875 0.28125,0.296875 0.578125,0.296875 z m 0,0"
           id="path25" />
      </g>
    </g>
    <g
       fill="#000000"
       fill-opacity="1"
       id="g14-1"
       transform="matrix(0.352778,0,0,0.352778,-1.01177,-0.704982)">
      <g
         id="use13-1"
         transform="translate(60.477379,14.889)">
        <path
           d="m 7.671875,-6.921875 c 0.359375,0 0.484375,0 0.484375,-0.328125 0,-0.171875 -0.125,-0.171875 -0.4375,-0.171875 H 6.3125 c 0.328125,-1.765625 0.578125,-3 0.71875,-3.546875 0.09375,-0.40625 0.453125,-0.8125 0.90625,-0.8125 0.359375,0 0.71875,0.15625 0.890625,0.3125 -0.671875,0.0625 -0.875,0.5625 -0.875,0.859375 0,0.34375 0.265625,0.546875 0.59375,0.546875 0.34375,0 0.859375,-0.28125 0.859375,-0.9375 0,-0.71875 -0.734375,-1.125 -1.484375,-1.125 -0.734375,0 -1.46875,0.546875 -1.8125,1.21875 -0.3125,0.609375 -0.484375,1.234375 -0.875,3.484375 h -1.15625 c -0.328125,0 -0.5,0 -0.5,0.3125 0,0.1875 0.109375,0.1875 0.453125,0.1875 H 5.125 c -0.296875,1.59375 -1.015625,5.5 -1.40625,7.328125 -0.296875,1.5 -0.546875,2.765625 -1.40625,2.765625 -0.0625,0 -0.5625,0 -0.859375,-0.328125 0.875,-0.078125 0.875,-0.828125 0.875,-0.84375 0,-0.34375 -0.265625,-0.546875 -0.59375,-0.546875 -0.34375,0 -0.859375,0.28125 -0.859375,0.9375 0,0.75 0.765625,1.125 1.4375,1.125 1.75,0 2.46875,-3.15625 2.65625,-4.015625 0.3125,-1.328125 1.15625,-5.90625 1.25,-6.421875 z m 0,0"
           id="path26" />
      </g>
    </g>
    <g
       fill="#000000"
       fill-opacity="1"
       id="g15-1"
       transform="matrix(0.352778,0,0,0.352778,-1.01177,-0.704982)">
      <g
         id="use14-1"
         transform="translate(70.610367,14.889)">
        <path
           d="m 5.265625,4.203125 c 0,-0.015625 0,-0.046875 -0.046875,-0.109375 -0.796875,-0.8125 -2.90625,-3.015625 -2.90625,-8.375 0,-5.375 2.078125,-7.5625 2.921875,-8.421875 0,-0.01563 0.03125,-0.0625 0.03125,-0.109375 0,-0.04687 -0.046875,-0.07813 -0.125,-0.07813 -0.1875,0 -1.640625,1.265625 -2.484375,3.15625 -0.859375,1.921875 -1.109375,3.78125 -1.109375,5.421875 0,1.25 0.125,3.34375 1.15625,5.5625 0.828125,1.796875 2.234375,3.0625 2.4375,3.0625 0.09375,0 0.125,-0.046875 0.125,-0.109375 z m 0,0"
           id="path27" />
      </g>
    </g>
    <g
       fill="#000000"
       fill-opacity="1"
       id="g16-1"
       transform="matrix(0.352778,0,0,0.352778,-1.01177,-0.704982)">
      <g
         id="use15"
         transform="translate(76.706337,14.889)">
        <path
           d="M 5.8125,-2.1875 C 5.75,-1.90625 5.71875,-1.84375 5.5,-1.578125 4.78125,-0.671875 4.0625,-0.34375 3.53125,-0.34375 c -0.5625,0 -1.109375,-0.453125 -1.109375,-1.640625 0,-0.90625 0.515625,-2.84375 0.90625,-3.609375 0.5,-0.96875 1.265625,-1.65625 2,-1.65625 1.125,0 1.359375,1.40625 1.359375,1.515625 L 6.625,-5.5 Z M 6.890625,-6.453125 C 6.65625,-6.953125 6.1875,-7.59375 5.328125,-7.59375 3.4375,-7.59375 1.3125,-5.234375 1.3125,-2.671875 1.3125,-0.875 2.390625,0 3.5,0 4.40625,0 5.21875,-0.71875 5.53125,-1.0625 L 5.140625,0.484375 C 4.90625,1.421875 4.796875,1.859375 4.1875,2.46875 3.484375,3.171875 2.828125,3.171875 2.4375,3.171875 1.921875,3.171875 1.5,3.140625 1.0625,3 1.625,2.84375 1.75,2.359375 1.75,2.171875 1.75,1.890625 1.546875,1.625 1.171875,1.625 0.75,1.625 0.3125,1.96875 0.3125,2.53125 c 0,0.703125 0.703125,0.984375 2.171875,0.984375 2.21875,0 3.375,-1.4375 3.59375,-2.359375 l 1.90625,-7.71875 c 0.0625,-0.203125 0.0625,-0.234375 0.0625,-0.265625 0,-0.25 -0.1875,-0.4375 -0.453125,-0.4375 -0.40625,0 -0.65625,0.34375 -0.703125,0.8125 z m 0,0"
           id="path28" />
      </g>
    </g>
    <g
       fill="#000000"
       fill-opacity="1"
       id="g17-1"
       transform="matrix(0.352778,0,0,0.352778,-1.01177,-0.704982)">
      <g
         id="use16"
         transform="translate(85.398392,14.889)">
        <path
           d="m 5.265625,4.203125 c 0,-0.015625 0,-0.046875 -0.046875,-0.109375 -0.796875,-0.8125 -2.90625,-3.015625 -2.90625,-8.375 0,-5.375 2.078125,-7.5625 2.921875,-8.421875 0,-0.01563 0.03125,-0.0625 0.03125,-0.109375 0,-0.04687 -0.046875,-0.07813 -0.125,-0.07813 -0.1875,0 -1.640625,1.265625 -2.484375,3.15625 -0.859375,1.921875 -1.109375,3.78125 -1.109375,5.421875 0,1.25 0.125,3.34375 1.15625,5.5625 0.828125,1.796875 2.234375,3.0625 2.4375,3.0625 0.09375,0 0.125,-0.046875 0.125,-0.109375 z m 0,0"
           id="path29" />
      </g>
    </g>
    <g
       fill="#000000"
       fill-opacity="1"
       id="g18"
       transform="matrix(0.352778,0,0,0.352778,-1.01177,-0.704982)">
      <g
         id="use17"
         transform="translate(91.49437,14.889)">
        <path
           d="m 2.1875,-1.390625 c 0.734375,-0.84375 1.34375,-1.375 2.203125,-2.15625 C 5.421875,-4.4375 5.875,-4.875 6.109375,-5.125 7.3125,-6.3125 7.921875,-7.3125 7.921875,-7.453125 7.921875,-7.59375 7.78125,-7.59375 7.75,-7.59375 c -0.125,0 -0.15625,0.0625 -0.25,0.1875 -0.421875,0.75 -0.84375,1.109375 -1.28125,1.109375 -0.359375,0 -0.546875,-0.15625 -0.875,-0.578125 -0.375,-0.421875 -0.65625,-0.71875 -1.15625,-0.71875 -1.265625,0 -2.015625,1.5625 -2.015625,1.921875 0,0.0625 0.015625,0.15625 0.171875,0.15625 0.140625,0 0.15625,-0.0625 0.203125,-0.1875 0.296875,-0.6875 1.125,-0.8125 1.453125,-0.8125 0.359375,0 0.703125,0.125 1.0625,0.28125 0.65625,0.28125 0.921875,0.28125 1.109375,0.28125 0.109375,0 0.1875,0 0.265625,-0.015625 -0.5625,0.671875 -1.5,1.484375 -2.265625,2.203125 l -1.75,1.59375 c -1.046875,1.0625 -1.6875,2.078125 -1.6875,2.203125 0,0.109375 0.09375,0.140625 0.203125,0.140625 0.09375,0 0.109375,-0.015625 0.234375,-0.21875 C 1.453125,-0.484375 2,-1.125 2.640625,-1.125 3,-1.125 3.171875,-1 3.515625,-0.5625 3.84375,-0.1875 4.125,0.171875 4.6875,0.171875 c 1.6875,0 2.640625,-2.1875 2.640625,-2.578125 0,-0.078125 -0.015625,-0.171875 -0.1875,-0.171875 -0.125,0 -0.15625,0.0625 -0.203125,0.234375 -0.375,1.015625 -1.390625,1.4375 -2.0625,1.4375 -0.359375,0 -0.703125,-0.125 -1.0625,-0.28125 -0.703125,-0.28125 -0.890625,-0.28125 -1.109375,-0.28125 -0.171875,0 -0.359375,0 -0.515625,0.078125 z m 0,0"
           id="path30" />
      </g>
    </g>
    <g
       fill="#000000"
       fill-opacity="1"
       id="g19-1"
       transform="matrix(0.352778,0,0,0.352778,-1.01177,-0.704982)">
      <g
         id="use18"
         transform="translate(99.330002,17.471001)">
        <path
           d="m 5.359375,-3.828125 c 0,-0.984375 -0.0625,-1.953125 -0.5,-2.859375 -0.484375,-1 -1.34375,-1.265625 -1.9375,-1.265625 -0.6875,0 -1.53125,0.34375 -1.984375,1.34375 -0.328125,0.75 -0.453125,1.5 -0.453125,2.78125 0,1.15625 0.09375,2.03125 0.515625,2.890625 0.46875,0.90625 1.296875,1.1875 1.921875,1.1875 1.03125,0 1.625,-0.625 1.984375,-1.3125 0.421875,-0.890625 0.453125,-2.0625 0.453125,-2.765625 z m -2.4375,3.84375 C 2.53125,0.015625 1.75,-0.203125 1.53125,-1.5 c -0.125,-0.71875 -0.125,-1.625 -0.125,-2.46875 0,-0.984375 0,-1.859375 0.1875,-2.5625 0.203125,-0.8125 0.8125,-1.171875 1.328125,-1.171875 0.453125,0 1.140625,0.265625 1.375,1.296875 0.15625,0.6875 0.15625,1.625 0.15625,2.4375 0,0.796875 0,1.703125 -0.140625,2.4375 -0.21875,1.3125 -0.984375,1.546875 -1.390625,1.546875 z m 0,0"
           id="path31" />
      </g>
    </g>
    <g
       fill="#000000"
       fill-opacity="1"
       id="g20"
       transform="matrix(0.352778,0,0,0.352778,-1.01177,-0.704982)">
      <g
         id="use19"
         transform="translate(105.681,14.889)">
        <path
           d="m 4.53125,-4.28125 c 0,-1.25 -0.125,-3.34375 -1.15625,-5.5625 -0.828125,-1.796875 -2.234375,-3.046875 -2.4375,-3.046875 -0.0625,0 -0.125,0.01563 -0.125,0.09375 0,0.03125 0.015625,0.0625 0.03125,0.09375 0.828125,0.859375 2.921875,3.046875 2.921875,8.390625 0,5.375 -2.078125,7.5625 -2.921875,8.421875 C 0.828125,4.15625 0.8125,4.171875 0.8125,4.203125 0.8125,4.28125 0.875,4.3125 0.9375,4.3125 1.125,4.3125 2.578125,3.03125 3.421875,1.140625 4.28125,-0.78125 4.53125,-2.640625 4.53125,-4.28125 Z m 0,0"
           id="path32" />
      </g>
      <g
         id="use20"
         transform="translate(111.77697,14.889)">
        <path
           d="m 4.53125,-4.28125 c 0,-1.25 -0.125,-3.34375 -1.15625,-5.5625 -0.828125,-1.796875 -2.234375,-3.046875 -2.4375,-3.046875 -0.0625,0 -0.125,0.01563 -0.125,0.09375 0,0.03125 0.015625,0.0625 0.03125,0.09375 0.828125,0.859375 2.921875,3.046875 2.921875,8.390625 0,5.375 -2.078125,7.5625 -2.921875,8.421875 C 0.828125,4.15625 0.8125,4.171875 0.8125,4.203125 0.8125,4.28125 0.875,4.3125 0.9375,4.3125 1.125,4.3125 2.578125,3.03125 3.421875,1.140625 4.28125,-0.78125 4.53125,-2.640625 4.53125,-4.28125 Z m 0,0"
           id="path33" />
      </g>
    </g>
  </g>
</svg>
