<?xml version="1.0" encoding="UTF-8" standalone="no"?>
<svg
   width="90mm"
   height="97mm"
   viewBox="0 0 90 97"
   version="1.1"
   id="svg1"
   sodipodi:docname="2026-05-08.svg"
   inkscape:version="1.4.3 (0d15f75042, 2025-12-25)"
   inkscape:export-filename="2026-05-08.pdf"
   inkscape:export-xdpi="96"
   inkscape:export-ydpi="96"
   xmlns:inkscape="http://www.inkscape.org/namespaces/inkscape"
   xmlns:sodipodi="http://sodipodi.sourceforge.net/DTD/sodipodi-0.dtd"
   xmlns="http://www.w3.org/2000/svg"
   xmlns:svg="http://www.w3.org/2000/svg">
  <sodipodi:namedview
     id="namedview1"
     pagecolor="#ffffff"
     bordercolor="#000000"
     borderopacity="0.25"
     inkscape:showpageshadow="2"
     inkscape:pageopacity="0.0"
     inkscape:pagecheckerboard="0"
     inkscape:deskcolor="#d1d1d1"
     inkscape:document-units="mm"
     showgrid="true"
     inkscape:zoom="1.5833696"
     inkscape:cx="186.94309"
     inkscape:cy="305.36143"
     inkscape:window-width="941"
     inkscape:window-height="1136"
     inkscape:window-x="0"
     inkscape:window-y="0"
     inkscape:window-maximized="1"
     inkscape:current-layer="svg1">
    <inkscape:grid
       id="grid1"
       units="mm"
       originx="0"
       originy="0"
       spacingx="0.99999998"
       spacingy="1"
       empcolor="#0099e5"
       empopacity="0.30196078"
       color="#0099e5"
       opacity="0.14901961"
       empspacing="5"
       enabled="true"
       visible="true" />
  </sodipodi:namedview>
  <defs
     id="defs1">
    <marker
       style="overflow:visible"
       id="marker3"
       refX="0"
       refY="0"
       orient="auto-start-reverse"
       inkscape:stockid="Triangle arrow"
       markerWidth="1"
       markerHeight="1"
       viewBox="0 0 1 1"
       inkscape:isstock="true"
       inkscape:collect="always"
       preserveAspectRatio="xMidYMid">
      <path
         transform="scale(0.5)"
         style="fill:context-stroke;fill-rule:evenodd;stroke:context-stroke;stroke-width:1pt"
         d="M 5.77,0 -2.88,5 V -5 Z"
         id="path3" />
    </marker>
    <marker
       style="overflow:visible"
       id="Triangle"
       refX="0"
       refY="0"
       orient="auto-start-reverse"
       inkscape:stockid="Triangle arrow"
       markerWidth="1"
       markerHeight="1"
       viewBox="0 0 1 1"
       inkscape:isstock="true"
       inkscape:collect="always"
       preserveAspectRatio="xMidYMid">
      <path
         transform="scale(0.5)"
         style="fill:context-stroke;fill-rule:evenodd;stroke:context-stroke;stroke-width:1pt"
         d="M 5.77,0 -2.88,5 V -5 Z"
         id="path135" />
    </marker>
    <inkscape:path-effect
       effect="spiro"
       id="path-effect2"
       is_visible="true"
       lpeversion="1" />
    <inkscape:path-effect
       effect="spiro"
       id="path-effect1"
       is_visible="true"
       lpeversion="1" />
    <g
       id="g9062">
      <g
         id="g4543">
        <path
           d="m 7.578125,-6.921875 c 0,-0.03125 -0.015625,-0.109375 -0.109375,-0.109375 -0.03125,0 -0.046875,0.015625 -0.15625,0.125 L 6.625,-6.140625 C 6.53125,-6.28125 6.078125,-7.03125 4.96875,-7.03125 2.734375,-7.03125 0.5,-4.828125 0.5,-2.515625 0.5,-0.875 1.671875,0.21875 3.203125,0.21875 c 0.859375,0 1.625,-0.390625 2.15625,-0.859375 0.921875,-0.8125 1.09375,-1.71875 1.09375,-1.75 C 6.453125,-2.5 6.34375,-2.5 6.328125,-2.5 c -0.0625,0 -0.109375,0.03125 -0.125,0.109375 -0.09375,0.28125 -0.328125,1 -1.015625,1.578125 -0.6875,0.546875 -1.3125,0.71875 -1.828125,0.71875 -0.890625,0 -1.953125,-0.515625 -1.953125,-2.0625 0,-0.578125 0.203125,-2.1875 1.203125,-3.359375 0.609375,-0.703125 1.546875,-1.203125 2.4375,-1.203125 1.015625,0 1.609375,0.765625 1.609375,1.921875 0,0.40625 -0.03125,0.40625 -0.03125,0.515625 0,0.09375 0.109375,0.09375 0.140625,0.09375 0.125,0 0.125,-0.015625 0.1875,-0.203125 z m 0,0"
           id="path3856" />
      </g>
      <g
         id="g7200">
        <path
           d="m 1.640625,-1.40625 c 0,-0.046875 0.171875,-0.671875 0.171875,-0.703125 0.015625,-0.0625 0.21875,-0.40625 0.453125,-0.578125 0.0625,-0.046875 0.25,-0.1875 0.5625,-0.1875 0.0625,0 0.234375,0 0.375,0.09375 -0.21875,0.0625 -0.296875,0.265625 -0.296875,0.390625 0,0.140625 0.109375,0.25 0.265625,0.25 0.171875,0 0.390625,-0.125 0.390625,-0.421875 0,-0.359375 -0.375,-0.515625 -0.734375,-0.515625 -0.359375,0 -0.671875,0.15625 -0.984375,0.5 -0.125,-0.421875 -0.546875,-0.5 -0.71875,-0.5 -0.25,0 -0.421875,0.171875 -0.546875,0.359375 -0.15625,0.265625 -0.25,0.671875 -0.25,0.71875 0,0.078125 0.09375,0.078125 0.125,0.078125 0.09375,0 0.09375,-0.015625 0.140625,-0.203125 0.109375,-0.421875 0.25,-0.75 0.515625,-0.75 0.1875,0 0.234375,0.15625 0.234375,0.34375 0,0.125 -0.0625,0.390625 -0.125,0.578125 -0.046875,0.1875 -0.109375,0.46875 -0.140625,0.625 L 0.84375,-0.4375 C 0.828125,-0.34375 0.78125,-0.171875 0.78125,-0.15625 0.78125,0 0.90625,0.0625 1.015625,0.0625 1.125,0.0625 1.265625,0 1.3125,-0.125 1.328125,-0.171875 1.40625,-0.484375 1.453125,-0.65625 Z m 0,0"
           id="path3271" />
      </g>
    </g>
    <g
       id="g3538">
      <g
         id="g2956">
        <path
           d="m 12.859375,-11.96875 c 0,-0.15625 -0.125,-0.15625 -0.15625,-0.15625 -0.03125,0 -0.09375,0 -0.234375,0.171875 L 11.28125,-10.5 c -0.609375,-1.03125 -1.546875,-1.625 -2.84375,-1.625 -3.71875,0 -7.578125,3.78125 -7.578125,7.8125 0,2.890625 2.015625,4.671875 4.53125,4.671875 1.375,0 2.578125,-0.578125 3.578125,-1.421875 1.5,-1.265625 1.953125,-2.9375 1.953125,-3.0625 0,-0.15625 -0.140625,-0.15625 -0.1875,-0.15625 -0.15625,0 -0.171875,0.09375 -0.21875,0.171875 -0.78125,2.6875 -3.109375,3.96875 -4.828125,3.96875 -1.828125,0 -3.421875,-1.171875 -3.421875,-3.609375 0,-0.5625 0.171875,-3.546875 2.125,-5.8125 0.953125,-1.09375 2.5625,-2.0625 4.203125,-2.0625 1.890625,0 2.734375,1.5625 2.734375,3.328125 0,0.4375 -0.04687,0.828125 -0.04687,0.890625 0,0.15625 0.171875,0.15625 0.21875,0.15625 0.1875,0 0.203125,-0.015625 0.28125,-0.328125 z m 0,0"
           id="path4604" />
      </g>
      <g
         id="g3089">
        <path
           d="m 0.953125,-0.640625 c -0.03125,0.15625 -0.09375,0.40625 -0.09375,0.46875 0,0.1875 0.15625,0.296875 0.3125,0.296875 0.140625,0 0.328125,-0.09375 0.40625,-0.3125 0.03125,-0.046875 0.390625,-1.53125 0.4375,-1.71875 0.09375,-0.359375 0.28125,-1.125 0.34375,-1.421875 C 2.40625,-3.46875 2.71875,-3.984375 2.984375,-4.21875 3.0625,-4.296875 3.375,-4.578125 3.84375,-4.578125 c 0.296875,0 0.453125,0.125 0.46875,0.125 -0.328125,0.0625 -0.578125,0.3125 -0.578125,0.609375 0,0.171875 0.125,0.375 0.421875,0.375 0.296875,0 0.59375,-0.25 0.59375,-0.640625 0,-0.390625 -0.34375,-0.71875 -0.90625,-0.71875 -0.703125,0 -1.1875,0.546875 -1.390625,0.84375 -0.09375,-0.484375 -0.484375,-0.84375 -0.984375,-0.84375 -0.515625,0 -0.71875,0.4375 -0.8125,0.625 -0.203125,0.375 -0.34375,1.03125 -0.34375,1.0625 0,0.109375 0.109375,0.109375 0.140625,0.109375 0.109375,0 0.109375,-0.015625 0.171875,-0.25 0.1875,-0.78125 0.40625,-1.296875 0.796875,-1.296875 0.1875,0 0.34375,0.078125 0.34375,0.5 0,0.234375 -0.03125,0.34375 -0.171875,0.921875 z m 0,0"
           id="path1527" />
      </g>
    </g>
    <g
       id="g4990">
      <g
         id="g2027">
        <path
           d="m 6.703125,-7.046875 c -0.53125,0.109375 -0.8125,0.484375 -0.8125,0.859375 0,0.421875 0.328125,0.5625 0.5625,0.5625 0.484375,0 0.875,-0.421875 0.875,-0.9375 0,-0.546875 -0.53125,-1.03125 -1.390625,-1.03125 -0.6875,0 -1.484375,0.3125 -2.203125,1.359375 -0.125,-0.90625 -0.8125,-1.359375 -1.5,-1.359375 -0.671875,0 -1.015625,0.515625 -1.21875,0.890625 -0.296875,0.625 -0.546875,1.65625 -0.546875,1.75 0,0.0625 0.0625,0.15625 0.1875,0.15625 0.140625,0 0.15625,-0.03125 0.25,-0.421875 C 1.171875,-6.25 1.5,-7.25 2.1875,-7.25 c 0.40625,0 0.53125,0.296875 0.53125,0.796875 0,0.375 -0.171875,1.046875 -0.296875,1.578125 l -0.46875,1.859375 C 1.875,-2.6875 1.6875,-1.90625 1.59375,-1.59375 c -0.109375,0.4375 -0.296875,1.25 -0.296875,1.328125 0,0.25 0.1875,0.4375 0.4375,0.4375 0.1875,0 0.515625,-0.125 0.625,-0.46875 0.046875,-0.140625 0.6875,-2.734375 0.796875,-3.125 0.078125,-0.390625 0.1875,-0.75 0.265625,-1.125 C 3.5,-4.78125 3.5625,-5.0625 3.609375,-5.28125 3.671875,-5.4375 4.125,-6.28125 4.5625,-6.65625 4.765625,-6.859375 5.21875,-7.25 5.921875,-7.25 c 0.28125,0 0.546875,0.046875 0.78125,0.203125 z m 0,0"
           id="path6127" />
      </g>
      <g
         id="g5234">
        <path
           d="m 4.875,-2.46875 c 0,-0.078125 -0.078125,-0.15625 -0.171875,-0.15625 -0.15625,0 -0.171875,0.0625 -0.265625,0.359375 -0.4375,1.5625 -1.15625,2.09375 -1.71875,2.09375 -0.203125,0 -0.453125,-0.046875 -0.453125,-0.5625 0,-0.46875 0.21875,-0.984375 0.40625,-1.5 L 3.875,-5.4375 c 0.046875,-0.140625 0.171875,-0.453125 0.171875,-0.78125 0,-0.71875 -0.515625,-1.375 -1.359375,-1.375 -1.578125,0 -2.21875,2.5 -2.21875,2.640625 0,0.0625 0.0625,0.15625 0.1875,0.15625 0.15625,0 0.171875,-0.078125 0.234375,-0.3125 C 1.3125,-6.5625 1.96875,-7.25 2.640625,-7.25 c 0.15625,0 0.4375,0.015625 0.4375,0.5625 0,0.453125 -0.21875,1.015625 -0.359375,1.40625 L 1.515625,-2.078125 C 1.40625,-1.8125 1.3125,-1.53125 1.3125,-1.21875 c 0,0.765625 0.53125,1.390625 1.359375,1.390625 C 4.25,0.171875 4.875,-2.34375 4.875,-2.46875 Z M 4.734375,-10.75 c 0,-0.25 -0.203125,-0.5625 -0.578125,-0.5625 -0.40625,0 -0.84375,0.375 -0.84375,0.828125 0,0.421875 0.359375,0.5625 0.5625,0.5625 0.46875,0 0.859375,-0.4375 0.859375,-0.828125 z m 0,0"
           id="path5963" />
      </g>
    </g>
    <g
       id="g5005">
      <g
         id="g7353">
        <path
           d="m 11.34375,-3.953125 c 0.296875,0 0.609375,0 0.609375,-0.359375 0,-0.34375 -0.3125,-0.34375 -0.609375,-0.34375 h -9.3125 c -0.296875,0 -0.609375,0 -0.609375,0.34375 0,0.359375 0.3125,0.359375 0.609375,0.359375 z m 0,0"
           id="path4674" />
      </g>
      <g
         id="g2633">
        <path
           d="m 6.703125,-7.046875 c -0.53125,0.109375 -0.8125,0.484375 -0.8125,0.859375 0,0.421875 0.328125,0.5625 0.5625,0.5625 0.484375,0 0.875,-0.421875 0.875,-0.9375 0,-0.546875 -0.53125,-1.03125 -1.390625,-1.03125 -0.6875,0 -1.484375,0.3125 -2.203125,1.359375 -0.125,-0.90625 -0.8125,-1.359375 -1.5,-1.359375 -0.671875,0 -1.015625,0.515625 -1.21875,0.890625 -0.296875,0.625 -0.546875,1.65625 -0.546875,1.75 0,0.0625 0.0625,0.15625 0.1875,0.15625 0.140625,0 0.15625,-0.03125 0.25,-0.421875 C 1.171875,-6.25 1.5,-7.25 2.1875,-7.25 c 0.40625,0 0.53125,0.296875 0.53125,0.796875 0,0.375 -0.171875,1.046875 -0.296875,1.578125 l -0.46875,1.859375 C 1.875,-2.6875 1.6875,-1.90625 1.59375,-1.59375 c -0.109375,0.4375 -0.296875,1.25 -0.296875,1.328125 0,0.25 0.1875,0.4375 0.4375,0.4375 0.1875,0 0.515625,-0.125 0.625,-0.46875 0.046875,-0.140625 0.6875,-2.734375 0.796875,-3.125 0.078125,-0.390625 0.1875,-0.75 0.265625,-1.125 C 3.5,-4.78125 3.5625,-5.0625 3.609375,-5.28125 3.671875,-5.4375 4.125,-6.28125 4.5625,-6.65625 4.765625,-6.859375 5.21875,-7.25 5.921875,-7.25 c 0.28125,0 0.546875,0.046875 0.78125,0.203125 z m 0,0"
           id="path57" />
      </g>
      <g
         id="g5264">
        <path
           d="m 4.875,-2.46875 c 0,-0.078125 -0.078125,-0.15625 -0.171875,-0.15625 -0.15625,0 -0.171875,0.0625 -0.265625,0.359375 -0.4375,1.5625 -1.15625,2.09375 -1.71875,2.09375 -0.203125,0 -0.453125,-0.046875 -0.453125,-0.5625 0,-0.46875 0.21875,-0.984375 0.40625,-1.5 L 3.875,-5.4375 c 0.046875,-0.140625 0.171875,-0.453125 0.171875,-0.78125 0,-0.71875 -0.515625,-1.375 -1.359375,-1.375 -1.578125,0 -2.21875,2.5 -2.21875,2.640625 0,0.0625 0.0625,0.15625 0.1875,0.15625 0.15625,0 0.171875,-0.078125 0.234375,-0.3125 C 1.3125,-6.5625 1.96875,-7.25 2.640625,-7.25 c 0.15625,0 0.4375,0.015625 0.4375,0.5625 0,0.453125 -0.21875,1.015625 -0.359375,1.40625 L 1.515625,-2.078125 C 1.40625,-1.8125 1.3125,-1.53125 1.3125,-1.21875 c 0,0.765625 0.53125,1.390625 1.359375,1.390625 C 4.25,0.171875 4.875,-2.34375 4.875,-2.46875 Z M 4.734375,-10.75 c 0,-0.25 -0.203125,-0.5625 -0.578125,-0.5625 -0.40625,0 -0.84375,0.375 -0.84375,0.828125 0,0.421875 0.359375,0.5625 0.5625,0.5625 0.46875,0 0.859375,-0.4375 0.859375,-0.828125 z m 0,0"
           id="path2395" />
      </g>
    </g>
    <g
       id="g552">
      <g
         id="g5641">
        <path
           d="m 11.34375,-3.953125 c 0.296875,0 0.609375,0 0.609375,-0.359375 0,-0.34375 -0.3125,-0.34375 -0.609375,-0.34375 h -9.3125 c -0.296875,0 -0.609375,0 -0.609375,0.34375 0,0.359375 0.3125,0.359375 0.609375,0.359375 z m 0,0"
           id="path4643" />
      </g>
      <g
         id="g6504">
        <path
           d="M 7.1875,-2.671875 H 6.875 c -0.171875,1.21875 -0.3125,1.4375 -0.390625,1.53125 C 6.40625,-1 5.171875,-1 4.921875,-1 H 1.625 c 0.609375,-0.671875 1.8125,-1.890625 3.28125,-3.3125 1.046875,-0.984375 2.28125,-2.15625 2.28125,-3.859375 0,-2.03125 -1.625,-3.203125 -3.4375,-3.203125 -1.890625,0 -3.046875,1.65625 -3.046875,3.21875 0,0.671875 0.5,0.75 0.703125,0.75 0.171875,0 0.6875,-0.09375 0.6875,-0.703125 0,-0.53125 -0.4375,-0.6875 -0.6875,-0.6875 -0.09375,0 -0.203125,0.015625 -0.265625,0.046875 0.328125,-1.453125 1.328125,-2.1875 2.375,-2.1875 1.5,0 2.46875,1.1875 2.46875,2.765625 0,1.484375 -0.875,2.78125 -1.859375,3.90625 l -3.421875,3.875 V 0 h 6.0625 z m 0,0"
           id="path719" />
      </g>
    </g>
    <g
       id="g2585">
      <g
         id="g4509">
        <path
           d="m 11.34375,-3.953125 c 0.296875,0 0.609375,0 0.609375,-0.359375 0,-0.34375 -0.3125,-0.34375 -0.609375,-0.34375 h -9.3125 c -0.296875,0 -0.609375,0 -0.609375,0.34375 0,0.359375 0.3125,0.359375 0.609375,0.359375 z m 0,0"
           id="path3222" />
      </g>
      <g
         id="g2596">
        <path
           d="m 4.578125,-11 c 0,-0.359375 -0.015625,-0.375 -0.25,-0.375 -0.671875,0.796875 -1.6875,1.0625 -2.65625,1.09375 -0.046875,0 -0.140625,0 -0.15625,0.03125 C 1.5,-10.203125 1.5,-10.171875 1.5,-9.8125 c 0.53125,0 1.421875,-0.109375 2.109375,-0.515625 V -1.25 c 0,0.59375 -0.03125,0.796875 -1.515625,0.796875 H 1.578125 V 0 c 0.828125,-0.015625 1.6875,-0.03125 2.515625,-0.03125 0.828125,0 1.6875,0.015625 2.515625,0.03125 V -0.453125 H 6.09375 c -1.484375,0 -1.515625,-0.1875 -1.515625,-0.796875 z m 0,0"
           id="path2546" />
      </g>
    </g>
  </defs>
  <path
     style="fill:#3092dc;fill-opacity:0;stroke:#000000;stroke-width:0.38657;stroke-linecap:round;stroke-linejoin:round;stroke-miterlimit:3.5;stroke-dasharray:none;stroke-dashoffset:0.133039;stroke-opacity:1;marker-end:url(#marker3);paint-order:markers stroke fill"
     d="M 85.217285,89.983674 85.072849,10.110525"
     id="path1"
     inkscape:path-effect="#path-effect1"
     inkscape:original-d="M 85.217285,89.983674 C 84.976559,63.455584 85.024702,36.783055 85.072849,10.110525"
     transform="matrix(1.052471,0,0,0.91329561,-40.664954,-3.0869382)" />
  <path
     style="fill:#000000;fill-opacity:0;stroke:#000000;stroke-width:0.387001;stroke-linecap:round;stroke-linejoin:round;stroke-miterlimit:3.5;stroke-dashoffset:0.133039;stroke-opacity:1;marker-end:url(#Triangle);paint-order:markers stroke fill"
     d="M 49.974883,55.319016 121.03743,55.030144"
     id="path2"
     inkscape:path-effect="#path-effect2"
     inkscape:original-d="M 49.974883,55.319016 C 73.566109,55.030144 97.301768,55.030144 121.03743,55.030144"
     transform="translate(-36.197305,-10.892707)" />
  <path
     style="fill:#000000;fill-opacity:0;stroke:#c42d2d;stroke-width:0.379;stroke-linecap:round;stroke-linejoin:round;stroke-miterlimit:3.5;stroke-dasharray:none;stroke-dashoffset:0.133039;stroke-opacity:1;paint-order:markers stroke fill"
     id="path4"
     sodipodi:type="arc"
     sodipodi:cx="48.875542"
     sodipodi:cy="44.209656"
     sodipodi:rx="26.598"
     sodipodi:ry="26.504023"
     sodipodi:start="1.5707963"
     sodipodi:end="4.712389"
     sodipodi:arc-type="slice"
     d="m 48.875542,70.713678 a 26.598,26.504023 0 0 1 -23.034544,-13.252011 26.598,26.504023 0 0 1 0,-26.504023 26.598,26.504023 0 0 1 23.034544,-13.252011 v 26.504023 z" />
  <g
     inkscape:label=""
     transform="translate(26.480489,15.754263)"
     id="g1">
    <g
       fill="#000000"
       fill-opacity="1"
       id="g3"
       transform="matrix(0.352778,0,0,0.352778,-1.00625,-0.57538)">
      <g
         id="use2"
         transform="translate(1.993,13.756)">
        <path
           d="m 12.859375,-11.96875 c 0,-0.15625 -0.125,-0.15625 -0.15625,-0.15625 -0.03125,0 -0.09375,0 -0.234375,0.171875 L 11.28125,-10.5 c -0.609375,-1.03125 -1.546875,-1.625 -2.84375,-1.625 -3.71875,0 -7.578125,3.78125 -7.578125,7.8125 0,2.890625 2.015625,4.671875 4.53125,4.671875 1.375,0 2.578125,-0.578125 3.578125,-1.421875 1.5,-1.265625 1.953125,-2.9375 1.953125,-3.0625 0,-0.15625 -0.140625,-0.15625 -0.1875,-0.15625 -0.15625,0 -0.171875,0.09375 -0.21875,0.171875 -0.78125,2.6875 -3.109375,3.96875 -4.828125,3.96875 -1.828125,0 -3.421875,-1.171875 -3.421875,-3.609375 0,-0.5625 0.171875,-3.546875 2.125,-5.8125 0.953125,-1.09375 2.5625,-2.0625 4.203125,-2.0625 1.890625,0 2.734375,1.5625 2.734375,3.328125 0,0.4375 -0.04687,0.828125 -0.04687,0.890625 0,0.15625 0.171875,0.15625 0.21875,0.15625 0.1875,0 0.203125,-0.015625 0.28125,-0.328125 z m 0,0"
           id="path4-1" />
      </g>
    </g>
    <g
       fill="#000000"
       fill-opacity="1"
       id="g4"
       transform="matrix(0.352778,0,0,0.352778,-1.00625,-0.57538)">
      <g
         id="use3"
         transform="translate(14.053,16.337999)">
        <path
           d="m 0.953125,-0.640625 c -0.03125,0.15625 -0.09375,0.40625 -0.09375,0.46875 0,0.1875 0.15625,0.296875 0.3125,0.296875 0.140625,0 0.328125,-0.09375 0.40625,-0.3125 0.03125,-0.046875 0.390625,-1.53125 0.4375,-1.71875 0.09375,-0.359375 0.28125,-1.125 0.34375,-1.421875 C 2.40625,-3.46875 2.71875,-3.984375 2.984375,-4.21875 3.0625,-4.296875 3.375,-4.578125 3.84375,-4.578125 c 0.296875,0 0.453125,0.125 0.46875,0.125 -0.328125,0.0625 -0.578125,0.3125 -0.578125,0.609375 0,0.171875 0.125,0.375 0.421875,0.375 0.296875,0 0.59375,-0.25 0.59375,-0.640625 0,-0.390625 -0.34375,-0.71875 -0.90625,-0.71875 -0.703125,0 -1.1875,0.546875 -1.390625,0.84375 -0.09375,-0.484375 -0.484375,-0.84375 -0.984375,-0.84375 -0.515625,0 -0.71875,0.4375 -0.8125,0.625 -0.203125,0.375 -0.34375,1.03125 -0.34375,1.0625 0,0.109375 0.109375,0.109375 0.140625,0.109375 0.109375,0 0.109375,-0.015625 0.171875,-0.25 0.1875,-0.78125 0.40625,-1.296875 0.796875,-1.296875 0.1875,0 0.34375,0.078125 0.34375,0.5 0,0.234375 -0.03125,0.34375 -0.171875,0.921875 z m 0,0"
           id="path5" />
      </g>
    </g>
  </g>
  <g
     inkscape:label=""
     transform="translate(51.284996,13.743086)"
     id="g2">
    <g
       fill="#000000"
       fill-opacity="1"
       id="g3-1"
       transform="matrix(0.352778,0,0,0.352778,-0.868451,-0.693385)">
      <g
         id="use2-1"
         transform="translate(1.993,13.278)">
        <path
           d="m 6.703125,-7.046875 c -0.53125,0.109375 -0.8125,0.484375 -0.8125,0.859375 0,0.421875 0.328125,0.5625 0.5625,0.5625 0.484375,0 0.875,-0.421875 0.875,-0.9375 0,-0.546875 -0.53125,-1.03125 -1.390625,-1.03125 -0.6875,0 -1.484375,0.3125 -2.203125,1.359375 -0.125,-0.90625 -0.8125,-1.359375 -1.5,-1.359375 -0.671875,0 -1.015625,0.515625 -1.21875,0.890625 -0.296875,0.625 -0.546875,1.65625 -0.546875,1.75 0,0.0625 0.0625,0.15625 0.1875,0.15625 0.140625,0 0.15625,-0.03125 0.25,-0.421875 C 1.171875,-6.25 1.5,-7.25 2.1875,-7.25 c 0.40625,0 0.53125,0.296875 0.53125,0.796875 0,0.375 -0.171875,1.046875 -0.296875,1.578125 l -0.46875,1.859375 C 1.875,-2.6875 1.6875,-1.90625 1.59375,-1.59375 c -0.109375,0.4375 -0.296875,1.25 -0.296875,1.328125 0,0.25 0.1875,0.4375 0.4375,0.4375 0.1875,0 0.515625,-0.125 0.625,-0.46875 0.046875,-0.140625 0.6875,-2.734375 0.796875,-3.125 0.078125,-0.390625 0.1875,-0.75 0.265625,-1.125 C 3.5,-4.78125 3.5625,-5.0625 3.609375,-5.28125 3.671875,-5.4375 4.125,-6.28125 4.5625,-6.65625 4.765625,-6.859375 5.21875,-7.25 5.921875,-7.25 c 0.28125,0 0.546875,0.046875 0.78125,0.203125 z m 0,0"
           id="path4-1-1" />
      </g>
    </g>
    <g
       fill="#000000"
       fill-opacity="1"
       id="g4-1"
       transform="matrix(0.352778,0,0,0.352778,-0.868451,-0.693385)">
      <g
         id="use3-1"
         transform="translate(10.054972,13.278)">
        <path
           d="m 4.875,-2.46875 c 0,-0.078125 -0.078125,-0.15625 -0.171875,-0.15625 -0.15625,0 -0.171875,0.0625 -0.265625,0.359375 -0.4375,1.5625 -1.15625,2.09375 -1.71875,2.09375 -0.203125,0 -0.453125,-0.046875 -0.453125,-0.5625 0,-0.46875 0.21875,-0.984375 0.40625,-1.5 L 3.875,-5.4375 c 0.046875,-0.140625 0.171875,-0.453125 0.171875,-0.78125 0,-0.71875 -0.515625,-1.375 -1.359375,-1.375 -1.578125,0 -2.21875,2.5 -2.21875,2.640625 0,0.0625 0.0625,0.15625 0.1875,0.15625 0.15625,0 0.171875,-0.078125 0.234375,-0.3125 C 1.3125,-6.5625 1.96875,-7.25 2.640625,-7.25 c 0.15625,0 0.4375,0.015625 0.4375,0.5625 0,0.453125 -0.21875,1.015625 -0.359375,1.40625 L 1.515625,-2.078125 C 1.40625,-1.8125 1.3125,-1.53125 1.3125,-1.21875 c 0,0.765625 0.53125,1.390625 1.359375,1.390625 C 4.25,0.171875 4.875,-2.34375 4.875,-2.46875 Z M 4.734375,-10.75 c 0,-0.25 -0.203125,-0.5625 -0.578125,-0.5625 -0.40625,0 -0.84375,0.375 -0.84375,0.828125 0,0.421875 0.359375,0.5625 0.5625,0.5625 0.46875,0 0.859375,-0.4375 0.859375,-0.828125 z m 0,0"
           id="path5-1" />
      </g>
    </g>
  </g>
  <g
     inkscape:label=""
     transform="translate(52.396373,68.950586)"
     id="g7">
    <g
       fill="#000000"
       fill-opacity="1"
       id="g4-1-1"
       transform="matrix(0.352778,0,0,0.352778,-1.20469,-0.693738)">
      <g
         id="use3-1-1"
         transform="translate(1.993,13.279)">
        <path
           d="m 11.34375,-3.953125 c 0.296875,0 0.609375,0 0.609375,-0.359375 0,-0.34375 -0.3125,-0.34375 -0.609375,-0.34375 h -9.3125 c -0.296875,0 -0.609375,0 -0.609375,0.34375 0,0.359375 0.3125,0.359375 0.609375,0.359375 z m 0,0"
           id="path6" />
      </g>
    </g>
    <g
       fill="#000000"
       fill-opacity="1"
       id="g5"
       transform="matrix(0.352778,0,0,0.352778,-1.20469,-0.693738)">
      <g
         id="use4"
         transform="translate(15.383138,13.279)">
        <path
           d="m 6.703125,-7.046875 c -0.53125,0.109375 -0.8125,0.484375 -0.8125,0.859375 0,0.421875 0.328125,0.5625 0.5625,0.5625 0.484375,0 0.875,-0.421875 0.875,-0.9375 0,-0.546875 -0.53125,-1.03125 -1.390625,-1.03125 -0.6875,0 -1.484375,0.3125 -2.203125,1.359375 -0.125,-0.90625 -0.8125,-1.359375 -1.5,-1.359375 -0.671875,0 -1.015625,0.515625 -1.21875,0.890625 -0.296875,0.625 -0.546875,1.65625 -0.546875,1.75 0,0.0625 0.0625,0.15625 0.1875,0.15625 0.140625,0 0.15625,-0.03125 0.25,-0.421875 C 1.171875,-6.25 1.5,-7.25 2.1875,-7.25 c 0.40625,0 0.53125,0.296875 0.53125,0.796875 0,0.375 -0.171875,1.046875 -0.296875,1.578125 l -0.46875,1.859375 C 1.875,-2.6875 1.6875,-1.90625 1.59375,-1.59375 c -0.109375,0.4375 -0.296875,1.25 -0.296875,1.328125 0,0.25 0.1875,0.4375 0.4375,0.4375 0.1875,0 0.515625,-0.125 0.625,-0.46875 0.046875,-0.140625 0.6875,-2.734375 0.796875,-3.125 0.078125,-0.390625 0.1875,-0.75 0.265625,-1.125 C 3.5,-4.78125 3.5625,-5.0625 3.609375,-5.28125 3.671875,-5.4375 4.125,-6.28125 4.5625,-6.65625 4.765625,-6.859375 5.21875,-7.25 5.921875,-7.25 c 0.28125,0 0.546875,0.046875 0.78125,0.203125 z m 0,0"
           id="path7" />
      </g>
    </g>
    <g
       fill="#000000"
       fill-opacity="1"
       id="g6"
       transform="matrix(0.352778,0,0,0.352778,-1.20469,-0.693738)">
      <g
         id="use5"
         transform="translate(23.44511,13.279)">
        <path
           d="m 4.875,-2.46875 c 0,-0.078125 -0.078125,-0.15625 -0.171875,-0.15625 -0.15625,0 -0.171875,0.0625 -0.265625,0.359375 -0.4375,1.5625 -1.15625,2.09375 -1.71875,2.09375 -0.203125,0 -0.453125,-0.046875 -0.453125,-0.5625 0,-0.46875 0.21875,-0.984375 0.40625,-1.5 L 3.875,-5.4375 c 0.046875,-0.140625 0.171875,-0.453125 0.171875,-0.78125 0,-0.71875 -0.515625,-1.375 -1.359375,-1.375 -1.578125,0 -2.21875,2.5 -2.21875,2.640625 0,0.0625 0.0625,0.15625 0.1875,0.15625 0.15625,0 0.171875,-0.078125 0.234375,-0.3125 C 1.3125,-6.5625 1.96875,-7.25 2.640625,-7.25 c 0.15625,0 0.4375,0.015625 0.4375,0.5625 0,0.453125 -0.21875,1.015625 -0.359375,1.40625 L 1.515625,-2.078125 C 1.40625,-1.8125 1.3125,-1.53125 1.3125,-1.21875 c 0,0.765625 0.53125,1.390625 1.359375,1.390625 C 4.25,0.171875 4.875,-2.34375 4.875,-2.46875 Z M 4.734375,-10.75 c 0,-0.25 -0.203125,-0.5625 -0.578125,-0.5625 -0.40625,0 -0.84375,0.375 -0.84375,0.828125 0,0.421875 0.359375,0.5625 0.5625,0.5625 0.46875,0 0.859375,-0.4375 0.859375,-0.828125 z m 0,0"
           id="path8" />
      </g>
    </g>
  </g>
  <g
     inkscape:label=""
     transform="translate(25.885957,37.557098)"
     id="g8">
    <g
       fill="#000000"
       fill-opacity="1"
       id="g3-1-1"
       transform="matrix(0.352778,0,0,0.352778,-1.20469,-0.605014)">
      <g
         id="use2-1-1"
         transform="translate(1.993,13.09)">
        <path
           d="m 11.34375,-3.953125 c 0.296875,0 0.609375,0 0.609375,-0.359375 0,-0.34375 -0.3125,-0.34375 -0.609375,-0.34375 h -9.3125 c -0.296875,0 -0.609375,0 -0.609375,0.34375 0,0.359375 0.3125,0.359375 0.609375,0.359375 z m 0,0"
           id="path4-1-1-1" />
      </g>
    </g>
    <g
       fill="#000000"
       fill-opacity="1"
       id="g4-1-1-1"
       transform="matrix(0.352778,0,0,0.352778,-1.20469,-0.605014)">
      <g
         id="use3-1-1-1"
         transform="translate(15.383138,13.09)">
        <path
           d="M 7.1875,-2.671875 H 6.875 c -0.171875,1.21875 -0.3125,1.4375 -0.390625,1.53125 C 6.40625,-1 5.171875,-1 4.921875,-1 H 1.625 c 0.609375,-0.671875 1.8125,-1.890625 3.28125,-3.3125 1.046875,-0.984375 2.28125,-2.15625 2.28125,-3.859375 0,-2.03125 -1.625,-3.203125 -3.4375,-3.203125 -1.890625,0 -3.046875,1.65625 -3.046875,3.21875 0,0.671875 0.5,0.75 0.703125,0.75 0.171875,0 0.6875,-0.09375 0.6875,-0.703125 0,-0.53125 -0.4375,-0.6875 -0.6875,-0.6875 -0.09375,0 -0.203125,0.015625 -0.265625,0.046875 0.328125,-1.453125 1.328125,-2.1875 2.375,-2.1875 1.5,0 2.46875,1.1875 2.46875,2.765625 0,1.484375 -0.875,2.78125 -1.859375,3.90625 l -3.421875,3.875 V 0 h 6.0625 z m 0,0"
           id="path5-1-1" />
      </g>
    </g>
  </g>
  <g
     inkscape:label=""
     transform="translate(40.192441,37.751297)"
     id="g9">
    <g
       fill="#000000"
       fill-opacity="1"
       id="g3-1-1-1"
       transform="matrix(0.352778,0,0,0.352778,-1.20469,-0.605014)">
      <g
         id="use2-1-1-1"
         transform="translate(1.993,13.09)">
        <path
           d="m 11.34375,-3.953125 c 0.296875,0 0.609375,0 0.609375,-0.359375 0,-0.34375 -0.3125,-0.34375 -0.609375,-0.34375 h -9.3125 c -0.296875,0 -0.609375,0 -0.609375,0.34375 0,0.359375 0.3125,0.359375 0.609375,0.359375 z m 0,0"
           id="path4-1-1-1-1" />
      </g>
    </g>
    <g
       fill="#000000"
       fill-opacity="1"
       id="g4-1-1-1-1"
       transform="matrix(0.352778,0,0,0.352778,-1.20469,-0.605014)">
      <g
         id="use3-1-1-1-1"
         transform="translate(15.383138,13.09)">
        <path
           d="m 4.578125,-11 c 0,-0.359375 -0.015625,-0.375 -0.25,-0.375 -0.671875,0.796875 -1.6875,1.0625 -2.65625,1.09375 -0.046875,0 -0.140625,0 -0.15625,0.03125 C 1.5,-10.203125 1.5,-10.171875 1.5,-9.8125 c 0.53125,0 1.421875,-0.109375 2.109375,-0.515625 V -1.25 c 0,0.59375 -0.03125,0.796875 -1.515625,0.796875 H 1.578125 V 0 c 0.828125,-0.015625 1.6875,-0.03125 2.515625,-0.03125 0.828125,0 1.6875,0.015625 2.515625,0.03125 V -0.453125 H 6.09375 c -1.484375,0 -1.515625,-0.1875 -1.515625,-0.796875 z m 0,0"
           id="path5-1-1-1" />
      </g>
    </g>
  </g>
  <circle
     style="fill:#25731a;fill-opacity:1;stroke:#25751a;stroke-width:0.297174;stroke-linecap:round;stroke-linejoin:round;stroke-miterlimit:3.5;stroke-dashoffset:0.133039;stroke-opacity:1;paint-order:markers stroke fill"
     id="path9"
     cx="41.80323"
     cy="44.301769"
     r="0.61766517" />
  <ellipse
     style="fill:#25731a;fill-opacity:1;stroke:#25751a;stroke-width:0.288847;stroke-linecap:round;stroke-linejoin:round;stroke-miterlimit:3.5;stroke-dashoffset:0.133039;stroke-opacity:1;paint-order:markers stroke fill"
     id="path9-3"
     cx="29.821623"
     cy="44.216511"
     rx="0.57963103"
     ry="0.62182838" />
</svg>
